<svg xmlns="http://www.w3.org/2000/svg" width="300" viewBox="0 0 224.88 225" height="300" version="1.0"><defs><clipPath id="a"><path d="M62.285 22.547H162.73v112.441H62.285Zm0 0"/></clipPath></defs><g clip-path="url(#a)"><path fill="#0277bd" d="M162.715 22.547H62.297l8.86 100.605 41.35 11.836 41.348-11.836Zm0 0"/></g><path fill="#039be5" d="M112.508 31.426v94.39l33.078-9.468 7.383-84.922Zm0 0"/><path fill="#fff" d="M139.383 46.219h-26.875v11.836h14.472l-.886 11.836h-13.586v11.836h12.996l-.887 13.316-12.11 4.14v12.43l23.333-7.695 2.066-34.027Zm0 0"/><path fill="#eee" d="M112.508 46.219v11.836h-26.29l-.882-11.836ZM98.922 69.89l.59 11.836h12.996V69.89Zm1.18 17.754H88.289l.887 16.273 23.332 7.695v-12.43l-12.11-4.14Zm0 0"/><path d="M91.061 184.075a8.31 8.31 0 0 1-.234-.953 15.65 15.65 0 0 1-.157-1.625 67.84 67.84 0 0 1-.093-2.86c-.012-1.206-.016-2.788-.016-4.75 0-1.968.004-3.55.016-4.75.02-1.206.05-2.163.093-2.874.04-.707.094-1.238.157-1.594.07-.363.148-.691.234-.984.438-1.313 1.145-2.32 2.125-3.031.988-.72 2.274-1.079 3.86-1.079 1.82 0 3.265.508 4.328 1.516 1.07 1.012 1.703 2.586 1.89 4.719.031.273-.078.433-.328.484l-2.328.453c-.305.063-.453-.047-.453-.328-.188-2.476-1.215-3.719-3.078-3.719-1.45 0-2.375.641-2.782 1.922-.054.188-.109.422-.171.703-.055.274-.094.72-.125 1.344-.024.625-.043 1.508-.063 2.64a478.24 478.24 0 0 0-.016 4.579c0 1.937.004 3.469.016 4.594.02 1.117.04 1.984.063 2.61.03.624.07 1.077.125 1.358.062.274.117.5.171.688.407 1.281 1.333 1.922 2.782 1.922 1.863 0 2.89-1.238 3.078-3.719 0-.27.148-.379.453-.328l2.328.453c.25.055.36.215.328.484-.187 2.137-.82 3.711-1.89 4.72-1.063 1.01-2.508 1.515-4.329 1.515-1.585 0-2.87-.356-3.859-1.063-.98-.718-1.687-1.734-2.125-3.047ZM118.67 179.95c0 2.813-.495 4.891-1.484 6.235-.98 1.336-2.64 2-4.984 2-4.18 0-6.367-2.39-6.562-7.172 0-.27.109-.422.328-.453l2.422-.453c.3-.051.453.074.453.375.082 1.718.398 2.93.953 3.625.562.699 1.379 1.047 2.453 1.047 1.062 0 1.844-.329 2.344-.985.507-.656.765-1.926.765-3.812 0-.79-.043-1.473-.125-2.047-.086-.57-.234-1.055-.453-1.453a3.068 3.068 0 0 0-.89-1 5.839 5.839 0 0 0-1.36-.75l-1.687-.657c-.95-.351-1.743-.753-2.375-1.203a5.628 5.628 0 0 1-1.5-1.547c-.368-.593-.625-1.289-.782-2.093-.148-.813-.218-1.75-.218-2.813 0-4.812 2.078-7.219 6.234-7.219 2.102 0 3.648.563 4.64 1.688 1 1.117 1.555 2.766 1.673 4.953 0 .274-.125.422-.375.453l-2.297.375c-.137.055-.246.047-.328-.015-.086-.07-.125-.176-.125-.313-.055-1.394-.32-2.426-.797-3.094-.48-.675-1.25-1.015-2.313-1.015-1.031 0-1.797.324-2.297.968-.492.649-.734 1.68-.734 3.094 0 .711.047 1.32.14 1.828.094.5.25.93.47 1.282.218.355.507.656.874.906.375.25.848.484 1.422.703l1.688.656c.894.356 1.648.75 2.265 1.188a5.591 5.591 0 0 1 1.5 1.578c.383.617.657 1.34.813 2.172.164.824.25 1.812.25 2.968ZM134.731 179.95c0 2.813-.496 4.891-1.484 6.235-.98 1.336-2.64 2-4.985 2-4.18 0-6.367-2.39-6.562-7.172 0-.27.11-.422.328-.453l2.422-.453c.3-.051.453.074.453.375.082 1.718.398 2.93.953 3.625.563.699 1.38 1.047 2.453 1.047 1.063 0 1.844-.329 2.344-.985.508-.656.766-1.926.766-3.812 0-.79-.043-1.473-.125-2.047-.086-.57-.235-1.055-.453-1.453a3.068 3.068 0 0 0-.891-1 5.839 5.839 0 0 0-1.36-.75l-1.687-.657c-.95-.351-1.742-.753-2.375-1.203a5.628 5.628 0 0 1-1.5-1.547c-.367-.593-.625-1.289-.781-2.093-.149-.813-.219-1.75-.219-2.813 0-4.812 2.078-7.219 6.234-7.219 2.102 0 3.649.563 4.641 1.688 1 1.117 1.555 2.766 1.672 4.953 0 .274-.125.422-.375.453l-2.297.375c-.137.055-.246.047-.328-.015-.086-.07-.125-.176-.125-.313-.055-1.394-.32-2.426-.797-3.094-.48-.675-1.25-1.015-2.312-1.015-1.032 0-1.797.324-2.297.968-.493.649-.735 1.68-.735 3.094 0 .711.047 1.32.14 1.828.095.5.25.93.47 1.282.218.355.507.656.875.906.375.25.847.484 1.422.703l1.687.656c.895.356 1.648.75 2.266 1.188a5.591 5.591 0 0 1 1.5 1.578c.382.617.656 1.34.812 2.172.164.824.25 1.812.25 2.968Zm0 0" fill="#049be5"/></svg>