<svg xmlns="http://www.w3.org/2000/svg" xmlns:xlink="http://www.w3.org/1999/xlink" width="300" zoomAndPan="magnify" viewBox="0 0 224.87999 225" height="300" preserveAspectRatio="xMidYMid meet" version="1.0"><defs><g/><clipPath id="9768e82535"><path d="M 62.285156 22.546875 L 162.730469 22.546875 L 162.730469 134.988281 L 62.285156 134.988281 Z M 62.285156 22.546875 " clip-rule="nonzero"/></clipPath></defs><g clip-path="url(#9768e82535)"><path fill="#0277bd" d="M 162.714844 22.546875 L 62.296875 22.546875 L 71.15625 123.152344 L 112.507812 134.988281 L 153.855469 123.152344 Z M 162.714844 22.546875 " fill-opacity="1" fill-rule="nonzero"/></g><path fill="#039be5" d="M 112.507812 31.425781 L 112.507812 125.816406 L 145.585938 116.347656 L 152.96875 31.425781 Z M 112.507812 31.425781 " fill-opacity="1" fill-rule="nonzero"/><path fill="#ffffff" d="M 139.382812 46.21875 L 112.507812 46.21875 L 112.507812 58.054688 L 126.980469 58.054688 L 126.09375 69.890625 L 112.507812 69.890625 L 112.507812 81.726562 L 125.503906 81.726562 L 124.617188 95.042969 L 112.507812 99.183594 L 112.507812 111.613281 L 135.839844 103.917969 L 137.90625 69.890625 Z M 139.382812 46.21875 " fill-opacity="1" fill-rule="nonzero"/><path fill="#eeeeee" d="M 112.507812 46.21875 L 112.507812 58.054688 L 86.21875 58.054688 L 85.335938 46.21875 Z M 98.921875 69.890625 L 99.511719 81.726562 L 112.507812 81.726562 L 112.507812 69.890625 Z M 100.101562 87.644531 L 88.289062 87.644531 L 89.175781 103.917969 L 112.507812 111.613281 L 112.507812 99.183594 L 100.398438 95.042969 Z M 100.101562 87.644531 " fill-opacity="1" fill-rule="nonzero"/><g fill="#049be5" fill-opacity="1"><g transform="translate(88.561096, 187.809821)"><g><path d="M 2.5 -3.734375 C 2.414062 -4.003906 2.335938 -4.320312 2.265625 -4.6875 C 2.203125 -5.0625 2.148438 -5.601562 2.109375 -6.3125 C 2.066406 -7.019531 2.035156 -7.972656 2.015625 -9.171875 C 2.003906 -10.378906 2 -11.960938 2 -13.921875 C 2 -15.890625 2.003906 -17.472656 2.015625 -18.671875 C 2.035156 -19.878906 2.066406 -20.835938 2.109375 -21.546875 C 2.148438 -22.253906 2.203125 -22.785156 2.265625 -23.140625 C 2.335938 -23.503906 2.414062 -23.832031 2.5 -24.125 C 2.9375 -25.4375 3.644531 -26.445312 4.625 -27.15625 C 5.613281 -27.875 6.898438 -28.234375 8.484375 -28.234375 C 10.304688 -28.234375 11.75 -27.726562 12.8125 -26.71875 C 13.882812 -25.707031 14.515625 -24.132812 14.703125 -22 C 14.734375 -21.726562 14.625 -21.566406 14.375 -21.515625 L 12.046875 -21.0625 C 11.742188 -21 11.59375 -21.109375 11.59375 -21.390625 C 11.40625 -23.867188 10.378906 -25.109375 8.515625 -25.109375 C 7.066406 -25.109375 6.140625 -24.46875 5.734375 -23.1875 C 5.679688 -23 5.625 -22.765625 5.5625 -22.484375 C 5.507812 -22.210938 5.46875 -21.765625 5.4375 -21.140625 C 5.414062 -20.515625 5.394531 -19.632812 5.375 -18.5 C 5.363281 -17.363281 5.359375 -15.835938 5.359375 -13.921875 C 5.359375 -11.984375 5.363281 -10.453125 5.375 -9.328125 C 5.394531 -8.210938 5.414062 -7.34375 5.4375 -6.71875 C 5.46875 -6.09375 5.507812 -5.640625 5.5625 -5.359375 C 5.625 -5.085938 5.679688 -4.859375 5.734375 -4.671875 C 6.140625 -3.390625 7.066406 -2.75 8.515625 -2.75 C 10.378906 -2.75 11.40625 -3.988281 11.59375 -6.46875 C 11.59375 -6.738281 11.742188 -6.847656 12.046875 -6.796875 L 14.375 -6.34375 C 14.625 -6.289062 14.734375 -6.128906 14.703125 -5.859375 C 14.515625 -3.722656 13.882812 -2.148438 12.8125 -1.140625 C 11.75 -0.128906 10.304688 0.375 8.484375 0.375 C 6.898438 0.375 5.613281 0.0195312 4.625 -0.6875 C 3.644531 -1.40625 2.9375 -2.421875 2.5 -3.734375 Z M 2.5 -3.734375 "/></g></g></g><g fill="#049be5" fill-opacity="1"><g transform="translate(104.170792, 187.809821)"><g><path d="M 14.5 -7.859375 C 14.5 -5.046875 14.003906 -2.96875 13.015625 -1.625 C 12.035156 -0.289062 10.375 0.375 8.03125 0.375 C 3.851562 0.375 1.664062 -2.015625 1.46875 -6.796875 C 1.46875 -7.066406 1.578125 -7.21875 1.796875 -7.25 L 4.21875 -7.703125 C 4.519531 -7.753906 4.671875 -7.628906 4.671875 -7.328125 C 4.753906 -5.609375 5.070312 -4.398438 5.625 -3.703125 C 6.1875 -3.003906 7.003906 -2.65625 8.078125 -2.65625 C 9.140625 -2.65625 9.921875 -2.984375 10.421875 -3.640625 C 10.929688 -4.296875 11.1875 -5.566406 11.1875 -7.453125 C 11.1875 -8.242188 11.144531 -8.925781 11.0625 -9.5 C 10.976562 -10.070312 10.828125 -10.554688 10.609375 -10.953125 C 10.390625 -11.347656 10.09375 -11.679688 9.71875 -11.953125 C 9.351562 -12.234375 8.898438 -12.484375 8.359375 -12.703125 L 6.671875 -13.359375 C 5.722656 -13.710938 4.929688 -14.113281 4.296875 -14.5625 C 3.671875 -15.007812 3.171875 -15.523438 2.796875 -16.109375 C 2.429688 -16.703125 2.171875 -17.398438 2.015625 -18.203125 C 1.867188 -19.015625 1.796875 -19.953125 1.796875 -21.015625 C 1.796875 -25.828125 3.875 -28.234375 8.03125 -28.234375 C 10.132812 -28.234375 11.679688 -27.671875 12.671875 -26.546875 C 13.671875 -25.429688 14.226562 -23.78125 14.34375 -21.59375 C 14.34375 -21.320312 14.21875 -21.171875 13.96875 -21.140625 L 11.671875 -20.765625 C 11.535156 -20.710938 11.425781 -20.71875 11.34375 -20.78125 C 11.257812 -20.851562 11.21875 -20.957031 11.21875 -21.09375 C 11.164062 -22.488281 10.898438 -23.519531 10.421875 -24.1875 C 9.941406 -24.863281 9.171875 -25.203125 8.109375 -25.203125 C 7.078125 -25.203125 6.3125 -24.878906 5.8125 -24.234375 C 5.320312 -23.585938 5.078125 -22.554688 5.078125 -21.140625 C 5.078125 -20.429688 5.125 -19.820312 5.21875 -19.3125 C 5.3125 -18.8125 5.46875 -18.382812 5.6875 -18.03125 C 5.90625 -17.675781 6.195312 -17.375 6.5625 -17.125 C 6.9375 -16.875 7.410156 -16.640625 7.984375 -16.421875 L 9.671875 -15.765625 C 10.566406 -15.410156 11.320312 -15.015625 11.9375 -14.578125 C 12.550781 -14.140625 13.050781 -13.613281 13.4375 -13 C 13.820312 -12.382812 14.09375 -11.660156 14.25 -10.828125 C 14.414062 -10.003906 14.5 -9.015625 14.5 -7.859375 Z M 14.5 -7.859375 "/></g></g></g><g fill="#049be5" fill-opacity="1"><g transform="translate(120.231167, 187.809821)"><g><path d="M 14.5 -7.859375 C 14.5 -5.046875 14.003906 -2.96875 13.015625 -1.625 C 12.035156 -0.289062 10.375 0.375 8.03125 0.375 C 3.851562 0.375 1.664062 -2.015625 1.46875 -6.796875 C 1.46875 -7.066406 1.578125 -7.21875 1.796875 -7.25 L 4.21875 -7.703125 C 4.519531 -7.753906 4.671875 -7.628906 4.671875 -7.328125 C 4.753906 -5.609375 5.070312 -4.398438 5.625 -3.703125 C 6.1875 -3.003906 7.003906 -2.65625 8.078125 -2.65625 C 9.140625 -2.65625 9.921875 -2.984375 10.421875 -3.640625 C 10.929688 -4.296875 11.1875 -5.566406 11.1875 -7.453125 C 11.1875 -8.242188 11.144531 -8.925781 11.0625 -9.5 C 10.976562 -10.070312 10.828125 -10.554688 10.609375 -10.953125 C 10.390625 -11.347656 10.09375 -11.679688 9.71875 -11.953125 C 9.351562 -12.234375 8.898438 -12.484375 8.359375 -12.703125 L 6.671875 -13.359375 C 5.722656 -13.710938 4.929688 -14.113281 4.296875 -14.5625 C 3.671875 -15.007812 3.171875 -15.523438 2.796875 -16.109375 C 2.429688 -16.703125 2.171875 -17.398438 2.015625 -18.203125 C 1.867188 -19.015625 1.796875 -19.953125 1.796875 -21.015625 C 1.796875 -25.828125 3.875 -28.234375 8.03125 -28.234375 C 10.132812 -28.234375 11.679688 -27.671875 12.671875 -26.546875 C 13.671875 -25.429688 14.226562 -23.78125 14.34375 -21.59375 C 14.34375 -21.320312 14.21875 -21.171875 13.96875 -21.140625 L 11.671875 -20.765625 C 11.535156 -20.710938 11.425781 -20.71875 11.34375 -20.78125 C 11.257812 -20.851562 11.21875 -20.957031 11.21875 -21.09375 C 11.164062 -22.488281 10.898438 -23.519531 10.421875 -24.1875 C 9.941406 -24.863281 9.171875 -25.203125 8.109375 -25.203125 C 7.078125 -25.203125 6.3125 -24.878906 5.8125 -24.234375 C 5.320312 -23.585938 5.078125 -22.554688 5.078125 -21.140625 C 5.078125 -20.429688 5.125 -19.820312 5.21875 -19.3125 C 5.3125 -18.8125 5.46875 -18.382812 5.6875 -18.03125 C 5.90625 -17.675781 6.195312 -17.375 6.5625 -17.125 C 6.9375 -16.875 7.410156 -16.640625 7.984375 -16.421875 L 9.671875 -15.765625 C 10.566406 -15.410156 11.320312 -15.015625 11.9375 -14.578125 C 12.550781 -14.140625 13.050781 -13.613281 13.4375 -13 C 13.820312 -12.382812 14.09375 -11.660156 14.25 -10.828125 C 14.414062 -10.003906 14.5 -9.015625 14.5 -7.859375 Z M 14.5 -7.859375 "/></g></g></g></svg>