<svg xmlns="http://www.w3.org/2000/svg" width="300" viewBox="0 0 224.88 225" height="300" version="1.0"><defs><clipPath id="a"><path d="M56.133 22.547h112.441v112.441H56.133Zm0 0"/></clipPath></defs><g clip-path="url(#a)"><path fill="#f03c2e" d="m166.45 73.762-49.09-49.09a7.177 7.177 0 0 0-2.348-1.57 7.1 7.1 0 0 0-2.77-.551 7.141 7.141 0 0 0-2.773.55 6.99 6.99 0 0 0-1.25.669 7.37 7.37 0 0 0-1.098.902L96.93 34.859l12.933 12.93c3.008-1.05 6.45-.332 8.848 2.063a8.63 8.63 0 0 1 2.297 4.16c.18.785.25 1.582.207 2.386a8.632 8.632 0 0 1-.465 2.356l12.465 12.465c3.015-1.043 6.492-.371 8.898 2.043a8.595 8.595 0 0 1 1.871 2.797c.215.523.38 1.062.493 1.617a8.652 8.652 0 0 1-.493 4.98 8.257 8.257 0 0 1-.797 1.489 8.6 8.6 0 0 1-1.07 1.308 8.6 8.6 0 0 1-1.308 1.07 8.257 8.257 0 0 1-1.489.797 8.984 8.984 0 0 1-1.617.493 8.692 8.692 0 0 1-1.683.164 8.362 8.362 0 0 1-1.68-.168 8.232 8.232 0 0 1-1.617-.493 8.57 8.57 0 0 1-2.797-1.867 8.623 8.623 0 0 1-1.875-9.37l-11.625-11.626V95.04c.847.422 1.61.965 2.285 1.633.398.398.758.832 1.07 1.305.313.468.578.964.797 1.488.215.523.379 1.062.488 1.617a8.39 8.39 0 0 1 .168 1.68 8.4 8.4 0 0 1-.168 1.683 8.668 8.668 0 0 1-.488 1.618 8.93 8.93 0 0 1-.797 1.488 8.57 8.57 0 0 1-2.379 2.379 8.492 8.492 0 0 1-1.488.793 8.396 8.396 0 0 1-1.617.492 8.652 8.652 0 0 1-6.469-1.285 8.79 8.79 0 0 1-2.379-2.38 8.779 8.779 0 0 1-.797-1.487 8.668 8.668 0 0 1-.488-1.618 8.4 8.4 0 0 1-.168-1.683c0-.563.055-1.125.168-1.68.11-.555.273-1.094.488-1.617a8.636 8.636 0 0 1 1.871-2.793c.832-.832 1.758-1.461 2.82-1.883V63.918a8.576 8.576 0 0 1-2.82-1.879A8.584 8.584 0 0 1 105.012 60a8.667 8.667 0 0 1-.852-2.387 8.625 8.625 0 0 1 .508-4.996L91.914 39.871l-33.66 33.625c-.34.336-.64.703-.902 1.098a7.16 7.16 0 0 0-1.082 2.613 7.135 7.135 0 0 0 0 2.824c.09.469.23.922.41 1.36.183.437.406.855.672 1.254.261.394.562.757.902 1.093l49.094 49.09c.336.336.699.637 1.093.899.399.265.813.488 1.254.671a7.378 7.378 0 0 0 2.77.551c.476 0 .945-.047 1.414-.14.465-.094.918-.23 1.36-.41a7.267 7.267 0 0 0 1.25-.672 7.111 7.111 0 0 0 1.097-.899l48.863-48.789c.34-.336.64-.703.903-1.098a7.16 7.16 0 0 0 1.082-2.609 7.174 7.174 0 0 0 0-2.828 7.26 7.26 0 0 0-.41-1.36 7.267 7.267 0 0 0-.672-1.25 6.746 6.746 0 0 0-.903-1.097"/></g><path d="M97.51 184.499a5.82 5.82 0 0 1-.28-.984 14.186 14.186 0 0 1-.157-1.579 66.24 66.24 0 0 1-.094-2.843c-.011-1.207-.015-2.79-.015-4.75 0-1.97.004-3.551.015-4.75a66.9 66.9 0 0 1 .094-2.86c.04-.695.094-1.222.156-1.578.07-.351.164-.68.282-.984.437-1.332 1.164-2.352 2.187-3.063 1.02-.718 2.32-1.078 3.906-1.078 1.938 0 3.446.524 4.532 1.563 1.082 1.043 1.734 2.547 1.953 4.515.05.293-.047.453-.297.485l-2.297.453c-.274.023-.434-.086-.484-.328-.137-1.145-.48-2.024-1.032-2.641-.543-.613-1.32-.922-2.328-.922-.742 0-1.367.172-1.875.516-.5.336-.86.82-1.078 1.453a3.318 3.318 0 0 0-.187.703c-.043.242-.079.668-.11 1.281a138.97 138.97 0 0 0-.062 2.625 479.741 479.741 0 0 0-.016 4.61c0 1.937.004 3.476.016 4.609.02 1.125.039 1.996.062 2.61.031.617.067 1.054.11 1.312.039.262.101.484.187.672.219.636.586 1.125 1.11 1.469.519.335 1.144.5 1.874.5.739 0 1.368-.165 1.891-.5.52-.344.89-.833 1.11-1.47.05-.187.101-.394.156-.624.062-.227.101-.586.125-1.078.03-.5.05-1.172.062-2.016.008-.844.016-1.977.016-3.406 0-.156-.078-.235-.235-.235h-2.75c-.273 0-.406-.14-.406-.421v-2.172c0-.27.133-.407.406-.407h5.782c.27 0 .406.137.406.407v1.187c0 1.867-.012 3.367-.031 4.5a59.546 59.546 0 0 1-.078 2.703c-.032.668-.086 1.18-.157 1.532a8.523 8.523 0 0 1-.265.984c-.407 1.336-1.133 2.36-2.172 3.078-1.043.707-2.356 1.063-3.938 1.063-1.586 0-2.886-.356-3.906-1.063-1.023-.719-1.75-1.742-2.187-3.078ZM114.705 164.17c-.274 0-.407-.132-.407-.405v-2.954c0-.27.133-.406.407-.406h2.593c.27 0 .407.137.407.406v2.954c0 .273-.137.406-.407.406Zm.125 24.095c-.274 0-.407-.133-.407-.407v-18.812c0-.27.133-.406.407-.406h2.343c.27 0 .407.136.407.406v18.812c0 .274-.137.407-.407.407ZM127.252 188.468c-1.5 0-2.593-.36-3.28-1.078-.688-.727-1.032-1.926-1.032-3.594V171.39c0-.165-.078-.25-.234-.25h-1.188c-.281 0-.422-.133-.422-.407v-1.687c0-.27.14-.406.422-.406h1.188c.156 0 .234-.083.234-.25v-5.532c0-.27.14-.406.422-.406h2.328c.27 0 .406.137.406.406v5.532c0 .167.082.25.25.25h1.922c.27 0 .406.136.406.406v1.687c0 .274-.136.407-.406.407h-1.922c-.168 0-.25.085-.25.25v12.375c0 1.148.547 1.718 1.64 1.718h.532c.27 0 .406.137.406.407v2.171c0 .27-.136.407-.406.407Zm0 0" fill="#ff9890"/></svg>