<svg xmlns="http://www.w3.org/2000/svg" xmlns:xlink="http://www.w3.org/1999/xlink" width="300" zoomAndPan="magnify" viewBox="0 0 224.87999 225" height="300" preserveAspectRatio="xMidYMid meet" version="1.0"><defs><g/><clipPath id="e11734e5a1"><path d="M 56.132812 22.546875 L 168.574219 22.546875 L 168.574219 134.988281 L 56.132812 134.988281 Z M 56.132812 22.546875 " clip-rule="nonzero"/></clipPath></defs><g clip-path="url(#e11734e5a1)"><path fill="#f03c2e" d="M 166.449219 73.761719 L 117.359375 24.671875 C 117.023438 24.335938 116.660156 24.035156 116.261719 23.769531 C 115.867188 23.503906 115.449219 23.28125 115.011719 23.101562 C 114.574219 22.917969 114.121094 22.78125 113.652344 22.6875 C 113.1875 22.59375 112.714844 22.550781 112.242188 22.550781 C 111.765625 22.550781 111.292969 22.59375 110.828125 22.6875 C 110.363281 22.78125 109.910156 22.917969 109.46875 23.101562 C 109.03125 23.28125 108.613281 23.503906 108.21875 23.769531 C 107.824219 24.035156 107.457031 24.335938 107.121094 24.671875 L 96.929688 34.859375 L 109.863281 47.789062 C 112.871094 46.738281 116.3125 47.457031 118.710938 49.851562 C 119.28125 50.425781 119.761719 51.0625 120.152344 51.769531 C 120.542969 52.476562 120.828125 53.222656 121.007812 54.011719 C 121.1875 54.796875 121.257812 55.59375 121.214844 56.398438 C 121.167969 57.207031 121.015625 57.992188 120.75 58.753906 L 133.214844 71.21875 C 136.230469 70.175781 139.707031 70.847656 142.113281 73.261719 C 142.515625 73.660156 142.871094 74.097656 143.1875 74.566406 C 143.5 75.039062 143.769531 75.535156 143.984375 76.058594 C 144.199219 76.582031 144.363281 77.121094 144.476562 77.675781 C 144.585938 78.230469 144.640625 78.789062 144.640625 79.355469 C 144.640625 79.921875 144.585938 80.484375 144.476562 81.039062 C 144.363281 81.59375 144.203125 82.132812 143.984375 82.65625 C 143.769531 83.179688 143.503906 83.675781 143.1875 84.144531 C 142.875 84.617188 142.515625 85.050781 142.117188 85.453125 C 141.714844 85.851562 141.28125 86.210938 140.808594 86.523438 C 140.339844 86.839844 139.84375 87.105469 139.320312 87.320312 C 138.796875 87.535156 138.257812 87.699219 137.703125 87.8125 C 137.148438 87.921875 136.585938 87.976562 136.019531 87.976562 C 135.453125 87.976562 134.894531 87.921875 134.339844 87.808594 C 133.78125 87.699219 133.242188 87.535156 132.722656 87.316406 C 132.199219 87.101562 131.703125 86.835938 131.230469 86.519531 C 130.761719 86.207031 130.324219 85.847656 129.925781 85.449219 C 127.394531 82.917969 126.769531 79.191406 128.050781 76.078125 L 116.425781 64.453125 L 116.425781 95.039062 C 117.273438 95.460938 118.035156 96.003906 118.710938 96.671875 C 119.109375 97.070312 119.46875 97.503906 119.78125 97.976562 C 120.09375 98.445312 120.359375 98.941406 120.578125 99.464844 C 120.792969 99.988281 120.957031 100.527344 121.066406 101.082031 C 121.179688 101.636719 121.234375 102.199219 121.234375 102.761719 C 121.234375 103.328125 121.179688 103.890625 121.066406 104.445312 C 120.957031 105 120.792969 105.539062 120.578125 106.0625 C 120.359375 106.582031 120.09375 107.082031 119.78125 107.550781 C 119.46875 108.019531 119.109375 108.457031 118.710938 108.855469 C 118.308594 109.257812 117.875 109.613281 117.402344 109.929688 C 116.933594 110.242188 116.4375 110.507812 115.914062 110.722656 C 115.390625 110.941406 114.851562 111.105469 114.296875 111.214844 C 113.742188 111.324219 113.183594 111.378906 112.617188 111.378906 C 112.050781 111.378906 111.492188 111.324219 110.9375 111.214844 C 110.382812 111.105469 109.84375 110.941406 109.320312 110.722656 C 108.796875 110.507812 108.300781 110.242188 107.828125 109.929688 C 107.359375 109.613281 106.925781 109.257812 106.523438 108.855469 C 106.125 108.457031 105.765625 108.019531 105.449219 107.550781 C 105.136719 107.082031 104.871094 106.585938 104.652344 106.0625 C 104.4375 105.539062 104.273438 105 104.164062 104.445312 C 104.050781 103.890625 103.996094 103.328125 103.996094 102.761719 C 103.996094 102.199219 104.050781 101.636719 104.164062 101.082031 C 104.273438 100.527344 104.4375 99.988281 104.652344 99.464844 C 104.871094 98.941406 105.136719 98.445312 105.449219 97.976562 C 105.765625 97.503906 106.125 97.070312 106.523438 96.671875 C 107.355469 95.839844 108.28125 95.210938 109.34375 94.789062 L 109.34375 63.917969 C 108.320312 63.496094 107.355469 62.875 106.523438 62.039062 C 105.917969 61.433594 105.414062 60.753906 105.011719 60 C 104.609375 59.246094 104.328125 58.449219 104.160156 57.613281 C 103.996094 56.773438 103.957031 55.929688 104.042969 55.078125 C 104.128906 54.226562 104.339844 53.40625 104.667969 52.617188 L 91.914062 39.871094 L 58.253906 73.496094 C 57.914062 73.832031 57.613281 74.199219 57.351562 74.59375 C 57.085938 74.988281 56.863281 75.40625 56.679688 75.847656 C 56.5 76.285156 56.359375 76.738281 56.269531 77.207031 C 56.175781 77.671875 56.128906 78.144531 56.128906 78.617188 C 56.128906 79.09375 56.175781 79.566406 56.269531 80.03125 C 56.359375 80.5 56.5 80.953125 56.679688 81.390625 C 56.863281 81.828125 57.085938 82.246094 57.351562 82.644531 C 57.613281 83.039062 57.914062 83.402344 58.253906 83.738281 L 107.347656 132.828125 C 107.683594 133.164062 108.046875 133.464844 108.441406 133.726562 C 108.839844 133.992188 109.253906 134.214844 109.695312 134.398438 C 110.132812 134.578125 110.585938 134.714844 111.054688 134.808594 C 111.519531 134.902344 111.992188 134.949219 112.464844 134.949219 C 112.941406 134.949219 113.410156 134.902344 113.878906 134.808594 C 114.34375 134.714844 114.796875 134.578125 115.238281 134.398438 C 115.675781 134.214844 116.09375 133.992188 116.488281 133.726562 C 116.882812 133.464844 117.25 133.164062 117.585938 132.828125 L 166.449219 84.039062 C 166.789062 83.703125 167.089844 83.335938 167.351562 82.941406 C 167.617188 82.546875 167.839844 82.128906 168.023438 81.6875 C 168.203125 81.25 168.34375 80.796875 168.433594 80.332031 C 168.527344 79.863281 168.574219 79.394531 168.574219 78.917969 C 168.574219 78.441406 168.527344 77.96875 168.433594 77.503906 C 168.34375 77.039062 168.203125 76.585938 168.023438 76.144531 C 167.839844 75.707031 167.617188 75.289062 167.351562 74.894531 C 167.089844 74.496094 166.789062 74.132812 166.449219 73.796875 " fill-opacity="1" fill-rule="nonzero"/></g><g fill="#ff9890" fill-opacity="1"><g transform="translate(94.963675, 188.264529)"><g><path d="M 2.546875 -3.765625 C 2.429688 -4.066406 2.335938 -4.394531 2.265625 -4.75 C 2.203125 -5.101562 2.148438 -5.628906 2.109375 -6.328125 C 2.066406 -7.023438 2.035156 -7.972656 2.015625 -9.171875 C 2.003906 -10.378906 2 -11.960938 2 -13.921875 C 2 -15.890625 2.003906 -17.472656 2.015625 -18.671875 C 2.035156 -19.878906 2.066406 -20.832031 2.109375 -21.53125 C 2.148438 -22.226562 2.203125 -22.753906 2.265625 -23.109375 C 2.335938 -23.460938 2.429688 -23.789062 2.546875 -24.09375 C 2.984375 -25.425781 3.710938 -26.445312 4.734375 -27.15625 C 5.753906 -27.875 7.054688 -28.234375 8.640625 -28.234375 C 10.578125 -28.234375 12.085938 -27.710938 13.171875 -26.671875 C 14.253906 -25.628906 14.90625 -24.125 15.125 -22.15625 C 15.175781 -21.863281 15.078125 -21.703125 14.828125 -21.671875 L 12.53125 -21.21875 C 12.257812 -21.195312 12.097656 -21.304688 12.046875 -21.546875 C 11.910156 -22.691406 11.566406 -23.570312 11.015625 -24.1875 C 10.472656 -24.800781 9.695312 -25.109375 8.6875 -25.109375 C 7.945312 -25.109375 7.320312 -24.9375 6.8125 -24.59375 C 6.3125 -24.257812 5.953125 -23.773438 5.734375 -23.140625 C 5.648438 -22.921875 5.585938 -22.6875 5.546875 -22.4375 C 5.503906 -22.195312 5.46875 -21.769531 5.4375 -21.15625 C 5.414062 -20.539062 5.394531 -19.664062 5.375 -18.53125 C 5.363281 -17.40625 5.359375 -15.867188 5.359375 -13.921875 C 5.359375 -11.984375 5.363281 -10.445312 5.375 -9.3125 C 5.394531 -8.1875 5.414062 -7.316406 5.4375 -6.703125 C 5.46875 -6.085938 5.503906 -5.648438 5.546875 -5.390625 C 5.585938 -5.128906 5.648438 -4.90625 5.734375 -4.71875 C 5.953125 -4.082031 6.320312 -3.59375 6.84375 -3.25 C 7.363281 -2.914062 7.988281 -2.75 8.71875 -2.75 C 9.457031 -2.75 10.085938 -2.914062 10.609375 -3.25 C 11.128906 -3.59375 11.5 -4.082031 11.71875 -4.71875 C 11.769531 -4.90625 11.820312 -5.113281 11.875 -5.34375 C 11.9375 -5.570312 11.976562 -5.929688 12 -6.421875 C 12.03125 -6.921875 12.050781 -7.59375 12.0625 -8.4375 C 12.070312 -9.28125 12.078125 -10.414062 12.078125 -11.84375 C 12.078125 -12 12 -12.078125 11.84375 -12.078125 L 9.09375 -12.078125 C 8.820312 -12.078125 8.6875 -12.21875 8.6875 -12.5 L 8.6875 -14.671875 C 8.6875 -14.941406 8.820312 -15.078125 9.09375 -15.078125 L 14.875 -15.078125 C 15.144531 -15.078125 15.28125 -14.941406 15.28125 -14.671875 L 15.28125 -13.484375 C 15.28125 -11.617188 15.269531 -10.117188 15.25 -8.984375 C 15.238281 -7.859375 15.210938 -6.957031 15.171875 -6.28125 C 15.140625 -5.613281 15.085938 -5.101562 15.015625 -4.75 C 14.941406 -4.394531 14.851562 -4.066406 14.75 -3.765625 C 14.34375 -2.429688 13.617188 -1.40625 12.578125 -0.6875 C 11.535156 0.0195312 10.222656 0.375 8.640625 0.375 C 7.054688 0.375 5.753906 0.0195312 4.734375 -0.6875 C 3.710938 -1.40625 2.984375 -2.429688 2.546875 -3.765625 Z M 2.546875 -3.765625 "/></g></g></g><g fill="#ff9890" fill-opacity="1"><g transform="translate(112.048299, 188.264529)"><g><path d="M 2.65625 -24.09375 C 2.382812 -24.09375 2.25 -24.226562 2.25 -24.5 L 2.25 -27.453125 C 2.25 -27.722656 2.382812 -27.859375 2.65625 -27.859375 L 5.25 -27.859375 C 5.519531 -27.859375 5.65625 -27.722656 5.65625 -27.453125 L 5.65625 -24.5 C 5.65625 -24.226562 5.519531 -24.09375 5.25 -24.09375 Z M 2.78125 0 C 2.507812 0 2.375 -0.132812 2.375 -0.40625 L 2.375 -19.21875 C 2.375 -19.488281 2.507812 -19.625 2.78125 -19.625 L 5.125 -19.625 C 5.394531 -19.625 5.53125 -19.488281 5.53125 -19.21875 L 5.53125 -0.40625 C 5.53125 -0.132812 5.394531 0 5.125 0 Z M 2.78125 0 "/></g></g></g><g fill="#ff9890" fill-opacity="1"><g transform="translate(119.955574, 188.264529)"><g><path d="M 7.296875 0.203125 C 5.796875 0.203125 4.703125 -0.15625 4.015625 -0.875 C 3.328125 -1.601562 2.984375 -2.800781 2.984375 -4.46875 L 2.984375 -16.875 C 2.984375 -17.039062 2.90625 -17.125 2.75 -17.125 L 1.5625 -17.125 C 1.28125 -17.125 1.140625 -17.257812 1.140625 -17.53125 L 1.140625 -19.21875 C 1.140625 -19.488281 1.28125 -19.625 1.5625 -19.625 L 2.75 -19.625 C 2.90625 -19.625 2.984375 -19.707031 2.984375 -19.875 L 2.984375 -25.40625 C 2.984375 -25.675781 3.125 -25.8125 3.40625 -25.8125 L 5.734375 -25.8125 C 6.003906 -25.8125 6.140625 -25.675781 6.140625 -25.40625 L 6.140625 -19.875 C 6.140625 -19.707031 6.222656 -19.625 6.390625 -19.625 L 8.3125 -19.625 C 8.582031 -19.625 8.71875 -19.488281 8.71875 -19.21875 L 8.71875 -17.53125 C 8.71875 -17.257812 8.582031 -17.125 8.3125 -17.125 L 6.390625 -17.125 C 6.222656 -17.125 6.140625 -17.039062 6.140625 -16.875 L 6.140625 -4.5 C 6.140625 -3.351562 6.6875 -2.78125 7.78125 -2.78125 L 8.3125 -2.78125 C 8.582031 -2.78125 8.71875 -2.644531 8.71875 -2.375 L 8.71875 -0.203125 C 8.71875 0.0664062 8.582031 0.203125 8.3125 0.203125 Z M 7.296875 0.203125 "/></g></g></g></svg>