<svg xmlns="http://www.w3.org/2000/svg" xmlns:xlink="http://www.w3.org/1999/xlink" width="300" zoomAndPan="magnify" viewBox="0 0 224.87999 225" height="300" preserveAspectRatio="xMidYMid meet" version="1.0"><defs><g/><clipPath id="1e0146d721"><path d="M 55 25 L 168 25 L 168 134.988281 L 55 134.988281 Z M 55 25 " clip-rule="nonzero"/></clipPath></defs><g clip-path="url(#1e0146d721)"><path fill="#ffffff" d="M 105.039062 25.792969 C 79.675781 28.605469 59.011719 49.070312 55.949219 74.394531 C 55.75 75.984375 55.621094 77.578125 55.5625 79.183594 C 55.5 80.785156 55.507812 82.386719 55.582031 83.984375 C 55.660156 85.585938 55.804688 87.183594 56.015625 88.769531 C 56.230469 90.359375 56.511719 91.9375 56.859375 93.5 C 57.207031 95.066406 57.621094 96.613281 58.101562 98.140625 C 58.582031 99.671875 59.128906 101.175781 59.738281 102.660156 C 60.347656 104.140625 61.019531 105.59375 61.757812 107.019531 C 62.492188 108.445312 63.285156 109.835938 64.136719 111.191406 C 64.992188 112.546875 65.902344 113.863281 66.871094 115.144531 C 67.835938 116.421875 68.855469 117.65625 69.929688 118.847656 C 71 120.039062 72.125 121.183594 73.292969 122.277344 C 74.464844 123.371094 75.679688 124.414062 76.941406 125.40625 C 78.199219 126.394531 79.5 127.332031 80.839844 128.210938 C 82.179688 129.089844 83.558594 129.910156 84.96875 130.671875 C 86.378906 131.429688 87.820312 132.132812 89.289062 132.769531 C 90.761719 133.40625 92.253906 133.980469 93.773438 134.488281 C 96.574219 134.9375 97.46875 133.203125 97.46875 131.695312 L 97.46875 122.238281 C 81.976562 125.605469 78.679688 114.75 78.679688 114.75 C 76.113281 108.257812 72.472656 106.527344 72.472656 106.527344 C 67.378906 103.058594 72.867188 103.171875 72.867188 103.171875 C 78.457031 103.566406 81.421875 108.933594 81.421875 108.933594 C 86.289062 117.433594 94.507812 114.914062 97.695312 113.574219 C 98.199219 109.9375 99.675781 107.476562 101.21875 106.078125 C 88.78125 104.679688 75.769531 99.871094 75.769531 78.566406 C 75.769531 72.359375 77.894531 67.382812 81.53125 63.410156 C 80.972656 62.011719 79.011719 56.195312 82.085938 48.648438 C 82.085938 48.648438 86.789062 47.132812 97.46875 54.351562 C 102.046875 53.121094 106.707031 52.503906 111.449219 52.503906 C 116.191406 52.503906 120.851562 53.121094 125.429688 54.351562 C 136.117188 47.132812 140.808594 48.648438 140.808594 48.648438 C 143.882812 56.195312 141.925781 62.011719 141.367188 63.410156 C 145.003906 67.371094 147.128906 72.359375 147.128906 78.566406 C 147.128906 99.925781 134.039062 104.625 121.574219 106.023438 C 123.582031 107.757812 125.429688 111.167969 125.429688 116.367188 L 125.429688 131.695312 C 125.429688 133.203125 126.324219 134.992188 129.179688 134.488281 C 130.800781 133.945312 132.394531 133.328125 133.960938 132.640625 C 135.527344 131.949219 137.054688 131.191406 138.550781 130.359375 C 140.046875 129.53125 141.503906 128.632812 142.917969 127.667969 C 144.332031 126.707031 145.699219 125.679688 147.015625 124.589844 C 148.335938 123.5 149.605469 122.355469 150.820312 121.148438 C 152.03125 119.945312 153.191406 118.6875 154.289062 117.375 C 155.386719 116.066406 156.425781 114.707031 157.398438 113.300781 C 158.375 111.894531 159.28125 110.445312 160.125 108.957031 C 160.964844 107.46875 161.738281 105.941406 162.441406 104.382812 C 163.140625 102.820312 163.773438 101.234375 164.328125 99.613281 C 164.882812 97.996094 165.367188 96.355469 165.773438 94.695312 C 166.175781 93.035156 166.507812 91.355469 166.757812 89.664062 C 167.011719 87.972656 167.1875 86.273438 167.28125 84.5625 C 167.378906 82.855469 167.394531 81.144531 167.335938 79.4375 C 167.277344 77.726562 167.136719 76.023438 166.921875 74.328125 C 166.703125 72.628906 166.410156 70.945312 166.039062 69.273438 C 165.667969 67.605469 165.222656 65.957031 164.699219 64.324219 C 164.175781 62.695312 163.582031 61.09375 162.914062 59.519531 C 162.242188 57.945312 161.503906 56.40625 160.695312 54.898438 C 159.882812 53.390625 159.007812 51.925781 158.0625 50.5 C 157.117188 49.070312 156.109375 47.691406 155.035156 46.359375 C 153.964844 45.023438 152.835938 43.742188 151.648438 42.511719 C 150.457031 41.28125 149.214844 40.109375 147.917969 38.992188 C 146.621094 37.875 145.277344 36.820312 143.882812 35.828125 C 142.492188 34.835938 141.054688 33.90625 139.578125 33.046875 C 138.097656 32.183594 136.585938 31.390625 135.035156 30.671875 C 133.484375 29.949219 131.902344 29.296875 130.292969 28.71875 C 128.679688 28.140625 127.046875 27.640625 125.390625 27.210938 C 123.734375 26.785156 122.0625 26.433594 120.375 26.15625 C 118.683594 25.882812 116.988281 25.6875 115.28125 25.566406 C 113.574219 25.449219 111.863281 25.410156 110.15625 25.445312 C 108.445312 25.484375 106.738281 25.601562 105.039062 25.792969 Z M 105.039062 25.792969 " fill-opacity="1" fill-rule="nonzero"/></g><g fill="#ffffff" fill-opacity="1"><g transform="translate(69.985377, 188.264589)"><g><path d="M 2.546875 -3.765625 C 2.429688 -4.066406 2.335938 -4.394531 2.265625 -4.75 C 2.203125 -5.101562 2.148438 -5.628906 2.109375 -6.328125 C 2.066406 -7.023438 2.035156 -7.972656 2.015625 -9.171875 C 2.003906 -10.378906 2 -11.960938 2 -13.921875 C 2 -15.890625 2.003906 -17.472656 2.015625 -18.671875 C 2.035156 -19.878906 2.066406 -20.832031 2.109375 -21.53125 C 2.148438 -22.226562 2.203125 -22.753906 2.265625 -23.109375 C 2.335938 -23.460938 2.429688 -23.789062 2.546875 -24.09375 C 2.984375 -25.425781 3.710938 -26.445312 4.734375 -27.15625 C 5.753906 -27.875 7.054688 -28.234375 8.640625 -28.234375 C 10.578125 -28.234375 12.085938 -27.710938 13.171875 -26.671875 C 14.253906 -25.628906 14.90625 -24.125 15.125 -22.15625 C 15.175781 -21.863281 15.078125 -21.703125 14.828125 -21.671875 L 12.53125 -21.21875 C 12.257812 -21.195312 12.097656 -21.304688 12.046875 -21.546875 C 11.910156 -22.691406 11.566406 -23.570312 11.015625 -24.1875 C 10.472656 -24.800781 9.695312 -25.109375 8.6875 -25.109375 C 7.945312 -25.109375 7.320312 -24.9375 6.8125 -24.59375 C 6.3125 -24.257812 5.953125 -23.773438 5.734375 -23.140625 C 5.648438 -22.921875 5.585938 -22.6875 5.546875 -22.4375 C 5.503906 -22.195312 5.46875 -21.769531 5.4375 -21.15625 C 5.414062 -20.539062 5.394531 -19.664062 5.375 -18.53125 C 5.363281 -17.40625 5.359375 -15.867188 5.359375 -13.921875 C 5.359375 -11.984375 5.363281 -10.445312 5.375 -9.3125 C 5.394531 -8.1875 5.414062 -7.316406 5.4375 -6.703125 C 5.46875 -6.085938 5.503906 -5.648438 5.546875 -5.390625 C 5.585938 -5.128906 5.648438 -4.90625 5.734375 -4.71875 C 5.953125 -4.082031 6.320312 -3.59375 6.84375 -3.25 C 7.363281 -2.914062 7.988281 -2.75 8.71875 -2.75 C 9.457031 -2.75 10.085938 -2.914062 10.609375 -3.25 C 11.128906 -3.59375 11.5 -4.082031 11.71875 -4.71875 C 11.769531 -4.90625 11.820312 -5.113281 11.875 -5.34375 C 11.9375 -5.570312 11.976562 -5.929688 12 -6.421875 C 12.03125 -6.921875 12.050781 -7.59375 12.0625 -8.4375 C 12.070312 -9.28125 12.078125 -10.414062 12.078125 -11.84375 C 12.078125 -12 12 -12.078125 11.84375 -12.078125 L 9.09375 -12.078125 C 8.820312 -12.078125 8.6875 -12.21875 8.6875 -12.5 L 8.6875 -14.671875 C 8.6875 -14.941406 8.820312 -15.078125 9.09375 -15.078125 L 14.875 -15.078125 C 15.144531 -15.078125 15.28125 -14.941406 15.28125 -14.671875 L 15.28125 -13.484375 C 15.28125 -11.617188 15.269531 -10.117188 15.25 -8.984375 C 15.238281 -7.859375 15.210938 -6.957031 15.171875 -6.28125 C 15.140625 -5.613281 15.085938 -5.101562 15.015625 -4.75 C 14.941406 -4.394531 14.851562 -4.066406 14.75 -3.765625 C 14.34375 -2.429688 13.617188 -1.40625 12.578125 -0.6875 C 11.535156 0.0195312 10.222656 0.375 8.640625 0.375 C 7.054688 0.375 5.753906 0.0195312 4.734375 -0.6875 C 3.710938 -1.40625 2.984375 -2.429688 2.546875 -3.765625 Z M 2.546875 -3.765625 "/></g></g></g><g fill="#ffffff" fill-opacity="1"><g transform="translate(87.07, 188.264589)"><g><path d="M 2.65625 -24.09375 C 2.382812 -24.09375 2.25 -24.226562 2.25 -24.5 L 2.25 -27.453125 C 2.25 -27.722656 2.382812 -27.859375 2.65625 -27.859375 L 5.25 -27.859375 C 5.519531 -27.859375 5.65625 -27.722656 5.65625 -27.453125 L 5.65625 -24.5 C 5.65625 -24.226562 5.519531 -24.09375 5.25 -24.09375 Z M 2.78125 0 C 2.507812 0 2.375 -0.132812 2.375 -0.40625 L 2.375 -19.21875 C 2.375 -19.488281 2.507812 -19.625 2.78125 -19.625 L 5.125 -19.625 C 5.394531 -19.625 5.53125 -19.488281 5.53125 -19.21875 L 5.53125 -0.40625 C 5.53125 -0.132812 5.394531 0 5.125 0 Z M 2.78125 0 "/></g></g></g><g fill="#ffffff" fill-opacity="1"><g transform="translate(94.977276, 188.264589)"><g><path d="M 7.296875 0.203125 C 5.796875 0.203125 4.703125 -0.15625 4.015625 -0.875 C 3.328125 -1.601562 2.984375 -2.800781 2.984375 -4.46875 L 2.984375 -16.875 C 2.984375 -17.039062 2.90625 -17.125 2.75 -17.125 L 1.5625 -17.125 C 1.28125 -17.125 1.140625 -17.257812 1.140625 -17.53125 L 1.140625 -19.21875 C 1.140625 -19.488281 1.28125 -19.625 1.5625 -19.625 L 2.75 -19.625 C 2.90625 -19.625 2.984375 -19.707031 2.984375 -19.875 L 2.984375 -25.40625 C 2.984375 -25.675781 3.125 -25.8125 3.40625 -25.8125 L 5.734375 -25.8125 C 6.003906 -25.8125 6.140625 -25.675781 6.140625 -25.40625 L 6.140625 -19.875 C 6.140625 -19.707031 6.222656 -19.625 6.390625 -19.625 L 8.3125 -19.625 C 8.582031 -19.625 8.71875 -19.488281 8.71875 -19.21875 L 8.71875 -17.53125 C 8.71875 -17.257812 8.582031 -17.125 8.3125 -17.125 L 6.390625 -17.125 C 6.222656 -17.125 6.140625 -17.039062 6.140625 -16.875 L 6.140625 -4.5 C 6.140625 -3.351562 6.6875 -2.78125 7.78125 -2.78125 L 8.3125 -2.78125 C 8.582031 -2.78125 8.71875 -2.644531 8.71875 -2.375 L 8.71875 -0.203125 C 8.71875 0.0664062 8.582031 0.203125 8.3125 0.203125 Z M 7.296875 0.203125 "/></g></g></g><g fill="#ffffff" fill-opacity="1"><g transform="translate(104.933071, 188.264589)"><g><path d="M 2.453125 -27.453125 C 2.453125 -27.722656 2.59375 -27.859375 2.875 -27.859375 L 5.359375 -27.859375 C 5.640625 -27.859375 5.78125 -27.722656 5.78125 -27.453125 L 5.78125 -16.0625 C 5.78125 -15.894531 5.859375 -15.8125 6.015625 -15.8125 L 12 -15.8125 C 12.164062 -15.8125 12.25 -15.894531 12.25 -16.0625 L 12.25 -27.453125 C 12.25 -27.722656 12.382812 -27.859375 12.65625 -27.859375 L 15.15625 -27.859375 C 15.425781 -27.859375 15.5625 -27.722656 15.5625 -27.453125 L 15.5625 -0.40625 C 15.5625 -0.132812 15.425781 0 15.15625 0 L 12.65625 0 C 12.382812 0 12.25 -0.132812 12.25 -0.40625 L 12.25 -12.5 C 12.25 -12.65625 12.164062 -12.734375 12 -12.734375 L 6.015625 -12.734375 C 5.859375 -12.734375 5.78125 -12.65625 5.78125 -12.5 L 5.78125 -0.40625 C 5.78125 -0.132812 5.640625 0 5.359375 0 L 2.875 0 C 2.59375 0 2.453125 -0.132812 2.453125 -0.40625 Z M 2.453125 -27.453125 "/></g></g></g><g fill="#ffffff" fill-opacity="1"><g transform="translate(122.960014, 188.264589)"><g><path d="M 10.859375 0 C 10.585938 0 10.453125 -0.132812 10.453125 -0.40625 L 10.453125 -1.96875 L 10.40625 -1.96875 C 10.101562 -1.3125 9.65625 -0.753906 9.0625 -0.296875 C 8.476562 0.148438 7.695312 0.375 6.71875 0.375 C 5.21875 0.375 4.09375 -0.109375 3.34375 -1.078125 C 2.59375 -2.054688 2.21875 -3.59375 2.21875 -5.6875 L 2.21875 -19.21875 C 2.21875 -19.488281 2.351562 -19.625 2.625 -19.625 L 4.953125 -19.625 C 5.222656 -19.625 5.359375 -19.488281 5.359375 -19.21875 L 5.359375 -6.140625 C 5.359375 -3.765625 6.207031 -2.578125 7.90625 -2.578125 C 8.695312 -2.578125 9.316406 -2.867188 9.765625 -3.453125 C 10.222656 -4.046875 10.453125 -4.941406 10.453125 -6.140625 L 10.453125 -19.21875 C 10.453125 -19.488281 10.585938 -19.625 10.859375 -19.625 L 13.1875 -19.625 C 13.46875 -19.625 13.609375 -19.488281 13.609375 -19.21875 L 13.609375 -0.40625 C 13.609375 -0.132812 13.46875 0 13.1875 0 Z M 10.859375 0 "/></g></g></g><g fill="#ffffff" fill-opacity="1"><g transform="translate(138.938447, 188.264589)"><g><path d="M 9.296875 0.375 C 8.234375 0.375 7.414062 0.140625 6.84375 -0.328125 C 6.269531 -0.796875 5.847656 -1.351562 5.578125 -2 L 5.53125 -2 L 5.53125 -0.40625 C 5.53125 -0.132812 5.394531 0 5.125 0 L 2.78125 0 C 2.507812 0 2.375 -0.132812 2.375 -0.40625 L 2.375 -27.453125 C 2.375 -27.722656 2.507812 -27.859375 2.78125 -27.859375 L 5.125 -27.859375 C 5.394531 -27.859375 5.53125 -27.722656 5.53125 -27.453125 L 5.53125 -17.609375 L 5.578125 -17.609375 C 5.847656 -18.296875 6.269531 -18.863281 6.84375 -19.3125 C 7.414062 -19.769531 8.234375 -20 9.296875 -20 C 11.453125 -20 12.875 -18.929688 13.5625 -16.796875 C 13.644531 -16.523438 13.71875 -16.226562 13.78125 -15.90625 C 13.851562 -15.59375 13.910156 -15.191406 13.953125 -14.703125 C 13.992188 -14.210938 14.019531 -13.578125 14.03125 -12.796875 C 14.039062 -12.023438 14.046875 -11.035156 14.046875 -9.828125 C 14.046875 -8.628906 14.039062 -7.640625 14.03125 -6.859375 C 14.019531 -6.078125 13.992188 -5.429688 13.953125 -4.921875 C 13.910156 -4.421875 13.851562 -4.015625 13.78125 -3.703125 C 13.71875 -3.390625 13.644531 -3.097656 13.5625 -2.828125 C 12.875 -0.691406 11.453125 0.375 9.296875 0.375 Z M 8.234375 -2.578125 C 9.429688 -2.578125 10.222656 -3.148438 10.609375 -4.296875 C 10.660156 -4.460938 10.707031 -4.644531 10.75 -4.84375 C 10.789062 -5.050781 10.816406 -5.335938 10.828125 -5.703125 C 10.847656 -6.078125 10.863281 -6.59375 10.875 -7.25 C 10.882812 -7.90625 10.890625 -8.765625 10.890625 -9.828125 C 10.890625 -10.898438 10.882812 -11.753906 10.875 -12.390625 C 10.863281 -13.035156 10.847656 -13.539062 10.828125 -13.90625 C 10.816406 -14.28125 10.789062 -14.566406 10.75 -14.765625 C 10.707031 -14.972656 10.660156 -15.160156 10.609375 -15.328125 C 10.222656 -16.472656 9.429688 -17.046875 8.234375 -17.046875 C 7.609375 -17.046875 7.097656 -16.894531 6.703125 -16.59375 C 6.304688 -16.289062 6.007812 -15.867188 5.8125 -15.328125 C 5.757812 -15.160156 5.710938 -14.972656 5.671875 -14.765625 C 5.628906 -14.566406 5.601562 -14.28125 5.59375 -13.90625 C 5.582031 -13.539062 5.566406 -13.035156 5.546875 -12.390625 C 5.535156 -11.753906 5.53125 -10.898438 5.53125 -9.828125 C 5.53125 -8.765625 5.535156 -7.90625 5.546875 -7.25 C 5.566406 -6.59375 5.582031 -6.078125 5.59375 -5.703125 C 5.601562 -5.335938 5.628906 -5.050781 5.671875 -4.84375 C 5.710938 -4.644531 5.757812 -4.460938 5.8125 -4.296875 C 6.007812 -3.753906 6.304688 -3.332031 6.703125 -3.03125 C 7.097656 -2.726562 7.609375 -2.578125 8.234375 -2.578125 Z M 8.234375 -2.578125 "/></g></g></g></svg>