<svg xmlns="http://www.w3.org/2000/svg" width="300" viewBox="0 0 224.88 225" height="300" version="1.0"><defs><clipPath id="a"><path d="M55 25h113v109.988H55Zm0 0"/></clipPath></defs><g clip-path="url(#a)"><path fill="#fff" d="M105.04 25.793C79.675 28.605 59.011 49.07 55.95 74.395c-.2 1.59-.329 3.183-.388 4.789a56.212 56.212 0 0 0 .02 4.8c.078 1.602.223 3.2.434 4.786a56.805 56.805 0 0 0 2.086 9.37 56.175 56.175 0 0 0 1.636 4.52 55.004 55.004 0 0 0 2.02 4.36 56.294 56.294 0 0 0 2.379 4.171 56.91 56.91 0 0 0 2.734 3.954 55.323 55.323 0 0 0 3.059 3.703 55.72 55.72 0 0 0 7.011 6.558 56.27 56.27 0 0 0 3.899 2.805 56.38 56.38 0 0 0 8.45 4.559 56.083 56.083 0 0 0 4.483 1.718c2.801.45 3.696-1.285 3.696-2.793v-9.457c-15.492 3.367-18.79-7.488-18.79-7.488-2.566-6.492-6.206-8.223-6.206-8.223-5.094-3.468.394-3.355.394-3.355 5.59.394 8.555 5.762 8.555 5.762 4.867 8.5 13.086 5.98 16.273 4.64.504-3.636 1.98-6.097 3.524-7.496-12.438-1.398-25.45-6.207-25.45-27.512 0-6.207 2.126-11.183 5.762-15.156-.558-1.398-2.52-7.215.555-14.762 0 0 4.703-1.515 15.383 5.704a53.633 53.633 0 0 1 13.98-1.848c4.742 0 9.403.617 13.98 1.848 10.688-7.22 15.38-5.704 15.38-5.704 3.074 7.547 1.117 13.364.558 14.762 3.637 3.961 5.762 8.95 5.762 15.156 0 21.36-13.09 26.059-25.555 27.457 2.008 1.735 3.856 5.145 3.856 10.344v15.328c0 1.508.894 3.297 3.75 2.793a56.706 56.706 0 0 0 4.78-1.847 55.727 55.727 0 0 0 4.59-2.282 55.052 55.052 0 0 0 4.368-2.691 54.169 54.169 0 0 0 4.098-3.078 55.675 55.675 0 0 0 7.273-7.215 56.195 56.195 0 0 0 5.836-8.418 57.03 57.03 0 0 0 2.316-4.574 56.26 56.26 0 0 0 3.332-9.688 56.366 56.366 0 0 0 1.508-10.132 56.073 56.073 0 0 0-.36-10.235 56.119 56.119 0 0 0-4.008-14.809 57.657 57.657 0 0 0-2.218-4.62 56.147 56.147 0 0 0-2.632-4.399 54.266 54.266 0 0 0-3.028-4.14 55.584 55.584 0 0 0-3.387-3.848 56.678 56.678 0 0 0-3.73-3.52 55.283 55.283 0 0 0-4.035-3.164 55.375 55.375 0 0 0-4.305-2.781 56.249 56.249 0 0 0-9.285-4.328 56.781 56.781 0 0 0-4.902-1.508 57.753 57.753 0 0 0-5.016-1.055 57.266 57.266 0 0 0-5.094-.59 57.547 57.547 0 0 0-5.125-.12 57.42 57.42 0 0 0-5.117.347Zm0 0"/></g><path d="M72.532 184.499a5.82 5.82 0 0 1-.281-.984 14.186 14.186 0 0 1-.156-1.579 66.24 66.24 0 0 1-.094-2.843c-.012-1.207-.016-2.79-.016-4.75 0-1.969.004-3.551.016-4.75a66.9 66.9 0 0 1 .094-2.86c.039-.695.094-1.222.156-1.578.07-.351.164-.68.281-.984.438-1.332 1.164-2.352 2.188-3.063 1.02-.718 2.32-1.078 3.906-1.078 1.938 0 3.445.524 4.531 1.563 1.082 1.043 1.735 2.547 1.953 4.515.051.293-.046.453-.296.485l-2.297.453c-.274.023-.434-.086-.485-.328-.136-1.145-.48-2.024-1.031-2.64-.543-.614-1.32-.923-2.328-.923-.742 0-1.367.172-1.875.516-.5.336-.86.82-1.078 1.453a3.318 3.318 0 0 0-.188.703c-.043.242-.078.668-.11 1.281a138.97 138.97 0 0 0-.062 2.625 479.741 479.741 0 0 0-.015 4.61c0 1.937.004 3.476.015 4.61.02 1.124.04 1.995.063 2.608.031.618.066 1.055.11 1.313.038.262.1.484.187.672.219.637.586 1.125 1.11 1.469.519.336 1.144.5 1.874.5.738 0 1.367-.164 1.89-.5.52-.344.891-.832 1.11-1.47.05-.187.102-.394.156-.624.063-.227.102-.586.125-1.078.032-.5.051-1.172.063-2.016.008-.844.016-1.976.016-3.406 0-.156-.079-.235-.235-.235h-2.75c-.273 0-.406-.14-.406-.421v-2.172c0-.27.133-.407.406-.407h5.781c.27 0 .407.137.407.407v1.187c0 1.867-.012 3.367-.032 4.5a59.546 59.546 0 0 1-.078 2.703c-.031.668-.086 1.18-.156 1.532a8.523 8.523 0 0 1-.266.984c-.406 1.336-1.132 2.36-2.171 3.078-1.043.707-2.356 1.063-3.938 1.063-1.586 0-2.887-.356-3.906-1.063-1.024-.719-1.75-1.742-2.188-3.078ZM89.726 164.17c-.273 0-.406-.132-.406-.405v-2.954c0-.27.133-.406.406-.406h2.594c.27 0 .406.137.406.406v2.954c0 .273-.136.406-.406.406Zm.125 24.095c-.273 0-.406-.133-.406-.407v-18.812c0-.27.133-.406.406-.406h2.344c.27 0 .406.136.406.406v18.812c0 .274-.136.407-.406.407ZM102.274 188.468c-1.5 0-2.594-.36-3.281-1.078-.688-.727-1.031-1.926-1.031-3.594V171.39c0-.164-.078-.25-.235-.25H96.54c-.281 0-.422-.133-.422-.407v-1.687c0-.27.14-.406.422-.406h1.187c.157 0 .235-.082.235-.25v-5.532c0-.27.14-.406.422-.406h2.328c.27 0 .406.137.406.406v5.532c0 .168.082.25.25.25h1.922c.27 0 .406.136.406.406v1.687c0 .274-.137.407-.406.407h-1.922c-.168 0-.25.086-.25.25v12.375c0 1.148.547 1.718 1.64 1.718h.532c.27 0 .406.137.406.407v2.171c0 .27-.137.407-.406.407ZM107.386 160.811c0-.27.14-.406.422-.406h2.484c.282 0 .422.137.422.406v11.391c0 .168.078.25.235.25h5.984c.164 0 .25-.082.25-.25v-11.39c0-.27.133-.407.406-.407h2.5c.27 0 .407.137.407.406v27.047c0 .274-.137.407-.407.407h-2.5c-.273 0-.406-.133-.406-.407v-12.093c0-.157-.086-.235-.25-.235h-5.984c-.157 0-.235.078-.235.235v12.093c0 .274-.14.407-.422.407h-2.484c-.281 0-.422-.133-.422-.407ZM133.82 188.265c-.274 0-.407-.133-.407-.407v-1.562h-.047a4.446 4.446 0 0 1-1.343 1.672c-.586.445-1.368.672-2.344.672-1.5 0-2.625-.485-3.375-1.454-.75-.976-1.125-2.515-1.125-4.609v-13.531c0-.27.133-.406.406-.406h2.328c.27 0 .406.136.406.406v13.078c0 2.375.848 3.562 2.547 3.562.79 0 1.41-.289 1.86-.875.457-.593.687-1.488.687-2.687v-13.078c0-.27.133-.406.406-.406h2.329c.28 0 .421.136.421.406v18.812c0 .274-.14.407-.421.407ZM148.235 188.64c-1.062 0-1.882-.235-2.453-.704a4.236 4.236 0 0 1-1.265-1.671h-.047v1.593c0 .274-.137.407-.407.407h-2.343c-.274 0-.407-.133-.407-.407v-27.047c0-.27.133-.406.407-.406h2.343c.27 0 .407.137.407.406v9.844h.047a3.954 3.954 0 0 1 1.265-1.703c.57-.457 1.39-.687 2.453-.687 2.157 0 3.578 1.07 4.266 3.203.082.273.156.57.219.89.07.313.129.715.172 1.203.039.493.066 1.125.078 1.907a287.567 287.567 0 0 1 0 5.937c-.012.781-.04 1.43-.078 1.938-.043.5-.102.906-.172 1.218a9.23 9.23 0 0 1-.22.875c-.687 2.137-2.108 3.204-4.265 3.204Zm-1.062-2.954c1.195 0 1.988-.57 2.375-1.718.05-.164.097-.348.14-.547.04-.207.067-.492.079-.86.02-.375.035-.89.046-1.546a212.649 212.649 0 0 0 0-5.141 45.911 45.911 0 0 0-.046-1.516 5.632 5.632 0 0 0-.079-.859 6.56 6.56 0 0 0-.14-.563c-.387-1.144-1.18-1.718-2.375-1.718-.625 0-1.137.152-1.531.453-.399.305-.696.726-.891 1.265a4.775 4.775 0 0 0-.219 1.422l-.047 1.516c-.011.637-.015 1.492-.015 2.562 0 1.063.004 1.922.015 2.579l.047 1.546c.008.368.035.653.078.86.04.2.086.383.14.547.196.543.493.965.892 1.265.394.305.906.453 1.53.453Zm0 0" fill="#fff"/></svg>