<svg xmlns="http://www.w3.org/2000/svg" xmlns:xlink="http://www.w3.org/1999/xlink" width="300" zoomAndPan="magnify" viewBox="0 0 224.87999 225" height="300" preserveAspectRatio="xMidYMid meet" version="1.0"><defs><g/><clipPath id="9a0f36dfeb"><path d="M 63.125 23 L 162 23 L 162 134.988281 L 63.125 134.988281 Z M 63.125 23 " clip-rule="nonzero"/></clipPath></defs><g clip-path="url(#9a0f36dfeb)"><path fill="#e44d26" d="M 72.203125 123.324219 L 63.210938 23.078125 L 161.984375 23.078125 L 152.984375 123.304688 L 112.535156 134.457031 Z M 72.203125 123.324219 " fill-opacity="1" fill-rule="nonzero"/></g><path fill="#f16529" d="M 112.597656 125.9375 L 145.28125 116.929688 L 152.96875 31.273438 L 112.597656 31.273438 Z M 112.597656 125.9375 " fill-opacity="1" fill-rule="nonzero"/><path fill="#ebebeb" d="M 112.597656 68.457031 L 96.234375 68.457031 L 95.105469 55.867188 L 112.597656 55.867188 L 112.597656 43.570312 L 81.59375 43.570312 L 81.886719 46.867188 L 84.925781 80.75 L 112.597656 80.75 Z M 112.597656 100.386719 L 112.542969 100.398438 L 98.773438 96.699219 L 97.890625 86.894531 L 85.480469 86.894531 L 87.210938 106.199219 L 112.542969 113.1875 L 112.597656 113.175781 Z M 112.597656 100.386719 " fill-opacity="1" fill-rule="nonzero"/><path fill="#ffffff" d="M 112.554688 68.457031 L 112.554688 80.75 L 127.78125 80.75 L 126.34375 96.695312 L 112.550781 100.394531 L 112.550781 113.183594 L 137.898438 106.199219 L 138.085938 104.121094 L 140.992188 71.75 L 141.296875 68.453125 L 137.964844 68.453125 Z M 112.554688 43.570312 L 112.554688 55.867188 L 142.421875 55.867188 L 142.667969 53.101562 L 143.234375 46.867188 L 143.527344 43.566406 Z M 112.554688 43.570312 " fill-opacity="1" fill-rule="nonzero"/><g fill="#e64d26" fill-opacity="1"><g transform="translate(77.446695, 188.264561)"><g><path d="M 2.453125 -27.453125 C 2.453125 -27.722656 2.59375 -27.859375 2.875 -27.859375 L 5.359375 -27.859375 C 5.640625 -27.859375 5.78125 -27.722656 5.78125 -27.453125 L 5.78125 -16.0625 C 5.78125 -15.894531 5.859375 -15.8125 6.015625 -15.8125 L 12 -15.8125 C 12.164062 -15.8125 12.25 -15.894531 12.25 -16.0625 L 12.25 -27.453125 C 12.25 -27.722656 12.382812 -27.859375 12.65625 -27.859375 L 15.15625 -27.859375 C 15.425781 -27.859375 15.5625 -27.722656 15.5625 -27.453125 L 15.5625 -0.40625 C 15.5625 -0.132812 15.425781 0 15.15625 0 L 12.65625 0 C 12.382812 0 12.25 -0.132812 12.25 -0.40625 L 12.25 -12.5 C 12.25 -12.65625 12.164062 -12.734375 12 -12.734375 L 6.015625 -12.734375 C 5.859375 -12.734375 5.78125 -12.65625 5.78125 -12.5 L 5.78125 -0.40625 C 5.78125 -0.132812 5.640625 0 5.359375 0 L 2.875 0 C 2.59375 0 2.453125 -0.132812 2.453125 -0.40625 Z M 2.453125 -27.453125 "/></g></g></g><g fill="#e64d26" fill-opacity="1"><g transform="translate(95.473638, 188.264561)"><g><path d="M 6.3125 0 C 6.039062 0 5.90625 -0.132812 5.90625 -0.40625 L 5.90625 -24.546875 C 5.90625 -24.703125 5.820312 -24.78125 5.65625 -24.78125 L 1.0625 -24.78125 C 0.789062 -24.78125 0.65625 -24.921875 0.65625 -25.203125 L 0.65625 -27.453125 C 0.65625 -27.722656 0.789062 -27.859375 1.0625 -27.859375 L 14.046875 -27.859375 C 14.328125 -27.859375 14.46875 -27.722656 14.46875 -27.453125 L 14.46875 -25.203125 C 14.46875 -24.921875 14.328125 -24.78125 14.046875 -24.78125 L 9.46875 -24.78125 C 9.300781 -24.78125 9.21875 -24.703125 9.21875 -24.546875 L 9.21875 -0.40625 C 9.21875 -0.132812 9.082031 0 8.8125 0 Z M 6.3125 0 "/></g></g></g><g fill="#e64d26" fill-opacity="1"><g transform="translate(110.591695, 188.264561)"><g><path d="M 2.453125 -27.453125 C 2.453125 -27.722656 2.59375 -27.859375 2.875 -27.859375 L 5.40625 -27.859375 C 5.707031 -27.859375 5.898438 -27.722656 5.984375 -27.453125 L 11.0625 -10.40625 L 11.21875 -10.40625 L 16.1875 -27.453125 C 16.269531 -27.722656 16.472656 -27.859375 16.796875 -27.859375 L 19.296875 -27.859375 C 19.566406 -27.859375 19.703125 -27.722656 19.703125 -27.453125 L 19.703125 -0.40625 C 19.703125 -0.132812 19.566406 0 19.296875 0 L 17.078125 0 C 16.804688 0 16.671875 -0.132812 16.671875 -0.40625 L 16.671875 -19.703125 L 16.46875 -19.703125 L 12.25 -5.359375 C 12.164062 -5.085938 12.003906 -4.953125 11.765625 -4.953125 L 10.40625 -4.953125 C 10.15625 -4.953125 9.992188 -5.085938 9.921875 -5.359375 L 5.6875 -19.703125 L 5.484375 -19.703125 L 5.484375 -0.40625 C 5.484375 -0.132812 5.347656 0 5.078125 0 L 2.875 0 C 2.59375 0 2.453125 -0.132812 2.453125 -0.40625 Z M 2.453125 -27.453125 "/></g></g></g><g fill="#e64d26" fill-opacity="1"><g transform="translate(132.75665, 188.264561)"><g><path d="M 2.453125 -27.453125 C 2.453125 -27.722656 2.59375 -27.859375 2.875 -27.859375 L 5.359375 -27.859375 C 5.640625 -27.859375 5.78125 -27.722656 5.78125 -27.453125 L 5.78125 -3.3125 C 5.78125 -3.15625 5.859375 -3.078125 6.015625 -3.078125 L 13.3125 -3.078125 C 13.582031 -3.078125 13.71875 -2.9375 13.71875 -2.65625 L 13.71875 -0.40625 C 13.71875 -0.132812 13.582031 0 13.3125 0 L 2.875 0 C 2.59375 0 2.453125 -0.132812 2.453125 -0.40625 Z M 2.453125 -27.453125 "/></g></g></g></svg>