<svg xmlns="http://www.w3.org/2000/svg" width="300" viewBox="0 0 224.88 225" height="300" version="1.0"><defs><clipPath id="a"><path d="M63.125 23H162v111.988H63.125Zm0 0"/></clipPath></defs><g clip-path="url(#a)"><path fill="#e44d26" d="M72.203 123.324 63.211 23.078h98.773l-9 100.227-40.449 11.152Zm0 0"/></g><path fill="#f16529" d="m112.598 125.938 32.683-9.008 7.688-85.657h-40.371Zm0 0"/><path fill="#ebebeb" d="M112.598 68.457H96.234l-1.129-12.59h17.493V43.57H81.594l.293 3.297 3.039 33.883h27.672Zm0 31.93-.055.011-13.77-3.699-.882-9.804H85.48l1.73 19.304 25.332 6.989.055-.012Zm0 0"/><path fill="#fff" d="M112.555 68.457V80.75h15.226l-1.437 15.945-13.793 3.7v12.789l25.347-6.985.188-2.078 2.906-32.371.305-3.297h-3.332Zm0-24.887v12.297h29.867l.246-2.765.566-6.235.293-3.3Zm0 0"/><path d="M79.9 160.811c0-.27.14-.406.422-.406h2.484c.281 0 .422.137.422.406v11.391c0 .168.078.25.234.25h5.985c.164 0 .25-.082.25-.25v-11.39c0-.27.133-.407.406-.407h2.5c.27 0 .406.137.406.406v27.047c0 .274-.137.407-.406.407h-2.5c-.273 0-.406-.133-.406-.407v-12.093c0-.157-.086-.235-.25-.235h-5.985c-.156 0-.234.078-.234.235v12.093c0 .274-.14.407-.422.407h-2.484c-.282 0-.422-.133-.422-.407ZM101.786 188.265c-.273 0-.406-.133-.406-.407v-24.14c0-.157-.086-.235-.25-.235h-4.594c-.273 0-.406-.14-.406-.422v-2.25c0-.27.133-.406.406-.406h12.985c.28 0 .421.137.421.406v2.25c0 .282-.14.422-.421.422h-4.579c-.168 0-.25.078-.25.235v24.14c0 .274-.136.407-.406.407ZM113.045 160.811c0-.27.14-.406.422-.406h2.53c.302 0 .493.137.58.406l5.077 17.047h.156l4.97-17.047c.081-.27.284-.406.609-.406h2.5c.27 0 .406.137.406.406v27.047c0 .274-.137.407-.406.407h-2.22c-.273 0-.405-.133-.405-.407v-19.297h-.204l-4.218 14.344c-.086.274-.246.406-.485.406h-1.36c-.25 0-.413-.132-.483-.406l-4.235-14.344h-.203v19.297c0 .274-.137.407-.406.407h-2.203c-.282 0-.422-.133-.422-.407ZM135.21 160.811c0-.27.14-.406.422-.406h2.484c.281 0 .422.137.422.406v24.141c0 .156.078.234.234.234h7.297c.27 0 .406.141.406.422v2.25c0 .274-.136.407-.406.407h-10.437c-.282 0-.422-.133-.422-.407Zm0 0" fill="#e64d26"/></svg>