<svg xmlns="http://www.w3.org/2000/svg" xmlns:xlink="http://www.w3.org/1999/xlink" width="300" zoomAndPan="magnify" viewBox="0 0 224.87999 225" height="300" preserveAspectRatio="xMidYMid meet" version="1.0"><defs><g/><clipPath id="d53b6557a1"><path d="M 56.378906 22.546875 L 168.820312 22.546875 L 168.820312 134.988281 L 56.378906 134.988281 Z M 56.378906 22.546875 " clip-rule="nonzero"/></clipPath></defs><g clip-path="url(#d53b6557a1)"><path fill="#ffd600" d="M 56.378906 22.546875 L 168.820312 22.546875 L 168.820312 134.988281 L 56.378906 134.988281 Z M 56.378906 22.546875 " fill-opacity="1" fill-rule="nonzero"/></g><path fill="#000001" d="M 129.898438 106.710938 C 132.058594 110.222656 134.40625 113.585938 139.382812 113.585938 C 143.5625 113.585938 145.753906 111.511719 145.753906 108.636719 C 145.753906 105.199219 143.488281 103.976562 138.890625 101.972656 L 136.367188 100.898438 C 129.09375 97.8125 124.257812 93.949219 124.257812 85.78125 C 124.257812 78.253906 130.019531 72.523438 139.023438 72.523438 C 145.4375 72.523438 150.042969 74.746094 153.367188 80.5625 L 145.515625 85.578125 C 143.785156 82.496094 141.917969 81.277344 139.023438 81.277344 C 136.070312 81.277344 134.199219 83.144531 134.199219 85.578125 C 134.199219 88.589844 136.070312 89.808594 140.398438 91.671875 L 142.917969 92.75 C 151.492188 96.398438 156.328125 100.128906 156.328125 108.511719 C 156.328125 117.542969 149.191406 122.496094 139.617188 122.496094 C 130.25 122.496094 124.929688 117.792969 121.96875 111.976562 Z M 93.710938 106.96875 C 95.289062 109.796875 97.691406 111.976562 101.148438 111.976562 C 104.453125 111.976562 106.351562 110.667969 106.351562 105.59375 L 106.351562 72.519531 L 116.761719 72.519531 L 116.761719 107.195312 C 116.761719 117.710938 110.664062 122.496094 101.753906 122.496094 C 93.707031 122.496094 87.898438 117.042969 85.53125 111.976562 Z M 93.710938 106.96875 " fill-opacity="1" fill-rule="nonzero"/><g fill="#ffd602" fill-opacity="1"><g transform="translate(46.433715, 188.264529)"><g><path d="M 1.03125 -1.3125 C 0.863281 -1.53125 0.875 -1.722656 1.0625 -1.890625 L 2.703125 -3.484375 C 2.890625 -3.671875 3.109375 -3.671875 3.359375 -3.484375 C 3.929688 -2.992188 4.570312 -2.75 5.28125 -2.75 C 6.238281 -2.75 6.976562 -3.019531 7.5 -3.5625 C 8.019531 -4.113281 8.28125 -5.039062 8.28125 -6.34375 L 8.28125 -27.453125 C 8.28125 -27.722656 8.414062 -27.859375 8.6875 -27.859375 L 11.1875 -27.859375 C 11.457031 -27.859375 11.59375 -27.722656 11.59375 -27.453125 L 11.59375 -6.59375 C 11.59375 -4.1875 11.007812 -2.421875 9.84375 -1.296875 C 8.6875 -0.179688 7.15625 0.375 5.25 0.375 C 4.375 0.375 3.566406 0.234375 2.828125 -0.046875 C 2.085938 -0.335938 1.488281 -0.757812 1.03125 -1.3125 Z M 1.03125 -1.3125 "/></g></g></g><g fill="#ffd602" fill-opacity="1"><g transform="translate(60.445569, 188.264529)"><g><path d="M 10.40625 0 C 10.132812 0 10 -0.132812 10 -0.40625 L 10 -2.09375 L 9.953125 -2.09375 C 9.679688 -1.320312 9.21875 -0.71875 8.5625 -0.28125 C 7.90625 0.15625 7.140625 0.375 6.265625 0.375 C 5.691406 0.375 5.125 0.273438 4.5625 0.078125 C 4.007812 -0.109375 3.515625 -0.425781 3.078125 -0.875 C 2.640625 -1.332031 2.289062 -1.9375 2.03125 -2.6875 C 1.769531 -3.4375 1.640625 -4.359375 1.640625 -5.453125 C 1.640625 -6.546875 1.789062 -7.476562 2.09375 -8.25 C 2.394531 -9.03125 2.796875 -9.660156 3.296875 -10.140625 C 3.804688 -10.617188 4.414062 -10.96875 5.125 -11.1875 C 5.832031 -11.40625 6.597656 -11.515625 7.421875 -11.515625 L 9.75 -11.515625 C 9.914062 -11.515625 10 -11.597656 10 -11.765625 L 10 -13.359375 C 10 -14.671875 9.78125 -15.617188 9.34375 -16.203125 C 8.90625 -16.785156 8.15625 -17.078125 7.09375 -17.078125 C 6.375 -17.078125 5.753906 -16.953125 5.234375 -16.703125 C 4.722656 -16.460938 4.234375 -16.148438 3.765625 -15.765625 C 3.460938 -15.578125 3.242188 -15.632812 3.109375 -15.9375 L 2.328125 -17.53125 C 2.191406 -17.78125 2.222656 -18 2.421875 -18.1875 C 2.992188 -18.738281 3.71875 -19.175781 4.59375 -19.5 C 5.46875 -19.832031 6.421875 -20 7.453125 -20 C 9.421875 -20 10.84375 -19.503906 11.71875 -18.515625 C 12.59375 -17.535156 13.03125 -15.867188 13.03125 -13.515625 L 13.03125 -0.40625 C 13.03125 -0.132812 12.894531 0 12.625 0 Z M 7.125 -2.328125 C 7.976562 -2.328125 8.671875 -2.65625 9.203125 -3.3125 C 9.734375 -3.96875 10 -4.832031 10 -5.90625 L 10 -8.609375 C 10 -8.765625 9.914062 -8.84375 9.75 -8.84375 L 7.90625 -8.84375 C 6.726562 -8.84375 5.894531 -8.5625 5.40625 -8 C 4.914062 -7.445312 4.671875 -6.625 4.671875 -5.53125 C 4.671875 -4.46875 4.878906 -3.664062 5.296875 -3.125 C 5.722656 -2.59375 6.332031 -2.328125 7.125 -2.328125 Z M 7.125 -2.328125 "/></g></g></g><g fill="#ffd602" fill-opacity="1"><g transform="translate(75.645568, 188.264529)"><g><path d="M 6.140625 0 C 5.921875 0 5.769531 -0.132812 5.6875 -0.40625 L 0.9375 -19.21875 C 0.851562 -19.488281 0.953125 -19.625 1.234375 -19.625 L 3.6875 -19.625 C 3.90625 -19.625 4.039062 -19.488281 4.09375 -19.21875 L 7.171875 -5.78125 L 7.25 -5.78125 L 10.28125 -19.21875 C 10.332031 -19.488281 10.484375 -19.625 10.734375 -19.625 L 13.0625 -19.625 C 13.34375 -19.625 13.453125 -19.488281 13.390625 -19.21875 L 8.640625 -0.40625 C 8.554688 -0.132812 8.394531 0 8.15625 0 Z M 6.140625 0 "/></g></g></g><g fill="#ffd602" fill-opacity="1"><g transform="translate(89.98519, 188.264529)"><g><path d="M 10.40625 0 C 10.132812 0 10 -0.132812 10 -0.40625 L 10 -2.09375 L 9.953125 -2.09375 C 9.679688 -1.320312 9.21875 -0.71875 8.5625 -0.28125 C 7.90625 0.15625 7.140625 0.375 6.265625 0.375 C 5.691406 0.375 5.125 0.273438 4.5625 0.078125 C 4.007812 -0.109375 3.515625 -0.425781 3.078125 -0.875 C 2.640625 -1.332031 2.289062 -1.9375 2.03125 -2.6875 C 1.769531 -3.4375 1.640625 -4.359375 1.640625 -5.453125 C 1.640625 -6.546875 1.789062 -7.476562 2.09375 -8.25 C 2.394531 -9.03125 2.796875 -9.660156 3.296875 -10.140625 C 3.804688 -10.617188 4.414062 -10.96875 5.125 -11.1875 C 5.832031 -11.40625 6.597656 -11.515625 7.421875 -11.515625 L 9.75 -11.515625 C 9.914062 -11.515625 10 -11.597656 10 -11.765625 L 10 -13.359375 C 10 -14.671875 9.78125 -15.617188 9.34375 -16.203125 C 8.90625 -16.785156 8.15625 -17.078125 7.09375 -17.078125 C 6.375 -17.078125 5.753906 -16.953125 5.234375 -16.703125 C 4.722656 -16.460938 4.234375 -16.148438 3.765625 -15.765625 C 3.460938 -15.578125 3.242188 -15.632812 3.109375 -15.9375 L 2.328125 -17.53125 C 2.191406 -17.78125 2.222656 -18 2.421875 -18.1875 C 2.992188 -18.738281 3.71875 -19.175781 4.59375 -19.5 C 5.46875 -19.832031 6.421875 -20 7.453125 -20 C 9.421875 -20 10.84375 -19.503906 11.71875 -18.515625 C 12.59375 -17.535156 13.03125 -15.867188 13.03125 -13.515625 L 13.03125 -0.40625 C 13.03125 -0.132812 12.894531 0 12.625 0 Z M 7.125 -2.328125 C 7.976562 -2.328125 8.671875 -2.65625 9.203125 -3.3125 C 9.734375 -3.96875 10 -4.832031 10 -5.90625 L 10 -8.609375 C 10 -8.765625 9.914062 -8.84375 9.75 -8.84375 L 7.90625 -8.84375 C 6.726562 -8.84375 5.894531 -8.5625 5.40625 -8 C 4.914062 -7.445312 4.671875 -6.625 4.671875 -5.53125 C 4.671875 -4.46875 4.878906 -3.664062 5.296875 -3.125 C 5.722656 -2.59375 6.332031 -2.328125 7.125 -2.328125 Z M 7.125 -2.328125 "/></g></g></g><g fill="#ffd602" fill-opacity="1"><g transform="translate(105.185188, 188.264529)"><g><path d="M 7.046875 0.375 C 5.410156 0.375 4.097656 -0.0546875 3.109375 -0.921875 C 2.128906 -1.785156 1.554688 -3.019531 1.390625 -4.625 C 1.335938 -4.90625 1.445312 -5.070312 1.71875 -5.125 L 3.8125 -5.53125 C 4.082031 -5.582031 4.242188 -5.472656 4.296875 -5.203125 C 4.429688 -4.191406 4.75 -3.46875 5.25 -3.03125 C 5.757812 -2.59375 6.375 -2.375 7.09375 -2.375 C 7.882812 -2.375 8.507812 -2.601562 8.96875 -3.0625 C 9.4375 -3.53125 9.671875 -4.242188 9.671875 -5.203125 C 9.671875 -5.992188 9.507812 -6.617188 9.1875 -7.078125 C 8.875 -7.546875 8.285156 -7.957031 7.421875 -8.3125 L 5.78125 -8.9375 C 4.488281 -9.425781 3.488281 -10.113281 2.78125 -11 C 2.070312 -11.882812 1.71875 -13.039062 1.71875 -14.46875 C 1.71875 -16.070312 2.195312 -17.394531 3.15625 -18.4375 C 4.113281 -19.476562 5.425781 -20 7.09375 -20 C 8.695312 -20 9.9375 -19.5625 10.8125 -18.6875 C 11.6875 -17.8125 12.191406 -16.785156 12.328125 -15.609375 C 12.378906 -15.304688 12.285156 -15.128906 12.046875 -15.078125 L 10.078125 -14.671875 C 9.828125 -14.640625 9.664062 -14.75 9.59375 -15 C 9.394531 -15.707031 9.117188 -16.265625 8.765625 -16.671875 C 8.410156 -17.078125 7.851562 -17.28125 7.09375 -17.28125 C 6.300781 -17.28125 5.710938 -17.039062 5.328125 -16.5625 C 4.941406 -16.09375 4.75 -15.460938 4.75 -14.671875 C 4.75 -14.066406 4.90625 -13.53125 5.21875 -13.0625 C 5.53125 -12.601562 6.125 -12.195312 7 -11.84375 L 8.640625 -11.21875 C 10.171875 -10.644531 11.222656 -9.894531 11.796875 -8.96875 C 12.367188 -8.039062 12.65625 -6.851562 12.65625 -5.40625 C 12.65625 -3.6875 12.171875 -2.289062 11.203125 -1.21875 C 10.234375 -0.15625 8.847656 0.375 7.046875 0.375 Z M 7.046875 0.375 "/></g></g></g><g fill="#ffd602" fill-opacity="1"><g transform="translate(119.238014, 188.264529)"><g><path d="M 7.53125 0.375 C 4.832031 0.375 3.085938 -0.84375 2.296875 -3.28125 C 2.210938 -3.550781 2.132812 -3.828125 2.0625 -4.109375 C 2 -4.398438 1.953125 -4.769531 1.921875 -5.21875 C 1.898438 -5.675781 1.878906 -6.265625 1.859375 -6.984375 C 1.847656 -7.710938 1.84375 -8.660156 1.84375 -9.828125 C 1.84375 -11.003906 1.847656 -11.953125 1.859375 -12.671875 C 1.878906 -13.398438 1.898438 -13.988281 1.921875 -14.4375 C 1.953125 -14.894531 2 -15.25 2.0625 -15.5 C 2.132812 -15.757812 2.210938 -16.039062 2.296875 -16.34375 C 3.085938 -18.78125 4.832031 -20 7.53125 -20 C 9.09375 -20 10.363281 -19.546875 11.34375 -18.640625 C 12.332031 -17.734375 12.894531 -16.503906 13.03125 -14.953125 C 13.03125 -14.703125 12.929688 -14.550781 12.734375 -14.5 L 10.53125 -14.09375 C 10.257812 -14.007812 10.09375 -14.117188 10.03125 -14.421875 C 9.894531 -15.347656 9.613281 -16.015625 9.1875 -16.421875 C 8.769531 -16.835938 8.21875 -17.046875 7.53125 -17.046875 C 6.363281 -17.046875 5.601562 -16.507812 5.25 -15.4375 C 5.1875 -15.25 5.132812 -15.054688 5.09375 -14.859375 C 5.0625 -14.671875 5.035156 -14.382812 5.015625 -14 C 5.003906 -13.625 5 -13.109375 5 -12.453125 C 5 -11.796875 5 -10.921875 5 -9.828125 C 5 -8.710938 5 -7.828125 5 -7.171875 C 5 -6.515625 5.003906 -5.992188 5.015625 -5.609375 C 5.035156 -5.234375 5.0625 -4.945312 5.09375 -4.75 C 5.132812 -4.5625 5.1875 -4.367188 5.25 -4.171875 C 5.601562 -3.109375 6.363281 -2.578125 7.53125 -2.578125 C 8.21875 -2.578125 8.769531 -2.78125 9.1875 -3.1875 C 9.613281 -3.601562 9.894531 -4.273438 10.03125 -5.203125 C 10.09375 -5.503906 10.257812 -5.613281 10.53125 -5.53125 L 12.734375 -5.125 C 12.929688 -5.070312 13.03125 -4.921875 13.03125 -4.671875 C 12.894531 -3.109375 12.332031 -1.875 11.34375 -0.96875 C 10.363281 -0.0703125 9.09375 0.375 7.53125 0.375 Z M 7.53125 0.375 "/></g></g></g><g fill="#ffd602" fill-opacity="1"><g transform="translate(133.454723, 188.264529)"><g><path d="M 2.78125 0 C 2.507812 0 2.375 -0.132812 2.375 -0.40625 L 2.375 -19.21875 C 2.375 -19.488281 2.507812 -19.625 2.78125 -19.625 L 5.125 -19.625 C 5.394531 -19.625 5.53125 -19.488281 5.53125 -19.21875 L 5.53125 -17.375 L 5.578125 -17.375 C 5.898438 -18.132812 6.378906 -18.757812 7.015625 -19.25 C 7.660156 -19.75 8.488281 -20 9.5 -20 C 9.800781 -20 10.0625 -19.96875 10.28125 -19.90625 C 10.53125 -19.851562 10.613281 -19.703125 10.53125 -19.453125 L 9.953125 -17.125 C 9.867188 -16.875 9.707031 -16.75 9.46875 -16.75 L 8.84375 -16.75 C 7.894531 -16.75 7.101562 -16.40625 6.46875 -15.71875 C 5.84375 -15.039062 5.53125 -13.976562 5.53125 -12.53125 L 5.53125 -0.40625 C 5.53125 -0.132812 5.394531 0 5.125 0 Z M 2.78125 0 "/></g></g></g><g fill="#ffd602" fill-opacity="1"><g transform="translate(144.639622, 188.264529)"><g><path d="M 2.65625 -24.09375 C 2.382812 -24.09375 2.25 -24.226562 2.25 -24.5 L 2.25 -27.453125 C 2.25 -27.722656 2.382812 -27.859375 2.65625 -27.859375 L 5.25 -27.859375 C 5.519531 -27.859375 5.65625 -27.722656 5.65625 -27.453125 L 5.65625 -24.5 C 5.65625 -24.226562 5.519531 -24.09375 5.25 -24.09375 Z M 2.78125 0 C 2.507812 0 2.375 -0.132812 2.375 -0.40625 L 2.375 -19.21875 C 2.375 -19.488281 2.507812 -19.625 2.78125 -19.625 L 5.125 -19.625 C 5.394531 -19.625 5.53125 -19.488281 5.53125 -19.21875 L 5.53125 -0.40625 C 5.53125 -0.132812 5.394531 0 5.125 0 Z M 2.78125 0 "/></g></g></g><g fill="#ffd602" fill-opacity="1"><g transform="translate(152.546897, 188.264529)"><g><path d="M 2.78125 7.375 C 2.507812 7.375 2.375 7.238281 2.375 6.96875 L 2.375 -19.21875 C 2.375 -19.488281 2.507812 -19.625 2.78125 -19.625 L 5.125 -19.625 C 5.394531 -19.625 5.53125 -19.488281 5.53125 -19.21875 L 5.53125 -17.609375 L 5.578125 -17.609375 C 5.847656 -18.296875 6.269531 -18.863281 6.84375 -19.3125 C 7.414062 -19.769531 8.234375 -20 9.296875 -20 C 11.453125 -20 12.875 -18.929688 13.5625 -16.796875 C 13.644531 -16.523438 13.71875 -16.226562 13.78125 -15.90625 C 13.851562 -15.59375 13.910156 -15.191406 13.953125 -14.703125 C 13.992188 -14.210938 14.019531 -13.578125 14.03125 -12.796875 C 14.039062 -12.023438 14.046875 -11.035156 14.046875 -9.828125 C 14.046875 -8.628906 14.039062 -7.640625 14.03125 -6.859375 C 14.019531 -6.078125 13.992188 -5.429688 13.953125 -4.921875 C 13.910156 -4.421875 13.851562 -4.015625 13.78125 -3.703125 C 13.71875 -3.390625 13.644531 -3.097656 13.5625 -2.828125 C 12.875 -0.691406 11.453125 0.375 9.296875 0.375 C 8.234375 0.375 7.414062 0.140625 6.84375 -0.328125 C 6.269531 -0.796875 5.847656 -1.351562 5.578125 -2 L 5.53125 -2 L 5.53125 6.96875 C 5.53125 7.238281 5.394531 7.375 5.125 7.375 Z M 8.234375 -2.578125 C 9.429688 -2.578125 10.222656 -3.148438 10.609375 -4.296875 C 10.660156 -4.460938 10.707031 -4.644531 10.75 -4.84375 C 10.789062 -5.050781 10.816406 -5.335938 10.828125 -5.703125 C 10.847656 -6.078125 10.863281 -6.59375 10.875 -7.25 C 10.882812 -7.90625 10.890625 -8.765625 10.890625 -9.828125 C 10.890625 -10.898438 10.882812 -11.753906 10.875 -12.390625 C 10.863281 -13.035156 10.847656 -13.539062 10.828125 -13.90625 C 10.816406 -14.28125 10.789062 -14.566406 10.75 -14.765625 C 10.707031 -14.972656 10.660156 -15.160156 10.609375 -15.328125 C 10.222656 -16.472656 9.429688 -17.046875 8.234375 -17.046875 C 7.609375 -17.046875 7.097656 -16.894531 6.703125 -16.59375 C 6.304688 -16.289062 6.007812 -15.867188 5.8125 -15.328125 C 5.757812 -15.160156 5.710938 -14.972656 5.671875 -14.765625 C 5.628906 -14.566406 5.601562 -14.28125 5.59375 -13.90625 C 5.582031 -13.539062 5.566406 -13.035156 5.546875 -12.390625 C 5.535156 -11.753906 5.53125 -10.898438 5.53125 -9.828125 C 5.53125 -8.765625 5.535156 -7.90625 5.546875 -7.25 C 5.566406 -6.59375 5.582031 -6.078125 5.59375 -5.703125 C 5.601562 -5.335938 5.628906 -5.050781 5.671875 -4.84375 C 5.710938 -4.644531 5.757812 -4.460938 5.8125 -4.296875 C 6.007812 -3.753906 6.304688 -3.332031 6.703125 -3.03125 C 7.097656 -2.726562 7.609375 -2.578125 8.234375 -2.578125 Z M 8.234375 -2.578125 "/></g></g></g><g fill="#ffd602" fill-opacity="1"><g transform="translate(168.48436, 188.264529)"><g><path d="M 7.296875 0.203125 C 5.796875 0.203125 4.703125 -0.15625 4.015625 -0.875 C 3.328125 -1.601562 2.984375 -2.800781 2.984375 -4.46875 L 2.984375 -16.875 C 2.984375 -17.039062 2.90625 -17.125 2.75 -17.125 L 1.5625 -17.125 C 1.28125 -17.125 1.140625 -17.257812 1.140625 -17.53125 L 1.140625 -19.21875 C 1.140625 -19.488281 1.28125 -19.625 1.5625 -19.625 L 2.75 -19.625 C 2.90625 -19.625 2.984375 -19.707031 2.984375 -19.875 L 2.984375 -25.40625 C 2.984375 -25.675781 3.125 -25.8125 3.40625 -25.8125 L 5.734375 -25.8125 C 6.003906 -25.8125 6.140625 -25.675781 6.140625 -25.40625 L 6.140625 -19.875 C 6.140625 -19.707031 6.222656 -19.625 6.390625 -19.625 L 8.3125 -19.625 C 8.582031 -19.625 8.71875 -19.488281 8.71875 -19.21875 L 8.71875 -17.53125 C 8.71875 -17.257812 8.582031 -17.125 8.3125 -17.125 L 6.390625 -17.125 C 6.222656 -17.125 6.140625 -17.039062 6.140625 -16.875 L 6.140625 -4.5 C 6.140625 -3.351562 6.6875 -2.78125 7.78125 -2.78125 L 8.3125 -2.78125 C 8.582031 -2.78125 8.71875 -2.644531 8.71875 -2.375 L 8.71875 -0.203125 C 8.71875 0.0664062 8.582031 0.203125 8.3125 0.203125 Z M 7.296875 0.203125 "/></g></g></g></svg>