<svg xmlns="http://www.w3.org/2000/svg" width="300" viewBox="0 0 224.88 225" height="300" version="1.0"><defs><clipPath id="a"><path d="M56.379 22.547H168.82v112.441H56.38Zm0 0"/></clipPath></defs><g clip-path="url(#a)"><path fill="#ffd600" d="M56.379 22.547H168.82v112.441H56.38Zm0 0"/></g><path fill="#000001" d="M129.898 106.71c2.16 3.513 4.508 6.876 9.485 6.876 4.18 0 6.37-2.074 6.37-4.95 0-3.437-2.265-4.66-6.862-6.663l-2.524-1.075c-7.273-3.085-12.11-6.949-12.11-15.117 0-7.527 5.763-13.258 14.766-13.258 6.415 0 11.02 2.223 14.344 8.04l-7.851 5.015c-1.73-3.082-3.598-4.3-6.493-4.3-2.953 0-4.824 1.867-4.824 4.3 0 3.012 1.871 4.23 6.2 6.094l2.519 1.078c8.574 3.648 13.41 7.379 13.41 15.762 0 9.031-7.137 13.984-16.71 13.984-9.368 0-14.688-4.703-17.65-10.52Zm-36.187.259c1.578 2.828 3.98 5.008 7.437 5.008 3.305 0 5.204-1.309 5.204-6.383V72.52h10.41v34.675c0 10.516-6.098 15.301-15.008 15.301-8.047 0-13.856-5.453-16.223-10.52Zm0 0"/><path d="M47.465 186.952c-.168-.219-.156-.41.031-.578l1.64-1.594c.188-.187.407-.187.657 0 .57.492 1.211.735 1.922.735.957 0 1.695-.27 2.219-.813.52-.55.781-1.477.781-2.781v-21.11c0-.27.133-.406.406-.406h2.5c.27 0 .406.137.406.406v20.86c0 2.406-.585 4.172-1.75 5.297-1.156 1.117-2.687 1.672-4.593 1.672-.875 0-1.684-.141-2.422-.422-.742-.29-1.34-.711-1.797-1.266ZM70.852 188.265c-.274 0-.406-.133-.406-.407v-1.687h-.047c-.274.773-.735 1.375-1.39 1.812-.657.438-1.423.657-2.298.657a5.16 5.16 0 0 1-1.703-.297 3.71 3.71 0 0 1-1.484-.953c-.438-.458-.79-1.063-1.047-1.813-.262-.75-.39-1.672-.39-2.766 0-1.093.148-2.023.452-2.796.301-.782.703-1.41 1.203-1.891a4.616 4.616 0 0 1 1.829-1.047 7.735 7.735 0 0 1 2.296-.328h2.329c.164 0 .25-.082.25-.25v-1.594c0-1.312-.22-2.258-.657-2.844-.437-.582-1.187-.875-2.25-.875-.718 0-1.34.125-1.86.375-.51.243-1 .555-1.468.938-.304.187-.523.133-.656-.172l-.781-1.594c-.137-.25-.106-.468.093-.656.57-.55 1.297-.988 2.172-1.312.875-.333 1.828-.5 2.86-.5 1.968 0 3.39.496 4.265 1.484.875.98 1.313 2.648 1.313 5v13.11c0 .273-.137.406-.406.406Zm-3.281-2.329c.851 0 1.546-.328 2.078-.984.53-.656.797-1.52.797-2.594v-2.703c0-.156-.086-.234-.25-.234h-1.844c-1.18 0-2.012.281-2.5.844-.492.554-.735 1.375-.735 2.468 0 1.063.207 1.867.625 2.407.426.53 1.036.796 1.829.796ZM81.786 188.265c-.219 0-.37-.133-.453-.407l-4.75-18.812c-.086-.27.016-.406.297-.406h2.453c.219 0 .352.136.406.406l3.078 13.437h.079l3.03-13.437c.052-.27.204-.406.454-.406h2.328c.281 0 .39.136.328.406l-4.75 18.812c-.086.274-.246.407-.484.407ZM100.391 188.265c-.273 0-.406-.133-.406-.407v-1.687h-.047c-.273.773-.734 1.375-1.39 1.812-.657.438-1.422.657-2.297.657a5.16 5.16 0 0 1-1.703-.297 3.71 3.71 0 0 1-1.485-.953c-.437-.458-.789-1.063-1.047-1.813-.261-.75-.39-1.672-.39-2.766 0-1.093.148-2.023.453-2.796.3-.782.703-1.41 1.203-1.891a4.616 4.616 0 0 1 1.828-1.047 7.735 7.735 0 0 1 2.297-.328h2.328c.164 0 .25-.082.25-.25v-1.594c0-1.312-.219-2.258-.656-2.844-.438-.582-1.188-.875-2.25-.875-.719 0-1.34.125-1.86.375-.511.243-1 .555-1.468.938-.305.187-.524.133-.656-.172l-.782-1.594c-.136-.25-.105-.468.094-.656.57-.55 1.297-.988 2.172-1.312.875-.333 1.828-.5 2.86-.5 1.968 0 3.39.496 4.265 1.484.875.98 1.312 2.648 1.312 5v13.11c0 .273-.136.406-.406.406Zm-3.28-2.329c.85 0 1.546-.328 2.077-.984.532-.656.797-1.52.797-2.594v-2.703c0-.156-.086-.234-.25-.234h-1.844c-1.18 0-2.011.281-2.5.844-.492.554-.734 1.375-.734 2.468 0 1.063.207 1.867.625 2.407.426.53 1.035.796 1.828.796ZM112.232 188.64c-1.637 0-2.95-.43-3.937-1.297-.98-.864-1.555-2.098-1.72-3.703-.054-.282.055-.446.329-.5l2.094-.407c.27-.05.43.059.484.328.133 1.012.453 1.735.953 2.172.508.438 1.125.657 1.844.657.789 0 1.414-.227 1.875-.688.469-.469.703-1.18.703-2.14 0-.79-.164-1.415-.484-1.876-.313-.468-.903-.879-1.766-1.234l-1.64-.625c-1.294-.488-2.294-1.176-3-2.062-.712-.883-1.063-2.04-1.063-3.47 0-1.6.477-2.925 1.437-3.968.957-1.039 2.27-1.562 3.938-1.562 1.602 0 2.844.437 3.719 1.312s1.379 1.902 1.515 3.078c.051.305-.043.48-.28.531l-1.97.407c-.25.03-.414-.078-.484-.328-.2-.708-.477-1.266-.828-1.672-.356-.407-.914-.61-1.672-.61-.793 0-1.383.242-1.766.719-.386.469-.578 1.102-.578 1.89 0 .606.156 1.141.469 1.61.312.461.906.867 1.781 1.219l1.64.625c1.532.574 2.583 1.324 3.157 2.25.57.93.86 2.117.86 3.562 0 1.719-.485 3.117-1.454 4.188-.968 1.062-2.355 1.594-4.156 1.594ZM126.77 188.64c-2.7 0-4.446-1.22-5.235-3.657a13.55 13.55 0 0 1-.234-.828c-.063-.289-.11-.66-.141-1.11a78.077 78.077 0 0 1-.063-1.765 188.01 188.01 0 0 1-.015-2.844c0-1.175.004-2.125.015-2.843.02-.727.04-1.317.063-1.766.031-.457.078-.812.14-1.062.07-.258.149-.54.235-.844.789-2.438 2.535-3.656 5.234-3.656 1.563 0 2.832.453 3.813 1.359.988.906 1.55 2.137 1.687 3.687 0 .25-.101.403-.297.454l-2.203.406c-.273.086-.437-.024-.5-.328-.136-.926-.418-1.594-.843-2-.418-.414-.97-.625-1.657-.625-1.168 0-1.93.539-2.281 1.609a4.852 4.852 0 0 0-.156.578 8.223 8.223 0 0 0-.078.86c-.012.375-.016.89-.016 1.546v5.282c0 .656.004 1.18.016 1.562.02.375.047.664.078.86.039.187.094.382.156.578.352 1.062 1.113 1.593 2.281 1.593.688 0 1.239-.203 1.657-.609.425-.414.707-1.086.843-2.016.063-.3.227-.41.5-.328l2.203.407c.196.054.297.203.297.453-.136 1.562-.699 2.797-1.687 3.703-.98.898-2.25 1.344-3.813 1.344ZM136.236 188.265c-.273 0-.406-.133-.406-.407v-18.812c0-.27.133-.406.406-.406h2.344c.27 0 .406.136.406.406v1.844h.047c.32-.758.8-1.383 1.437-1.875.645-.5 1.473-.75 2.485-.75.3 0 .562.03.781.093.25.055.332.203.25.453l-.578 2.329c-.086.25-.246.375-.485.375h-.625c-.949 0-1.742.343-2.375 1.03-.625.68-.937 1.743-.937 3.188v12.125c0 .274-.137.407-.406.407ZM147.296 164.17c-.274 0-.406-.132-.406-.405v-2.954c0-.27.132-.406.406-.406h2.594c.27 0 .406.137.406.406v2.954c0 .273-.137.406-.406.406Zm.125 24.095c-.274 0-.406-.133-.406-.407v-18.812c0-.27.132-.406.406-.406h2.344c.27 0 .406.136.406.406v18.812c0 .274-.137.407-.406.407ZM155.328 195.64c-.273 0-.406-.137-.406-.407v-26.187c0-.27.133-.406.406-.406h2.344c.27 0 .406.136.406.406v1.61h.047a3.954 3.954 0 0 1 1.266-1.704c.57-.457 1.39-.687 2.453-.687 2.156 0 3.578 1.07 4.265 3.203.082.273.157.57.22.89.07.313.128.715.171 1.203.04.493.066 1.125.078 1.907a287.567 287.567 0 0 1 0 5.937c-.012.781-.039 1.43-.078 1.938-.043.5-.102.906-.172 1.218a9.23 9.23 0 0 1-.219.875c-.687 2.137-2.109 3.204-4.265 3.204-1.063 0-1.883-.235-2.453-.704a4.236 4.236 0 0 1-1.266-1.671h-.047v8.968c0 .27-.137.407-.406.407Zm5.453-9.954c1.196 0 1.989-.57 2.375-1.718.051-.164.098-.348.14-.547.04-.207.067-.492.079-.86.02-.375.035-.89.047-1.546a212.649 212.649 0 0 0 0-5.141 45.911 45.911 0 0 0-.047-1.516 5.632 5.632 0 0 0-.078-.86 6.56 6.56 0 0 0-.14-.562c-.387-1.144-1.18-1.718-2.376-1.718-.625 0-1.136.152-1.531.453-.398.304-.695.726-.89 1.265a4.775 4.775 0 0 0-.219 1.422l-.047 1.516c-.012.637-.016 1.492-.016 2.562 0 1.063.004 1.922.016 2.579l.047 1.546c.007.368.035.653.078.86.039.199.086.383.14.547.196.543.493.964.891 1.265.395.305.906.453 1.531.453ZM175.781 188.468c-1.5 0-2.594-.36-3.281-1.078-.688-.727-1.031-1.926-1.031-3.594V171.39c0-.165-.078-.25-.235-.25h-1.187c-.281 0-.422-.133-.422-.407v-1.687c0-.27.14-.406.422-.406h1.187c.157 0 .235-.083.235-.25v-5.532c0-.27.14-.406.422-.406h2.328c.27 0 .406.137.406.406v5.532c0 .167.082.25.25.25h1.922c.27 0 .406.136.406.406v1.687c0 .274-.137.407-.406.407h-1.922c-.168 0-.25.085-.25.25v12.375c0 1.148.547 1.718 1.64 1.718h.532c.27 0 .406.137.406.407v2.171c0 .27-.137.407-.406.407Zm0 0" fill="#ffd602"/></svg>