<svg xmlns="http://www.w3.org/2000/svg" xmlns:xlink="http://www.w3.org/1999/xlink" width="300" zoomAndPan="magnify" viewBox="0 0 224.87999 225" height="300" preserveAspectRatio="xMidYMid meet" version="1.0"><defs><g/></defs><path fill="#ffffff" d="M 113.183594 140.894531 L 110.472656 139.976562 C 110.472656 139.976562 110.804688 126.230469 105.847656 125.242188 C 102.546875 121.429688 106.378906 -36.554688 118.269531 124.714844 C 118.269531 124.714844 114.175781 126.753906 113.445312 130.238281 C 112.65625 133.664062 113.183594 140.894531 113.183594 140.894531 Z M 113.183594 140.894531 " fill-opacity="1" fill-rule="nonzero"/><path fill="#a6a385" d="M 113.183594 140.894531 L 110.472656 139.976562 C 110.472656 139.976562 110.804688 126.230469 105.847656 125.242188 C 102.546875 121.429688 106.378906 -36.554688 118.269531 124.714844 C 118.269531 124.714844 114.175781 126.753906 113.445312 130.238281 C 112.65625 133.664062 113.183594 140.894531 113.183594 140.894531 Z M 113.183594 140.894531 " fill-opacity="1" fill-rule="nonzero"/><path fill="#ffffff" d="M 114.636719 127.609375 C 114.636719 127.609375 138.359375 112.089844 132.808594 79.792969 C 127.457031 56.316406 114.835938 48.617188 113.449219 45.660156 C 111.933594 43.554688 110.476562 39.875 110.476562 39.875 L 111.46875 105.183594 C 111.464844 105.246094 109.417969 125.175781 114.636719 127.609375 Z M 114.636719 127.609375 " fill-opacity="1" fill-rule="nonzero"/><path fill="#499d4a" d="M 114.636719 127.609375 C 114.636719 127.609375 138.359375 112.089844 132.808594 79.792969 C 127.457031 56.316406 114.835938 48.617188 113.449219 45.660156 C 111.933594 43.554688 110.476562 39.875 110.476562 39.875 L 111.46875 105.183594 C 111.464844 105.246094 109.417969 125.175781 114.636719 127.609375 Z M 114.636719 127.609375 " fill-opacity="1" fill-rule="nonzero"/><path fill="#ffffff" d="M 109.085938 128.464844 C 109.085938 128.464844 86.820312 113.335938 88.144531 86.699219 C 89.398438 60.058594 105.125 46.972656 108.164062 44.605469 C 110.148438 42.503906 110.210938 41.714844 110.34375 39.609375 C 111.730469 42.566406 111.464844 83.871094 111.664062 88.738281 C 112.257812 107.484375 110.609375 124.914062 109.085938 128.464844 Z M 109.085938 128.464844 " fill-opacity="1" fill-rule="nonzero"/><path fill="#58aa50" d="M 109.085938 128.464844 C 109.085938 128.464844 86.820312 113.335938 88.144531 86.699219 C 89.398438 60.058594 105.125 46.972656 108.164062 44.605469 C 110.148438 42.503906 110.210938 41.714844 110.34375 39.609375 C 111.730469 42.566406 111.464844 83.871094 111.664062 88.738281 C 112.257812 107.484375 110.609375 124.914062 109.085938 128.464844 Z M 109.085938 128.464844 " fill-opacity="1" fill-rule="nonzero"/><g fill="#c3ffc5" fill-opacity="1"><g transform="translate(52.7788, 188.264544)"><g><path d="M 2.453125 -27.453125 C 2.453125 -27.722656 2.59375 -27.859375 2.875 -27.859375 L 5.40625 -27.859375 C 5.707031 -27.859375 5.898438 -27.722656 5.984375 -27.453125 L 11.0625 -10.40625 L 11.21875 -10.40625 L 16.1875 -27.453125 C 16.269531 -27.722656 16.472656 -27.859375 16.796875 -27.859375 L 19.296875 -27.859375 C 19.566406 -27.859375 19.703125 -27.722656 19.703125 -27.453125 L 19.703125 -0.40625 C 19.703125 -0.132812 19.566406 0 19.296875 0 L 17.078125 0 C 16.804688 0 16.671875 -0.132812 16.671875 -0.40625 L 16.671875 -19.703125 L 16.46875 -19.703125 L 12.25 -5.359375 C 12.164062 -5.085938 12.003906 -4.953125 11.765625 -4.953125 L 10.40625 -4.953125 C 10.15625 -4.953125 9.992188 -5.085938 9.921875 -5.359375 L 5.6875 -19.703125 L 5.484375 -19.703125 L 5.484375 -0.40625 C 5.484375 -0.132812 5.347656 0 5.078125 0 L 2.875 0 C 2.59375 0 2.453125 -0.132812 2.453125 -0.40625 Z M 2.453125 -27.453125 "/></g></g></g><g fill="#c3ffc5" fill-opacity="1"><g transform="translate(74.943755, 188.264544)"><g><path d="M 7.65625 0.375 C 6.289062 0.375 5.144531 0.0507812 4.21875 -0.59375 C 3.289062 -1.238281 2.632812 -2.175781 2.25 -3.40625 C 2.164062 -3.675781 2.097656 -3.953125 2.046875 -4.234375 C 1.992188 -4.523438 1.953125 -4.894531 1.921875 -5.34375 C 1.898438 -5.789062 1.878906 -6.367188 1.859375 -7.078125 C 1.847656 -7.796875 1.84375 -8.710938 1.84375 -9.828125 C 1.84375 -10.953125 1.847656 -11.867188 1.859375 -12.578125 C 1.878906 -13.285156 1.898438 -13.863281 1.921875 -14.3125 C 1.953125 -14.769531 1.992188 -15.140625 2.046875 -15.421875 C 2.097656 -15.710938 2.164062 -15.992188 2.25 -16.265625 C 2.632812 -17.460938 3.289062 -18.382812 4.21875 -19.03125 C 5.144531 -19.675781 6.289062 -20 7.65625 -20 C 9.019531 -20 10.164062 -19.675781 11.09375 -19.03125 C 12.03125 -18.382812 12.6875 -17.460938 13.0625 -16.265625 C 13.144531 -15.992188 13.210938 -15.710938 13.265625 -15.421875 C 13.328125 -15.140625 13.367188 -14.769531 13.390625 -14.3125 C 13.421875 -13.863281 13.441406 -13.285156 13.453125 -12.578125 C 13.472656 -11.867188 13.484375 -10.953125 13.484375 -9.828125 C 13.484375 -8.710938 13.472656 -7.796875 13.453125 -7.078125 C 13.441406 -6.367188 13.421875 -5.789062 13.390625 -5.34375 C 13.367188 -4.894531 13.328125 -4.523438 13.265625 -4.234375 C 13.210938 -3.953125 13.144531 -3.675781 13.0625 -3.40625 C 12.6875 -2.175781 12.03125 -1.238281 11.09375 -0.59375 C 10.164062 0.0507812 9.019531 0.375 7.65625 0.375 Z M 7.65625 -2.578125 C 8.882812 -2.578125 9.691406 -3.148438 10.078125 -4.296875 C 10.128906 -4.460938 10.164062 -4.644531 10.1875 -4.84375 C 10.21875 -5.050781 10.25 -5.335938 10.28125 -5.703125 C 10.3125 -6.078125 10.328125 -6.59375 10.328125 -7.25 C 10.328125 -7.90625 10.328125 -8.765625 10.328125 -9.828125 C 10.328125 -10.898438 10.328125 -11.753906 10.328125 -12.390625 C 10.328125 -13.035156 10.3125 -13.539062 10.28125 -13.90625 C 10.25 -14.28125 10.21875 -14.566406 10.1875 -14.765625 C 10.164062 -14.972656 10.128906 -15.160156 10.078125 -15.328125 C 9.691406 -16.472656 8.882812 -17.046875 7.65625 -17.046875 C 6.425781 -17.046875 5.625 -16.472656 5.25 -15.328125 C 5.1875 -15.160156 5.140625 -14.972656 5.109375 -14.765625 C 5.085938 -14.566406 5.0625 -14.28125 5.03125 -13.90625 C 5.007812 -13.539062 5 -13.035156 5 -12.390625 C 5 -11.753906 5 -10.898438 5 -9.828125 C 5 -8.765625 5 -7.90625 5 -7.25 C 5 -6.59375 5.007812 -6.078125 5.03125 -5.703125 C 5.0625 -5.335938 5.085938 -5.050781 5.109375 -4.84375 C 5.140625 -4.644531 5.1875 -4.460938 5.25 -4.296875 C 5.625 -3.148438 6.425781 -2.578125 7.65625 -2.578125 Z M 7.65625 -2.578125 "/></g></g></g><g fill="#c3ffc5" fill-opacity="1"><g transform="translate(90.266655, 188.264544)"><g><path d="M 11.140625 0 C 10.867188 0 10.734375 -0.132812 10.734375 -0.40625 L 10.734375 -13.484375 C 10.734375 -15.859375 9.875 -17.046875 8.15625 -17.046875 C 7.332031 -17.046875 6.6875 -16.757812 6.21875 -16.1875 C 5.757812 -15.613281 5.53125 -14.710938 5.53125 -13.484375 L 5.53125 -0.40625 C 5.53125 -0.132812 5.394531 0 5.125 0 L 2.78125 0 C 2.507812 0 2.375 -0.132812 2.375 -0.40625 L 2.375 -19.21875 C 2.375 -19.488281 2.507812 -19.625 2.78125 -19.625 L 5.125 -19.625 C 5.394531 -19.625 5.53125 -19.488281 5.53125 -19.21875 L 5.53125 -17.65625 L 5.578125 -17.65625 C 5.867188 -18.3125 6.320312 -18.863281 6.9375 -19.3125 C 7.550781 -19.769531 8.335938 -20 9.296875 -20 C 10.828125 -20 11.972656 -19.507812 12.734375 -18.53125 C 13.503906 -17.5625 13.890625 -16.039062 13.890625 -13.96875 L 13.890625 -0.40625 C 13.890625 -0.132812 13.753906 0 13.484375 0 Z M 11.140625 0 "/></g></g></g><g fill="#c3ffc5" fill-opacity="1"><g transform="translate(106.368001, 188.264544)"><g><path d="M 7.625 7.75 C 6.257812 7.75 5.097656 7.40625 4.140625 6.71875 C 3.179688 6.03125 2.550781 5.144531 2.25 4.0625 C 2.195312 3.8125 2.265625 3.644531 2.453125 3.5625 L 4.625 2.78125 C 4.875 2.695312 5.050781 2.765625 5.15625 2.984375 C 5.625 4.160156 6.472656 4.75 7.703125 4.75 C 8.492188 4.75 9.128906 4.507812 9.609375 4.03125 C 10.085938 3.550781 10.328125 2.796875 10.328125 1.765625 L 10.328125 -2.453125 L 10.28125 -2.453125 C 10.039062 -1.773438 9.628906 -1.207031 9.046875 -0.75 C 8.472656 -0.300781 7.671875 -0.078125 6.640625 -0.078125 C 4.453125 -0.078125 3.03125 -1.144531 2.375 -3.28125 C 2.289062 -3.550781 2.210938 -3.835938 2.140625 -4.140625 C 2.078125 -4.441406 2.023438 -4.835938 1.984375 -5.328125 C 1.941406 -5.816406 1.914062 -6.4375 1.90625 -7.1875 C 1.894531 -7.9375 1.890625 -8.875 1.890625 -10 C 1.890625 -11.113281 1.894531 -12.046875 1.90625 -12.796875 C 1.914062 -13.546875 1.941406 -14.164062 1.984375 -14.65625 C 2.023438 -15.15625 2.078125 -15.5625 2.140625 -15.875 C 2.210938 -16.1875 2.289062 -16.46875 2.375 -16.71875 C 2.707031 -17.78125 3.210938 -18.59375 3.890625 -19.15625 C 4.578125 -19.71875 5.492188 -20 6.640625 -20 C 7.671875 -20 8.472656 -19.765625 9.046875 -19.296875 C 9.628906 -18.828125 10.039062 -18.253906 10.28125 -17.578125 L 10.328125 -17.578125 L 10.328125 -19.21875 C 10.328125 -19.488281 10.460938 -19.625 10.734375 -19.625 L 13.0625 -19.625 C 13.34375 -19.625 13.484375 -19.488281 13.484375 -19.21875 L 13.484375 1.4375 C 13.484375 3.507812 12.957031 5.078125 11.90625 6.140625 C 10.851562 7.210938 9.425781 7.75 7.625 7.75 Z M 7.703125 -2.984375 C 8.878906 -2.984375 9.65625 -3.5625 10.03125 -4.71875 C 10.09375 -4.875 10.140625 -5.039062 10.171875 -5.21875 C 10.210938 -5.394531 10.238281 -5.664062 10.25 -6.03125 C 10.269531 -6.40625 10.285156 -6.90625 10.296875 -7.53125 C 10.316406 -8.164062 10.328125 -8.988281 10.328125 -10 C 10.328125 -11.007812 10.316406 -11.828125 10.296875 -12.453125 C 10.285156 -13.078125 10.269531 -13.570312 10.25 -13.9375 C 10.238281 -14.3125 10.210938 -14.59375 10.171875 -14.78125 C 10.140625 -14.976562 10.09375 -15.160156 10.03125 -15.328125 C 9.84375 -15.867188 9.554688 -16.289062 9.171875 -16.59375 C 8.796875 -16.894531 8.304688 -17.046875 7.703125 -17.046875 C 6.503906 -17.046875 5.710938 -16.472656 5.328125 -15.328125 C 5.273438 -15.160156 5.234375 -14.976562 5.203125 -14.78125 C 5.171875 -14.59375 5.140625 -14.3125 5.109375 -13.9375 C 5.085938 -13.570312 5.070312 -13.078125 5.0625 -12.453125 C 5.050781 -11.828125 5.046875 -11.007812 5.046875 -10 C 5.046875 -8.988281 5.050781 -8.164062 5.0625 -7.53125 C 5.070312 -6.90625 5.085938 -6.40625 5.109375 -6.03125 C 5.140625 -5.664062 5.171875 -5.394531 5.203125 -5.21875 C 5.234375 -5.039062 5.273438 -4.875 5.328125 -4.71875 C 5.710938 -3.5625 6.503906 -2.984375 7.703125 -2.984375 Z M 7.703125 -2.984375 "/></g></g></g><g fill="#c3ffc5" fill-opacity="1"><g transform="translate(122.223523, 188.264544)"><g><path d="M 7.65625 0.375 C 6.289062 0.375 5.144531 0.0507812 4.21875 -0.59375 C 3.289062 -1.238281 2.632812 -2.175781 2.25 -3.40625 C 2.164062 -3.675781 2.097656 -3.953125 2.046875 -4.234375 C 1.992188 -4.523438 1.953125 -4.894531 1.921875 -5.34375 C 1.898438 -5.789062 1.878906 -6.367188 1.859375 -7.078125 C 1.847656 -7.796875 1.84375 -8.710938 1.84375 -9.828125 C 1.84375 -10.953125 1.847656 -11.867188 1.859375 -12.578125 C 1.878906 -13.285156 1.898438 -13.863281 1.921875 -14.3125 C 1.953125 -14.769531 1.992188 -15.140625 2.046875 -15.421875 C 2.097656 -15.710938 2.164062 -15.992188 2.25 -16.265625 C 2.632812 -17.460938 3.289062 -18.382812 4.21875 -19.03125 C 5.144531 -19.675781 6.289062 -20 7.65625 -20 C 9.019531 -20 10.164062 -19.675781 11.09375 -19.03125 C 12.03125 -18.382812 12.6875 -17.460938 13.0625 -16.265625 C 13.144531 -15.992188 13.210938 -15.710938 13.265625 -15.421875 C 13.328125 -15.140625 13.367188 -14.769531 13.390625 -14.3125 C 13.421875 -13.863281 13.441406 -13.285156 13.453125 -12.578125 C 13.472656 -11.867188 13.484375 -10.953125 13.484375 -9.828125 C 13.484375 -8.710938 13.472656 -7.796875 13.453125 -7.078125 C 13.441406 -6.367188 13.421875 -5.789062 13.390625 -5.34375 C 13.367188 -4.894531 13.328125 -4.523438 13.265625 -4.234375 C 13.210938 -3.953125 13.144531 -3.675781 13.0625 -3.40625 C 12.6875 -2.175781 12.03125 -1.238281 11.09375 -0.59375 C 10.164062 0.0507812 9.019531 0.375 7.65625 0.375 Z M 7.65625 -2.578125 C 8.882812 -2.578125 9.691406 -3.148438 10.078125 -4.296875 C 10.128906 -4.460938 10.164062 -4.644531 10.1875 -4.84375 C 10.21875 -5.050781 10.25 -5.335938 10.28125 -5.703125 C 10.3125 -6.078125 10.328125 -6.59375 10.328125 -7.25 C 10.328125 -7.90625 10.328125 -8.765625 10.328125 -9.828125 C 10.328125 -10.898438 10.328125 -11.753906 10.328125 -12.390625 C 10.328125 -13.035156 10.3125 -13.539062 10.28125 -13.90625 C 10.25 -14.28125 10.21875 -14.566406 10.1875 -14.765625 C 10.164062 -14.972656 10.128906 -15.160156 10.078125 -15.328125 C 9.691406 -16.472656 8.882812 -17.046875 7.65625 -17.046875 C 6.425781 -17.046875 5.625 -16.472656 5.25 -15.328125 C 5.1875 -15.160156 5.140625 -14.972656 5.109375 -14.765625 C 5.085938 -14.566406 5.0625 -14.28125 5.03125 -13.90625 C 5.007812 -13.539062 5 -13.035156 5 -12.390625 C 5 -11.753906 5 -10.898438 5 -9.828125 C 5 -8.765625 5 -7.90625 5 -7.25 C 5 -6.59375 5.007812 -6.078125 5.03125 -5.703125 C 5.0625 -5.335938 5.085938 -5.050781 5.109375 -4.84375 C 5.140625 -4.644531 5.1875 -4.460938 5.25 -4.296875 C 5.625 -3.148438 6.425781 -2.578125 7.65625 -2.578125 Z M 7.65625 -2.578125 "/></g></g></g><g fill="#c3ffc5" fill-opacity="1"><g transform="translate(137.546422, 188.264544)"><g><path d="M 2.453125 -27.453125 C 2.453125 -27.722656 2.59375 -27.859375 2.875 -27.859375 L 8.640625 -27.859375 C 10.421875 -27.859375 11.820312 -27.492188 12.84375 -26.765625 C 13.863281 -26.046875 14.609375 -24.960938 15.078125 -23.515625 C 15.179688 -23.128906 15.28125 -22.703125 15.375 -22.234375 C 15.476562 -21.773438 15.550781 -21.191406 15.59375 -20.484375 C 15.632812 -19.773438 15.664062 -18.894531 15.6875 -17.84375 C 15.71875 -16.789062 15.734375 -15.484375 15.734375 -13.921875 C 15.734375 -12.367188 15.71875 -11.066406 15.6875 -10.015625 C 15.664062 -8.960938 15.632812 -8.082031 15.59375 -7.375 C 15.550781 -6.664062 15.476562 -6.078125 15.375 -5.609375 C 15.28125 -5.148438 15.179688 -4.726562 15.078125 -4.34375 C 14.609375 -2.894531 13.863281 -1.804688 12.84375 -1.078125 C 11.820312 -0.359375 10.421875 0 8.640625 0 L 2.875 0 C 2.59375 0 2.453125 -0.132812 2.453125 -0.40625 Z M 5.78125 -3.3125 C 5.78125 -3.15625 5.859375 -3.078125 6.015625 -3.078125 L 8.3125 -3.078125 C 9.269531 -3.078125 10.019531 -3.265625 10.5625 -3.640625 C 11.113281 -4.023438 11.539062 -4.628906 11.84375 -5.453125 C 11.925781 -5.722656 12 -6.046875 12.0625 -6.421875 C 12.132812 -6.804688 12.191406 -7.3125 12.234375 -7.9375 C 12.273438 -8.570312 12.304688 -9.367188 12.328125 -10.328125 C 12.359375 -11.285156 12.375 -12.484375 12.375 -13.921875 C 12.375 -15.367188 12.359375 -16.570312 12.328125 -17.53125 C 12.304688 -18.488281 12.273438 -19.28125 12.234375 -19.90625 C 12.191406 -20.539062 12.132812 -21.039062 12.0625 -21.40625 C 12 -21.769531 11.925781 -22.101562 11.84375 -22.40625 C 11.539062 -23.226562 11.113281 -23.828125 10.5625 -24.203125 C 10.019531 -24.585938 9.269531 -24.78125 8.3125 -24.78125 L 6.015625 -24.78125 C 5.859375 -24.78125 5.78125 -24.703125 5.78125 -24.546875 Z M 5.78125 -3.3125 "/></g></g></g><g fill="#c3ffc5" fill-opacity="1"><g transform="translate(155.28658, 188.264544)"><g><path d="M 2.453125 -27.453125 C 2.453125 -27.722656 2.59375 -27.859375 2.875 -27.859375 L 8.15625 -27.859375 C 10.5625 -27.859375 12.316406 -27.296875 13.421875 -26.171875 C 14.523438 -25.054688 15.078125 -23.226562 15.078125 -20.6875 C 15.078125 -18.9375 14.796875 -17.597656 14.234375 -16.671875 C 13.671875 -15.742188 12.875 -15.046875 11.84375 -14.578125 L 11.84375 -14.5 C 12.875 -14.175781 13.71875 -13.507812 14.375 -12.5 C 15.03125 -11.488281 15.359375 -9.984375 15.359375 -7.984375 C 15.359375 -6.484375 15.207031 -5.226562 14.90625 -4.21875 C 14.613281 -3.207031 14.148438 -2.382812 13.515625 -1.75 C 12.890625 -1.125 12.097656 -0.675781 11.140625 -0.40625 C 10.179688 -0.132812 9.050781 0 7.75 0 L 2.875 0 C 2.59375 0 2.453125 -0.132812 2.453125 -0.40625 Z M 7.984375 -15.8125 C 9.296875 -15.8125 10.242188 -16.117188 10.828125 -16.734375 C 11.421875 -17.347656 11.71875 -18.53125 11.71875 -20.28125 C 11.71875 -21.175781 11.648438 -21.910156 11.515625 -22.484375 C 11.378906 -23.066406 11.160156 -23.523438 10.859375 -23.859375 C 10.554688 -24.203125 10.164062 -24.441406 9.6875 -24.578125 C 9.207031 -24.710938 8.613281 -24.78125 7.90625 -24.78125 L 6.015625 -24.78125 C 5.859375 -24.78125 5.78125 -24.703125 5.78125 -24.546875 L 5.78125 -16.0625 C 5.78125 -15.894531 5.859375 -15.8125 6.015625 -15.8125 Z M 5.78125 -3.3125 C 5.78125 -3.15625 5.859375 -3.078125 6.015625 -3.078125 L 7.859375 -3.078125 C 8.628906 -3.078125 9.269531 -3.148438 9.78125 -3.296875 C 10.300781 -3.441406 10.722656 -3.707031 11.046875 -4.09375 C 11.378906 -4.476562 11.617188 -4.988281 11.765625 -5.625 C 11.921875 -6.269531 12 -7.070312 12 -8.03125 C 12 -9.882812 11.6875 -11.160156 11.0625 -11.859375 C 10.4375 -12.554688 9.410156 -12.90625 7.984375 -12.90625 L 6.015625 -12.90625 C 5.859375 -12.90625 5.78125 -12.820312 5.78125 -12.65625 Z M 5.78125 -3.3125 "/></g></g></g></svg>