<svg xmlns="http://www.w3.org/2000/svg" width="300" viewBox="0 0 224.88 225" height="300" version="1.0"><path fill="#fff" d="m113.184 140.895-2.711-.918s.332-13.747-4.625-14.735c-3.301-3.812.53-161.797 12.422-.527 0 0-4.094 2.039-4.825 5.523-.789 3.426-.261 10.657-.261 10.657Zm0 0"/><path fill="#a6a385" d="m113.184 140.895-2.711-.918s.332-13.747-4.625-14.735c-3.301-3.812.53-161.797 12.422-.527 0 0-4.094 2.039-4.825 5.523-.789 3.426-.261 10.657-.261 10.657Zm0 0"/><path fill="#fff" d="M114.637 127.61s23.722-15.52 18.172-47.817c-5.352-23.477-17.973-31.176-19.36-34.133-1.515-2.105-2.972-5.785-2.972-5.785l.992 65.309c-.004.062-2.051 19.992 3.168 22.425Zm0 0"/><path fill="#499d4a" d="M114.637 127.61s23.722-15.52 18.172-47.817c-5.352-23.477-17.973-31.176-19.36-34.133-1.515-2.105-2.972-5.785-2.972-5.785l.992 65.309c-.004.062-2.051 19.992 3.168 22.425Zm0 0"/><path fill="#fff" d="M109.086 128.465s-22.266-15.13-20.941-41.766c1.253-26.64 16.98-39.726 20.02-42.094 1.983-2.101 2.046-2.89 2.179-4.996 1.386 2.957 1.12 44.262 1.32 49.13.594 18.745-1.055 36.175-2.578 39.726Zm0 0"/><path fill="#58aa50" d="M109.086 128.465s-22.266-15.13-20.941-41.766c1.253-26.64 16.98-39.726 20.02-42.094 1.983-2.101 2.046-2.89 2.179-4.996 1.386 2.957 1.12 44.262 1.32 49.13.594 18.745-1.055 36.175-2.578 39.726Zm0 0"/><path d="M55.232 160.811c0-.27.14-.406.422-.406h2.531c.3 0 .492.137.578.406l5.078 17.047h.157l4.968-17.047c.082-.27.285-.406.61-.406h2.5c.27 0 .406.137.406.406v27.047c0 .274-.137.407-.406.407h-2.22c-.273 0-.405-.133-.405-.407v-19.297h-.203l-4.22 14.344c-.085.274-.245.406-.484.406h-1.359c-.25 0-.414-.132-.484-.406l-4.235-14.344h-.203v19.297c0 .274-.137.407-.406.407h-2.203c-.281 0-.422-.133-.422-.407ZM82.6 188.64c-1.367 0-2.512-.325-3.437-.97-.93-.644-1.586-1.581-1.97-2.812a6.568 6.568 0 0 1-.202-.828 9.975 9.975 0 0 1-.125-1.11 73.562 73.562 0 0 1-.063-1.734c-.012-.718-.015-1.632-.015-2.75 0-1.125.003-2.039.015-2.75.02-.707.04-1.285.063-1.734.03-.457.07-.828.125-1.11.05-.288.117-.57.203-.843.383-1.195 1.039-2.117 1.969-2.766.925-.644 2.07-.968 3.437-.968 1.363 0 2.508.324 3.438.968.937.649 1.593 1.57 1.968 2.766.082.273.149.555.203.844.063.28.102.652.125 1.109.032.45.051 1.027.063 1.734.02.711.031 1.625.031 2.75 0 1.118-.012 2.032-.031 2.75-.012.711-.031 1.29-.063 1.735-.023.449-.062.82-.125 1.11a8.263 8.263 0 0 1-.203.827c-.375 1.23-1.031 2.168-1.968 2.813-.93.644-2.075.969-3.438.969Zm0-2.954c1.227 0 2.035-.57 2.422-1.718.05-.164.086-.348.11-.547.03-.207.062-.492.093-.86.031-.375.047-.89.047-1.546v-5.141c0-.645-.016-1.149-.047-1.516a12.77 12.77 0 0 0-.094-.86 3.192 3.192 0 0 0-.11-.562c-.386-1.144-1.194-1.718-2.421-1.718-1.23 0-2.031.574-2.406 1.718a2.82 2.82 0 0 0-.14.563c-.024.2-.048.484-.079.86-.023.366-.031.87-.031 1.515v5.141c0 .656.008 1.171.031 1.546.031.368.055.653.078.86.031.199.078.383.14.547.376 1.148 1.177 1.718 2.407 1.718ZM101.407 188.265c-.273 0-.406-.133-.406-.407V174.78c0-2.375-.86-3.562-2.578-3.562-.824 0-1.469.289-1.938.859-.46.574-.687 1.477-.687 2.703v13.078c0 .274-.137.407-.406.407h-2.344c-.274 0-.406-.133-.406-.407v-18.812c0-.27.132-.406.406-.406h2.344c.27 0 .406.136.406.406v1.562h.047a4.046 4.046 0 0 1 1.36-1.656c.612-.457 1.398-.687 2.359-.687 1.53 0 2.675.492 3.437 1.468.77.969 1.156 2.492 1.156 4.563v13.562c0 .274-.136.407-.406.407ZM113.993 196.015c-1.367 0-2.527-.344-3.484-1.032-.961-.687-1.59-1.574-1.891-2.656-.055-.25.016-.418.203-.5l2.172-.781c.25-.086.426-.016.531.203.469 1.176 1.317 1.766 2.547 1.766.79 0 1.426-.243 1.906-.72.477-.48.72-1.234.72-2.265v-4.219h-.048a3.71 3.71 0 0 1-1.234 1.704c-.574.449-1.375.671-2.406.671-2.188 0-3.61-1.066-4.266-3.203a10.87 10.87 0 0 1-.234-.86 9.793 9.793 0 0 1-.157-1.187 24.77 24.77 0 0 1-.078-1.859c-.011-.75-.015-1.687-.015-2.812 0-1.114.004-2.047.015-2.797.008-.75.035-1.368.078-1.86.04-.5.094-.906.157-1.218a8.03 8.03 0 0 1 .234-.844c.332-1.063.836-1.875 1.516-2.438.687-.562 1.601-.843 2.75-.843 1.03 0 1.832.234 2.406.703a3.836 3.836 0 0 1 1.234 1.718h.047v-1.64c0-.27.133-.406.406-.406h2.329c.28 0 .421.136.421.406v20.656c0 2.07-.527 3.64-1.578 4.703-1.054 1.07-2.48 1.61-4.281 1.61Zm.078-10.735c1.176 0 1.953-.578 2.328-1.734.063-.156.11-.32.14-.5a4.74 4.74 0 0 0 .079-.813c.02-.375.035-.875.047-1.5.02-.633.031-1.457.031-2.468 0-1.008-.012-1.829-.031-2.454a45.33 45.33 0 0 0-.047-1.484 5.243 5.243 0 0 0-.078-.844 2.872 2.872 0 0 0-.14-.547c-.188-.539-.477-.96-.86-1.265-.375-.301-.867-.453-1.469-.453-1.2 0-1.992.574-2.375 1.718a3.627 3.627 0 0 0-.125.547c-.031.188-.062.469-.094.844-.023.367-.039.86-.046 1.484a139.76 139.76 0 0 0-.016 2.454c0 1.011.004 1.835.016 2.468.007.625.023 1.125.046 1.5.032.367.063.637.094.813.031.18.07.344.125.5.383 1.156 1.176 1.734 2.375 1.734ZM129.88 188.64c-1.367 0-2.512-.325-3.438-.97-.93-.644-1.586-1.581-1.968-2.812a6.568 6.568 0 0 1-.204-.828 9.975 9.975 0 0 1-.125-1.11 73.562 73.562 0 0 1-.062-1.734c-.012-.718-.016-1.632-.016-2.75 0-1.125.004-2.039.016-2.75.02-.707.039-1.285.062-1.734.032-.457.07-.828.125-1.11.051-.288.118-.57.204-.843.382-1.195 1.039-2.117 1.968-2.766.926-.644 2.07-.968 3.438-.968 1.363 0 2.508.324 3.437.968.938.649 1.594 1.57 1.969 2.766.082.273.148.555.203.844.063.28.102.652.125 1.109.031.45.05 1.027.063 1.734.02.711.03 1.625.03 2.75 0 1.118-.01 2.032-.03 2.75-.012.711-.032 1.29-.063 1.735-.023.449-.062.82-.125 1.11a8.263 8.263 0 0 1-.203.827c-.375 1.23-1.031 2.168-1.969 2.813-.93.644-2.074.969-3.437.969Zm0-2.954c1.226 0 2.035-.57 2.422-1.718.05-.164.086-.348.109-.547.031-.207.063-.492.094-.86.031-.375.047-.89.047-1.546v-5.141c0-.645-.016-1.149-.047-1.516a12.77 12.77 0 0 0-.094-.86 3.192 3.192 0 0 0-.11-.562c-.386-1.144-1.195-1.718-2.421-1.718-1.23 0-2.031.574-2.406 1.718a2.82 2.82 0 0 0-.141.563c-.024.2-.047.484-.078.86-.024.366-.031.87-.031 1.515v5.141c0 .656.007 1.171.03 1.546.032.368.055.653.079.86.031.199.078.383.14.547.376 1.148 1.176 1.718 2.407 1.718ZM140 160.811c0-.27.14-.406.421-.406h5.766c1.781 0 3.18.367 4.203 1.094 1.02.719 1.766 1.805 2.235 3.25.101.387.203.812.296 1.281.102.461.176 1.043.22 1.75.038.711.07 1.59.093 2.64.031 1.055.047 2.36.047 3.923 0 1.554-.016 2.855-.047 3.906a82.465 82.465 0 0 1-.094 2.64 11.9 11.9 0 0 1-.219 1.766 22.1 22.1 0 0 1-.296 1.266c-.47 1.449-1.215 2.539-2.235 3.265-1.023.72-2.422 1.079-4.203 1.079h-5.766c-.28 0-.421-.133-.421-.407Zm3.328 24.141c0 .156.078.234.234.234h2.297c.957 0 1.707-.187 2.25-.562.55-.383.976-.988 1.281-1.813a7.74 7.74 0 0 0 .219-.968c.07-.383.129-.891.172-1.516.039-.633.07-1.43.094-2.39.03-.958.046-2.157.046-3.594 0-1.446-.015-2.649-.046-3.61a64.88 64.88 0 0 0-.094-2.375 13.026 13.026 0 0 0-.172-1.5 11.042 11.042 0 0 0-.219-1c-.305-.82-.73-1.422-1.281-1.797-.543-.382-1.293-.578-2.25-.578h-2.297c-.156 0-.234.078-.234.235ZM157.74 160.811c0-.27.14-.406.422-.406h5.28c2.407 0 4.161.563 5.266 1.688 1.102 1.117 1.657 2.945 1.657 5.484 0 1.75-.282 3.09-.844 4.016-.563.93-1.36 1.625-2.39 2.093v.079c1.03.324 1.874.992 2.53 2 .657 1.011.985 2.515.985 4.515 0 1.5-.152 2.758-.453 3.766-.293 1.012-.758 1.836-1.39 2.469-.626.625-1.419 1.074-2.376 1.343-.96.274-2.09.407-3.39.407h-4.875c-.282 0-.422-.133-.422-.407Zm5.531 11.641c1.312 0 2.258-.305 2.844-.922.593-.613.89-1.797.89-3.547 0-.894-.07-1.629-.203-2.203-.137-.582-.355-1.039-.656-1.375a2.414 2.414 0 0 0-1.172-.719c-.48-.132-1.074-.203-1.781-.203h-1.89c-.157 0-.235.078-.235.235v8.484c0 .168.078.25.234.25Zm-2.203 12.5c0 .156.078.234.234.234h1.844c.77 0 1.41-.07 1.922-.218a2.47 2.47 0 0 0 1.265-.797c.332-.383.57-.895.72-1.531.155-.645.234-1.446.234-2.407 0-1.851-.313-3.129-.938-3.828-.625-.695-1.652-1.047-3.078-1.047h-1.969c-.156 0-.234.086-.234.25Zm0 0" fill="#c3ffc5"/></svg>