<svg xmlns="http://www.w3.org/2000/svg" xmlns:xlink="http://www.w3.org/1999/xlink" width="300" zoomAndPan="magnify" viewBox="0 0 224.87999 225" height="300" preserveAspectRatio="xMidYMid meet" version="1.0"><defs><g/><clipPath id="2d66f9d3fc"><path d="M 52.0625 25 L 172.75 25 L 172.75 133 L 52.0625 133 Z M 52.0625 25 " clip-rule="nonzero"/></clipPath></defs><g clip-path="url(#2d66f9d3fc)"><path fill="#00d8ff" d="M 151.25 59.882812 C 149.964844 59.441406 148.671875 59.03125 147.367188 58.65625 C 147.585938 57.761719 147.785156 56.875 147.964844 56.007812 C 150.90625 41.730469 148.984375 30.230469 142.417969 26.445312 C 136.125 22.8125 125.835938 26.597656 115.441406 35.648438 C 114.417969 36.542969 113.414062 37.460938 112.4375 38.40625 C 111.78125 37.777344 111.117188 37.164062 110.4375 36.558594 C 99.542969 26.882812 88.625 22.804688 82.070312 26.601562 C 75.78125 30.242188 73.917969 41.054688 76.566406 54.585938 C 76.828125 55.925781 77.125 57.257812 77.457031 58.582031 C 75.910156 59.023438 74.421875 59.488281 72.992188 59.988281 C 60.21875 64.441406 52.0625 71.425781 52.0625 78.667969 C 52.0625 86.144531 60.820312 93.648438 74.121094 98.195312 C 75.203125 98.566406 76.289062 98.90625 77.382812 99.21875 C 77.027344 100.644531 76.710938 102.082031 76.4375 103.527344 C 73.914062 116.820312 75.882812 127.378906 82.15625 130.996094 C 88.632812 134.734375 99.5 130.890625 110.085938 121.636719 C 110.945312 120.882812 111.785156 120.109375 112.601562 119.3125 C 113.664062 120.335938 114.75 121.328125 115.863281 122.289062 C 126.117188 131.117188 136.242188 134.679688 142.507812 131.054688 C 148.976562 127.304688 151.082031 115.964844 148.351562 102.167969 C 148.136719 101.085938 147.894531 100.011719 147.625 98.941406 C 148.390625 98.714844 149.140625 98.484375 149.871094 98.242188 C 163.699219 93.65625 172.699219 86.246094 172.699219 78.667969 C 172.699219 71.398438 164.277344 64.371094 151.25 59.882812 Z M 148.25 93.347656 C 147.589844 93.566406 146.914062 93.777344 146.222656 93.980469 C 144.695312 89.144531 142.636719 84.003906 140.113281 78.691406 C 142.519531 73.503906 144.5 68.429688 145.984375 63.625 C 147.21875 63.984375 148.417969 64.359375 149.570312 64.757812 C 160.734375 68.601562 167.542969 74.285156 167.542969 78.667969 C 167.542969 83.332031 160.191406 89.386719 148.25 93.347656 Z M 143.296875 103.167969 C 144.503906 109.269531 144.675781 114.785156 143.875 119.097656 C 143.15625 122.972656 141.710938 125.554688 139.925781 126.589844 C 136.125 128.792969 127.992188 125.929688 119.226562 118.382812 C 118.1875 117.488281 117.175781 116.566406 116.191406 115.613281 C 119.589844 111.894531 122.988281 107.570312 126.304688 102.769531 C 132.136719 102.253906 137.644531 101.40625 142.640625 100.25 C 142.882812 101.21875 143.101562 102.191406 143.296875 103.167969 Z M 93.191406 126.210938 C 89.476562 127.523438 86.519531 127.5625 84.730469 126.527344 C 80.925781 124.332031 79.34375 115.855469 81.5 104.488281 C 81.757812 103.144531 82.050781 101.808594 82.382812 100.480469 C 87.324219 101.574219 92.792969 102.359375 98.636719 102.835938 C 101.976562 107.535156 105.472656 111.851562 108.992188 115.636719 C 108.246094 116.359375 107.476562 117.066406 106.695312 117.753906 C 102.015625 121.847656 97.324219 124.75 93.191406 126.210938 Z M 75.789062 93.320312 C 69.90625 91.308594 65.050781 88.691406 61.71875 85.839844 C 58.726562 83.277344 57.21875 80.730469 57.21875 78.667969 C 57.21875 74.269531 63.765625 68.664062 74.6875 64.855469 C 76.015625 64.394531 77.402344 63.957031 78.839844 63.546875 C 80.351562 68.460938 82.332031 73.597656 84.722656 78.792969 C 82.300781 84.0625 80.292969 89.28125 78.765625 94.25 C 77.765625 93.964844 76.773438 93.652344 75.789062 93.320312 Z M 81.625 53.59375 C 79.355469 42.003906 80.863281 33.257812 84.652344 31.0625 C 88.6875 28.726562 97.609375 32.058594 107.015625 40.414062 C 107.628906 40.960938 108.234375 41.519531 108.828125 42.085938 C 105.320312 45.851562 101.859375 50.140625 98.550781 54.808594 C 92.875 55.335938 87.445312 56.179688 82.453125 57.3125 C 82.144531 56.082031 81.867188 54.839844 81.625 53.59375 Z M 133.660156 66.449219 C 132.480469 64.410156 131.257812 62.398438 129.992188 60.414062 C 133.839844 60.902344 137.527344 61.546875 140.988281 62.335938 C 139.949219 65.671875 138.65625 69.15625 137.128906 72.730469 C 136.015625 70.613281 134.855469 68.519531 133.660156 66.449219 Z M 112.4375 45.769531 C 114.816406 48.347656 117.195312 51.222656 119.539062 54.34375 C 114.789062 54.121094 110.03125 54.121094 105.28125 54.34375 C 107.625 51.25 110.023438 48.378906 112.4375 45.769531 Z M 91.082031 66.484375 C 89.898438 68.539062 88.761719 70.621094 87.675781 72.726562 C 86.175781 69.164062 84.890625 65.664062 83.84375 62.28125 C 87.285156 61.511719 90.957031 60.882812 94.78125 60.402344 C 93.5 62.402344 92.265625 64.429688 91.082031 66.484375 Z M 94.890625 97.296875 C 90.9375 96.855469 87.214844 96.257812 83.773438 95.507812 C 84.835938 92.066406 86.148438 88.488281 87.683594 84.851562 C 88.773438 86.960938 89.914062 89.042969 91.101562 91.097656 C 92.324219 93.210938 93.589844 95.277344 94.890625 97.296875 Z M 112.582031 111.925781 C 110.136719 109.289062 107.703125 106.371094 105.324219 103.234375 C 107.632812 103.324219 109.988281 103.371094 112.378906 103.371094 C 114.839844 103.371094 117.269531 103.316406 119.664062 103.210938 C 117.3125 106.402344 114.941406 109.324219 112.582031 111.925781 Z M 137.179688 84.667969 C 138.789062 88.34375 140.148438 91.902344 141.230469 95.285156 C 137.730469 96.082031 133.953125 96.726562 129.976562 97.203125 C 131.25 95.179688 132.484375 93.132812 133.679688 91.0625 C 134.894531 88.957031 136.058594 86.824219 137.179688 84.667969 Z M 129.214844 88.484375 C 127.386719 91.660156 125.457031 94.777344 123.429688 97.828125 C 119.75 98.089844 116.066406 98.21875 112.378906 98.214844 C 108.625 98.214844 104.976562 98.097656 101.457031 97.871094 C 99.375 94.828125 97.410156 91.707031 95.5625 88.515625 C 93.726562 85.339844 92.007812 82.09375 90.414062 78.789062 C 92.003906 75.484375 93.714844 72.238281 95.546875 69.058594 C 97.378906 65.882812 99.328125 62.773438 101.394531 59.742188 C 104.984375 59.472656 108.664062 59.332031 112.378906 59.332031 C 116.117188 59.332031 119.800781 59.472656 123.386719 59.746094 C 125.433594 62.773438 127.371094 65.871094 129.199219 69.03125 C 131.035156 72.203125 132.769531 75.433594 134.398438 78.714844 C 132.789062 82.035156 131.058594 85.292969 129.214844 88.484375 Z M 139.847656 30.910156 C 143.886719 33.242188 145.457031 42.640625 142.917969 54.964844 C 142.757812 55.753906 142.574219 56.554688 142.375 57.367188 C 137.371094 56.210938 131.9375 55.351562 126.246094 54.816406 C 122.933594 50.09375 119.496094 45.800781 116.050781 42.082031 C 116.953125 41.210938 117.878906 40.363281 118.824219 39.539062 C 127.730469 31.785156 136.054688 28.722656 139.847656 30.910156 Z M 112.378906 67.890625 C 118.328125 67.890625 123.152344 72.714844 123.152344 78.667969 C 123.152344 84.617188 118.328125 89.445312 112.378906 89.445312 C 106.429688 89.445312 101.609375 84.617188 101.609375 78.667969 C 101.609375 72.714844 106.429688 67.890625 112.378906 67.890625 Z M 112.378906 67.890625 " fill-opacity="1" fill-rule="nonzero"/></g><g fill="#00d8fe" fill-opacity="1"><g transform="translate(71.992311, 191.863636)"><g><path d="M 2.453125 -27.453125 C 2.453125 -27.722656 2.59375 -27.859375 2.875 -27.859375 L 5.9375 -27.859375 C 6.269531 -27.859375 6.476562 -27.722656 6.5625 -27.453125 L 12.78125 -6.5625 L 12.953125 -6.5625 L 12.953125 -27.453125 C 12.953125 -27.722656 13.085938 -27.859375 13.359375 -27.859375 L 15.53125 -27.859375 C 15.800781 -27.859375 15.9375 -27.722656 15.9375 -27.453125 L 15.9375 -0.40625 C 15.9375 -0.132812 15.800781 0 15.53125 0 L 12.625 0 C 12.289062 0 12.082031 -0.132812 12 -0.40625 L 5.65625 -21.296875 L 5.453125 -21.296875 L 5.453125 -0.40625 C 5.453125 -0.132812 5.316406 0 5.046875 0 L 2.875 0 C 2.59375 0 2.453125 -0.132812 2.453125 -0.40625 Z M 2.453125 -27.453125 "/></g></g></g><g fill="#00d8fe" fill-opacity="1"><g transform="translate(90.387992, 191.863636)"><g><path d="M 10.40625 0 C 10.132812 0 10 -0.132812 10 -0.40625 L 10 -2.09375 L 9.953125 -2.09375 C 9.679688 -1.320312 9.21875 -0.71875 8.5625 -0.28125 C 7.90625 0.15625 7.140625 0.375 6.265625 0.375 C 5.691406 0.375 5.125 0.273438 4.5625 0.078125 C 4.007812 -0.109375 3.515625 -0.425781 3.078125 -0.875 C 2.640625 -1.332031 2.289062 -1.9375 2.03125 -2.6875 C 1.769531 -3.4375 1.640625 -4.359375 1.640625 -5.453125 C 1.640625 -6.546875 1.789062 -7.476562 2.09375 -8.25 C 2.394531 -9.03125 2.796875 -9.660156 3.296875 -10.140625 C 3.804688 -10.617188 4.414062 -10.96875 5.125 -11.1875 C 5.832031 -11.40625 6.597656 -11.515625 7.421875 -11.515625 L 9.75 -11.515625 C 9.914062 -11.515625 10 -11.597656 10 -11.765625 L 10 -13.359375 C 10 -14.671875 9.78125 -15.617188 9.34375 -16.203125 C 8.90625 -16.785156 8.15625 -17.078125 7.09375 -17.078125 C 6.375 -17.078125 5.753906 -16.953125 5.234375 -16.703125 C 4.722656 -16.460938 4.234375 -16.148438 3.765625 -15.765625 C 3.460938 -15.578125 3.242188 -15.632812 3.109375 -15.9375 L 2.328125 -17.53125 C 2.191406 -17.78125 2.222656 -18 2.421875 -18.1875 C 2.992188 -18.738281 3.71875 -19.175781 4.59375 -19.5 C 5.46875 -19.832031 6.421875 -20 7.453125 -20 C 9.421875 -20 10.84375 -19.503906 11.71875 -18.515625 C 12.59375 -17.535156 13.03125 -15.867188 13.03125 -13.515625 L 13.03125 -0.40625 C 13.03125 -0.132812 12.894531 0 12.625 0 Z M 7.125 -2.328125 C 7.976562 -2.328125 8.671875 -2.65625 9.203125 -3.3125 C 9.734375 -3.96875 10 -4.832031 10 -5.90625 L 10 -8.609375 C 10 -8.765625 9.914062 -8.84375 9.75 -8.84375 L 7.90625 -8.84375 C 6.726562 -8.84375 5.894531 -8.5625 5.40625 -8 C 4.914062 -7.445312 4.671875 -6.625 4.671875 -5.53125 C 4.671875 -4.46875 4.878906 -3.664062 5.296875 -3.125 C 5.722656 -2.59375 6.332031 -2.328125 7.125 -2.328125 Z M 7.125 -2.328125 "/></g></g></g><g fill="#00d8fe" fill-opacity="1"><g transform="translate(105.58799, 191.863636)"><g><path d="M 7.296875 0.203125 C 5.796875 0.203125 4.703125 -0.15625 4.015625 -0.875 C 3.328125 -1.601562 2.984375 -2.800781 2.984375 -4.46875 L 2.984375 -16.875 C 2.984375 -17.039062 2.90625 -17.125 2.75 -17.125 L 1.5625 -17.125 C 1.28125 -17.125 1.140625 -17.257812 1.140625 -17.53125 L 1.140625 -19.21875 C 1.140625 -19.488281 1.28125 -19.625 1.5625 -19.625 L 2.75 -19.625 C 2.90625 -19.625 2.984375 -19.707031 2.984375 -19.875 L 2.984375 -25.40625 C 2.984375 -25.675781 3.125 -25.8125 3.40625 -25.8125 L 5.734375 -25.8125 C 6.003906 -25.8125 6.140625 -25.675781 6.140625 -25.40625 L 6.140625 -19.875 C 6.140625 -19.707031 6.222656 -19.625 6.390625 -19.625 L 8.3125 -19.625 C 8.582031 -19.625 8.71875 -19.488281 8.71875 -19.21875 L 8.71875 -17.53125 C 8.71875 -17.257812 8.582031 -17.125 8.3125 -17.125 L 6.390625 -17.125 C 6.222656 -17.125 6.140625 -17.039062 6.140625 -16.875 L 6.140625 -4.5 C 6.140625 -3.351562 6.6875 -2.78125 7.78125 -2.78125 L 8.3125 -2.78125 C 8.582031 -2.78125 8.71875 -2.644531 8.71875 -2.375 L 8.71875 -0.203125 C 8.71875 0.0664062 8.582031 0.203125 8.3125 0.203125 Z M 7.296875 0.203125 "/></g></g></g><g fill="#00d8fe" fill-opacity="1"><g transform="translate(115.543786, 191.863636)"><g><path d="M 2.65625 -24.09375 C 2.382812 -24.09375 2.25 -24.226562 2.25 -24.5 L 2.25 -27.453125 C 2.25 -27.722656 2.382812 -27.859375 2.65625 -27.859375 L 5.25 -27.859375 C 5.519531 -27.859375 5.65625 -27.722656 5.65625 -27.453125 L 5.65625 -24.5 C 5.65625 -24.226562 5.519531 -24.09375 5.25 -24.09375 Z M 2.78125 0 C 2.507812 0 2.375 -0.132812 2.375 -0.40625 L 2.375 -19.21875 C 2.375 -19.488281 2.507812 -19.625 2.78125 -19.625 L 5.125 -19.625 C 5.394531 -19.625 5.53125 -19.488281 5.53125 -19.21875 L 5.53125 -0.40625 C 5.53125 -0.132812 5.394531 0 5.125 0 Z M 2.78125 0 "/></g></g></g><g fill="#00d8fe" fill-opacity="1"><g transform="translate(123.451061, 191.863636)"><g><path d="M 6.140625 0 C 5.921875 0 5.769531 -0.132812 5.6875 -0.40625 L 0.9375 -19.21875 C 0.851562 -19.488281 0.953125 -19.625 1.234375 -19.625 L 3.6875 -19.625 C 3.90625 -19.625 4.039062 -19.488281 4.09375 -19.21875 L 7.171875 -5.78125 L 7.25 -5.78125 L 10.28125 -19.21875 C 10.332031 -19.488281 10.484375 -19.625 10.734375 -19.625 L 13.0625 -19.625 C 13.34375 -19.625 13.453125 -19.488281 13.390625 -19.21875 L 8.640625 -0.40625 C 8.554688 -0.132812 8.394531 0 8.15625 0 Z M 6.140625 0 "/></g></g></g><g fill="#00d8fe" fill-opacity="1"><g transform="translate(137.790683, 191.863636)"><g><path d="M 7.53125 0.375 C 6.164062 0.375 5.046875 0.0625 4.171875 -0.5625 C 3.304688 -1.195312 2.679688 -2.113281 2.296875 -3.3125 C 2.210938 -3.53125 2.140625 -3.773438 2.078125 -4.046875 C 2.023438 -4.328125 1.976562 -4.707031 1.9375 -5.1875 C 1.90625 -5.664062 1.878906 -6.269531 1.859375 -7 C 1.847656 -7.738281 1.84375 -8.679688 1.84375 -9.828125 C 1.84375 -10.972656 1.847656 -11.90625 1.859375 -12.625 C 1.878906 -13.351562 1.90625 -13.957031 1.9375 -14.4375 C 1.976562 -14.914062 2.023438 -15.289062 2.078125 -15.5625 C 2.140625 -15.84375 2.210938 -16.101562 2.296875 -16.34375 C 2.679688 -17.519531 3.316406 -18.421875 4.203125 -19.046875 C 5.085938 -19.679688 6.226562 -20 7.625 -20 C 9.007812 -20 10.140625 -19.679688 11.015625 -19.046875 C 11.890625 -18.421875 12.519531 -17.519531 12.90625 -16.34375 C 12.988281 -16.125 13.054688 -15.867188 13.109375 -15.578125 C 13.160156 -15.296875 13.207031 -14.894531 13.25 -14.375 C 13.289062 -13.863281 13.316406 -13.203125 13.328125 -12.390625 C 13.347656 -11.585938 13.359375 -10.546875 13.359375 -9.265625 C 13.359375 -8.984375 13.222656 -8.84375 12.953125 -8.84375 L 5.25 -8.84375 C 5.082031 -8.84375 5 -8.765625 5 -8.609375 C 5 -7.816406 5.003906 -7.164062 5.015625 -6.65625 C 5.035156 -6.15625 5.054688 -5.753906 5.078125 -5.453125 C 5.109375 -5.148438 5.132812 -4.910156 5.15625 -4.734375 C 5.1875 -4.554688 5.226562 -4.398438 5.28125 -4.265625 C 5.695312 -3.140625 6.460938 -2.578125 7.578125 -2.578125 C 8.921875 -2.578125 9.796875 -3.316406 10.203125 -4.796875 C 10.285156 -5.066406 10.445312 -5.175781 10.6875 -5.125 L 12.859375 -4.671875 C 13.109375 -4.640625 13.207031 -4.472656 13.15625 -4.171875 C 12.875 -2.753906 12.242188 -1.640625 11.265625 -0.828125 C 10.285156 -0.0234375 9.039062 0.375 7.53125 0.375 Z M 9.953125 -11.515625 C 10.117188 -11.515625 10.203125 -11.597656 10.203125 -11.765625 C 10.203125 -12.390625 10.191406 -12.910156 10.171875 -13.328125 C 10.160156 -13.753906 10.140625 -14.101562 10.109375 -14.375 C 10.085938 -14.65625 10.054688 -14.875 10.015625 -15.03125 C 9.972656 -15.195312 9.941406 -15.347656 9.921875 -15.484375 C 9.554688 -16.578125 8.789062 -17.125 7.625 -17.125 C 6.414062 -17.125 5.632812 -16.578125 5.28125 -15.484375 C 5.226562 -15.347656 5.1875 -15.195312 5.15625 -15.03125 C 5.132812 -14.875 5.109375 -14.65625 5.078125 -14.375 C 5.054688 -14.101562 5.035156 -13.753906 5.015625 -13.328125 C 5.003906 -12.910156 5 -12.390625 5 -11.765625 C 5 -11.597656 5.082031 -11.515625 5.25 -11.515625 Z M 9.953125 -11.515625 "/></g></g></g></svg>