<svg xmlns="http://www.w3.org/2000/svg" width="300" viewBox="0 0 224.88 225" height="300" version="1.0"><defs><clipPath id="a"><path d="M52.063 25H172.75v108H52.062Zm0 0"/></clipPath></defs><g clip-path="url(#a)"><path fill="#00d8ff" d="M151.25 59.883a79.876 79.876 0 0 0-3.883-1.227c.219-.894.418-1.781.598-2.648 2.941-14.278 1.02-25.778-5.547-29.563-6.293-3.633-16.582.153-26.977 9.203a80.22 80.22 0 0 0-3.004 2.758 74.621 74.621 0 0 0-2-1.847c-10.894-9.676-21.812-13.754-28.367-9.957-6.289 3.64-8.152 14.453-5.504 27.984.262 1.34.559 2.672.891 3.996a80.183 80.183 0 0 0-4.465 1.406c-12.773 4.453-20.93 11.438-20.93 18.68 0 7.477 8.758 14.98 22.06 19.527 1.081.371 2.167.711 3.26 1.024a76.945 76.945 0 0 0-.945 4.308c-2.523 13.293-.554 23.852 5.72 27.47 6.476 3.737 17.343-.106 27.929-9.36.86-.754 1.7-1.528 2.516-2.325a80.858 80.858 0 0 0 3.261 2.977c10.254 8.828 20.38 12.39 26.645 8.766 6.469-3.75 8.574-15.09 5.844-28.887a65.207 65.207 0 0 0-.727-3.227 72.712 72.712 0 0 0 2.246-.699C163.7 93.656 172.7 86.246 172.7 78.668c0-7.27-8.422-14.297-21.449-18.785Zm-3 33.465c-.66.218-1.336.43-2.027.632-1.528-4.835-3.586-9.976-6.11-15.289 2.407-5.187 4.387-10.261 5.871-15.066 1.235.36 2.434.734 3.586 1.133 11.164 3.844 17.973 9.527 17.973 13.91 0 4.664-7.352 10.719-19.293 14.68Zm-4.953 9.82c1.207 6.102 1.379 11.617.578 15.93-.719 3.875-2.164 6.457-3.95 7.492-3.8 2.203-11.933-.66-20.698-8.207a70.232 70.232 0 0 1-3.036-2.77c3.399-3.718 6.797-8.043 10.114-12.843 5.832-.516 11.34-1.364 16.336-2.52.242.969.46 1.941.656 2.918ZM93.19 126.211c-3.714 1.312-6.671 1.352-8.46.316-3.805-2.195-5.387-10.672-3.231-22.039.258-1.343.55-2.68.883-4.008 4.941 1.094 10.41 1.88 16.254 2.356 3.34 4.7 6.836 9.016 10.355 12.8a65.486 65.486 0 0 1-2.297 2.118c-4.68 4.094-9.37 6.996-13.504 8.457ZM75.79 93.32c-5.883-2.012-10.738-4.63-14.07-7.481-2.992-2.563-4.5-5.11-4.5-7.172 0-4.398 6.547-10.004 17.468-13.813a77.702 77.702 0 0 1 4.153-1.308c1.512 4.914 3.492 10.05 5.883 15.246-2.422 5.27-4.43 10.488-5.957 15.457-1-.285-1.993-.598-2.977-.93Zm5.836-39.727c-2.27-11.59-.762-20.336 3.027-22.532 4.035-2.335 12.957.997 22.364 9.352a73.443 73.443 0 0 1 1.812 1.672c-3.508 3.766-6.969 8.055-10.277 12.723-5.676.527-11.106 1.37-16.098 2.504a70.94 70.94 0 0 1-.828-3.72Zm52.035 12.855c-1.18-2.039-2.402-4.05-3.668-6.035 3.848.488 7.535 1.133 10.996 1.922-1.039 3.336-2.332 6.82-3.86 10.394a181.684 181.684 0 0 0-3.468-6.28Zm-21.222-20.68c2.378 2.579 4.757 5.454 7.101 8.575a152.25 152.25 0 0 0-14.258 0 114.123 114.123 0 0 1 7.156-8.574ZM91.082 66.485a153.19 153.19 0 0 0-3.406 6.243 113.526 113.526 0 0 1-3.832-10.446c3.441-.77 7.113-1.398 10.937-1.879-1.281 2-2.515 4.028-3.699 6.082Zm3.809 30.813c-3.954-.442-7.676-1.04-11.118-1.79a114.1 114.1 0 0 1 3.91-10.655 151.009 151.009 0 0 0 7.208 12.445Zm17.691 14.629c-2.445-2.637-4.879-5.555-7.258-8.692 2.309.09 4.664.137 7.055.137 2.46 0 4.89-.055 7.285-.16-2.352 3.191-4.723 6.113-7.082 8.715Zm24.598-27.258c1.61 3.676 2.968 7.234 4.05 10.617-3.5.797-7.277 1.442-11.253 1.918a188.146 188.146 0 0 0 3.703-6.14 166.159 166.159 0 0 0 3.5-6.395Zm-7.965 3.816a171.221 171.221 0 0 1-5.785 9.344c-3.68.262-7.364.39-11.051.387-3.754 0-7.402-.117-10.922-.344a146.963 146.963 0 0 1-5.894-9.355 147.199 147.199 0 0 1-5.149-9.727 146.522 146.522 0 0 1 10.98-19.047 147.026 147.026 0 0 1 21.993.004 156.366 156.366 0 0 1 5.812 9.285 172.026 172.026 0 0 1 5.2 9.684c-1.61 3.32-3.34 6.578-5.184 9.77Zm10.633-57.574c4.039 2.332 5.609 11.73 3.07 24.055-.16.789-.344 1.59-.543 2.402-5.004-1.156-10.438-2.015-16.129-2.55-3.312-4.723-6.75-9.016-10.195-12.735a74.232 74.232 0 0 1 2.773-2.543c8.906-7.754 17.23-10.816 21.024-8.629Zm-27.47 36.98c5.95 0 10.774 4.825 10.774 10.778 0 5.95-4.824 10.777-10.773 10.777-5.95 0-10.77-4.828-10.77-10.777 0-5.953 4.82-10.777 10.77-10.777Zm0 0"/></g><path d="M74.445 164.41c0-.269.141-.406.422-.406h3.063c.332 0 .539.137.625.407l6.219 20.89h.171v-20.89c0-.27.133-.407.407-.407h2.172c.27 0 .406.137.406.407v27.046c0 .274-.137.407-.406.407h-2.907c-.336 0-.543-.133-.625-.407l-6.343-20.89h-.204v20.89c0 .274-.136.407-.406.407h-2.172c-.28 0-.422-.133-.422-.407ZM100.794 191.864c-.273 0-.406-.133-.406-.407v-1.687h-.047c-.273.773-.734 1.375-1.39 1.812-.657.438-1.422.657-2.297.657a5.16 5.16 0 0 1-1.704-.297 3.71 3.71 0 0 1-1.484-.953c-.437-.457-.789-1.063-1.047-1.813-.261-.75-.39-1.672-.39-2.765 0-1.094.148-2.024.453-2.797.3-.782.703-1.41 1.203-1.891a4.616 4.616 0 0 1 1.828-1.047 7.735 7.735 0 0 1 2.297-.328h2.328c.164 0 .25-.082.25-.25v-1.594c0-1.312-.219-2.258-.656-2.843-.438-.583-1.188-.875-2.25-.875-.719 0-1.34.125-1.86.375-.511.242-1 .554-1.468.937-.305.188-.524.133-.657-.172l-.78-1.594c-.138-.25-.106-.468.093-.656.57-.55 1.297-.988 2.172-1.312.875-.332 1.828-.5 2.86-.5 1.968 0 3.39.496 4.265 1.484.875.98 1.312 2.648 1.312 5v13.11c0 .273-.136.406-.406.406Zm-3.281-2.328c.852 0 1.547-.329 2.078-.985.531-.656.797-1.52.797-2.594v-2.703c0-.156-.086-.234-.25-.234h-1.844c-1.18 0-2.011.281-2.5.844-.492.554-.734 1.375-.734 2.468 0 1.063.207 1.868.625 2.407.426.53 1.035.797 1.828.797ZM112.885 192.067c-1.5 0-2.594-.36-3.281-1.078-.688-.727-1.032-1.926-1.032-3.594v-12.406c0-.164-.078-.25-.234-.25h-1.188c-.28 0-.421-.133-.421-.407v-1.687c0-.27.14-.406.421-.406h1.188c.156 0 .234-.082.234-.25v-5.532c0-.27.141-.406.422-.406h2.328c.27 0 .407.137.407.406v5.532c0 .168.082.25.25.25h1.921c.27 0 .407.136.407.406v1.687c0 .274-.137.407-.407.407h-1.921c-.168 0-.25.086-.25.25v12.375c0 1.148.546 1.718 1.64 1.718h.531c.27 0 .407.137.407.407v2.172c0 .269-.137.406-.407.406ZM118.2 167.77c-.273 0-.406-.133-.406-.406v-2.953c0-.27.133-.407.406-.407h2.594c.27 0 .406.137.406.407v2.953c0 .273-.137.406-.406.406Zm.125 24.094c-.273 0-.406-.133-.406-.407v-18.812c0-.27.133-.406.406-.406h2.344c.27 0 .406.136.406.406v18.812c0 .274-.137.407-.406.407ZM129.592 191.864c-.22 0-.371-.133-.453-.407l-4.75-18.812c-.086-.27.015-.406.296-.406h2.454c.218 0 .351.136.406.406l3.078 13.437h.078l3.031-13.437c.051-.27.203-.406.453-.406h2.329c.28 0 .39.136.328.406l-4.75 18.812c-.086.274-.246.407-.485.407ZM145.322 192.239c-1.367 0-2.484-.313-3.36-.938-.867-.633-1.492-1.55-1.874-2.75a5.137 5.137 0 0 1-.22-.734c-.054-.281-.1-.66-.14-1.14a47.927 47.927 0 0 1-.078-1.813c-.012-.739-.016-1.68-.016-2.828 0-1.145.004-2.079.016-2.797.02-.727.047-1.332.078-1.813.04-.476.086-.851.14-1.125.063-.281.134-.539.22-.781.382-1.176 1.02-2.078 1.906-2.703.883-.633 2.023-.953 3.422-.953 1.382 0 2.515.32 3.39.953.875.625 1.504 1.527 1.89 2.703.083.219.15.476.204.766.05.28.098.683.14 1.203.04.511.067 1.172.079 1.984.02.805.031 1.844.031 3.125 0 .281-.137.422-.406.422h-7.703c-.168 0-.25.078-.25.234 0 .793.004 1.446.015 1.953.02.5.04.903.063 1.204.031.304.054.542.078.718.031.18.07.336.125.469.414 1.125 1.18 1.688 2.297 1.688 1.344 0 2.219-.739 2.625-2.22.082-.269.242-.378.484-.327l2.172.453c.25.031.348.199.297.5-.281 1.418-.914 2.531-1.89 3.344-.981.804-2.227 1.203-3.735 1.203Zm2.422-11.891c.164 0 .25-.082.25-.25 0-.625-.012-1.145-.031-1.562a12.686 12.686 0 0 0-.063-1.047 4.342 4.342 0 0 0-.094-.657 4.091 4.091 0 0 1-.093-.453c-.368-1.093-1.133-1.64-2.297-1.64-1.211 0-1.993.547-2.344 1.64a2.47 2.47 0 0 0-.125.453c-.024.157-.047.375-.078.657-.024.273-.043.62-.063 1.047-.011.417-.015.937-.015 1.562 0 .168.082.25.25.25Zm0 0" fill="#00d8fe"/></svg>