<svg xmlns="http://www.w3.org/2000/svg" width="300" viewBox="0 0 224.88 225" height="300" version="1.0"><defs><clipPath id="a"><path d="M65 50h124v47.508H65Zm0 0"/></clipPath><clipPath id="b"><path d="M116 22.547h44v74.96h-44Zm0 0"/></clipPath><clipPath id="c"><path d="M65 50h44v47.508H65Zm0 0"/></clipPath><clipPath id="d"><path d="M17.188 50H207v47.508H17.187Zm0 0"/></clipPath></defs><g clip-path="url(#a)"><path fill="#388e3c" d="m85.629 50.5-19.32 10.656a2.207 2.207 0 0 0-1.168 1.93v21.32c0 .797.445 1.531 1.168 1.934L85.633 97a2.432 2.432 0 0 0 2.336 0l19.32-10.66c.715-.403 1.16-1.137 1.16-1.934v-21.32c0-.797-.445-1.531-1.168-1.93L87.965 50.5a2.434 2.434 0 0 0-2.34 0m99.406 19.195-3.222 1.774a.362.362 0 0 0-.192.32v3.559a.37.37 0 0 0 .192.32l3.222 1.777a.408.408 0 0 0 .39 0l3.22-1.777a.37.37 0 0 0 .191-.32v-3.559a.366.366 0 0 0-.195-.32l-3.219-1.774a.384.384 0 0 0-.195-.05.37.37 0 0 0-.192.05"/></g><g clip-path="url(#b)"><path fill="#37474f" d="m158.652 27.902-9.406-5.234a.957.957 0 0 0-1.422.832l-.004 31.602-8.672-4.782c-.363-.203-.77-.3-1.171-.3-.399 0-.805.097-1.168.3h.004l-19.32 10.653c-.723.398-1.169 1.136-1.169 1.93v21.32c0 .797.446 1.53 1.168 1.93l19.324 10.663a2.432 2.432 0 0 0 2.336 0l19.32-10.664a2.215 2.215 0 0 0 1.16-1.93V29.567a1.91 1.91 0 0 0-.98-1.664ZM147.293 79.29l-8.781 4.848c-.325.18-.73.18-1.059 0l-8.781-4.848a.995.995 0 0 1-.535-.879V68.72c0-.364.199-.696.531-.88l8.781-4.843h-.004a1.14 1.14 0 0 1 1.063 0l8.781 4.844c.332.183.531.52.531.883v9.691a1 1 0 0 1-.527.875Zm0 0"/></g><g clip-path="url(#c)"><path fill="#2e7d32" d="M85.629 50.5 65.14 84.406c0 .797.445 1.531 1.168 1.934L85.633 97a2.432 2.432 0 0 0 2.336 0l20.48-33.914c0-.797-.445-1.531-1.168-1.93L87.965 50.5a2.434 2.434 0 0 0-2.34 0"/><path fill="#4caf50" d="m85.629 50.5-19.32 10.656a2.207 2.207 0 0 0-1.168 1.93L85.629 97a2.432 2.432 0 0 0 2.336 0l19.32-10.66c.719-.403 1.164-1.137 1.164-1.934L87.965 50.5a2.434 2.434 0 0 0-2.34 0"/></g><g clip-path="url(#d)"><path fill="#37474f" d="M205.707 60.973 186.395 50.32c-.364-.203-.77-.3-1.172-.3-.403 0-.805.097-1.168.3h.004l-19.32 10.653a2.26 2.26 0 0 0-1.169 1.976v21.235c0 .82.45 1.578 1.168 1.972l19.325 10.664c.722.403 1.609.403 2.335 0l8.91-4.918a1.175 1.175 0 0 0-.011-2.062l-19.383-10.547a1.03 1.03 0 0 1-.535-.895v-9.675c0-.364.2-.696.516-.868l8.796-4.851h-.004a1.14 1.14 0 0 1 1.063 0l8.8 4.855a.983.983 0 0 1 .512.868v7.894c0 .336.18.652.477.82a.974.974 0 0 0 .953-.004l9.442-5.468c.582-.336.945-.961.945-1.633v-7.379c0-.828-.45-1.586-1.172-1.984Zm-145.672 0L40.72 50.32c-.364-.203-.77-.3-1.168-.3-.403 0-.809.097-1.172.3h.004l-19.32 10.653a2.26 2.26 0 0 0-1.168 1.976v29.297c0 .336.18.652.476.82a.974.974 0 0 0 .953-.004l9.442-5.468a1.89 1.89 0 0 0 .941-1.637V68.719c0-.364.195-.696.512-.867l8.8-4.852c.165-.09.344-.133.532-.133.183 0 .363.047.531.133l8.797 4.855a.983.983 0 0 1 .512.868V85.96c0 .676.359 1.3.945 1.637l9.441 5.468c.297.168.66.168.953.004a.96.96 0 0 0 .473-.824V62.953c0-.824-.45-1.582-1.168-1.98Zm0 0"/></g><path d="M67.745 160.811c0-.27.14-.406.422-.406h3.063c.332 0 .539.137.625.406l6.218 20.891h.172v-20.89c0-.27.133-.407.407-.407h2.171c.27 0 .407.137.407.406v27.047c0 .274-.137.407-.407.407h-2.906c-.336 0-.543-.133-.625-.407l-6.344-20.89h-.203v20.89c0 .274-.136.407-.406.407h-2.172c-.281 0-.422-.133-.422-.407ZM91.344 188.64c-1.367 0-2.512-.325-3.437-.97-.93-.644-1.586-1.581-1.97-2.812a6.568 6.568 0 0 1-.202-.828 9.975 9.975 0 0 1-.125-1.11 73.562 73.562 0 0 1-.063-1.734c-.012-.718-.015-1.632-.015-2.75 0-1.125.003-2.039.015-2.75.02-.707.04-1.285.063-1.734.031-.457.07-.828.125-1.11.05-.288.117-.57.203-.843.383-1.195 1.039-2.117 1.969-2.766.925-.644 2.07-.968 3.437-.968 1.363 0 2.508.324 3.438.968.937.649 1.593 1.57 1.968 2.766.082.273.149.555.203.844.063.28.102.652.125 1.109.032.45.051 1.027.063 1.734.02.711.031 1.625.031 2.75 0 1.118-.012 2.032-.031 2.75-.012.711-.031 1.29-.063 1.735-.023.449-.062.82-.125 1.11a8.263 8.263 0 0 1-.203.827c-.375 1.23-1.03 2.168-1.968 2.813-.93.644-2.075.969-3.438.969Zm0-2.954c1.227 0 2.035-.57 2.422-1.718.05-.164.086-.348.11-.547.03-.207.062-.492.093-.86.031-.375.047-.89.047-1.546v-5.141c0-.645-.016-1.149-.047-1.516a12.77 12.77 0 0 0-.094-.86 3.192 3.192 0 0 0-.109-.562c-.387-1.144-1.195-1.718-2.422-1.718-1.23 0-2.031.574-2.406 1.718a2.82 2.82 0 0 0-.14.563c-.024.2-.048.484-.079.86-.023.366-.031.87-.031 1.515v5.141c0 .656.008 1.171.031 1.546.031.368.055.653.078.86.031.199.078.383.14.547.376 1.148 1.177 1.718 2.407 1.718ZM109.823 188.265c-.273 0-.406-.133-.406-.407v-1.593h-.047a4.31 4.31 0 0 1-1.266 1.671c-.574.47-1.39.704-2.453.704-2.156 0-3.578-1.067-4.265-3.204a10.43 10.43 0 0 1-.235-.875 10.563 10.563 0 0 1-.156-1.218 26.87 26.87 0 0 1-.078-1.938c-.012-.781-.016-1.77-.016-2.969 0-1.207.004-2.195.016-2.968.008-.782.035-1.414.078-1.907.04-.488.094-.89.156-1.203.07-.32.149-.617.235-.89.687-2.133 2.11-3.203 4.265-3.203 1.063 0 1.88.23 2.453.687.57.45.993 1.016 1.266 1.703h.047v-9.844c0-.27.133-.406.406-.406h2.344c.27 0 .406.137.406.406v27.047c0 .274-.136.407-.406.407Zm-3.062-2.579c.593 0 1.086-.148 1.484-.453.395-.3.692-.722.89-1.265.052-.164.098-.348.141-.547.04-.207.067-.492.078-.86.008-.375.02-.89.032-1.546.02-.657.031-1.516.031-2.579 0-1.07-.012-1.925-.031-2.562-.012-.645-.024-1.149-.032-1.516a5.632 5.632 0 0 0-.078-.86 6.56 6.56 0 0 0-.14-.562c-.2-.539-.496-.96-.89-1.265-.4-.301-.892-.453-1.485-.453-1.23 0-2.04.574-2.422 1.718a4.545 4.545 0 0 0-.14.563c-.044.2-.075.484-.095.86a149.951 149.951 0 0 0-.047 4.078 154.064 154.064 0 0 0 .047 4.124c.02.368.051.653.094.86.04.199.086.383.14.547.384 1.148 1.192 1.718 2.423 1.718ZM122.48 188.64c-1.368 0-2.485-.313-3.36-.938-.867-.633-1.492-1.55-1.875-2.75a5.137 5.137 0 0 1-.219-.734c-.054-.282-.101-.66-.14-1.141a47.927 47.927 0 0 1-.078-1.812c-.012-.739-.016-1.68-.016-2.829 0-1.144.004-2.078.016-2.796.02-.727.046-1.333.078-1.813.039-.477.086-.852.14-1.125.063-.281.133-.539.22-.781.382-1.176 1.019-2.078 1.905-2.703.883-.633 2.024-.953 3.422-.953 1.383 0 2.516.32 3.39.953.876.625 1.505 1.527 1.891 2.703.082.219.149.476.204.765.05.282.097.684.14 1.204.04.511.067 1.171.078 1.984.02.805.032 1.844.032 3.125 0 .281-.137.422-.407.422h-7.703c-.168 0-.25.078-.25.234 0 .793.004 1.445.016 1.953.02.5.039.903.062 1.203.032.305.055.543.078.72.032.179.07.335.125.468.415 1.125 1.18 1.687 2.297 1.687 1.344 0 2.22-.738 2.625-2.218.082-.27.243-.38.485-.328l2.172.453c.25.03.347.199.296.5-.28 1.418-.914 2.53-1.89 3.343-.98.805-2.227 1.204-3.735 1.204Zm2.421-11.891c.164 0 .25-.082.25-.25 0-.625-.011-1.145-.03-1.563a12.686 12.686 0 0 0-.063-1.046 4.342 4.342 0 0 0-.094-.657 4.091 4.091 0 0 1-.094-.453c-.367-1.094-1.133-1.64-2.297-1.64-1.21 0-1.992.546-2.344 1.64a2.47 2.47 0 0 0-.125.453c-.023.157-.046.375-.078.657-.023.273-.043.62-.062 1.046-.012.418-.016.938-.016 1.563 0 .168.082.25.25.25ZM132.072 184.42c0-.28.133-.421.406-.421h2.672c.27 0 .407.14.407.422v3.437c0 .274-.137.407-.407.407h-2.672c-.273 0-.406-.133-.406-.407ZM140.261 164.17c-.273 0-.406-.132-.406-.405v-2.954c0-.27.133-.406.406-.406h2.594c.27 0 .406.137.406.406v2.954c0 .273-.137.406-.406.406Zm-2.328 31.47c-.274 0-.406-.137-.406-.407v-2.14c0-.274.132-.407.406-.407h.453c.54-.054.941-.226 1.203-.515.258-.281.39-.793.39-1.531v-21.594c0-.27.134-.406.407-.406h2.344c.27 0 .406.136.406.406v21.672c0 1.664-.375 2.898-1.125 3.703-.75.812-1.95 1.219-3.594 1.219ZM152.559 188.64c-1.637 0-2.95-.43-3.938-1.297-.98-.864-1.554-2.098-1.718-3.703-.055-.282.054-.446.328-.5l2.094-.407c.27-.05.43.059.484.328.133 1.012.453 1.735.953 2.172.508.438 1.125.657 1.844.657.789 0 1.414-.227 1.875-.688.469-.469.703-1.18.703-2.14 0-.79-.164-1.415-.484-1.876-.313-.468-.903-.879-1.766-1.234l-1.64-.625c-1.294-.488-2.294-1.176-3-2.062-.712-.883-1.063-2.04-1.063-3.47 0-1.6.476-2.925 1.437-3.968.957-1.039 2.27-1.562 3.938-1.562 1.601 0 2.844.437 3.719 1.312s1.378 1.902 1.515 3.078c.051.305-.043.48-.281.531l-1.969.407c-.25.03-.414-.078-.484-.328-.2-.708-.477-1.266-.828-1.672-.356-.407-.914-.61-1.672-.61-.793 0-1.383.242-1.766.719-.387.469-.578 1.102-.578 1.89 0 .606.156 1.141.469 1.61.312.461.906.867 1.781 1.219l1.64.625c1.532.574 2.583 1.324 3.157 2.25.57.93.86 2.117.86 3.562 0 1.719-.485 3.117-1.454 4.188-.969 1.062-2.355 1.594-4.156 1.594Zm0 0" fill="#c3ffc5"/></svg>