<svg xmlns="http://www.w3.org/2000/svg" xmlns:xlink="http://www.w3.org/1999/xlink" width="300" zoomAndPan="magnify" viewBox="0 0 224.87999 225" height="300" preserveAspectRatio="xMidYMid meet" version="1.0"><defs><g/><clipPath id="97e621daa6"><path d="M 65 50 L 189 50 L 189 97.507812 L 65 97.507812 Z M 65 50 " clip-rule="nonzero"/></clipPath><clipPath id="7ca8045220"><path d="M 116 22.546875 L 160 22.546875 L 160 97.507812 L 116 97.507812 Z M 116 22.546875 " clip-rule="nonzero"/></clipPath><clipPath id="51f23c1167"><path d="M 65 50 L 109 50 L 109 97.507812 L 65 97.507812 Z M 65 50 " clip-rule="nonzero"/></clipPath><clipPath id="ce869cb701"><path d="M 17.1875 50 L 207 50 L 207 97.507812 L 17.1875 97.507812 Z M 17.1875 50 " clip-rule="nonzero"/></clipPath></defs><g clip-path="url(#97e621daa6)"><path fill="#388e3c" d="M 85.628906 50.5 L 66.308594 61.15625 C 65.585938 61.550781 65.140625 62.289062 65.140625 63.085938 L 65.140625 84.40625 C 65.140625 85.203125 65.585938 85.9375 66.308594 86.339844 L 85.632812 97 C 86.355469 97.398438 87.246094 97.398438 87.96875 97 L 107.289062 86.339844 C 108.003906 85.9375 108.449219 85.203125 108.449219 84.40625 L 108.449219 63.085938 C 108.449219 62.289062 108.003906 61.554688 107.28125 61.15625 L 87.964844 50.5 C 87.601562 50.300781 87.195312 50.199219 86.796875 50.199219 C 86.390625 50.199219 85.988281 50.300781 85.625 50.5 M 185.03125 69.695312 L 181.808594 71.46875 C 181.6875 71.535156 181.617188 71.65625 181.617188 71.789062 L 181.617188 75.347656 C 181.617188 75.480469 181.691406 75.601562 181.808594 75.667969 L 185.03125 77.445312 C 185.152344 77.511719 185.296875 77.511719 185.421875 77.445312 L 188.640625 75.667969 C 188.757812 75.601562 188.832031 75.480469 188.832031 75.347656 L 188.832031 71.789062 C 188.832031 71.65625 188.757812 71.535156 188.636719 71.46875 L 185.417969 69.695312 C 185.359375 69.660156 185.289062 69.644531 185.222656 69.644531 C 185.15625 69.644531 185.089844 69.660156 185.03125 69.695312 " fill-opacity="1" fill-rule="nonzero"/></g><g clip-path="url(#7ca8045220)"><path fill="#37474f" d="M 158.652344 27.902344 L 149.246094 22.667969 C 148.949219 22.503906 148.589844 22.507812 148.296875 22.679688 C 148.003906 22.855469 147.824219 23.164062 147.824219 23.5 L 147.820312 55.101562 L 139.148438 50.320312 C 138.785156 50.117188 138.378906 50.019531 137.976562 50.019531 C 137.578125 50.019531 137.171875 50.117188 136.808594 50.320312 L 136.8125 50.320312 L 117.492188 60.972656 C 116.769531 61.371094 116.324219 62.109375 116.324219 62.902344 L 116.324219 84.222656 C 116.324219 85.019531 116.769531 85.753906 117.492188 86.152344 L 136.816406 96.816406 C 137.535156 97.214844 138.429688 97.214844 139.152344 96.816406 L 158.472656 86.152344 C 159.1875 85.757812 159.632812 85.019531 159.632812 84.222656 L 159.632812 29.566406 C 159.632812 28.875 159.253906 28.238281 158.652344 27.902344 Z M 147.292969 79.289062 L 138.511719 84.136719 C 138.1875 84.316406 137.78125 84.316406 137.453125 84.136719 L 128.671875 79.289062 C 128.335938 79.109375 128.136719 78.773438 128.136719 78.410156 L 128.136719 68.71875 C 128.136719 68.355469 128.335938 68.023438 128.667969 67.839844 L 137.449219 62.996094 L 137.445312 62.996094 C 137.613281 62.90625 137.792969 62.863281 137.976562 62.863281 C 138.164062 62.863281 138.34375 62.910156 138.507812 62.996094 L 147.289062 67.839844 C 147.621094 68.023438 147.820312 68.359375 147.820312 68.722656 L 147.820312 78.414062 C 147.820312 78.773438 147.621094 79.109375 147.292969 79.289062 Z M 147.292969 79.289062 " fill-opacity="1" fill-rule="nonzero"/></g><g clip-path="url(#51f23c1167)"><path fill="#2e7d32" d="M 85.628906 50.5 L 65.140625 84.40625 C 65.140625 85.203125 65.585938 85.9375 66.308594 86.339844 L 85.632812 97 C 86.355469 97.398438 87.246094 97.398438 87.96875 97 L 108.449219 63.085938 C 108.449219 62.289062 108.003906 61.554688 107.28125 61.15625 L 87.964844 50.5 C 87.601562 50.300781 87.195312 50.199219 86.796875 50.199219 C 86.390625 50.199219 85.988281 50.300781 85.625 50.5 " fill-opacity="1" fill-rule="nonzero"/><path fill="#4caf50" d="M 85.628906 50.5 L 66.308594 61.15625 C 65.585938 61.550781 65.140625 62.289062 65.140625 63.085938 L 85.628906 97 C 86.351562 97.398438 87.242188 97.398438 87.964844 97 L 107.285156 86.339844 C 108.003906 85.9375 108.449219 85.203125 108.449219 84.40625 L 87.964844 50.5 C 87.601562 50.300781 87.195312 50.199219 86.796875 50.199219 C 86.390625 50.199219 85.988281 50.300781 85.625 50.5 " fill-opacity="1" fill-rule="nonzero"/></g><g clip-path="url(#ce869cb701)"><path fill="#37474f" d="M 205.707031 60.972656 L 186.394531 50.320312 C 186.03125 50.117188 185.625 50.019531 185.222656 50.019531 C 184.820312 50.019531 184.417969 50.117188 184.054688 50.320312 L 184.058594 50.320312 L 164.738281 60.972656 C 164.019531 61.371094 163.570312 62.125 163.570312 62.949219 L 163.570312 84.183594 C 163.570312 85.003906 164.019531 85.761719 164.738281 86.15625 L 184.0625 96.820312 C 184.785156 97.222656 185.671875 97.222656 186.398438 96.820312 L 195.308594 91.902344 C 196.121094 91.453125 196.117188 90.285156 195.296875 89.839844 L 175.914062 79.292969 C 175.585938 79.109375 175.378906 78.769531 175.378906 78.398438 L 175.378906 68.722656 C 175.378906 68.359375 175.578125 68.027344 175.894531 67.855469 L 184.691406 63.003906 L 184.6875 63.003906 C 184.855469 62.914062 185.035156 62.871094 185.21875 62.871094 C 185.40625 62.871094 185.585938 62.917969 185.75 63.003906 L 194.550781 67.859375 C 194.867188 68.03125 195.0625 68.363281 195.0625 68.726562 L 195.0625 76.621094 C 195.0625 76.957031 195.242188 77.273438 195.539062 77.441406 C 195.835938 77.605469 196.195312 77.605469 196.492188 77.4375 L 205.933594 71.96875 C 206.515625 71.632812 206.878906 71.007812 206.878906 70.335938 L 206.878906 62.957031 C 206.878906 62.128906 206.429688 61.371094 205.707031 60.972656 Z M 60.035156 60.972656 L 40.71875 50.320312 C 40.355469 50.117188 39.949219 50.019531 39.550781 50.019531 C 39.148438 50.019531 38.742188 50.117188 38.378906 50.320312 L 38.382812 50.320312 L 19.0625 60.972656 C 18.34375 61.371094 17.894531 62.125 17.894531 62.949219 L 17.894531 92.246094 C 17.894531 92.582031 18.074219 92.898438 18.371094 93.066406 C 18.667969 93.230469 19.027344 93.230469 19.324219 93.0625 L 28.765625 87.59375 C 29.347656 87.257812 29.707031 86.632812 29.707031 85.957031 L 29.707031 68.71875 C 29.707031 68.355469 29.902344 68.023438 30.21875 67.851562 L 39.019531 63 C 39.183594 62.910156 39.363281 62.867188 39.550781 62.867188 C 39.734375 62.867188 39.914062 62.914062 40.082031 63 L 48.878906 67.855469 C 49.195312 68.027344 49.390625 68.359375 49.390625 68.722656 L 49.390625 85.960938 C 49.390625 86.636719 49.75 87.261719 50.335938 87.597656 L 59.777344 93.066406 C 60.074219 93.234375 60.4375 93.234375 60.730469 93.070312 C 61.023438 92.898438 61.203125 92.582031 61.203125 92.246094 L 61.203125 62.953125 C 61.203125 62.128906 60.753906 61.371094 60.035156 60.972656 Z M 60.035156 60.972656 " fill-opacity="1" fill-rule="nonzero"/></g><g fill="#c3ffc5" fill-opacity="1"><g transform="translate(65.292157, 188.264529)"><g><path d="M 2.453125 -27.453125 C 2.453125 -27.722656 2.59375 -27.859375 2.875 -27.859375 L 5.9375 -27.859375 C 6.269531 -27.859375 6.476562 -27.722656 6.5625 -27.453125 L 12.78125 -6.5625 L 12.953125 -6.5625 L 12.953125 -27.453125 C 12.953125 -27.722656 13.085938 -27.859375 13.359375 -27.859375 L 15.53125 -27.859375 C 15.800781 -27.859375 15.9375 -27.722656 15.9375 -27.453125 L 15.9375 -0.40625 C 15.9375 -0.132812 15.800781 0 15.53125 0 L 12.625 0 C 12.289062 0 12.082031 -0.132812 12 -0.40625 L 5.65625 -21.296875 L 5.453125 -21.296875 L 5.453125 -0.40625 C 5.453125 -0.132812 5.316406 0 5.046875 0 L 2.875 0 C 2.59375 0 2.453125 -0.132812 2.453125 -0.40625 Z M 2.453125 -27.453125 "/></g></g></g><g fill="#c3ffc5" fill-opacity="1"><g transform="translate(83.687838, 188.264529)"><g><path d="M 7.65625 0.375 C 6.289062 0.375 5.144531 0.0507812 4.21875 -0.59375 C 3.289062 -1.238281 2.632812 -2.175781 2.25 -3.40625 C 2.164062 -3.675781 2.097656 -3.953125 2.046875 -4.234375 C 1.992188 -4.523438 1.953125 -4.894531 1.921875 -5.34375 C 1.898438 -5.789062 1.878906 -6.367188 1.859375 -7.078125 C 1.847656 -7.796875 1.84375 -8.710938 1.84375 -9.828125 C 1.84375 -10.953125 1.847656 -11.867188 1.859375 -12.578125 C 1.878906 -13.285156 1.898438 -13.863281 1.921875 -14.3125 C 1.953125 -14.769531 1.992188 -15.140625 2.046875 -15.421875 C 2.097656 -15.710938 2.164062 -15.992188 2.25 -16.265625 C 2.632812 -17.460938 3.289062 -18.382812 4.21875 -19.03125 C 5.144531 -19.675781 6.289062 -20 7.65625 -20 C 9.019531 -20 10.164062 -19.675781 11.09375 -19.03125 C 12.03125 -18.382812 12.6875 -17.460938 13.0625 -16.265625 C 13.144531 -15.992188 13.210938 -15.710938 13.265625 -15.421875 C 13.328125 -15.140625 13.367188 -14.769531 13.390625 -14.3125 C 13.421875 -13.863281 13.441406 -13.285156 13.453125 -12.578125 C 13.472656 -11.867188 13.484375 -10.953125 13.484375 -9.828125 C 13.484375 -8.710938 13.472656 -7.796875 13.453125 -7.078125 C 13.441406 -6.367188 13.421875 -5.789062 13.390625 -5.34375 C 13.367188 -4.894531 13.328125 -4.523438 13.265625 -4.234375 C 13.210938 -3.953125 13.144531 -3.675781 13.0625 -3.40625 C 12.6875 -2.175781 12.03125 -1.238281 11.09375 -0.59375 C 10.164062 0.0507812 9.019531 0.375 7.65625 0.375 Z M 7.65625 -2.578125 C 8.882812 -2.578125 9.691406 -3.148438 10.078125 -4.296875 C 10.128906 -4.460938 10.164062 -4.644531 10.1875 -4.84375 C 10.21875 -5.050781 10.25 -5.335938 10.28125 -5.703125 C 10.3125 -6.078125 10.328125 -6.59375 10.328125 -7.25 C 10.328125 -7.90625 10.328125 -8.765625 10.328125 -9.828125 C 10.328125 -10.898438 10.328125 -11.753906 10.328125 -12.390625 C 10.328125 -13.035156 10.3125 -13.539062 10.28125 -13.90625 C 10.25 -14.28125 10.21875 -14.566406 10.1875 -14.765625 C 10.164062 -14.972656 10.128906 -15.160156 10.078125 -15.328125 C 9.691406 -16.472656 8.882812 -17.046875 7.65625 -17.046875 C 6.425781 -17.046875 5.625 -16.472656 5.25 -15.328125 C 5.1875 -15.160156 5.140625 -14.972656 5.109375 -14.765625 C 5.085938 -14.566406 5.0625 -14.28125 5.03125 -13.90625 C 5.007812 -13.539062 5 -13.035156 5 -12.390625 C 5 -11.753906 5 -10.898438 5 -9.828125 C 5 -8.765625 5 -7.90625 5 -7.25 C 5 -6.59375 5.007812 -6.078125 5.03125 -5.703125 C 5.0625 -5.335938 5.085938 -5.050781 5.109375 -4.84375 C 5.140625 -4.644531 5.1875 -4.460938 5.25 -4.296875 C 5.625 -3.148438 6.425781 -2.578125 7.65625 -2.578125 Z M 7.65625 -2.578125 "/></g></g></g><g fill="#c3ffc5" fill-opacity="1"><g transform="translate(99.010738, 188.264529)"><g><path d="M 10.8125 0 C 10.539062 0 10.40625 -0.132812 10.40625 -0.40625 L 10.40625 -2 L 10.359375 -2 C 10.085938 -1.351562 9.664062 -0.796875 9.09375 -0.328125 C 8.519531 0.140625 7.703125 0.375 6.640625 0.375 C 4.484375 0.375 3.0625 -0.691406 2.375 -2.828125 C 2.289062 -3.097656 2.210938 -3.390625 2.140625 -3.703125 C 2.078125 -4.015625 2.023438 -4.421875 1.984375 -4.921875 C 1.941406 -5.429688 1.914062 -6.078125 1.90625 -6.859375 C 1.894531 -7.640625 1.890625 -8.628906 1.890625 -9.828125 C 1.890625 -11.035156 1.894531 -12.023438 1.90625 -12.796875 C 1.914062 -13.578125 1.941406 -14.210938 1.984375 -14.703125 C 2.023438 -15.191406 2.078125 -15.59375 2.140625 -15.90625 C 2.210938 -16.226562 2.289062 -16.523438 2.375 -16.796875 C 3.0625 -18.929688 4.484375 -20 6.640625 -20 C 7.703125 -20 8.519531 -19.769531 9.09375 -19.3125 C 9.664062 -18.863281 10.085938 -18.296875 10.359375 -17.609375 L 10.40625 -17.609375 L 10.40625 -27.453125 C 10.40625 -27.722656 10.539062 -27.859375 10.8125 -27.859375 L 13.15625 -27.859375 C 13.425781 -27.859375 13.5625 -27.722656 13.5625 -27.453125 L 13.5625 -0.40625 C 13.5625 -0.132812 13.425781 0 13.15625 0 Z M 7.75 -2.578125 C 8.34375 -2.578125 8.835938 -2.726562 9.234375 -3.03125 C 9.628906 -3.332031 9.925781 -3.753906 10.125 -4.296875 C 10.175781 -4.460938 10.222656 -4.644531 10.265625 -4.84375 C 10.304688 -5.050781 10.332031 -5.335938 10.34375 -5.703125 C 10.351562 -6.078125 10.363281 -6.59375 10.375 -7.25 C 10.394531 -7.90625 10.40625 -8.765625 10.40625 -9.828125 C 10.40625 -10.898438 10.394531 -11.753906 10.375 -12.390625 C 10.363281 -13.035156 10.351562 -13.539062 10.34375 -13.90625 C 10.332031 -14.28125 10.304688 -14.566406 10.265625 -14.765625 C 10.222656 -14.972656 10.175781 -15.160156 10.125 -15.328125 C 9.925781 -15.867188 9.628906 -16.289062 9.234375 -16.59375 C 8.835938 -16.894531 8.34375 -17.046875 7.75 -17.046875 C 6.519531 -17.046875 5.710938 -16.472656 5.328125 -15.328125 C 5.273438 -15.160156 5.226562 -14.972656 5.1875 -14.765625 C 5.144531 -14.566406 5.113281 -14.28125 5.09375 -13.90625 C 5.082031 -13.539062 5.070312 -13.035156 5.0625 -12.390625 C 5.050781 -11.753906 5.046875 -10.898438 5.046875 -9.828125 C 5.046875 -8.765625 5.050781 -7.90625 5.0625 -7.25 C 5.070312 -6.59375 5.082031 -6.078125 5.09375 -5.703125 C 5.113281 -5.335938 5.144531 -5.050781 5.1875 -4.84375 C 5.226562 -4.644531 5.273438 -4.460938 5.328125 -4.296875 C 5.710938 -3.148438 6.519531 -2.578125 7.75 -2.578125 Z M 7.75 -2.578125 "/></g></g></g><g fill="#c3ffc5" fill-opacity="1"><g transform="translate(114.948201, 188.264529)"><g><path d="M 7.53125 0.375 C 6.164062 0.375 5.046875 0.0625 4.171875 -0.5625 C 3.304688 -1.195312 2.679688 -2.113281 2.296875 -3.3125 C 2.210938 -3.53125 2.140625 -3.773438 2.078125 -4.046875 C 2.023438 -4.328125 1.976562 -4.707031 1.9375 -5.1875 C 1.90625 -5.664062 1.878906 -6.269531 1.859375 -7 C 1.847656 -7.738281 1.84375 -8.679688 1.84375 -9.828125 C 1.84375 -10.972656 1.847656 -11.90625 1.859375 -12.625 C 1.878906 -13.351562 1.90625 -13.957031 1.9375 -14.4375 C 1.976562 -14.914062 2.023438 -15.289062 2.078125 -15.5625 C 2.140625 -15.84375 2.210938 -16.101562 2.296875 -16.34375 C 2.679688 -17.519531 3.316406 -18.421875 4.203125 -19.046875 C 5.085938 -19.679688 6.226562 -20 7.625 -20 C 9.007812 -20 10.140625 -19.679688 11.015625 -19.046875 C 11.890625 -18.421875 12.519531 -17.519531 12.90625 -16.34375 C 12.988281 -16.125 13.054688 -15.867188 13.109375 -15.578125 C 13.160156 -15.296875 13.207031 -14.894531 13.25 -14.375 C 13.289062 -13.863281 13.316406 -13.203125 13.328125 -12.390625 C 13.347656 -11.585938 13.359375 -10.546875 13.359375 -9.265625 C 13.359375 -8.984375 13.222656 -8.84375 12.953125 -8.84375 L 5.25 -8.84375 C 5.082031 -8.84375 5 -8.765625 5 -8.609375 C 5 -7.816406 5.003906 -7.164062 5.015625 -6.65625 C 5.035156 -6.15625 5.054688 -5.753906 5.078125 -5.453125 C 5.109375 -5.148438 5.132812 -4.910156 5.15625 -4.734375 C 5.1875 -4.554688 5.226562 -4.398438 5.28125 -4.265625 C 5.695312 -3.140625 6.460938 -2.578125 7.578125 -2.578125 C 8.921875 -2.578125 9.796875 -3.316406 10.203125 -4.796875 C 10.285156 -5.066406 10.445312 -5.175781 10.6875 -5.125 L 12.859375 -4.671875 C 13.109375 -4.640625 13.207031 -4.472656 13.15625 -4.171875 C 12.875 -2.753906 12.242188 -1.640625 11.265625 -0.828125 C 10.285156 -0.0234375 9.039062 0.375 7.53125 0.375 Z M 9.953125 -11.515625 C 10.117188 -11.515625 10.203125 -11.597656 10.203125 -11.765625 C 10.203125 -12.390625 10.191406 -12.910156 10.171875 -13.328125 C 10.160156 -13.753906 10.140625 -14.101562 10.109375 -14.375 C 10.085938 -14.65625 10.054688 -14.875 10.015625 -15.03125 C 9.972656 -15.195312 9.941406 -15.347656 9.921875 -15.484375 C 9.554688 -16.578125 8.789062 -17.125 7.625 -17.125 C 6.414062 -17.125 5.632812 -16.578125 5.28125 -15.484375 C 5.226562 -15.347656 5.1875 -15.195312 5.15625 -15.03125 C 5.132812 -14.875 5.109375 -14.65625 5.078125 -14.375 C 5.054688 -14.101562 5.035156 -13.753906 5.015625 -13.328125 C 5.003906 -12.910156 5 -12.390625 5 -11.765625 C 5 -11.597656 5.082031 -11.515625 5.25 -11.515625 Z M 9.953125 -11.515625 "/></g></g></g><g fill="#c3ffc5" fill-opacity="1"><g transform="translate(130.025287, 188.264529)"><g><path d="M 2.046875 -3.84375 C 2.046875 -4.125 2.179688 -4.265625 2.453125 -4.265625 L 5.125 -4.265625 C 5.394531 -4.265625 5.53125 -4.125 5.53125 -3.84375 L 5.53125 -0.40625 C 5.53125 -0.132812 5.394531 0 5.125 0 L 2.453125 0 C 2.179688 0 2.046875 -0.132812 2.046875 -0.40625 Z M 2.046875 -3.84375 "/></g></g></g><g fill="#c3ffc5" fill-opacity="1"><g transform="translate(137.604795, 188.264529)"><g><path d="M 2.65625 -24.09375 C 2.382812 -24.09375 2.25 -24.226562 2.25 -24.5 L 2.25 -27.453125 C 2.25 -27.722656 2.382812 -27.859375 2.65625 -27.859375 L 5.25 -27.859375 C 5.519531 -27.859375 5.65625 -27.722656 5.65625 -27.453125 L 5.65625 -24.5 C 5.65625 -24.226562 5.519531 -24.09375 5.25 -24.09375 Z M 0.328125 7.375 C 0.0546875 7.375 -0.078125 7.238281 -0.078125 6.96875 L -0.078125 4.828125 C -0.078125 4.554688 0.0546875 4.421875 0.328125 4.421875 L 0.78125 4.421875 C 1.320312 4.367188 1.722656 4.195312 1.984375 3.90625 C 2.242188 3.625 2.375 3.113281 2.375 2.375 L 2.375 -19.21875 C 2.375 -19.488281 2.507812 -19.625 2.78125 -19.625 L 5.125 -19.625 C 5.394531 -19.625 5.53125 -19.488281 5.53125 -19.21875 L 5.53125 2.453125 C 5.53125 4.117188 5.15625 5.351562 4.40625 6.15625 C 3.65625 6.96875 2.457031 7.375 0.8125 7.375 Z M 0.328125 7.375 "/></g></g></g><g fill="#c3ffc5" fill-opacity="1"><g transform="translate(145.51207, 188.264529)"><g><path d="M 7.046875 0.375 C 5.410156 0.375 4.097656 -0.0546875 3.109375 -0.921875 C 2.128906 -1.785156 1.554688 -3.019531 1.390625 -4.625 C 1.335938 -4.90625 1.445312 -5.070312 1.71875 -5.125 L 3.8125 -5.53125 C 4.082031 -5.582031 4.242188 -5.472656 4.296875 -5.203125 C 4.429688 -4.191406 4.75 -3.46875 5.25 -3.03125 C 5.757812 -2.59375 6.375 -2.375 7.09375 -2.375 C 7.882812 -2.375 8.507812 -2.601562 8.96875 -3.0625 C 9.4375 -3.53125 9.671875 -4.242188 9.671875 -5.203125 C 9.671875 -5.992188 9.507812 -6.617188 9.1875 -7.078125 C 8.875 -7.546875 8.285156 -7.957031 7.421875 -8.3125 L 5.78125 -8.9375 C 4.488281 -9.425781 3.488281 -10.113281 2.78125 -11 C 2.070312 -11.882812 1.71875 -13.039062 1.71875 -14.46875 C 1.71875 -16.070312 2.195312 -17.394531 3.15625 -18.4375 C 4.113281 -19.476562 5.425781 -20 7.09375 -20 C 8.695312 -20 9.9375 -19.5625 10.8125 -18.6875 C 11.6875 -17.8125 12.191406 -16.785156 12.328125 -15.609375 C 12.378906 -15.304688 12.285156 -15.128906 12.046875 -15.078125 L 10.078125 -14.671875 C 9.828125 -14.640625 9.664062 -14.75 9.59375 -15 C 9.394531 -15.707031 9.117188 -16.265625 8.765625 -16.671875 C 8.410156 -17.078125 7.851562 -17.28125 7.09375 -17.28125 C 6.300781 -17.28125 5.710938 -17.039062 5.328125 -16.5625 C 4.941406 -16.09375 4.75 -15.460938 4.75 -14.671875 C 4.75 -14.066406 4.90625 -13.53125 5.21875 -13.0625 C 5.53125 -12.601562 6.125 -12.195312 7 -11.84375 L 8.640625 -11.21875 C 10.171875 -10.644531 11.222656 -9.894531 11.796875 -8.96875 C 12.367188 -8.039062 12.65625 -6.851562 12.65625 -5.40625 C 12.65625 -3.6875 12.171875 -2.289062 11.203125 -1.21875 C 10.234375 -0.15625 8.847656 0.375 7.046875 0.375 Z M 7.046875 0.375 "/></g></g></g></svg>