<svg xmlns="http://www.w3.org/2000/svg" width="300" viewBox="0 0 224.88 225" height="300" version="1.0"><defs><clipPath id="a"><path d="M60.074 22.547H162v104.945H60.074Zm0 0"/></clipPath></defs><g clip-path="url(#a)"><path fill="#fff" d="M161.16 86.445c-.433-1.976-2.23-4.285-5.847-4.285-.739 0-1.547.094-2.47.285-1.687.348-3.124.516-4.39.575 9.856-16.79 16.254-40.114 9.918-48.211-8.351-10.668-19.59-12.262-25.547-12.262h-.558a35.123 35.123 0 0 0-6.832.808l-8.543 1.848a33.198 33.198 0 0 0-3.586-.27h-.11l-.363-.003c-3.8 0-7.266.808-10.352 2.32l-2.984-1.176c-4.101-1.617-10.277-3.539-16.383-3.539-.343 0-.683.004-1.027.02-6.016.215-11.18 2.496-14.941 6.597-4.696 5.118-6.832 12.606-6.348 22.254.023.5 5.863 49.852 22.414 49.852h.059l.152-.004c2.148-.055 4.2-.918 6.113-2.57 1.461 1.097 3.352 1.746 5.117 2.004a25.73 25.73 0 0 0 5.766.664c3.062 0 5.824-.63 8.203-1.762 0 2.101-.012 4.758-.035 8.152l-.004.18.012.18c.23 3.382.816 6.433 1.695 8.828 2.508 6.816 6.836 10.574 12.191 10.574.223 0 .45-.008.676-.02 4.403-.273 8.867-2.746 11.938-6.613 3.32-4.187 4.09-8.601 4.386-11.988l.016-.207v-9.938l.246.024 1.043.09.098.011.101.004c.297.012.602.02.907.02 3.597 0 8.02-.934 11.011-2.325 2.86-1.328 9.395-4.972 8.258-10.117Zm0 0"/></g><path fill="#0277bd" d="M134.727 96.484c0-.488.03-.894.043-1.347l-.043-1.035s.03-.024.078-.055c.355-6.375 2.113-8.832 3.996-10.23-.266-.364-.567-.758-.852-1.133-.793-1.043-1.785-2.336-2.844-3.993l-.195-.379c-.16-.39-.547-1.066-1.035-1.953-2.824-5.101-8.695-15.722-4.676-22.43 1.762-2.937 5.063-4.628 9.828-5.046-1.949-5.543-9.25-18.906-25.8-19.18h-.016c-14.406-.234-19.14 12.86-20.684 20.684 2.125-.899 4.547-1.446 6.766-1.446h.102c5.46.04 9.218 2.957 10.312 8 .797 3.704 1.18 6.942 1.172 9.907-.024 6.484-1.332 9.894-2.484 12.906l-.368.973c-.297.796-.609 1.535-.906 2.234-.3.71-.562 1.344-.758 1.91a14.74 14.74 0 0 1 2.684.906l.36.16c.113.047.226.102.327.165 2.024 1.23 3.282 3.12 3.551 5.324.145 1.187.121 9.285.07 16.351.211 3.063.73 5.637 1.418 7.504.973 2.656 3.41 7.73 8.094 7.438 3.266-.203 6.406-2.192 8.492-4.817 2.239-2.816 3.063-5.93 3.371-9.437v-11.98Zm0 0"/><path fill="#0277bd" d="M92.066 84.363c-3.843-4.015-5.718-9.414-5.015-14.445.68-4.852.293-9.606.086-12.16-.067-.852-.114-1.485-.11-1.836 0-.02.004-.035.004-.055 0-.008-.004-.015-.004-.027.29-7.203 3.067-18.57 10.72-25.328-3.727-1.465-9.794-3.403-15.493-3.196-8.922.325-17.563 6.5-16.695 23.852.328 6.512 7.687 45.562 17.746 45.316 1.437-.035 2.93-.957 4.465-2.804a220.864 220.864 0 0 1 6.46-7.403 18.3 18.3 0 0 1-2.164-1.914Zm52.258-33.836c.035.368.004.684-.054.973.074 2.195-.16 4.324-.403 6.387-.176 1.515-.36 3.082-.406 4.656-.05 1.535.164 3.055.394 4.664.536 3.762 1.094 8.012-1.824 12.969.535.703 1.008 1.36 1.387 1.996 10.992-17.828 15.426-39.024 11.195-44.426-6.398-8.176-15.258-10.543-22.273-10.43-2.195.04-4.192.332-5.899.704 12.106 5.867 17.5 18.44 17.883 22.507Zm9.485 36.586c-6.356 1.313-9.414.614-10.899-.3-.238.171-.476.32-.7.453-.886.539-2.288 1.39-2.632 6.636.195.04.371.059.586.106l1.035.094c3.149.14 7.274-.739 9.692-1.864 5.21-2.418 8.054-6.183 2.918-5.125ZM108.547 92c-.09-.71-.473-1.285-1.176-1.746l-.254-.113c-.863-.38-1.84-.809-3.394-.809h-.012c-.3.023-.602.043-.906.043-.125 0-.246-.016-.368-.02-1.132.872-2.738 1.543-6.718 2.36-7.106 1.812-2.91 3.95-.184 4.281 2.637.66 8.906 1.461 13.07-1.93-.011-1.07-.03-1.804-.058-2.066Zm0 0"/><path fill="#0277bd" d="M105.344 59.52c-.696.718-1.793 1.351-3.008 1.152-1.977-.317-3.488-2.7-3.379-3.594.106-.894 1.79-1.36 3.762-1.039a7.376 7.376 0 0 1 1.832.543c-.762-1.64-2.145-2.586-4.25-2.816-3.73-.418-7.696 1.535-8.492 2.613.02.266.05.601.082.996.218 2.734.629 7.832-.121 13.207-.497 3.543.937 7.559 3.738 10.48 1.805 1.887 3.914 3.079 5.992 3.43.266-1.14.738-2.25 1.223-3.398.27-.633.558-1.305.828-2.031l.386-1.02c1.055-2.754 2.145-5.606 2.168-11.215.008-2.16-.257-4.625-.761-7.308Zm33.789 8.363c-.246-1.738-.504-3.54-.442-5.496.055-1.77.25-3.438.438-5.051a60.69 60.69 0 0 0 .332-3.7c-3.074.259-5.117 1.145-6.086 2.645a6.855 6.855 0 0 1 1.355-.308c2.13-.278 3.68.336 3.86 1.52.129.866-.606 1.679-.926 1.991-.66.645-1.492 1.055-2.34 1.164-.152.02-.308.032-.457.032-.844 0-1.648-.29-2.265-.715.27 4.703 3.738 11 5.445 14.086.367.66.648 1.187.879 1.64.937-2.668.594-5.101.207-7.808Zm0 0"/><path d="M42.23 188.265c-.282 0-.423-.133-.423-.407v-27.047c0-.27.141-.406.422-.406h4.875c1.227 0 2.313.153 3.25.453.938.305 1.72.782 2.344 1.438.633.656 1.113 1.515 1.438 2.578.332 1.062.5 2.36.5 3.89 0 3-.653 5.149-1.954 6.438-1.293 1.281-3.152 1.922-5.578 1.922H45.37c-.156 0-.234.086-.234.25v10.484c0 .274-.141.407-.422.407Zm4.874-14.22c1.52 0 2.602-.378 3.25-1.14.645-.77.97-2.148.97-4.14 0-1.97-.325-3.336-.97-4.11-.648-.781-1.73-1.172-3.25-1.172H45.37c-.156 0-.234.078-.234.235v10.078c0 .168.078.25.234.25ZM63.686 188.64c-1.368 0-2.512-.325-3.438-.97-.93-.644-1.586-1.581-1.969-2.812a6.568 6.568 0 0 1-.203-.828 9.975 9.975 0 0 1-.125-1.11 73.562 73.562 0 0 1-.062-1.734c-.012-.718-.016-1.632-.016-2.75 0-1.125.004-2.039.016-2.75.02-.707.039-1.285.062-1.734.031-.457.07-.828.125-1.11.05-.288.117-.57.203-.843.383-1.195 1.04-2.117 1.969-2.766.926-.644 2.07-.968 3.438-.968 1.363 0 2.507.324 3.437.968.938.649 1.594 1.57 1.969 2.766.082.273.148.555.203.844.062.28.101.652.125 1.11.031.448.05 1.026.062 1.733.02.711.032 1.625.032 2.75 0 1.118-.012 2.032-.032 2.75-.011.711-.03 1.29-.062 1.735-.024.449-.063.82-.125 1.11a8.263 8.263 0 0 1-.203.827c-.375 1.23-1.031 2.168-1.969 2.813-.93.644-2.074.969-3.437.969Zm0-2.954c1.226 0 2.035-.57 2.421-1.718.051-.164.086-.348.11-.547.031-.207.062-.492.094-.86.03-.375.046-.89.046-1.546v-5.141c0-.645-.015-1.149-.046-1.516a12.77 12.77 0 0 0-.094-.86 3.192 3.192 0 0 0-.11-.562c-.386-1.144-1.195-1.718-2.421-1.718-1.23 0-2.032.574-2.407 1.718a2.82 2.82 0 0 0-.14.563c-.024.2-.047.484-.078.86-.024.366-.032.87-.032 1.515v5.141c0 .656.008 1.171.032 1.546.03.368.054.653.078.86.03.199.078.383.14.547.375 1.148 1.176 1.718 2.407 1.718ZM78.399 188.64c-1.637 0-2.95-.43-3.937-1.297-.98-.864-1.555-2.098-1.72-3.703-.054-.282.055-.446.329-.5l2.094-.407c.27-.05.43.059.484.328.133 1.012.453 1.735.953 2.172.508.438 1.125.657 1.844.657.789 0 1.414-.227 1.875-.688.469-.469.703-1.18.703-2.14 0-.79-.164-1.415-.484-1.876-.313-.468-.903-.878-1.766-1.234l-1.64-.625c-1.294-.488-2.294-1.176-3-2.062-.712-.883-1.063-2.04-1.063-3.47 0-1.6.476-2.925 1.437-3.968.957-1.039 2.27-1.562 3.938-1.562 1.601 0 2.844.437 3.719 1.312s1.379 1.902 1.515 3.078c.051.305-.043.48-.281.531l-1.969.407c-.25.03-.414-.078-.484-.328-.2-.707-.477-1.266-.828-1.672-.356-.407-.914-.61-1.672-.61-.793 0-1.383.242-1.766.72-.386.468-.578 1.1-.578 1.89 0 .605.156 1.14.469 1.61.312.46.906.866 1.781 1.218l1.64.625c1.532.574 2.583 1.324 3.157 2.25.57.93.86 2.117.86 3.562 0 1.72-.485 3.117-1.454 4.188-.968 1.062-2.355 1.594-4.156 1.594ZM92.702 188.468c-1.5 0-2.594-.36-3.281-1.078-.688-.727-1.032-1.926-1.032-3.594V171.39c0-.165-.078-.25-.234-.25h-1.188c-.28 0-.421-.133-.421-.407v-1.687c0-.27.14-.406.421-.406h1.188c.156 0 .234-.082.234-.25v-5.532c0-.27.141-.406.422-.406h2.328c.27 0 .407.137.407.406v5.532c0 .168.082.25.25.25h1.921c.27 0 .407.136.407.406v1.687c0 .274-.137.407-.407.407h-1.921c-.168 0-.25.085-.25.25v12.375c0 1.148.546 1.718 1.64 1.718h.531c.27 0 .407.137.407.407v2.171c0 .27-.137.407-.407.407ZM102.986 196.015c-1.367 0-2.528-.344-3.485-1.032-.96-.687-1.59-1.574-1.89-2.656-.055-.25.015-.418.203-.5l2.172-.781c.25-.086.426-.016.531.203.469 1.176 1.316 1.766 2.547 1.766.789 0 1.426-.243 1.906-.72.477-.48.719-1.234.719-2.265v-4.219h-.047a3.71 3.71 0 0 1-1.234 1.704c-.575.449-1.375.671-2.407.671-2.187 0-3.609-1.066-4.265-3.203a10.87 10.87 0 0 1-.235-.86 9.793 9.793 0 0 1-.156-1.187 24.77 24.77 0 0 1-.078-1.859c-.012-.75-.016-1.687-.016-2.812 0-1.114.004-2.047.016-2.797.008-.75.035-1.368.078-1.86.04-.5.094-.906.156-1.218a8.03 8.03 0 0 1 .235-.844c.332-1.063.836-1.875 1.515-2.438.688-.562 1.602-.843 2.75-.843 1.032 0 1.832.234 2.407.703a3.836 3.836 0 0 1 1.234 1.718h.047v-1.64c0-.27.133-.406.406-.406h2.328c.282 0 .422.136.422.406v20.656c0 2.07-.527 3.64-1.578 4.703-1.055 1.07-2.48 1.61-4.281 1.61Zm.078-10.735c1.176 0 1.953-.578 2.328-1.734.063-.156.11-.32.14-.5a4.74 4.74 0 0 0 .079-.813c.02-.375.035-.875.047-1.5.02-.633.03-1.457.03-2.468 0-1.008-.01-1.829-.03-2.454a45.33 45.33 0 0 0-.047-1.484 5.243 5.243 0 0 0-.078-.844 2.872 2.872 0 0 0-.141-.547c-.187-.539-.477-.96-.86-1.265-.374-.301-.867-.453-1.468-.453-1.2 0-1.992.574-2.375 1.718a3.627 3.627 0 0 0-.125.547c-.031.188-.063.47-.094.844-.023.367-.039.86-.047 1.484a139.76 139.76 0 0 0-.015 2.454c0 1.011.004 1.835.015 2.468.008.625.024 1.125.047 1.5.031.367.063.637.094.813.031.18.07.344.125.5.383 1.156 1.176 1.734 2.375 1.734ZM113.998 188.265c-.274 0-.407-.133-.407-.407v-18.812c0-.27.133-.406.407-.406h2.343c.27 0 .407.136.407.406v1.844h.046c.32-.758.801-1.383 1.438-1.875.644-.5 1.473-.75 2.484-.75.301 0 .563.03.782.093.25.055.332.203.25.453l-.579 2.329c-.085.25-.246.375-.484.375h-.625c-.95 0-1.742.343-2.375 1.03-.625.68-.937 1.743-.937 3.188v12.125c0 .274-.137.407-.407.407ZM129.932 188.64c-1.367 0-2.484-.313-3.359-.938-.867-.633-1.492-1.55-1.875-2.75a5.137 5.137 0 0 1-.219-.734c-.054-.282-.101-.66-.14-1.14a47.927 47.927 0 0 1-.078-1.813c-.012-.739-.016-1.68-.016-2.829 0-1.144.004-2.078.016-2.796.02-.727.046-1.332.078-1.813.039-.477.086-.852.14-1.125.063-.281.133-.539.22-.781.382-1.176 1.019-2.078 1.905-2.703.883-.633 2.024-.953 3.422-.953 1.383 0 2.516.32 3.39.953.876.625 1.505 1.527 1.891 2.703.082.219.149.476.204.765.05.282.097.684.14 1.204.04.511.067 1.171.078 1.984.02.805.032 1.844.032 3.125 0 .281-.137.422-.407.422h-7.703c-.168 0-.25.078-.25.234 0 .793.004 1.445.016 1.953.02.5.039.903.062 1.203.032.305.055.543.078.72.032.179.07.335.125.468.415 1.125 1.18 1.687 2.297 1.687 1.344 0 2.22-.738 2.625-2.218.082-.27.243-.38.485-.328l2.172.453c.25.03.347.199.296.5-.28 1.418-.914 2.53-1.89 3.343-.98.805-2.227 1.204-3.735 1.204Zm2.422-11.891c.164 0 .25-.082.25-.25 0-.625-.011-1.145-.03-1.563a12.686 12.686 0 0 0-.063-1.046 4.342 4.342 0 0 0-.094-.657 4.091 4.091 0 0 1-.094-.453c-.367-1.094-1.133-1.64-2.297-1.64-1.21 0-1.992.546-2.344 1.64a2.47 2.47 0 0 0-.125.453c-.023.157-.046.375-.078.657-.023.273-.043.62-.062 1.046-.012.418-.016.938-.016 1.563 0 .168.082.25.25.25ZM151.978 180.405c0 2.813-.496 4.89-1.484 6.235-.98 1.335-2.64 2-4.984 2-4.18 0-6.368-2.391-6.563-7.172 0-.27.11-.422.328-.453l2.422-.454c.3-.05.453.075.453.375.082 1.72.399 2.93.953 3.625.563.7 1.38 1.047 2.453 1.047 1.063 0 1.844-.328 2.344-.984.508-.656.766-1.926.766-3.813 0-.789-.043-1.472-.125-2.046-.086-.57-.235-1.055-.453-1.454a3.068 3.068 0 0 0-.891-1 5.839 5.839 0 0 0-1.36-.75l-1.687-.656c-.949-.351-1.742-.754-2.375-1.203a5.628 5.628 0 0 1-1.5-1.547c-.367-.594-.625-1.289-.781-2.094-.149-.812-.219-1.75-.219-2.812 0-4.813 2.078-7.219 6.235-7.219 2.101 0 3.648.563 4.64 1.688 1 1.117 1.555 2.765 1.672 4.953 0 .273-.125.422-.375.453l-2.297.375c-.137.055-.246.047-.328-.016-.086-.07-.125-.175-.125-.312-.055-1.395-.32-2.426-.797-3.094-.48-.676-1.25-1.016-2.312-1.016-1.032 0-1.797.325-2.297.97-.492.648-.735 1.679-.735 3.093 0 .71.047 1.32.141 1.828.094.5.25.93.469 1.281.219.356.508.657.875.907.375.25.847.484 1.422.703l1.687.656c.895.355 1.649.75 2.266 1.187a5.591 5.591 0 0 1 1.5 1.579c.383.617.656 1.34.812 2.171.164.825.25 1.813.25 2.97ZM168.898 188.843c-.187.218-.375.226-.562.03l-1.891-1.67c-1.125.96-2.547 1.437-4.266 1.437-1.586 0-2.886-.356-3.906-1.063-1.023-.719-1.75-1.742-2.187-3.078a5.82 5.82 0 0 1-.282-.984 14.186 14.186 0 0 1-.156-1.579 66.24 66.24 0 0 1-.094-2.843c-.011-1.207-.015-2.79-.015-4.75 0-1.97.004-3.551.015-4.75a66.9 66.9 0 0 1 .094-2.86c.04-.695.094-1.222.156-1.578.07-.351.164-.68.282-.984.437-1.332 1.164-2.352 2.187-3.063 1.02-.718 2.32-1.078 3.906-1.078 1.582 0 2.895.36 3.938 1.078 1.039.711 1.765 1.73 2.172 3.063.101.304.191.633.265.984.07.356.125.883.157 1.578.039.7.066 1.653.078 2.86.02 1.199.03 2.78.03 4.75 0 2.093-.015 3.757-.046 4.984-.023 1.23-.07 2.203-.14 2.922-.063.71-.153 1.242-.266 1.594-.106.355-.227.726-.36 1.11l2.125 1.75c.22.167.243.358.079.577Zm-6.719-3.282c.489 0 .89-.039 1.203-.125.32-.082.602-.191.844-.328l-2.172-1.89c-.187-.188-.199-.39-.031-.61l1.11-1.312c.156-.188.343-.196.562-.031l1.64 1.515c.032-.25.055-.594.079-1.031.03-.438.05-.988.062-1.656.02-.664.031-1.47.031-2.407v-3.343c0-1.946-.011-3.485-.03-4.61a70.715 70.715 0 0 0-.063-2.625c-.024-.613-.055-1.039-.094-1.28a3.861 3.861 0 0 0-.188-.704c-.218-.633-.586-1.117-1.093-1.453-.5-.344-1.121-.516-1.86-.516-.742 0-1.367.172-1.875.516-.5.336-.86.82-1.078 1.453a4.207 4.207 0 0 0-.172.703c-.043.242-.078.668-.11 1.281a62.981 62.981 0 0 0-.062 2.625 479.741 479.741 0 0 0-.015 4.61c0 1.937.004 3.476.015 4.61.008 1.124.032 1.995.063 2.608.031.618.066 1.055.11 1.313.038.262.097.5.171.719.219.625.578 1.11 1.078 1.453.508.344 1.133.515 1.875.515ZM173.281 160.811c0-.27.14-.406.422-.406h2.485c.28 0 .421.137.421.406v24.141c0 .156.079.234.235.234h7.297c.27 0 .406.141.406.422v2.25c0 .274-.137.407-.406.407h-10.438c-.281 0-.422-.133-.422-.407Zm0 0" fill="#b4e2ff"/></svg>