<svg xmlns="http://www.w3.org/2000/svg" xmlns:xlink="http://www.w3.org/1999/xlink" width="300" zoomAndPan="magnify" viewBox="0 0 224.87999 225" height="300" preserveAspectRatio="xMidYMid meet" version="1.0"><defs><g/><clipPath id="3dfc1393de"><path d="M 60.074219 22.546875 L 162 22.546875 L 162 127.492188 L 60.074219 127.492188 Z M 60.074219 22.546875 " clip-rule="nonzero"/></clipPath></defs><g clip-path="url(#3dfc1393de)"><path fill="#ffffff" d="M 161.160156 86.445312 C 160.726562 84.46875 158.929688 82.160156 155.3125 82.160156 C 154.574219 82.160156 153.765625 82.253906 152.84375 82.445312 C 151.15625 82.792969 149.71875 82.960938 148.453125 83.019531 C 158.308594 66.230469 164.707031 42.90625 158.371094 34.808594 C 150.019531 24.140625 138.78125 22.546875 132.824219 22.546875 L 132.265625 22.546875 C 130.046875 22.582031 127.75 22.855469 125.433594 23.355469 L 116.890625 25.203125 C 115.726562 25.058594 114.539062 24.953125 113.304688 24.933594 L 113.195312 24.933594 L 112.832031 24.929688 C 109.03125 24.929688 105.566406 25.738281 102.480469 27.25 L 99.496094 26.074219 C 95.394531 24.457031 89.21875 22.535156 83.113281 22.535156 C 82.769531 22.535156 82.429688 22.539062 82.085938 22.554688 C 76.070312 22.769531 70.90625 25.050781 67.144531 29.152344 C 62.449219 34.269531 60.3125 41.757812 60.796875 51.40625 C 60.820312 51.90625 66.660156 101.257812 83.210938 101.257812 L 83.269531 101.257812 L 83.421875 101.253906 C 85.570312 101.199219 87.621094 100.335938 89.535156 98.683594 C 90.996094 99.78125 92.886719 100.429688 94.652344 100.6875 C 95.816406 100.960938 97.910156 101.351562 100.417969 101.351562 C 103.480469 101.351562 106.242188 100.722656 108.621094 99.589844 C 108.621094 101.691406 108.609375 104.347656 108.585938 107.742188 L 108.582031 107.921875 L 108.59375 108.101562 C 108.824219 111.484375 109.410156 114.535156 110.289062 116.929688 C 112.796875 123.746094 117.125 127.503906 122.480469 127.503906 C 122.703125 127.503906 122.929688 127.496094 123.15625 127.484375 C 127.558594 127.210938 132.023438 124.738281 135.09375 120.871094 C 138.414062 116.683594 139.183594 112.269531 139.480469 108.882812 L 139.496094 108.675781 L 139.496094 98.738281 L 139.742188 98.761719 L 140.785156 98.851562 L 140.882812 98.863281 L 140.984375 98.867188 C 141.28125 98.878906 141.585938 98.886719 141.890625 98.886719 C 145.488281 98.886719 149.910156 97.953125 152.902344 96.5625 C 155.761719 95.234375 162.296875 91.589844 161.160156 86.445312 Z M 161.160156 86.445312 " fill-opacity="1" fill-rule="nonzero"/></g><path fill="#0277bd" d="M 134.726562 96.484375 C 134.726562 95.996094 134.757812 95.589844 134.769531 95.136719 C 134.746094 94.539062 134.726562 94.101562 134.726562 94.101562 C 134.726562 94.101562 134.757812 94.078125 134.804688 94.046875 C 135.160156 87.671875 136.917969 85.214844 138.800781 83.816406 C 138.535156 83.453125 138.234375 83.058594 137.949219 82.683594 C 137.15625 81.640625 136.164062 80.347656 135.105469 78.691406 L 134.910156 78.3125 C 134.75 77.921875 134.363281 77.246094 133.875 76.359375 C 131.050781 71.257812 125.179688 60.636719 129.199219 53.929688 C 130.960938 50.992188 134.261719 49.300781 139.027344 48.882812 C 137.078125 43.339844 129.777344 29.976562 113.226562 29.703125 C 113.222656 29.703125 113.214844 29.703125 113.210938 29.703125 C 98.804688 29.46875 94.070312 42.5625 92.527344 50.386719 C 94.652344 49.488281 97.074219 48.941406 99.292969 48.941406 C 99.324219 48.941406 99.363281 48.941406 99.394531 48.941406 C 104.855469 48.980469 108.613281 51.898438 109.707031 56.941406 C 110.503906 60.644531 110.886719 63.882812 110.878906 66.847656 C 110.855469 73.332031 109.546875 76.742188 108.394531 79.753906 L 108.027344 80.726562 C 107.730469 81.523438 107.417969 82.261719 107.121094 82.960938 C 106.820312 83.671875 106.558594 84.304688 106.363281 84.871094 C 107.519531 85.136719 108.425781 85.503906 109.046875 85.777344 L 109.40625 85.9375 C 109.519531 85.984375 109.632812 86.039062 109.734375 86.101562 C 111.757812 87.332031 113.015625 89.222656 113.285156 91.425781 C 113.429688 92.613281 113.40625 100.710938 113.355469 107.777344 C 113.566406 110.839844 114.085938 113.414062 114.773438 115.28125 C 115.746094 117.9375 118.183594 123.011719 122.867188 122.71875 C 126.132812 122.515625 129.273438 120.527344 131.359375 117.902344 C 133.597656 115.085938 134.421875 111.972656 134.730469 108.464844 L 134.730469 96.484375 Z M 134.726562 96.484375 " fill-opacity="1" fill-rule="nonzero"/><path fill="#0277bd" d="M 92.066406 84.363281 C 88.222656 80.347656 86.347656 74.949219 87.050781 69.917969 C 87.730469 65.066406 87.34375 60.3125 87.136719 57.757812 C 87.070312 56.90625 87.023438 56.273438 87.027344 55.921875 C 87.027344 55.902344 87.03125 55.886719 87.03125 55.867188 C 87.03125 55.859375 87.027344 55.851562 87.027344 55.839844 C 87.316406 48.636719 90.09375 37.269531 97.746094 30.511719 C 94.019531 29.046875 87.953125 27.109375 82.253906 27.316406 C 73.332031 27.640625 64.691406 33.816406 65.558594 51.167969 C 65.886719 57.679688 73.246094 96.730469 83.304688 96.484375 C 84.742188 96.449219 86.234375 95.527344 87.769531 93.679688 C 90.195312 90.765625 92.550781 88.117188 94.230469 86.277344 C 93.476562 85.707031 92.753906 85.078125 92.066406 84.363281 Z M 144.324219 50.527344 C 144.359375 50.894531 144.328125 51.210938 144.269531 51.5 C 144.34375 53.695312 144.109375 55.824219 143.867188 57.886719 C 143.691406 59.402344 143.507812 60.96875 143.460938 62.542969 C 143.410156 64.078125 143.625 65.597656 143.855469 67.207031 C 144.390625 70.96875 144.949219 75.21875 142.03125 80.175781 C 142.566406 80.878906 143.039062 81.535156 143.417969 82.171875 C 154.410156 64.34375 158.84375 43.148438 154.613281 37.746094 C 148.214844 29.570312 139.355469 27.203125 132.339844 27.316406 C 130.144531 27.355469 128.148438 27.648438 126.441406 28.019531 C 138.546875 33.886719 143.941406 46.460938 144.324219 50.527344 Z M 153.808594 87.113281 C 147.453125 88.425781 144.394531 87.726562 142.910156 86.8125 C 142.671875 86.984375 142.433594 87.132812 142.210938 87.265625 C 141.324219 87.804688 139.921875 88.65625 139.578125 93.902344 C 139.773438 93.941406 139.949219 93.960938 140.164062 94.007812 L 141.199219 94.101562 C 144.347656 94.242188 148.472656 93.363281 150.890625 92.238281 C 156.101562 89.820312 158.945312 86.054688 153.808594 87.113281 Z M 108.546875 92 C 108.457031 91.289062 108.074219 90.714844 107.371094 90.253906 L 107.117188 90.140625 C 106.253906 89.761719 105.277344 89.332031 103.722656 89.332031 L 103.710938 89.332031 C 103.410156 89.355469 103.109375 89.375 102.804688 89.375 C 102.679688 89.375 102.558594 89.359375 102.4375 89.355469 C 101.304688 90.226562 99.699219 90.898438 95.71875 91.714844 C 88.613281 93.527344 92.808594 95.664062 95.535156 95.996094 C 98.171875 96.65625 104.441406 97.457031 108.605469 94.066406 C 108.59375 92.996094 108.574219 92.261719 108.546875 92 Z M 108.546875 92 " fill-opacity="1" fill-rule="nonzero"/><path fill="#0277bd" d="M 105.34375 59.519531 C 104.648438 60.238281 103.550781 60.871094 102.335938 60.671875 C 100.359375 60.355469 98.847656 57.972656 98.957031 57.078125 C 99.0625 56.183594 100.746094 55.71875 102.71875 56.039062 C 103.402344 56.152344 104.027344 56.34375 104.550781 56.582031 C 103.789062 54.941406 102.40625 53.996094 100.300781 53.765625 C 96.570312 53.347656 92.605469 55.300781 91.808594 56.378906 C 91.828125 56.644531 91.859375 56.980469 91.890625 57.375 C 92.109375 60.109375 92.519531 65.207031 91.769531 70.582031 C 91.273438 74.125 92.707031 78.140625 95.507812 81.0625 C 97.3125 82.949219 99.421875 84.140625 101.5 84.492188 C 101.765625 83.351562 102.238281 82.242188 102.722656 81.09375 C 102.992188 80.460938 103.28125 79.789062 103.550781 79.0625 L 103.9375 78.042969 C 104.992188 75.289062 106.082031 72.4375 106.105469 66.828125 C 106.113281 64.667969 105.847656 62.203125 105.34375 59.519531 Z M 139.132812 67.882812 C 138.886719 66.144531 138.628906 64.34375 138.691406 62.386719 C 138.746094 60.617188 138.941406 58.949219 139.128906 57.335938 C 139.277344 56.0625 139.394531 54.84375 139.460938 53.636719 C 136.386719 53.894531 134.34375 54.78125 133.375 56.28125 C 133.777344 56.144531 134.230469 56.035156 134.730469 55.972656 C 136.859375 55.695312 138.410156 56.308594 138.589844 57.492188 C 138.71875 58.359375 137.984375 59.171875 137.664062 59.484375 C 137.003906 60.128906 136.171875 60.539062 135.324219 60.648438 C 135.171875 60.667969 135.015625 60.679688 134.867188 60.679688 C 134.023438 60.679688 133.21875 60.390625 132.601562 59.964844 C 132.871094 64.667969 136.339844 70.964844 138.046875 74.050781 C 138.414062 74.710938 138.695312 75.238281 138.925781 75.691406 C 139.863281 73.023438 139.519531 70.589844 139.132812 67.882812 Z M 139.132812 67.882812 " fill-opacity="1" fill-rule="nonzero"/><g fill="#b4e2ff" fill-opacity="1"><g transform="translate(39.354344, 188.264561)"><g><path d="M 2.875 0 C 2.59375 0 2.453125 -0.132812 2.453125 -0.40625 L 2.453125 -27.453125 C 2.453125 -27.722656 2.59375 -27.859375 2.875 -27.859375 L 7.75 -27.859375 C 8.976562 -27.859375 10.0625 -27.707031 11 -27.40625 C 11.9375 -27.101562 12.71875 -26.625 13.34375 -25.96875 C 13.976562 -25.3125 14.457031 -24.453125 14.78125 -23.390625 C 15.113281 -22.328125 15.28125 -21.03125 15.28125 -19.5 C 15.28125 -16.5 14.628906 -14.351562 13.328125 -13.0625 C 12.035156 -11.78125 10.175781 -11.140625 7.75 -11.140625 L 6.015625 -11.140625 C 5.859375 -11.140625 5.78125 -11.054688 5.78125 -10.890625 L 5.78125 -0.40625 C 5.78125 -0.132812 5.640625 0 5.359375 0 Z M 7.75 -14.21875 C 9.269531 -14.21875 10.351562 -14.597656 11 -15.359375 C 11.644531 -16.128906 11.96875 -17.507812 11.96875 -19.5 C 11.96875 -21.46875 11.644531 -22.835938 11 -23.609375 C 10.351562 -24.390625 9.269531 -24.78125 7.75 -24.78125 L 6.015625 -24.78125 C 5.859375 -24.78125 5.78125 -24.703125 5.78125 -24.546875 L 5.78125 -14.46875 C 5.78125 -14.300781 5.859375 -14.21875 6.015625 -14.21875 Z M 7.75 -14.21875 "/></g></g></g><g fill="#b4e2ff" fill-opacity="1"><g transform="translate(56.029271, 188.264561)"><g><path d="M 7.65625 0.375 C 6.289062 0.375 5.144531 0.0507812 4.21875 -0.59375 C 3.289062 -1.238281 2.632812 -2.175781 2.25 -3.40625 C 2.164062 -3.675781 2.097656 -3.953125 2.046875 -4.234375 C 1.992188 -4.523438 1.953125 -4.894531 1.921875 -5.34375 C 1.898438 -5.789062 1.878906 -6.367188 1.859375 -7.078125 C 1.847656 -7.796875 1.84375 -8.710938 1.84375 -9.828125 C 1.84375 -10.953125 1.847656 -11.867188 1.859375 -12.578125 C 1.878906 -13.285156 1.898438 -13.863281 1.921875 -14.3125 C 1.953125 -14.769531 1.992188 -15.140625 2.046875 -15.421875 C 2.097656 -15.710938 2.164062 -15.992188 2.25 -16.265625 C 2.632812 -17.460938 3.289062 -18.382812 4.21875 -19.03125 C 5.144531 -19.675781 6.289062 -20 7.65625 -20 C 9.019531 -20 10.164062 -19.675781 11.09375 -19.03125 C 12.03125 -18.382812 12.6875 -17.460938 13.0625 -16.265625 C 13.144531 -15.992188 13.210938 -15.710938 13.265625 -15.421875 C 13.328125 -15.140625 13.367188 -14.769531 13.390625 -14.3125 C 13.421875 -13.863281 13.441406 -13.285156 13.453125 -12.578125 C 13.472656 -11.867188 13.484375 -10.953125 13.484375 -9.828125 C 13.484375 -8.710938 13.472656 -7.796875 13.453125 -7.078125 C 13.441406 -6.367188 13.421875 -5.789062 13.390625 -5.34375 C 13.367188 -4.894531 13.328125 -4.523438 13.265625 -4.234375 C 13.210938 -3.953125 13.144531 -3.675781 13.0625 -3.40625 C 12.6875 -2.175781 12.03125 -1.238281 11.09375 -0.59375 C 10.164062 0.0507812 9.019531 0.375 7.65625 0.375 Z M 7.65625 -2.578125 C 8.882812 -2.578125 9.691406 -3.148438 10.078125 -4.296875 C 10.128906 -4.460938 10.164062 -4.644531 10.1875 -4.84375 C 10.21875 -5.050781 10.25 -5.335938 10.28125 -5.703125 C 10.3125 -6.078125 10.328125 -6.59375 10.328125 -7.25 C 10.328125 -7.90625 10.328125 -8.765625 10.328125 -9.828125 C 10.328125 -10.898438 10.328125 -11.753906 10.328125 -12.390625 C 10.328125 -13.035156 10.3125 -13.539062 10.28125 -13.90625 C 10.25 -14.28125 10.21875 -14.566406 10.1875 -14.765625 C 10.164062 -14.972656 10.128906 -15.160156 10.078125 -15.328125 C 9.691406 -16.472656 8.882812 -17.046875 7.65625 -17.046875 C 6.425781 -17.046875 5.625 -16.472656 5.25 -15.328125 C 5.1875 -15.160156 5.140625 -14.972656 5.109375 -14.765625 C 5.085938 -14.566406 5.0625 -14.28125 5.03125 -13.90625 C 5.007812 -13.539062 5 -13.035156 5 -12.390625 C 5 -11.753906 5 -10.898438 5 -9.828125 C 5 -8.765625 5 -7.90625 5 -7.25 C 5 -6.59375 5.007812 -6.078125 5.03125 -5.703125 C 5.0625 -5.335938 5.085938 -5.050781 5.109375 -4.84375 C 5.140625 -4.644531 5.1875 -4.460938 5.25 -4.296875 C 5.625 -3.148438 6.425781 -2.578125 7.65625 -2.578125 Z M 7.65625 -2.578125 "/></g></g></g><g fill="#b4e2ff" fill-opacity="1"><g transform="translate(71.352171, 188.264561)"><g><path d="M 7.046875 0.375 C 5.410156 0.375 4.097656 -0.0546875 3.109375 -0.921875 C 2.128906 -1.785156 1.554688 -3.019531 1.390625 -4.625 C 1.335938 -4.90625 1.445312 -5.070312 1.71875 -5.125 L 3.8125 -5.53125 C 4.082031 -5.582031 4.242188 -5.472656 4.296875 -5.203125 C 4.429688 -4.191406 4.75 -3.46875 5.25 -3.03125 C 5.757812 -2.59375 6.375 -2.375 7.09375 -2.375 C 7.882812 -2.375 8.507812 -2.601562 8.96875 -3.0625 C 9.4375 -3.53125 9.671875 -4.242188 9.671875 -5.203125 C 9.671875 -5.992188 9.507812 -6.617188 9.1875 -7.078125 C 8.875 -7.546875 8.285156 -7.957031 7.421875 -8.3125 L 5.78125 -8.9375 C 4.488281 -9.425781 3.488281 -10.113281 2.78125 -11 C 2.070312 -11.882812 1.71875 -13.039062 1.71875 -14.46875 C 1.71875 -16.070312 2.195312 -17.394531 3.15625 -18.4375 C 4.113281 -19.476562 5.425781 -20 7.09375 -20 C 8.695312 -20 9.9375 -19.5625 10.8125 -18.6875 C 11.6875 -17.8125 12.191406 -16.785156 12.328125 -15.609375 C 12.378906 -15.304688 12.285156 -15.128906 12.046875 -15.078125 L 10.078125 -14.671875 C 9.828125 -14.640625 9.664062 -14.75 9.59375 -15 C 9.394531 -15.707031 9.117188 -16.265625 8.765625 -16.671875 C 8.410156 -17.078125 7.851562 -17.28125 7.09375 -17.28125 C 6.300781 -17.28125 5.710938 -17.039062 5.328125 -16.5625 C 4.941406 -16.09375 4.75 -15.460938 4.75 -14.671875 C 4.75 -14.066406 4.90625 -13.53125 5.21875 -13.0625 C 5.53125 -12.601562 6.125 -12.195312 7 -11.84375 L 8.640625 -11.21875 C 10.171875 -10.644531 11.222656 -9.894531 11.796875 -8.96875 C 12.367188 -8.039062 12.65625 -6.851562 12.65625 -5.40625 C 12.65625 -3.6875 12.171875 -2.289062 11.203125 -1.21875 C 10.234375 -0.15625 8.847656 0.375 7.046875 0.375 Z M 7.046875 0.375 "/></g></g></g><g fill="#b4e2ff" fill-opacity="1"><g transform="translate(85.404997, 188.264561)"><g><path d="M 7.296875 0.203125 C 5.796875 0.203125 4.703125 -0.15625 4.015625 -0.875 C 3.328125 -1.601562 2.984375 -2.800781 2.984375 -4.46875 L 2.984375 -16.875 C 2.984375 -17.039062 2.90625 -17.125 2.75 -17.125 L 1.5625 -17.125 C 1.28125 -17.125 1.140625 -17.257812 1.140625 -17.53125 L 1.140625 -19.21875 C 1.140625 -19.488281 1.28125 -19.625 1.5625 -19.625 L 2.75 -19.625 C 2.90625 -19.625 2.984375 -19.707031 2.984375 -19.875 L 2.984375 -25.40625 C 2.984375 -25.675781 3.125 -25.8125 3.40625 -25.8125 L 5.734375 -25.8125 C 6.003906 -25.8125 6.140625 -25.675781 6.140625 -25.40625 L 6.140625 -19.875 C 6.140625 -19.707031 6.222656 -19.625 6.390625 -19.625 L 8.3125 -19.625 C 8.582031 -19.625 8.71875 -19.488281 8.71875 -19.21875 L 8.71875 -17.53125 C 8.71875 -17.257812 8.582031 -17.125 8.3125 -17.125 L 6.390625 -17.125 C 6.222656 -17.125 6.140625 -17.039062 6.140625 -16.875 L 6.140625 -4.5 C 6.140625 -3.351562 6.6875 -2.78125 7.78125 -2.78125 L 8.3125 -2.78125 C 8.582031 -2.78125 8.71875 -2.644531 8.71875 -2.375 L 8.71875 -0.203125 C 8.71875 0.0664062 8.582031 0.203125 8.3125 0.203125 Z M 7.296875 0.203125 "/></g></g></g><g fill="#b4e2ff" fill-opacity="1"><g transform="translate(95.360793, 188.264561)"><g><path d="M 7.625 7.75 C 6.257812 7.75 5.097656 7.40625 4.140625 6.71875 C 3.179688 6.03125 2.550781 5.144531 2.25 4.0625 C 2.195312 3.8125 2.265625 3.644531 2.453125 3.5625 L 4.625 2.78125 C 4.875 2.695312 5.050781 2.765625 5.15625 2.984375 C 5.625 4.160156 6.472656 4.75 7.703125 4.75 C 8.492188 4.75 9.128906 4.507812 9.609375 4.03125 C 10.085938 3.550781 10.328125 2.796875 10.328125 1.765625 L 10.328125 -2.453125 L 10.28125 -2.453125 C 10.039062 -1.773438 9.628906 -1.207031 9.046875 -0.75 C 8.472656 -0.300781 7.671875 -0.078125 6.640625 -0.078125 C 4.453125 -0.078125 3.03125 -1.144531 2.375 -3.28125 C 2.289062 -3.550781 2.210938 -3.835938 2.140625 -4.140625 C 2.078125 -4.441406 2.023438 -4.835938 1.984375 -5.328125 C 1.941406 -5.816406 1.914062 -6.4375 1.90625 -7.1875 C 1.894531 -7.9375 1.890625 -8.875 1.890625 -10 C 1.890625 -11.113281 1.894531 -12.046875 1.90625 -12.796875 C 1.914062 -13.546875 1.941406 -14.164062 1.984375 -14.65625 C 2.023438 -15.15625 2.078125 -15.5625 2.140625 -15.875 C 2.210938 -16.1875 2.289062 -16.46875 2.375 -16.71875 C 2.707031 -17.78125 3.210938 -18.59375 3.890625 -19.15625 C 4.578125 -19.71875 5.492188 -20 6.640625 -20 C 7.671875 -20 8.472656 -19.765625 9.046875 -19.296875 C 9.628906 -18.828125 10.039062 -18.253906 10.28125 -17.578125 L 10.328125 -17.578125 L 10.328125 -19.21875 C 10.328125 -19.488281 10.460938 -19.625 10.734375 -19.625 L 13.0625 -19.625 C 13.34375 -19.625 13.484375 -19.488281 13.484375 -19.21875 L 13.484375 1.4375 C 13.484375 3.507812 12.957031 5.078125 11.90625 6.140625 C 10.851562 7.210938 9.425781 7.75 7.625 7.75 Z M 7.703125 -2.984375 C 8.878906 -2.984375 9.65625 -3.5625 10.03125 -4.71875 C 10.09375 -4.875 10.140625 -5.039062 10.171875 -5.21875 C 10.210938 -5.394531 10.238281 -5.664062 10.25 -6.03125 C 10.269531 -6.40625 10.285156 -6.90625 10.296875 -7.53125 C 10.316406 -8.164062 10.328125 -8.988281 10.328125 -10 C 10.328125 -11.007812 10.316406 -11.828125 10.296875 -12.453125 C 10.285156 -13.078125 10.269531 -13.570312 10.25 -13.9375 C 10.238281 -14.3125 10.210938 -14.59375 10.171875 -14.78125 C 10.140625 -14.976562 10.09375 -15.160156 10.03125 -15.328125 C 9.84375 -15.867188 9.554688 -16.289062 9.171875 -16.59375 C 8.796875 -16.894531 8.304688 -17.046875 7.703125 -17.046875 C 6.503906 -17.046875 5.710938 -16.472656 5.328125 -15.328125 C 5.273438 -15.160156 5.234375 -14.976562 5.203125 -14.78125 C 5.171875 -14.59375 5.140625 -14.3125 5.109375 -13.9375 C 5.085938 -13.570312 5.070312 -13.078125 5.0625 -12.453125 C 5.050781 -11.828125 5.046875 -11.007812 5.046875 -10 C 5.046875 -8.988281 5.050781 -8.164062 5.0625 -7.53125 C 5.070312 -6.90625 5.085938 -6.40625 5.109375 -6.03125 C 5.140625 -5.664062 5.171875 -5.394531 5.203125 -5.21875 C 5.234375 -5.039062 5.273438 -4.875 5.328125 -4.71875 C 5.710938 -3.5625 6.503906 -2.984375 7.703125 -2.984375 Z M 7.703125 -2.984375 "/></g></g></g><g fill="#b4e2ff" fill-opacity="1"><g transform="translate(111.216314, 188.264561)"><g><path d="M 2.78125 0 C 2.507812 0 2.375 -0.132812 2.375 -0.40625 L 2.375 -19.21875 C 2.375 -19.488281 2.507812 -19.625 2.78125 -19.625 L 5.125 -19.625 C 5.394531 -19.625 5.53125 -19.488281 5.53125 -19.21875 L 5.53125 -17.375 L 5.578125 -17.375 C 5.898438 -18.132812 6.378906 -18.757812 7.015625 -19.25 C 7.660156 -19.75 8.488281 -20 9.5 -20 C 9.800781 -20 10.0625 -19.96875 10.28125 -19.90625 C 10.53125 -19.851562 10.613281 -19.703125 10.53125 -19.453125 L 9.953125 -17.125 C 9.867188 -16.875 9.707031 -16.75 9.46875 -16.75 L 8.84375 -16.75 C 7.894531 -16.75 7.101562 -16.40625 6.46875 -15.71875 C 5.84375 -15.039062 5.53125 -13.976562 5.53125 -12.53125 L 5.53125 -0.40625 C 5.53125 -0.132812 5.394531 0 5.125 0 Z M 2.78125 0 "/></g></g></g><g fill="#b4e2ff" fill-opacity="1"><g transform="translate(122.401213, 188.264561)"><g><path d="M 7.53125 0.375 C 6.164062 0.375 5.046875 0.0625 4.171875 -0.5625 C 3.304688 -1.195312 2.679688 -2.113281 2.296875 -3.3125 C 2.210938 -3.53125 2.140625 -3.773438 2.078125 -4.046875 C 2.023438 -4.328125 1.976562 -4.707031 1.9375 -5.1875 C 1.90625 -5.664062 1.878906 -6.269531 1.859375 -7 C 1.847656 -7.738281 1.84375 -8.679688 1.84375 -9.828125 C 1.84375 -10.972656 1.847656 -11.90625 1.859375 -12.625 C 1.878906 -13.351562 1.90625 -13.957031 1.9375 -14.4375 C 1.976562 -14.914062 2.023438 -15.289062 2.078125 -15.5625 C 2.140625 -15.84375 2.210938 -16.101562 2.296875 -16.34375 C 2.679688 -17.519531 3.316406 -18.421875 4.203125 -19.046875 C 5.085938 -19.679688 6.226562 -20 7.625 -20 C 9.007812 -20 10.140625 -19.679688 11.015625 -19.046875 C 11.890625 -18.421875 12.519531 -17.519531 12.90625 -16.34375 C 12.988281 -16.125 13.054688 -15.867188 13.109375 -15.578125 C 13.160156 -15.296875 13.207031 -14.894531 13.25 -14.375 C 13.289062 -13.863281 13.316406 -13.203125 13.328125 -12.390625 C 13.347656 -11.585938 13.359375 -10.546875 13.359375 -9.265625 C 13.359375 -8.984375 13.222656 -8.84375 12.953125 -8.84375 L 5.25 -8.84375 C 5.082031 -8.84375 5 -8.765625 5 -8.609375 C 5 -7.816406 5.003906 -7.164062 5.015625 -6.65625 C 5.035156 -6.15625 5.054688 -5.753906 5.078125 -5.453125 C 5.109375 -5.148438 5.132812 -4.910156 5.15625 -4.734375 C 5.1875 -4.554688 5.226562 -4.398438 5.28125 -4.265625 C 5.695312 -3.140625 6.460938 -2.578125 7.578125 -2.578125 C 8.921875 -2.578125 9.796875 -3.316406 10.203125 -4.796875 C 10.285156 -5.066406 10.445312 -5.175781 10.6875 -5.125 L 12.859375 -4.671875 C 13.109375 -4.640625 13.207031 -4.472656 13.15625 -4.171875 C 12.875 -2.753906 12.242188 -1.640625 11.265625 -0.828125 C 10.285156 -0.0234375 9.039062 0.375 7.53125 0.375 Z M 9.953125 -11.515625 C 10.117188 -11.515625 10.203125 -11.597656 10.203125 -11.765625 C 10.203125 -12.390625 10.191406 -12.910156 10.171875 -13.328125 C 10.160156 -13.753906 10.140625 -14.101562 10.109375 -14.375 C 10.085938 -14.65625 10.054688 -14.875 10.015625 -15.03125 C 9.972656 -15.195312 9.941406 -15.347656 9.921875 -15.484375 C 9.554688 -16.578125 8.789062 -17.125 7.625 -17.125 C 6.414062 -17.125 5.632812 -16.578125 5.28125 -15.484375 C 5.226562 -15.347656 5.1875 -15.195312 5.15625 -15.03125 C 5.132812 -14.875 5.109375 -14.65625 5.078125 -14.375 C 5.054688 -14.101562 5.035156 -13.753906 5.015625 -13.328125 C 5.003906 -12.910156 5 -12.390625 5 -11.765625 C 5 -11.597656 5.082031 -11.515625 5.25 -11.515625 Z M 9.953125 -11.515625 "/></g></g></g><g fill="#b4e2ff" fill-opacity="1"><g transform="translate(137.478299, 188.264561)"><g><path d="M 14.5 -7.859375 C 14.5 -5.046875 14.003906 -2.96875 13.015625 -1.625 C 12.035156 -0.289062 10.375 0.375 8.03125 0.375 C 3.851562 0.375 1.664062 -2.015625 1.46875 -6.796875 C 1.46875 -7.066406 1.578125 -7.21875 1.796875 -7.25 L 4.21875 -7.703125 C 4.519531 -7.753906 4.671875 -7.628906 4.671875 -7.328125 C 4.753906 -5.609375 5.070312 -4.398438 5.625 -3.703125 C 6.1875 -3.003906 7.003906 -2.65625 8.078125 -2.65625 C 9.140625 -2.65625 9.921875 -2.984375 10.421875 -3.640625 C 10.929688 -4.296875 11.1875 -5.566406 11.1875 -7.453125 C 11.1875 -8.242188 11.144531 -8.925781 11.0625 -9.5 C 10.976562 -10.070312 10.828125 -10.554688 10.609375 -10.953125 C 10.390625 -11.347656 10.09375 -11.679688 9.71875 -11.953125 C 9.351562 -12.234375 8.898438 -12.484375 8.359375 -12.703125 L 6.671875 -13.359375 C 5.722656 -13.710938 4.929688 -14.113281 4.296875 -14.5625 C 3.671875 -15.007812 3.171875 -15.523438 2.796875 -16.109375 C 2.429688 -16.703125 2.171875 -17.398438 2.015625 -18.203125 C 1.867188 -19.015625 1.796875 -19.953125 1.796875 -21.015625 C 1.796875 -25.828125 3.875 -28.234375 8.03125 -28.234375 C 10.132812 -28.234375 11.679688 -27.671875 12.671875 -26.546875 C 13.671875 -25.429688 14.226562 -23.78125 14.34375 -21.59375 C 14.34375 -21.320312 14.21875 -21.171875 13.96875 -21.140625 L 11.671875 -20.765625 C 11.535156 -20.710938 11.425781 -20.71875 11.34375 -20.78125 C 11.257812 -20.851562 11.21875 -20.957031 11.21875 -21.09375 C 11.164062 -22.488281 10.898438 -23.519531 10.421875 -24.1875 C 9.941406 -24.863281 9.171875 -25.203125 8.109375 -25.203125 C 7.078125 -25.203125 6.3125 -24.878906 5.8125 -24.234375 C 5.320312 -23.585938 5.078125 -22.554688 5.078125 -21.140625 C 5.078125 -20.429688 5.125 -19.820312 5.21875 -19.3125 C 5.3125 -18.8125 5.46875 -18.382812 5.6875 -18.03125 C 5.90625 -17.675781 6.195312 -17.375 6.5625 -17.125 C 6.9375 -16.875 7.410156 -16.640625 7.984375 -16.421875 L 9.671875 -15.765625 C 10.566406 -15.410156 11.320312 -15.015625 11.9375 -14.578125 C 12.550781 -14.140625 13.050781 -13.613281 13.4375 -13 C 13.820312 -12.382812 14.09375 -11.660156 14.25 -10.828125 C 14.414062 -10.003906 14.5 -9.015625 14.5 -7.859375 Z M 14.5 -7.859375 "/></g></g></g><g fill="#b4e2ff" fill-opacity="1"><g transform="translate(153.538674, 188.264561)"><g><path d="M 15.359375 0.578125 C 15.171875 0.796875 14.984375 0.804688 14.796875 0.609375 L 12.90625 -1.0625 C 11.78125 -0.101562 10.359375 0.375 8.640625 0.375 C 7.054688 0.375 5.753906 0.0195312 4.734375 -0.6875 C 3.710938 -1.40625 2.984375 -2.429688 2.546875 -3.765625 C 2.429688 -4.066406 2.335938 -4.394531 2.265625 -4.75 C 2.203125 -5.101562 2.148438 -5.628906 2.109375 -6.328125 C 2.066406 -7.023438 2.035156 -7.972656 2.015625 -9.171875 C 2.003906 -10.378906 2 -11.960938 2 -13.921875 C 2 -15.890625 2.003906 -17.472656 2.015625 -18.671875 C 2.035156 -19.878906 2.066406 -20.832031 2.109375 -21.53125 C 2.148438 -22.226562 2.203125 -22.753906 2.265625 -23.109375 C 2.335938 -23.460938 2.429688 -23.789062 2.546875 -24.09375 C 2.984375 -25.425781 3.710938 -26.445312 4.734375 -27.15625 C 5.753906 -27.875 7.054688 -28.234375 8.640625 -28.234375 C 10.222656 -28.234375 11.535156 -27.875 12.578125 -27.15625 C 13.617188 -26.445312 14.34375 -25.425781 14.75 -24.09375 C 14.851562 -23.789062 14.941406 -23.460938 15.015625 -23.109375 C 15.085938 -22.753906 15.140625 -22.226562 15.171875 -21.53125 C 15.210938 -20.832031 15.238281 -19.878906 15.25 -18.671875 C 15.269531 -17.472656 15.28125 -15.890625 15.28125 -13.921875 C 15.28125 -11.828125 15.265625 -10.164062 15.234375 -8.9375 C 15.210938 -7.707031 15.164062 -6.734375 15.09375 -6.015625 C 15.03125 -5.304688 14.941406 -4.773438 14.828125 -4.421875 C 14.722656 -4.066406 14.601562 -3.695312 14.46875 -3.3125 L 16.59375 -1.5625 C 16.8125 -1.394531 16.835938 -1.203125 16.671875 -0.984375 Z M 8.640625 -2.703125 C 9.128906 -2.703125 9.53125 -2.742188 9.84375 -2.828125 C 10.164062 -2.910156 10.445312 -3.019531 10.6875 -3.15625 L 8.515625 -5.046875 C 8.328125 -5.234375 8.316406 -5.4375 8.484375 -5.65625 L 9.59375 -6.96875 C 9.75 -7.15625 9.9375 -7.164062 10.15625 -7 L 11.796875 -5.484375 C 11.828125 -5.734375 11.851562 -6.078125 11.875 -6.515625 C 11.90625 -6.953125 11.925781 -7.503906 11.9375 -8.171875 C 11.957031 -8.835938 11.96875 -9.640625 11.96875 -10.578125 C 11.96875 -11.523438 11.96875 -12.640625 11.96875 -13.921875 C 11.96875 -15.867188 11.957031 -17.40625 11.9375 -18.53125 C 11.925781 -19.664062 11.90625 -20.539062 11.875 -21.15625 C 11.851562 -21.769531 11.820312 -22.195312 11.78125 -22.4375 C 11.738281 -22.6875 11.675781 -22.921875 11.59375 -23.140625 C 11.375 -23.773438 11.007812 -24.257812 10.5 -24.59375 C 10 -24.9375 9.378906 -25.109375 8.640625 -25.109375 C 7.898438 -25.109375 7.273438 -24.9375 6.765625 -24.59375 C 6.265625 -24.257812 5.90625 -23.773438 5.6875 -23.140625 C 5.613281 -22.921875 5.554688 -22.6875 5.515625 -22.4375 C 5.472656 -22.195312 5.4375 -21.769531 5.40625 -21.15625 C 5.375 -20.539062 5.351562 -19.664062 5.34375 -18.53125 C 5.332031 -17.40625 5.328125 -15.867188 5.328125 -13.921875 C 5.328125 -11.984375 5.332031 -10.445312 5.34375 -9.3125 C 5.351562 -8.1875 5.375 -7.316406 5.40625 -6.703125 C 5.4375 -6.085938 5.472656 -5.648438 5.515625 -5.390625 C 5.554688 -5.128906 5.613281 -4.890625 5.6875 -4.671875 C 5.90625 -4.046875 6.265625 -3.5625 6.765625 -3.21875 C 7.273438 -2.875 7.898438 -2.703125 8.640625 -2.703125 Z M 8.640625 -2.703125 "/></g></g></g><g fill="#b4e2ff" fill-opacity="1"><g transform="translate(170.828152, 188.264561)"><g><path d="M 2.453125 -27.453125 C 2.453125 -27.722656 2.59375 -27.859375 2.875 -27.859375 L 5.359375 -27.859375 C 5.640625 -27.859375 5.78125 -27.722656 5.78125 -27.453125 L 5.78125 -3.3125 C 5.78125 -3.15625 5.859375 -3.078125 6.015625 -3.078125 L 13.3125 -3.078125 C 13.582031 -3.078125 13.71875 -2.9375 13.71875 -2.65625 L 13.71875 -0.40625 C 13.71875 -0.132812 13.582031 0 13.3125 0 L 2.875 0 C 2.59375 0 2.453125 -0.132812 2.453125 -0.40625 Z M 2.453125 -27.453125 "/></g></g></g></svg>