<svg xmlns="http://www.w3.org/2000/svg" width="300" viewBox="0 0 224.88 225" height="300" version="1.0"><defs><clipPath id="a"><path d="M16 27h111v69.758H16Zm0 0"/></clipPath><clipPath id="b"><path d="M70 22.547h7V27h-7Zm0 0"/></clipPath><clipPath id="c"><path d="M13.102 68H22v10h-8.898Zm0 0"/></clipPath><clipPath id="d"><path d="M77 58h33v38.758H77Zm0 0"/></clipPath><clipPath id="e"><path d="M158 59h25v37.758h-25Zm0 0"/></clipPath><clipPath id="f"><path d="M144 59h11v37.758h-11Zm0 0"/></clipPath><clipPath id="g"><path d="M111 59h29v37.758h-29Zm0 0"/></clipPath><clipPath id="h"><path d="M185 59h26.746v37.758H185Zm0 0"/></clipPath></defs><path fill="#c70b00" d="M60.023 66.688c-.656 1.968-1.101 3.949-1.507 5.863l4.062 3.402c.2-2.078.555-4.152 1.05-6.23ZM57.762 86.098c.101 2.828.347 5.12.605 6.718l6.016 2.293c-.453-2.078-.903-4.43-1.2-6.933Zm0 0"/><g clip-path="url(#a)"><path fill="#c70b00" d="M16.996 94.145c-.281 1.64-.371 2.605-.371 2.605l.008.008h39.633S48.69 60.03 73.777 45.148c5.47-2.828 22.883-13.382 51.368 9.004.902-.797 1.753-1.441 1.753-1.441s-26.093-27.664-55.14-24.582c-14.649 1.387-32.61 15.52-43.145 34.172-8.008 14.172-10.758 26.64-11.617 31.844Zm0 0"/></g><path fill="#c70b00" d="m36.543 47.227-3.559-3.305c-1.308 1.336-2.558 2.66-3.707 3.996l3.864 3.516a53.229 53.229 0 0 1 3.41-4.215ZM71.168 55.45l-2.258-3.63a29.107 29.107 0 0 0-3.113 3.57l2.41 3.833c.852-1.336 1.852-2.563 2.961-3.774Zm0 0"/><g clip-path="url(#b)"><path fill="#c70b00" d="m76.383 25.797-1-3.25c-1.559 0-3.164.11-4.817.324l.95 3.14a40.892 40.892 0 0 1 4.363-.214Zm0 0"/></g><path fill="#c70b00" d="M53.242 27.719a85.164 85.164 0 0 0-3.914 2.285l2.309 3.734c1.308-.851 2.558-1.648 3.867-2.343Zm0 0"/><g clip-path="url(#c)"><path fill="#c70b00" d="m21.39 71.059-5.769-2.246c-.95 2.292-2 4.964-2.508 6.398l5.77 2.234c.652-1.812 1.703-4.418 2.508-6.386Zm0 0"/></g><g clip-path="url(#d)"><path fill="#c70b00" d="M77.086 96.758h9.633V87.59l8.328 9.168h14.242L98.098 84.77v-.008s8.78-.793 8.78-12.848c0-12.055-10.632-13.168-10.632-13.168h-19.16Zm9.625-28.48h7.723s2.16.85 2.16 4.32c0 3.465-2.211 4.37-2.211 4.37H86.71Zm0 0"/></g><g clip-path="url(#e)"><path fill="#c70b00" d="M158.8 59.012V96.75h23.837v-9.754H168.94V59.012Zm0 0"/></g><g clip-path="url(#f)"><path fill="#c70b00" d="M144.46 59.012h10.18V96.75h-10.18Zm0 0"/></g><path fill="#c70b00" d="M99.406 27.555c-.453-.266-1.703-.91-4.867-1.864l-.207 3.52a80.636 80.636 0 0 1 4.867 1.914v.008ZM99.406 43.121a33.588 33.588 0 0 0-4.965-.691v.008l-.199 3.355c1.656.05 3.313.262 4.965.633Zm0 0"/><g clip-path="url(#g)"><path fill="#c70b00" d="M130.656 59.012h-9.781c-6.969 0-9.328 6.718-9.328 9.918v27.828h9.781v-6.672h9.18v6.672h9.476V68.93c.008-8.106-6.91-9.918-9.328-9.918Zm-9.375 20.308v-9.218s0-2.086 3.063-2.086h3.36c2.702 0 2.753 2.086 2.753 2.086v9.218Zm0 0"/></g><g clip-path="url(#h)"><path fill="#c70b00" d="M210.438 68.715v-9.703h-15.551c-4.016 0-9.38 3.511-9.38 10.074v3.355c0 6.563 5.313 9.922 9.38 9.922 2.613.008 3.84.016 4.36.016-.786-.008-2.267-.016 3.358-.016v4.692l-16.601.047v9.656h16.402c3.364 0 9.13-2.613 9.328-9.918v-3.735c0-6.234-4.816-9.921-9.328-9.921h-8.176v-4.477h16.208Zm0 0"/></g><path fill="#c70b00" d="m83.797 47.234-1.098-3.511a33.915 33.915 0 0 0-4.414 1.707l1.153 3.675c1.457-.75 2.914-1.39 4.359-1.87Zm0 0"/><path d="M38.128 188.265c-.219 0-.371-.094-.453-.282l-3.485-11.64a3.535 3.535 0 0 1-.578.047h-2.25c-.156 0-.234.078-.234.234v11.234c0 .274-.14.407-.422.407h-2.484c-.282 0-.422-.133-.422-.407v-27.046c0-.27.14-.407.422-.407h4.875c2.457 0 4.328.606 5.61 1.813 1.28 1.199 1.921 3.273 1.921 6.219 0 1.886-.297 3.402-.89 4.546-.587 1.149-1.423 1.996-2.516 2.547l3.89 12.328c.114.274.047.407-.203.407Zm-5-14.875c1.445 0 2.504-.348 3.172-1.047.676-.696 1.015-2 1.015-3.906 0-1.883-.328-3.18-.984-3.891-.656-.707-1.726-1.063-3.203-1.063h-1.766c-.156 0-.234.079-.234.235v9.422c0 .168.078.25.234.25ZM53.455 188.265c-.274 0-.407-.133-.407-.407v-1.562h-.047a4.446 4.446 0 0 1-1.343 1.672c-.586.445-1.367.672-2.344.672-1.5 0-2.625-.485-3.375-1.453-.75-.977-1.125-2.516-1.125-4.61v-13.531c0-.27.133-.406.406-.406h2.328c.27 0 .407.136.407.406v13.078c0 2.375.847 3.563 2.546 3.563.79 0 1.41-.29 1.86-.875.457-.594.687-1.489.687-2.688v-13.078c0-.27.133-.406.407-.406h2.328c.281 0 .422.136.422.406v18.812c0 .274-.141.407-.422.407ZM67.87 188.64c-1.062 0-1.882-.235-2.453-.703a4.236 4.236 0 0 1-1.265-1.672h-.047v1.593c0 .274-.137.407-.406.407h-2.344c-.274 0-.406-.133-.406-.407v-27.046c0-.27.132-.407.406-.407h2.344c.27 0 .406.137.406.407v9.843h.047a3.954 3.954 0 0 1 1.265-1.703c.57-.457 1.391-.687 2.454-.687 2.156 0 3.578 1.07 4.265 3.203.082.273.156.57.219.89.07.313.129.715.172 1.204.039.492.066 1.125.078 1.906a287.567 287.567 0 0 1 0 5.937c-.012.782-.04 1.43-.078 1.938-.043.5-.102.906-.172 1.219a9.23 9.23 0 0 1-.219.875c-.687 2.136-2.11 3.203-4.265 3.203Zm-1.062-2.953c1.195 0 1.988-.57 2.375-1.72.05-.163.098-.347.14-.546.04-.207.067-.492.079-.86.02-.374.035-.89.047-1.546a212.649 212.649 0 0 0 0-5.141 45.911 45.911 0 0 0-.047-1.516 5.632 5.632 0 0 0-.078-.859 6.56 6.56 0 0 0-.141-.562c-.387-1.145-1.18-1.72-2.375-1.72-.625 0-1.137.153-1.531.454-.399.305-.696.726-.89 1.266a4.775 4.775 0 0 0-.219 1.422c-.012.367-.028.87-.047 1.515-.012.637-.016 1.492-.016 2.563 0 1.062.004 1.921.016 2.578l.046 1.547c.008.367.036.652.079.859.039.2.085.383.14.547.195.543.492.965.89 1.265.395.305.907.454 1.532.454ZM77.058 195.64c-.281 0-.422-.137-.422-.407v-2.171c0-.274.14-.407.422-.407l.484-.047c.57-.03 1.016-.199 1.329-.5.312-.293.578-.875.796-1.75l.704-2.703-4.797-18.61c-.055-.269.054-.405.328-.405h2.453c.219 0 .36.136.422.406l3.031 13.406h.078l3.031-13.406c.051-.27.204-.406.454-.406h2.375c.269 0 .363.136.28.406l-5.359 21.187c-.273 1.114-.57 2.02-.89 2.72-.313.694-.668 1.241-1.063 1.64a3.16 3.16 0 0 1-1.375.812c-.511.157-1.125.235-1.843.235ZM104.496 188.64c-1.367 0-2.512-.325-3.437-.97-.93-.644-1.586-1.581-1.969-2.812a6.568 6.568 0 0 1-.203-.828 9.975 9.975 0 0 1-.125-1.11 73.562 73.562 0 0 1-.063-1.733c-.011-.72-.015-1.633-.015-2.75 0-1.125.004-2.04.015-2.75.02-.708.04-1.286.063-1.735.031-.457.07-.828.125-1.11.05-.288.117-.57.203-.843.383-1.195 1.039-2.117 1.969-2.766.925-.644 2.07-.968 3.437-.968 1.363 0 2.508.324 3.438.968.937.649 1.593 1.57 1.968 2.766.082.273.149.555.204.844.062.281.101.652.125 1.11.03.448.05 1.026.062 1.734.02.71.031 1.625.031 2.75 0 1.117-.011 2.03-.03 2.75-.013.71-.032 1.289-.063 1.734-.024.45-.063.82-.125 1.11a8.263 8.263 0 0 1-.204.827c-.375 1.23-1.03 2.168-1.968 2.813-.93.644-2.075.969-3.438.969Zm0-2.953c1.227 0 2.035-.57 2.422-1.72.05-.163.086-.347.11-.546.03-.207.062-.492.093-.86.031-.374.047-.89.047-1.546v-5.141c0-.645-.016-1.148-.047-1.516a12.77 12.77 0 0 0-.094-.859 3.192 3.192 0 0 0-.109-.562c-.387-1.145-1.195-1.72-2.422-1.72-1.23 0-2.031.575-2.406 1.72a2.82 2.82 0 0 0-.14.562c-.024.2-.048.484-.079.86-.023.367-.031.87-.031 1.515v5.141c0 .656.008 1.172.031 1.547.031.367.055.652.078.859.032.2.078.383.141.547.375 1.148 1.176 1.719 2.406 1.719ZM123.303 188.265c-.273 0-.406-.133-.406-.407V174.78c0-2.375-.86-3.562-2.578-3.562-.824 0-1.469.289-1.937.86-.461.573-.688 1.476-.688 2.702v13.078c0 .274-.137.407-.406.407h-2.344c-.273 0-.406-.133-.406-.407v-18.812c0-.27.133-.406.406-.406h2.344c.27 0 .406.136.406.406v1.562h.047a4.046 4.046 0 0 1 1.36-1.656c.613-.457 1.398-.687 2.359-.687 1.531 0 2.676.492 3.437 1.468.77.97 1.156 2.493 1.156 4.563v13.562c0 .274-.136.407-.406.407ZM148.83 188.265c-.219 0-.371-.094-.453-.282l-3.485-11.64a3.535 3.535 0 0 1-.578.047h-2.25c-.156 0-.234.078-.234.234v11.234c0 .274-.14.407-.422.407h-2.484c-.282 0-.422-.133-.422-.407v-27.046c0-.27.14-.407.422-.407h4.875c2.457 0 4.328.606 5.609 1.813 1.281 1.199 1.922 3.273 1.922 6.219 0 1.886-.297 3.402-.89 4.546-.587 1.149-1.423 1.996-2.516 2.547l3.89 12.328c.113.274.047.407-.203.407Zm-5-14.875c1.445 0 2.504-.348 3.172-1.047.675-.696 1.015-2 1.015-3.906 0-1.883-.328-3.18-.984-3.891-.656-.707-1.727-1.063-3.203-1.063h-1.766c-.156 0-.234.079-.234.235v9.422c0 .168.078.25.234.25ZM163.703 188.265c-.273 0-.406-.133-.406-.407v-1.687h-.047c-.273.773-.734 1.375-1.39 1.812-.657.438-1.422.657-2.297.657a5.16 5.16 0 0 1-1.703-.297 3.71 3.71 0 0 1-1.485-.953c-.437-.457-.789-1.063-1.047-1.813-.261-.75-.39-1.672-.39-2.765 0-1.094.148-2.024.453-2.797.3-.782.703-1.41 1.203-1.891a4.616 4.616 0 0 1 1.828-1.047 7.735 7.735 0 0 1 2.297-.328h2.328c.164 0 .25-.082.25-.25v-1.594c0-1.312-.219-2.258-.656-2.843-.438-.583-1.188-.875-2.25-.875-.719 0-1.34.125-1.86.375-.511.242-1 .554-1.468.937-.305.188-.524.133-.657-.172l-.78-1.594c-.138-.25-.106-.468.093-.656.57-.55 1.297-.988 2.172-1.312.875-.332 1.828-.5 2.86-.5 1.968 0 3.39.496 4.265 1.484.875.98 1.312 2.648 1.312 5v13.11c0 .273-.136.406-.406.406Zm-3.28-2.328c.85 0 1.546-.329 2.077-.985.531-.656.797-1.52.797-2.594v-2.703c0-.156-.086-.234-.25-.234h-1.844c-1.18 0-2.011.281-2.5.844-.492.554-.734 1.375-.734 2.468 0 1.063.207 1.868.625 2.407.426.53 1.035.797 1.828.797ZM171.153 164.17c-.273 0-.406-.132-.406-.405v-2.953c0-.27.133-.407.406-.407h2.594c.27 0 .406.137.406.407v2.953c0 .273-.136.406-.406.406Zm.125 24.095c-.273 0-.406-.133-.406-.407v-18.812c0-.27.133-.406.406-.406h2.344c.27 0 .406.136.406.406v18.812c0 .274-.136.407-.406.407ZM183.654 188.42c-1.804-.054-3.07-.483-3.797-1.296-.718-.82-1.078-2.176-1.078-4.062v-22.25c0-.27.133-.407.407-.407h2.343c.27 0 .407.137.407.407v22.375c0 .71.128 1.234.39 1.578.258.343.703.57 1.328.672l.203.046c.27.055.407.204.407.454v2.125c0 .27-.137.406-.407.406ZM192.506 188.64c-1.637 0-2.95-.43-3.938-1.297-.98-.864-1.555-2.098-1.719-3.703-.054-.282.055-.446.329-.5l2.093-.407c.27-.05.43.059.485.329.132 1.011.453 1.734.953 2.171.508.438 1.125.657 1.844.657.789 0 1.414-.227 1.875-.688.468-.469.703-1.18.703-2.14 0-.79-.164-1.415-.485-1.875-.312-.47-.902-.88-1.765-1.235l-1.641-.625c-1.293-.488-2.293-1.176-3-2.062-.71-.883-1.062-2.04-1.062-3.47 0-1.6.476-2.925 1.437-3.968.957-1.039 2.27-1.562 3.938-1.562 1.601 0 2.843.437 3.718 1.312s1.38 1.902 1.516 3.078c.05.305-.043.48-.281.532l-1.97.406c-.25.031-.413-.078-.483-.328-.2-.707-.477-1.266-.829-1.672-.355-.406-.914-.61-1.671-.61-.793 0-1.383.243-1.766.72-.387.468-.578 1.1-.578 1.89 0 .605.156 1.14.469 1.61.312.46.906.866 1.78 1.218l1.641.625c1.532.574 2.582 1.324 3.157 2.25.57.93.859 2.117.859 3.562 0 1.72-.484 3.118-1.453 4.188-.969 1.062-2.356 1.594-4.156 1.594Zm0 0" fill="#f16961"/></svg>