<svg xmlns="http://www.w3.org/2000/svg" xmlns:xlink="http://www.w3.org/1999/xlink" width="300" zoomAndPan="magnify" viewBox="0 0 224.87999 225" height="300" preserveAspectRatio="xMidYMid meet" version="1.0"><defs><g/><clipPath id="c037b4e0cc"><path d="M 16 27 L 127 27 L 127 96.757812 L 16 96.757812 Z M 16 27 " clip-rule="nonzero"/></clipPath><clipPath id="ea326c158b"><path d="M 70 22.546875 L 77 22.546875 L 77 27 L 70 27 Z M 70 22.546875 " clip-rule="nonzero"/></clipPath><clipPath id="392149495a"><path d="M 13.101562 68 L 22 68 L 22 78 L 13.101562 78 Z M 13.101562 68 " clip-rule="nonzero"/></clipPath><clipPath id="8ee1f5d71a"><path d="M 77 58 L 110 58 L 110 96.757812 L 77 96.757812 Z M 77 58 " clip-rule="nonzero"/></clipPath><clipPath id="c1eca57b4f"><path d="M 158 59 L 183 59 L 183 96.757812 L 158 96.757812 Z M 158 59 " clip-rule="nonzero"/></clipPath><clipPath id="fc5e938424"><path d="M 144 59 L 155 59 L 155 96.757812 L 144 96.757812 Z M 144 59 " clip-rule="nonzero"/></clipPath><clipPath id="50eccdde57"><path d="M 111 59 L 140 59 L 140 96.757812 L 111 96.757812 Z M 111 59 " clip-rule="nonzero"/></clipPath><clipPath id="af51ad4b05"><path d="M 185 59 L 211.746094 59 L 211.746094 96.757812 L 185 96.757812 Z M 185 59 " clip-rule="nonzero"/></clipPath></defs><path fill="#c70b00" d="M 60.023438 66.6875 C 59.367188 68.65625 58.921875 70.636719 58.515625 72.550781 L 62.578125 75.953125 C 62.777344 73.875 63.132812 71.800781 63.628906 69.722656 Z M 60.023438 66.6875 " fill-opacity="1" fill-rule="nonzero"/><path fill="#c70b00" d="M 57.761719 86.097656 C 57.863281 88.925781 58.109375 91.21875 58.367188 92.816406 L 64.382812 95.109375 C 63.929688 93.03125 63.480469 90.679688 63.183594 88.175781 Z M 57.761719 86.097656 " fill-opacity="1" fill-rule="nonzero"/><g clip-path="url(#c037b4e0cc)"><path fill="#c70b00" d="M 16.996094 94.144531 C 16.714844 95.785156 16.625 96.75 16.625 96.75 L 16.632812 96.757812 L 56.265625 96.757812 C 56.265625 96.757812 48.691406 60.03125 73.777344 45.148438 C 79.246094 42.320312 96.660156 31.765625 125.144531 54.152344 C 126.046875 53.355469 126.898438 52.710938 126.898438 52.710938 C 126.898438 52.710938 100.804688 25.046875 71.757812 28.128906 C 57.109375 29.515625 39.148438 43.648438 28.613281 62.300781 C 20.605469 76.472656 17.855469 88.941406 16.996094 94.144531 Z M 16.996094 94.144531 " fill-opacity="1" fill-rule="nonzero"/></g><path fill="#c70b00" d="M 36.542969 47.226562 L 32.984375 43.921875 C 31.675781 45.257812 30.425781 46.582031 29.277344 47.917969 L 33.140625 51.433594 C 34.191406 49.988281 35.351562 48.554688 36.550781 47.21875 Z M 36.542969 47.226562 " fill-opacity="1" fill-rule="nonzero"/><path fill="#c70b00" d="M 71.167969 55.449219 L 68.910156 51.820312 C 67.761719 52.941406 66.699219 54.160156 65.796875 55.390625 L 68.207031 59.222656 C 69.058594 57.886719 70.058594 56.660156 71.167969 55.449219 Z M 71.167969 55.449219 " fill-opacity="1" fill-rule="nonzero"/><g clip-path="url(#ea326c158b)"><path fill="#c70b00" d="M 76.382812 25.796875 L 75.382812 22.546875 C 73.824219 22.546875 72.21875 22.65625 70.566406 22.871094 L 71.515625 26.011719 C 72.972656 25.855469 74.429688 25.796875 75.878906 25.796875 Z M 76.382812 25.796875 " fill-opacity="1" fill-rule="nonzero"/></g><path fill="#c70b00" d="M 53.242188 27.71875 C 51.984375 28.410156 50.6875 29.160156 49.328125 30.003906 L 51.636719 33.738281 C 52.945312 32.886719 54.195312 32.089844 55.503906 31.394531 Z M 53.242188 27.71875 " fill-opacity="1" fill-rule="nonzero"/><g clip-path="url(#392149495a)"><path fill="#c70b00" d="M 21.390625 71.058594 L 15.621094 68.8125 C 14.671875 71.105469 13.621094 73.777344 13.113281 75.210938 L 18.882812 77.445312 C 19.535156 75.632812 20.585938 73.027344 21.390625 71.058594 Z M 21.390625 71.058594 " fill-opacity="1" fill-rule="nonzero"/></g><g clip-path="url(#8ee1f5d71a)"><path fill="#c70b00" d="M 77.085938 96.757812 L 86.71875 96.757812 L 86.71875 87.589844 L 95.046875 96.757812 L 109.289062 96.757812 L 98.097656 84.769531 L 98.097656 84.761719 C 98.097656 84.761719 106.878906 83.96875 106.878906 71.914062 C 106.878906 59.859375 96.246094 58.746094 96.246094 58.746094 L 77.085938 58.746094 Z M 86.710938 68.277344 L 94.433594 68.277344 C 94.433594 68.277344 96.59375 69.128906 96.59375 72.597656 C 96.59375 76.0625 94.382812 76.96875 94.382812 76.96875 L 86.710938 76.96875 Z M 86.710938 68.277344 " fill-opacity="1" fill-rule="nonzero"/></g><g clip-path="url(#c1eca57b4f)"><path fill="#c70b00" d="M 158.800781 59.011719 L 158.800781 96.75 L 182.636719 96.75 L 182.636719 86.996094 L 168.941406 86.996094 L 168.941406 59.011719 Z M 158.800781 59.011719 " fill-opacity="1" fill-rule="nonzero"/></g><g clip-path="url(#fc5e938424)"><path fill="#c70b00" d="M 144.460938 59.011719 L 154.640625 59.011719 L 154.640625 96.75 L 144.460938 96.75 Z M 144.460938 59.011719 " fill-opacity="1" fill-rule="nonzero"/></g><path fill="#c70b00" d="M 99.40625 27.554688 C 98.953125 27.289062 97.703125 26.644531 94.539062 25.691406 L 94.332031 29.210938 C 95.988281 29.796875 97.59375 30.4375 99.199219 31.125 L 99.199219 31.132812 Z M 99.40625 27.554688 " fill-opacity="1" fill-rule="nonzero"/><path fill="#c70b00" d="M 99.40625 43.121094 C 97.703125 42.75 96.046875 42.535156 94.441406 42.429688 L 94.441406 42.4375 L 94.242188 45.792969 C 95.898438 45.84375 97.554688 46.054688 99.207031 46.425781 Z M 99.40625 43.121094 " fill-opacity="1" fill-rule="nonzero"/><g clip-path="url(#50eccdde57)"><path fill="#c70b00" d="M 130.65625 59.011719 L 120.875 59.011719 C 113.90625 59.011719 111.546875 65.730469 111.546875 68.929688 L 111.546875 96.757812 L 121.328125 96.757812 L 121.328125 90.085938 L 130.507812 90.085938 L 130.507812 96.757812 L 139.984375 96.757812 L 139.984375 68.929688 C 139.992188 60.824219 133.074219 59.011719 130.65625 59.011719 Z M 121.28125 79.320312 L 121.28125 70.101562 C 121.28125 70.101562 121.28125 68.015625 124.34375 68.015625 L 127.703125 68.015625 C 130.40625 68.015625 130.457031 70.101562 130.457031 70.101562 L 130.457031 79.320312 Z M 121.28125 79.320312 " fill-opacity="1" fill-rule="nonzero"/></g><g clip-path="url(#af51ad4b05)"><path fill="#c70b00" d="M 210.4375 68.714844 L 210.4375 59.011719 L 194.886719 59.011719 C 190.871094 59.011719 185.507812 62.523438 185.507812 69.085938 L 185.507812 72.441406 C 185.507812 79.003906 190.820312 82.363281 194.886719 82.363281 C 197.5 82.371094 198.726562 82.378906 199.246094 82.378906 C 198.460938 82.371094 196.980469 82.363281 202.605469 82.363281 L 202.605469 87.054688 L 186.003906 87.101562 L 186.003906 96.757812 L 202.40625 96.757812 C 205.769531 96.757812 211.535156 94.144531 211.734375 86.839844 L 211.734375 83.105469 C 211.734375 76.871094 206.917969 73.183594 202.40625 73.183594 L 194.230469 73.183594 L 194.230469 68.707031 L 210.4375 68.707031 Z M 210.4375 68.714844 " fill-opacity="1" fill-rule="nonzero"/></g><path fill="#c70b00" d="M 83.796875 47.234375 L 82.699219 43.722656 C 80.992188 44.25 79.535156 44.84375 78.285156 45.429688 L 79.4375 49.105469 C 80.894531 48.355469 82.351562 47.714844 83.796875 47.234375 Z M 83.796875 47.234375 " fill-opacity="1" fill-rule="nonzero"/><g fill="#f16961" fill-opacity="1"><g transform="translate(25.346723, 188.264647)"><g><path d="M 12.78125 0 C 12.5625 0 12.410156 -0.09375 12.328125 -0.28125 L 8.84375 -11.921875 C 8.65625 -11.890625 8.460938 -11.875 8.265625 -11.875 C 8.078125 -11.875 7.890625 -11.875 7.703125 -11.875 L 6.015625 -11.875 C 5.859375 -11.875 5.78125 -11.796875 5.78125 -11.640625 L 5.78125 -0.40625 C 5.78125 -0.132812 5.640625 0 5.359375 0 L 2.875 0 C 2.59375 0 2.453125 -0.132812 2.453125 -0.40625 L 2.453125 -27.453125 C 2.453125 -27.722656 2.59375 -27.859375 2.875 -27.859375 L 7.75 -27.859375 C 10.207031 -27.859375 12.078125 -27.253906 13.359375 -26.046875 C 14.640625 -24.847656 15.28125 -22.773438 15.28125 -19.828125 C 15.28125 -17.941406 14.984375 -16.425781 14.390625 -15.28125 C 13.804688 -14.132812 12.96875 -13.285156 11.875 -12.734375 L 15.765625 -0.40625 C 15.878906 -0.132812 15.8125 0 15.5625 0 Z M 7.78125 -14.875 C 9.226562 -14.875 10.285156 -15.222656 10.953125 -15.921875 C 11.628906 -16.617188 11.96875 -17.921875 11.96875 -19.828125 C 11.96875 -21.710938 11.640625 -23.007812 10.984375 -23.71875 C 10.328125 -24.425781 9.257812 -24.78125 7.78125 -24.78125 L 6.015625 -24.78125 C 5.859375 -24.78125 5.78125 -24.703125 5.78125 -24.546875 L 5.78125 -15.125 C 5.78125 -14.957031 5.859375 -14.875 6.015625 -14.875 Z M 7.78125 -14.875 "/></g></g></g><g fill="#f16961" fill-opacity="1"><g transform="translate(42.59523, 188.264647)"><g><path d="M 10.859375 0 C 10.585938 0 10.453125 -0.132812 10.453125 -0.40625 L 10.453125 -1.96875 L 10.40625 -1.96875 C 10.101562 -1.3125 9.65625 -0.753906 9.0625 -0.296875 C 8.476562 0.148438 7.695312 0.375 6.71875 0.375 C 5.21875 0.375 4.09375 -0.109375 3.34375 -1.078125 C 2.59375 -2.054688 2.21875 -3.59375 2.21875 -5.6875 L 2.21875 -19.21875 C 2.21875 -19.488281 2.351562 -19.625 2.625 -19.625 L 4.953125 -19.625 C 5.222656 -19.625 5.359375 -19.488281 5.359375 -19.21875 L 5.359375 -6.140625 C 5.359375 -3.765625 6.207031 -2.578125 7.90625 -2.578125 C 8.695312 -2.578125 9.316406 -2.867188 9.765625 -3.453125 C 10.222656 -4.046875 10.453125 -4.941406 10.453125 -6.140625 L 10.453125 -19.21875 C 10.453125 -19.488281 10.585938 -19.625 10.859375 -19.625 L 13.1875 -19.625 C 13.46875 -19.625 13.609375 -19.488281 13.609375 -19.21875 L 13.609375 -0.40625 C 13.609375 -0.132812 13.46875 0 13.1875 0 Z M 10.859375 0 "/></g></g></g><g fill="#f16961" fill-opacity="1"><g transform="translate(58.573663, 188.264647)"><g><path d="M 9.296875 0.375 C 8.234375 0.375 7.414062 0.140625 6.84375 -0.328125 C 6.269531 -0.796875 5.847656 -1.351562 5.578125 -2 L 5.53125 -2 L 5.53125 -0.40625 C 5.53125 -0.132812 5.394531 0 5.125 0 L 2.78125 0 C 2.507812 0 2.375 -0.132812 2.375 -0.40625 L 2.375 -27.453125 C 2.375 -27.722656 2.507812 -27.859375 2.78125 -27.859375 L 5.125 -27.859375 C 5.394531 -27.859375 5.53125 -27.722656 5.53125 -27.453125 L 5.53125 -17.609375 L 5.578125 -17.609375 C 5.847656 -18.296875 6.269531 -18.863281 6.84375 -19.3125 C 7.414062 -19.769531 8.234375 -20 9.296875 -20 C 11.453125 -20 12.875 -18.929688 13.5625 -16.796875 C 13.644531 -16.523438 13.71875 -16.226562 13.78125 -15.90625 C 13.851562 -15.59375 13.910156 -15.191406 13.953125 -14.703125 C 13.992188 -14.210938 14.019531 -13.578125 14.03125 -12.796875 C 14.039062 -12.023438 14.046875 -11.035156 14.046875 -9.828125 C 14.046875 -8.628906 14.039062 -7.640625 14.03125 -6.859375 C 14.019531 -6.078125 13.992188 -5.429688 13.953125 -4.921875 C 13.910156 -4.421875 13.851562 -4.015625 13.78125 -3.703125 C 13.71875 -3.390625 13.644531 -3.097656 13.5625 -2.828125 C 12.875 -0.691406 11.453125 0.375 9.296875 0.375 Z M 8.234375 -2.578125 C 9.429688 -2.578125 10.222656 -3.148438 10.609375 -4.296875 C 10.660156 -4.460938 10.707031 -4.644531 10.75 -4.84375 C 10.789062 -5.050781 10.816406 -5.335938 10.828125 -5.703125 C 10.847656 -6.078125 10.863281 -6.59375 10.875 -7.25 C 10.882812 -7.90625 10.890625 -8.765625 10.890625 -9.828125 C 10.890625 -10.898438 10.882812 -11.753906 10.875 -12.390625 C 10.863281 -13.035156 10.847656 -13.539062 10.828125 -13.90625 C 10.816406 -14.28125 10.789062 -14.566406 10.75 -14.765625 C 10.707031 -14.972656 10.660156 -15.160156 10.609375 -15.328125 C 10.222656 -16.472656 9.429688 -17.046875 8.234375 -17.046875 C 7.609375 -17.046875 7.097656 -16.894531 6.703125 -16.59375 C 6.304688 -16.289062 6.007812 -15.867188 5.8125 -15.328125 C 5.757812 -15.160156 5.710938 -14.972656 5.671875 -14.765625 C 5.628906 -14.566406 5.601562 -14.28125 5.59375 -13.90625 C 5.582031 -13.539062 5.566406 -13.035156 5.546875 -12.390625 C 5.535156 -11.753906 5.53125 -10.898438 5.53125 -9.828125 C 5.53125 -8.765625 5.535156 -7.90625 5.546875 -7.25 C 5.566406 -6.59375 5.582031 -6.078125 5.59375 -5.703125 C 5.601562 -5.335938 5.628906 -5.050781 5.671875 -4.84375 C 5.710938 -4.644531 5.757812 -4.460938 5.8125 -4.296875 C 6.007812 -3.753906 6.304688 -3.332031 6.703125 -3.03125 C 7.097656 -2.726562 7.609375 -2.578125 8.234375 -2.578125 Z M 8.234375 -2.578125 "/></g></g></g><g fill="#f16961" fill-opacity="1"><g transform="translate(74.511126, 188.264647)"><g><path d="M 2.546875 7.375 C 2.265625 7.375 2.125 7.238281 2.125 6.96875 L 2.125 4.796875 C 2.125 4.523438 2.265625 4.390625 2.546875 4.390625 L 3.03125 4.34375 C 3.601562 4.3125 4.046875 4.144531 4.359375 3.84375 C 4.671875 3.550781 4.9375 2.96875 5.15625 2.09375 L 5.859375 -0.609375 L 1.0625 -19.21875 C 1.007812 -19.488281 1.117188 -19.625 1.390625 -19.625 L 3.84375 -19.625 C 4.0625 -19.625 4.203125 -19.488281 4.265625 -19.21875 L 7.296875 -5.8125 L 7.375 -5.8125 L 10.40625 -19.21875 C 10.457031 -19.488281 10.609375 -19.625 10.859375 -19.625 L 13.234375 -19.625 C 13.503906 -19.625 13.597656 -19.488281 13.515625 -19.21875 L 8.15625 1.96875 C 7.882812 3.082031 7.585938 3.988281 7.265625 4.6875 C 6.953125 5.382812 6.597656 5.929688 6.203125 6.328125 C 5.804688 6.722656 5.347656 6.992188 4.828125 7.140625 C 4.316406 7.296875 3.703125 7.375 2.984375 7.375 Z M 2.546875 7.375 "/></g></g></g><g fill="#f16961" fill-opacity="1"><g transform="translate(89.055591, 188.264647)"><g/></g></g><g fill="#f16961" fill-opacity="1"><g transform="translate(96.839953, 188.264647)"><g><path d="M 7.65625 0.375 C 6.289062 0.375 5.144531 0.0507812 4.21875 -0.59375 C 3.289062 -1.238281 2.632812 -2.175781 2.25 -3.40625 C 2.164062 -3.675781 2.097656 -3.953125 2.046875 -4.234375 C 1.992188 -4.523438 1.953125 -4.894531 1.921875 -5.34375 C 1.898438 -5.789062 1.878906 -6.367188 1.859375 -7.078125 C 1.847656 -7.796875 1.84375 -8.710938 1.84375 -9.828125 C 1.84375 -10.953125 1.847656 -11.867188 1.859375 -12.578125 C 1.878906 -13.285156 1.898438 -13.863281 1.921875 -14.3125 C 1.953125 -14.769531 1.992188 -15.140625 2.046875 -15.421875 C 2.097656 -15.710938 2.164062 -15.992188 2.25 -16.265625 C 2.632812 -17.460938 3.289062 -18.382812 4.21875 -19.03125 C 5.144531 -19.675781 6.289062 -20 7.65625 -20 C 9.019531 -20 10.164062 -19.675781 11.09375 -19.03125 C 12.03125 -18.382812 12.6875 -17.460938 13.0625 -16.265625 C 13.144531 -15.992188 13.210938 -15.710938 13.265625 -15.421875 C 13.328125 -15.140625 13.367188 -14.769531 13.390625 -14.3125 C 13.421875 -13.863281 13.441406 -13.285156 13.453125 -12.578125 C 13.472656 -11.867188 13.484375 -10.953125 13.484375 -9.828125 C 13.484375 -8.710938 13.472656 -7.796875 13.453125 -7.078125 C 13.441406 -6.367188 13.421875 -5.789062 13.390625 -5.34375 C 13.367188 -4.894531 13.328125 -4.523438 13.265625 -4.234375 C 13.210938 -3.953125 13.144531 -3.675781 13.0625 -3.40625 C 12.6875 -2.175781 12.03125 -1.238281 11.09375 -0.59375 C 10.164062 0.0507812 9.019531 0.375 7.65625 0.375 Z M 7.65625 -2.578125 C 8.882812 -2.578125 9.691406 -3.148438 10.078125 -4.296875 C 10.128906 -4.460938 10.164062 -4.644531 10.1875 -4.84375 C 10.21875 -5.050781 10.25 -5.335938 10.28125 -5.703125 C 10.3125 -6.078125 10.328125 -6.59375 10.328125 -7.25 C 10.328125 -7.90625 10.328125 -8.765625 10.328125 -9.828125 C 10.328125 -10.898438 10.328125 -11.753906 10.328125 -12.390625 C 10.328125 -13.035156 10.3125 -13.539062 10.28125 -13.90625 C 10.25 -14.28125 10.21875 -14.566406 10.1875 -14.765625 C 10.164062 -14.972656 10.128906 -15.160156 10.078125 -15.328125 C 9.691406 -16.472656 8.882812 -17.046875 7.65625 -17.046875 C 6.425781 -17.046875 5.625 -16.472656 5.25 -15.328125 C 5.1875 -15.160156 5.140625 -14.972656 5.109375 -14.765625 C 5.085938 -14.566406 5.0625 -14.28125 5.03125 -13.90625 C 5.007812 -13.539062 5 -13.035156 5 -12.390625 C 5 -11.753906 5 -10.898438 5 -9.828125 C 5 -8.765625 5 -7.90625 5 -7.25 C 5 -6.59375 5.007812 -6.078125 5.03125 -5.703125 C 5.0625 -5.335938 5.085938 -5.050781 5.109375 -4.84375 C 5.140625 -4.644531 5.1875 -4.460938 5.25 -4.296875 C 5.625 -3.148438 6.425781 -2.578125 7.65625 -2.578125 Z M 7.65625 -2.578125 "/></g></g></g><g fill="#f16961" fill-opacity="1"><g transform="translate(112.162853, 188.264647)"><g><path d="M 11.140625 0 C 10.867188 0 10.734375 -0.132812 10.734375 -0.40625 L 10.734375 -13.484375 C 10.734375 -15.859375 9.875 -17.046875 8.15625 -17.046875 C 7.332031 -17.046875 6.6875 -16.757812 6.21875 -16.1875 C 5.757812 -15.613281 5.53125 -14.710938 5.53125 -13.484375 L 5.53125 -0.40625 C 5.53125 -0.132812 5.394531 0 5.125 0 L 2.78125 0 C 2.507812 0 2.375 -0.132812 2.375 -0.40625 L 2.375 -19.21875 C 2.375 -19.488281 2.507812 -19.625 2.78125 -19.625 L 5.125 -19.625 C 5.394531 -19.625 5.53125 -19.488281 5.53125 -19.21875 L 5.53125 -17.65625 L 5.578125 -17.65625 C 5.867188 -18.3125 6.320312 -18.863281 6.9375 -19.3125 C 7.550781 -19.769531 8.335938 -20 9.296875 -20 C 10.828125 -20 11.972656 -19.507812 12.734375 -18.53125 C 13.503906 -17.5625 13.890625 -16.039062 13.890625 -13.96875 L 13.890625 -0.40625 C 13.890625 -0.132812 13.753906 0 13.484375 0 Z M 11.140625 0 "/></g></g></g><g fill="#f16961" fill-opacity="1"><g transform="translate(128.264199, 188.264647)"><g/></g></g><g fill="#f16961" fill-opacity="1"><g transform="translate(136.048561, 188.264647)"><g><path d="M 12.78125 0 C 12.5625 0 12.410156 -0.09375 12.328125 -0.28125 L 8.84375 -11.921875 C 8.65625 -11.890625 8.460938 -11.875 8.265625 -11.875 C 8.078125 -11.875 7.890625 -11.875 7.703125 -11.875 L 6.015625 -11.875 C 5.859375 -11.875 5.78125 -11.796875 5.78125 -11.640625 L 5.78125 -0.40625 C 5.78125 -0.132812 5.640625 0 5.359375 0 L 2.875 0 C 2.59375 0 2.453125 -0.132812 2.453125 -0.40625 L 2.453125 -27.453125 C 2.453125 -27.722656 2.59375 -27.859375 2.875 -27.859375 L 7.75 -27.859375 C 10.207031 -27.859375 12.078125 -27.253906 13.359375 -26.046875 C 14.640625 -24.847656 15.28125 -22.773438 15.28125 -19.828125 C 15.28125 -17.941406 14.984375 -16.425781 14.390625 -15.28125 C 13.804688 -14.132812 12.96875 -13.285156 11.875 -12.734375 L 15.765625 -0.40625 C 15.878906 -0.132812 15.8125 0 15.5625 0 Z M 7.78125 -14.875 C 9.226562 -14.875 10.285156 -15.222656 10.953125 -15.921875 C 11.628906 -16.617188 11.96875 -17.921875 11.96875 -19.828125 C 11.96875 -21.710938 11.640625 -23.007812 10.984375 -23.71875 C 10.328125 -24.425781 9.257812 -24.78125 7.78125 -24.78125 L 6.015625 -24.78125 C 5.859375 -24.78125 5.78125 -24.703125 5.78125 -24.546875 L 5.78125 -15.125 C 5.78125 -14.957031 5.859375 -14.875 6.015625 -14.875 Z M 7.78125 -14.875 "/></g></g></g><g fill="#f16961" fill-opacity="1"><g transform="translate(153.297069, 188.264647)"><g><path d="M 10.40625 0 C 10.132812 0 10 -0.132812 10 -0.40625 L 10 -2.09375 L 9.953125 -2.09375 C 9.679688 -1.320312 9.21875 -0.71875 8.5625 -0.28125 C 7.90625 0.15625 7.140625 0.375 6.265625 0.375 C 5.691406 0.375 5.125 0.273438 4.5625 0.078125 C 4.007812 -0.109375 3.515625 -0.425781 3.078125 -0.875 C 2.640625 -1.332031 2.289062 -1.9375 2.03125 -2.6875 C 1.769531 -3.4375 1.640625 -4.359375 1.640625 -5.453125 C 1.640625 -6.546875 1.789062 -7.476562 2.09375 -8.25 C 2.394531 -9.03125 2.796875 -9.660156 3.296875 -10.140625 C 3.804688 -10.617188 4.414062 -10.96875 5.125 -11.1875 C 5.832031 -11.40625 6.597656 -11.515625 7.421875 -11.515625 L 9.75 -11.515625 C 9.914062 -11.515625 10 -11.597656 10 -11.765625 L 10 -13.359375 C 10 -14.671875 9.78125 -15.617188 9.34375 -16.203125 C 8.90625 -16.785156 8.15625 -17.078125 7.09375 -17.078125 C 6.375 -17.078125 5.753906 -16.953125 5.234375 -16.703125 C 4.722656 -16.460938 4.234375 -16.148438 3.765625 -15.765625 C 3.460938 -15.578125 3.242188 -15.632812 3.109375 -15.9375 L 2.328125 -17.53125 C 2.191406 -17.78125 2.222656 -18 2.421875 -18.1875 C 2.992188 -18.738281 3.71875 -19.175781 4.59375 -19.5 C 5.46875 -19.832031 6.421875 -20 7.453125 -20 C 9.421875 -20 10.84375 -19.503906 11.71875 -18.515625 C 12.59375 -17.535156 13.03125 -15.867188 13.03125 -13.515625 L 13.03125 -0.40625 C 13.03125 -0.132812 12.894531 0 12.625 0 Z M 7.125 -2.328125 C 7.976562 -2.328125 8.671875 -2.65625 9.203125 -3.3125 C 9.734375 -3.96875 10 -4.832031 10 -5.90625 L 10 -8.609375 C 10 -8.765625 9.914062 -8.84375 9.75 -8.84375 L 7.90625 -8.84375 C 6.726562 -8.84375 5.894531 -8.5625 5.40625 -8 C 4.914062 -7.445312 4.671875 -6.625 4.671875 -5.53125 C 4.671875 -4.46875 4.878906 -3.664062 5.296875 -3.125 C 5.722656 -2.59375 6.332031 -2.328125 7.125 -2.328125 Z M 7.125 -2.328125 "/></g></g></g><g fill="#f16961" fill-opacity="1"><g transform="translate(168.497067, 188.264647)"><g><path d="M 2.65625 -24.09375 C 2.382812 -24.09375 2.25 -24.226562 2.25 -24.5 L 2.25 -27.453125 C 2.25 -27.722656 2.382812 -27.859375 2.65625 -27.859375 L 5.25 -27.859375 C 5.519531 -27.859375 5.65625 -27.722656 5.65625 -27.453125 L 5.65625 -24.5 C 5.65625 -24.226562 5.519531 -24.09375 5.25 -24.09375 Z M 2.78125 0 C 2.507812 0 2.375 -0.132812 2.375 -0.40625 L 2.375 -19.21875 C 2.375 -19.488281 2.507812 -19.625 2.78125 -19.625 L 5.125 -19.625 C 5.394531 -19.625 5.53125 -19.488281 5.53125 -19.21875 L 5.53125 -0.40625 C 5.53125 -0.132812 5.394531 0 5.125 0 Z M 2.78125 0 "/></g></g></g><g fill="#f16961" fill-opacity="1"><g transform="translate(176.404342, 188.264647)"><g><path d="M 7.25 0.15625 C 5.445312 0.101562 4.179688 -0.328125 3.453125 -1.140625 C 2.734375 -1.960938 2.375 -3.316406 2.375 -5.203125 L 2.375 -27.453125 C 2.375 -27.722656 2.507812 -27.859375 2.78125 -27.859375 L 5.125 -27.859375 C 5.394531 -27.859375 5.53125 -27.722656 5.53125 -27.453125 L 5.53125 -5.078125 C 5.53125 -4.367188 5.660156 -3.84375 5.921875 -3.5 C 6.179688 -3.15625 6.625 -2.929688 7.25 -2.828125 L 7.453125 -2.78125 C 7.722656 -2.726562 7.859375 -2.578125 7.859375 -2.328125 L 7.859375 -0.203125 C 7.859375 0.0664062 7.722656 0.203125 7.453125 0.203125 Z M 7.25 0.15625 "/></g></g></g><g fill="#f16961" fill-opacity="1"><g transform="translate(185.45879, 188.264647)"><g><path d="M 7.046875 0.375 C 5.410156 0.375 4.097656 -0.0546875 3.109375 -0.921875 C 2.128906 -1.785156 1.554688 -3.019531 1.390625 -4.625 C 1.335938 -4.90625 1.445312 -5.070312 1.71875 -5.125 L 3.8125 -5.53125 C 4.082031 -5.582031 4.242188 -5.472656 4.296875 -5.203125 C 4.429688 -4.191406 4.75 -3.46875 5.25 -3.03125 C 5.757812 -2.59375 6.375 -2.375 7.09375 -2.375 C 7.882812 -2.375 8.507812 -2.601562 8.96875 -3.0625 C 9.4375 -3.53125 9.671875 -4.242188 9.671875 -5.203125 C 9.671875 -5.992188 9.507812 -6.617188 9.1875 -7.078125 C 8.875 -7.546875 8.285156 -7.957031 7.421875 -8.3125 L 5.78125 -8.9375 C 4.488281 -9.425781 3.488281 -10.113281 2.78125 -11 C 2.070312 -11.882812 1.71875 -13.039062 1.71875 -14.46875 C 1.71875 -16.070312 2.195312 -17.394531 3.15625 -18.4375 C 4.113281 -19.476562 5.425781 -20 7.09375 -20 C 8.695312 -20 9.9375 -19.5625 10.8125 -18.6875 C 11.6875 -17.8125 12.191406 -16.785156 12.328125 -15.609375 C 12.378906 -15.304688 12.285156 -15.128906 12.046875 -15.078125 L 10.078125 -14.671875 C 9.828125 -14.640625 9.664062 -14.75 9.59375 -15 C 9.394531 -15.707031 9.117188 -16.265625 8.765625 -16.671875 C 8.410156 -17.078125 7.851562 -17.28125 7.09375 -17.28125 C 6.300781 -17.28125 5.710938 -17.039062 5.328125 -16.5625 C 4.941406 -16.09375 4.75 -15.460938 4.75 -14.671875 C 4.75 -14.066406 4.90625 -13.53125 5.21875 -13.0625 C 5.53125 -12.601562 6.125 -12.195312 7 -11.84375 L 8.640625 -11.21875 C 10.171875 -10.644531 11.222656 -9.894531 11.796875 -8.96875 C 12.367188 -8.039062 12.65625 -6.851562 12.65625 -5.40625 C 12.65625 -3.6875 12.171875 -2.289062 11.203125 -1.21875 C 10.234375 -0.15625 8.847656 0.375 7.046875 0.375 Z M 7.046875 0.375 "/></g></g></g></svg>