<svg xmlns="http://www.w3.org/2000/svg" width="300" viewBox="0 0 224.88 225" height="300" version="1.0"><defs><clipPath id="a"><path d="M52.035 25h121.438v109H52.035Zm0 0"/></clipPath></defs><g clip-path="url(#a)"><path fill="#00d8ff" d="M151.836 60.129a83.893 83.893 0 0 0-3.906-1.23c.222-.903.425-1.794.605-2.669 2.957-14.37 1.024-25.949-5.582-29.761-6.332-3.653-16.687.156-27.144 9.27a81.205 81.205 0 0 0-3.024 2.773 75.532 75.532 0 0 0-2.012-1.86C99.813 26.91 88.824 22.805 82.227 26.63c-6.325 3.664-8.2 14.55-5.536 28.168a83.18 83.18 0 0 0 .895 4.027c-1.555.442-3.055.91-4.492 1.414C60.246 64.723 52.035 71.75 52.035 79.04c0 7.531 8.813 15.082 22.2 19.664 1.081.367 2.18.711 3.28 1.027a77.936 77.936 0 0 0-.953 4.336c-2.539 13.383-.558 24.012 5.754 27.653 6.516 3.761 17.454-.106 28.102-9.422.863-.758 1.71-1.54 2.535-2.336a82.13 82.13 0 0 0 3.281 2.996c10.317 8.883 20.504 12.473 26.809 8.82 6.508-3.773 8.625-15.187 5.879-29.078a75.041 75.041 0 0 0-.727-3.246c.766-.23 1.52-.465 2.254-.707 13.918-4.613 22.969-12.074 22.969-19.707 0-7.316-8.469-14.39-21.582-18.91ZM148.82 93.82c-.664.22-1.343.43-2.039.637-1.535-4.867-3.61-10.043-6.148-15.39 2.422-5.223 4.414-10.333 5.91-15.169 1.242.36 2.445.739 3.605 1.141 11.235 3.871 18.086 9.594 18.086 14 0 4.7-7.398 10.797-19.414 14.781Zm-4.984 9.887c1.215 6.14 1.387 11.695.582 16.035-.723 3.903-2.176 6.5-3.977 7.543-3.824 2.215-12.004-.664-20.824-8.265a73.5 73.5 0 0 1-3.055-2.786c3.422-3.742 6.84-8.093 10.176-12.93 5.867-.519 11.41-1.374 16.438-2.534.242.972.46 1.953.66 2.937Zm-50.418 23.195c-3.734 1.32-6.715 1.36-8.512.32-3.828-2.21-5.422-10.742-3.25-22.187.258-1.355.555-2.7.887-4.035 4.973 1.102 10.477 1.895 16.355 2.371 3.36 4.73 6.88 9.078 10.422 12.887a66.304 66.304 0 0 1-2.312 2.129c-4.711 4.12-9.43 7.047-13.59 8.515ZM75.91 93.79c-5.918-2.023-10.805-4.656-14.156-7.527-3.012-2.582-4.531-5.14-4.531-7.223 0-4.422 6.59-10.066 17.578-13.902a77.615 77.615 0 0 1 4.18-1.317c1.519 4.946 3.511 10.117 5.917 15.348-2.437 5.305-4.457 10.559-5.992 15.562a61.89 61.89 0 0 1-2.996-.94Zm5.871-39.988c-2.281-11.668-.77-20.473 3.043-22.68 4.063-2.355 13.043 1 22.508 9.414.617.547 1.223 1.11 1.82 1.68-3.527 3.793-7.011 8.11-10.34 12.808-5.71.532-11.175 1.383-16.199 2.52a76.079 76.079 0 0 1-.832-3.742Zm52.356 12.941a163.342 163.342 0 0 0-3.688-6.078c3.871.492 7.582 1.145 11.067 1.938-1.047 3.355-2.352 6.867-3.887 10.464a177.741 177.741 0 0 0-3.492-6.324Zm-21.352-20.816c2.395 2.594 4.79 5.488 7.145 8.633a152.834 152.834 0 0 0-14.348-.004 115.746 115.746 0 0 1 7.203-8.63ZM91.297 66.777a155.073 155.073 0 0 0-3.426 6.282c-1.512-3.582-2.8-7.11-3.855-10.512 3.46-.774 7.156-1.41 11.004-1.89a150.25 150.25 0 0 0-3.723 6.12Zm3.832 31.016c-3.977-.445-7.723-1.043-11.188-1.8A116.71 116.71 0 0 1 87.88 85.27a155.47 155.47 0 0 0 3.437 6.285 154.214 154.214 0 0 0 3.813 6.238Zm17.8 14.727a116.681 116.681 0 0 1-7.304-8.747c2.324.09 4.695.137 7.102.137 2.476 0 4.921-.055 7.328-.164-2.364 3.215-4.75 6.156-7.125 8.774Zm24.75-27.438c1.622 3.7 2.989 7.281 4.075 10.688-3.52.804-7.316 1.449-11.32 1.93a186.418 186.418 0 0 0 3.726-6.18 168.309 168.309 0 0 0 3.52-6.438Zm-8.011 3.844a171.007 171.007 0 0 1-5.824 9.402c-3.7.262-7.406.395-11.117.39-3.778 0-7.45-.116-10.989-.347a147.818 147.818 0 0 1-5.933-9.418 148.087 148.087 0 0 1-5.18-9.789 147.119 147.119 0 0 1 11.05-19.172c3.61-.273 7.313-.414 11.052-.414 3.761 0 7.464.14 11.074.418a155.154 155.154 0 0 1 5.847 9.348 168.014 168.014 0 0 1 5.235 9.746 155.582 155.582 0 0 1-5.215 9.836Zm10.695-57.961c4.067 2.348 5.645 11.808 3.094 24.219-.164.789-.348 1.597-.547 2.414-5.035-1.164-10.504-2.028-16.23-2.567-3.336-4.754-6.79-9.074-10.262-12.816.91-.88 1.84-1.735 2.793-2.563 8.96-7.808 17.336-10.89 21.152-8.687ZM112.727 68.19c5.988 0 10.84 4.856 10.84 10.848 0 5.992-4.852 10.852-10.84 10.852-5.985 0-10.836-4.86-10.836-10.852s4.851-10.848 10.836-10.848Zm0 0"/></g><path d="M89.359 188.265c-.219 0-.371-.094-.453-.282l-3.484-11.64a3.535 3.535 0 0 1-.579.047h-2.25c-.156 0-.234.078-.234.234v11.234c0 .274-.14.407-.422.407h-2.484c-.281 0-.422-.133-.422-.407v-27.047c0-.27.14-.406.422-.406h4.875c2.457 0 4.328.606 5.61 1.813 1.28 1.199 1.921 3.273 1.921 6.218 0 1.887-.297 3.403-.89 4.547-.587 1.149-1.422 1.996-2.516 2.547l3.89 12.328c.114.274.047.407-.203.407Zm-5-14.875c1.445 0 2.504-.348 3.172-1.047.676-.696 1.016-2 1.016-3.907 0-1.882-.329-3.18-.985-3.89-.656-.707-1.726-1.063-3.203-1.063h-1.766c-.156 0-.234.078-.234.235v9.422c0 .167.078.25.234.25ZM101.358 188.64c-1.368 0-2.485-.313-3.36-.938-.867-.633-1.492-1.55-1.875-2.75a5.137 5.137 0 0 1-.219-.734c-.054-.282-.101-.66-.14-1.141a47.927 47.927 0 0 1-.078-1.812c-.012-.739-.016-1.68-.016-2.829 0-1.144.004-2.078.016-2.796.02-.727.047-1.333.078-1.813.039-.477.086-.852.14-1.125.063-.281.133-.539.22-.781.382-1.176 1.019-2.078 1.905-2.703.883-.633 2.024-.953 3.422-.953 1.383 0 2.516.32 3.39.953.876.625 1.505 1.527 1.892 2.703.082.219.148.476.203.765.05.282.097.684.14 1.204.04.511.067 1.171.078 1.984.02.805.032 1.844.032 3.125 0 .281-.137.422-.407.422h-7.703c-.168 0-.25.078-.25.234 0 .793.004 1.445.016 1.953.02.5.039.903.062 1.203.032.305.055.543.079.72.03.179.07.335.125.468.414 1.125 1.18 1.687 2.296 1.687 1.344 0 2.22-.738 2.625-2.218.082-.27.243-.38.485-.328l2.172.453c.25.03.347.199.297.5-.282 1.418-.915 2.53-1.891 3.343-.98.805-2.227 1.204-3.734 1.204Zm2.421-11.891c.164 0 .25-.082.25-.25 0-.625-.011-1.145-.03-1.563a12.686 12.686 0 0 0-.063-1.046 4.342 4.342 0 0 0-.094-.657 4.091 4.091 0 0 1-.094-.453c-.367-1.094-1.133-1.64-2.297-1.64-1.21 0-1.992.546-2.343 1.64a2.47 2.47 0 0 0-.125.453c-.024.157-.047.375-.079.657-.023.273-.043.62-.062 1.046-.012.418-.016.938-.016 1.563 0 .168.082.25.25.25ZM119.31 188.265c-.274 0-.407-.133-.407-.407v-1.687h-.046c-.274.773-.735 1.375-1.391 1.812-.656.438-1.422.657-2.297.657a5.16 5.16 0 0 1-1.703-.297 3.71 3.71 0 0 1-1.484-.953c-.438-.458-.79-1.063-1.047-1.813-.262-.75-.391-1.672-.391-2.766 0-1.093.148-2.023.453-2.796.3-.782.703-1.41 1.203-1.891a4.616 4.616 0 0 1 1.828-1.047 7.735 7.735 0 0 1 2.297-.328h2.328c.164 0 .25-.082.25-.25v-1.594c0-1.312-.218-2.258-.656-2.844-.437-.582-1.187-.875-2.25-.875-.719 0-1.34.125-1.86.375-.511.243-1 .555-1.468.938-.305.187-.523.133-.656-.172l-.781-1.594c-.137-.25-.106-.468.093-.656.57-.55 1.297-.988 2.172-1.312.875-.333 1.828-.5 2.86-.5 1.968 0 3.39.496 4.265 1.484.875.98 1.313 2.648 1.313 5v13.11c0 .273-.137.406-.407.406Zm-3.282-2.329c.852 0 1.547-.328 2.079-.984.53-.656.796-1.52.796-2.594v-2.703c0-.156-.086-.234-.25-.234h-1.843c-1.18 0-2.012.281-2.5.844-.493.554-.735 1.375-.735 2.468 0 1.063.207 1.867.625 2.407.426.53 1.035.796 1.828.796ZM131.635 188.64c-2.7 0-4.446-1.22-5.235-3.657a13.55 13.55 0 0 1-.234-.828c-.063-.289-.11-.66-.14-1.11a78.077 78.077 0 0 1-.063-1.765 188.01 188.01 0 0 1-.016-2.844c0-1.175.004-2.125.016-2.843.02-.727.039-1.317.062-1.766.032-.457.078-.812.14-1.062l.235-.844c.79-2.438 2.535-3.656 5.235-3.656 1.562 0 2.832.453 3.812 1.359.988.906 1.55 2.137 1.688 3.687 0 .25-.102.403-.297.454l-2.203.406c-.274.086-.438-.024-.5-.328-.137-.926-.418-1.594-.844-2-.418-.414-.969-.625-1.656-.625-1.168 0-1.93.539-2.282 1.609a4.852 4.852 0 0 0-.156.578 8.223 8.223 0 0 0-.078.86c-.012.375-.016.89-.016 1.546v5.282c0 .656.004 1.18.016 1.562.02.375.047.664.078.86.04.187.094.382.156.578.352 1.062 1.114 1.593 2.282 1.593.687 0 1.238-.203 1.656-.609.426-.414.707-1.086.844-2.016.062-.3.226-.41.5-.328l2.203.407c.195.054.297.203.297.453-.137 1.562-.7 2.797-1.688 3.703-.98.898-2.25 1.344-3.812 1.344ZM145.617 188.468c-1.5 0-2.594-.36-3.281-1.078-.688-.727-1.032-1.926-1.032-3.594V171.39c0-.165-.078-.25-.234-.25h-1.187c-.282 0-.422-.133-.422-.407v-1.687c0-.27.14-.406.422-.406h1.187c.156 0 .234-.083.234-.25v-5.532c0-.27.141-.406.422-.406h2.328c.27 0 .407.137.407.406v5.532c0 .167.082.25.25.25h1.922c.27 0 .406.136.406.406v1.687c0 .274-.137.407-.406.407h-1.922c-.168 0-.25.085-.25.25v12.375c0 1.148.547 1.718 1.64 1.718h.532c.27 0 .406.137.406.407v2.171c0 .27-.137.407-.406.407Zm0 0" fill="#00d8fe"/></svg>