<svg xmlns="http://www.w3.org/2000/svg" xmlns:xlink="http://www.w3.org/1999/xlink" width="300" zoomAndPan="magnify" viewBox="0 0 224.87999 225" height="300" preserveAspectRatio="xMidYMid meet" version="1.0"><defs><g/><clipPath id="474c17eb9b"><path d="M 52.035156 25 L 173.472656 25 L 173.472656 134 L 52.035156 134 Z M 52.035156 25 " clip-rule="nonzero"/></clipPath></defs><g clip-path="url(#474c17eb9b)"><path fill="#00d8ff" d="M 151.835938 60.128906 C 150.546875 59.6875 149.242188 59.277344 147.929688 58.898438 C 148.152344 57.996094 148.355469 57.105469 148.535156 56.230469 C 151.492188 41.859375 149.558594 30.28125 142.953125 26.46875 C 136.621094 22.816406 126.265625 26.625 115.808594 35.738281 C 114.777344 36.636719 113.769531 37.5625 112.785156 38.511719 C 112.125 37.878906 111.457031 37.261719 110.773438 36.652344 C 99.8125 26.910156 88.824219 22.804688 82.226562 26.628906 C 75.902344 30.292969 74.027344 41.179688 76.691406 54.796875 C 76.957031 56.148438 77.253906 57.488281 77.585938 58.824219 C 76.03125 59.265625 74.53125 59.734375 73.09375 60.238281 C 60.246094 64.722656 52.035156 71.75 52.035156 79.039062 C 52.035156 86.570312 60.847656 94.121094 74.234375 98.703125 C 75.316406 99.070312 76.414062 99.414062 77.515625 99.730469 C 77.15625 101.164062 76.839844 102.613281 76.5625 104.066406 C 74.023438 117.449219 76.003906 128.078125 82.316406 131.71875 C 88.832031 135.480469 99.769531 131.613281 110.417969 122.296875 C 111.28125 121.539062 112.128906 120.757812 112.953125 119.960938 C 114.019531 120.988281 115.113281 121.988281 116.234375 122.957031 C 126.550781 131.839844 136.738281 135.429688 143.042969 131.777344 C 149.550781 128.003906 151.667969 116.589844 148.921875 102.699219 C 148.703125 101.609375 148.460938 100.527344 148.195312 99.453125 C 148.960938 99.222656 149.714844 98.988281 150.449219 98.746094 C 164.367188 94.132812 173.417969 86.671875 173.417969 79.039062 C 173.417969 71.722656 164.949219 64.648438 151.835938 60.128906 Z M 148.820312 93.820312 C 148.15625 94.039062 147.476562 94.25 146.78125 94.457031 C 145.246094 89.589844 143.171875 84.414062 140.632812 79.066406 C 143.054688 73.84375 145.046875 68.734375 146.542969 63.898438 C 147.785156 64.257812 148.988281 64.636719 150.148438 65.039062 C 161.382812 68.910156 168.234375 74.632812 168.234375 79.039062 C 168.234375 83.738281 160.835938 89.835938 148.820312 93.820312 Z M 143.835938 103.707031 C 145.050781 109.847656 145.222656 115.402344 144.417969 119.742188 C 143.695312 123.644531 142.242188 126.242188 140.441406 127.285156 C 136.617188 129.5 128.4375 126.621094 119.617188 119.019531 C 118.574219 118.121094 117.554688 117.191406 116.5625 116.234375 C 119.984375 112.492188 123.402344 108.140625 126.738281 103.304688 C 132.605469 102.785156 138.148438 101.929688 143.175781 100.769531 C 143.417969 101.742188 143.636719 102.722656 143.835938 103.707031 Z M 93.417969 126.902344 C 89.683594 128.222656 86.703125 128.261719 84.90625 127.222656 C 81.078125 125.011719 79.484375 116.480469 81.65625 105.035156 C 81.914062 103.679688 82.210938 102.335938 82.542969 101 C 87.515625 102.101562 93.019531 102.894531 98.898438 103.371094 C 102.257812 108.101562 105.777344 112.449219 109.320312 116.257812 C 108.566406 116.984375 107.796875 117.695312 107.007812 118.386719 C 102.296875 122.507812 97.578125 125.433594 93.417969 126.902344 Z M 75.910156 93.789062 C 69.992188 91.765625 65.105469 89.132812 61.753906 86.261719 C 58.742188 83.679688 57.222656 81.121094 57.222656 79.039062 C 57.222656 74.617188 63.8125 68.972656 74.800781 65.136719 C 76.136719 64.671875 77.53125 64.234375 78.980469 63.820312 C 80.5 68.765625 82.492188 73.9375 84.898438 79.167969 C 82.460938 84.472656 80.441406 89.726562 78.90625 94.730469 C 77.898438 94.441406 76.902344 94.128906 75.910156 93.789062 Z M 81.78125 53.800781 C 79.5 42.132812 81.011719 33.328125 84.824219 31.121094 C 88.886719 28.765625 97.867188 32.121094 107.332031 40.535156 C 107.949219 41.082031 108.554688 41.644531 109.152344 42.214844 C 105.625 46.007812 102.140625 50.324219 98.8125 55.023438 C 93.101562 55.554688 87.636719 56.40625 82.613281 57.542969 C 82.304688 56.304688 82.027344 55.054688 81.78125 53.800781 Z M 134.136719 66.742188 C 132.953125 64.691406 131.722656 62.664062 130.449219 60.664062 C 134.320312 61.15625 138.03125 61.808594 141.515625 62.601562 C 140.46875 65.957031 139.164062 69.46875 137.628906 73.066406 C 136.507812 70.933594 135.34375 68.828125 134.136719 66.742188 Z M 112.785156 45.925781 C 115.179688 48.519531 117.574219 51.414062 119.929688 54.558594 C 115.148438 54.332031 110.363281 54.332031 105.582031 54.554688 C 107.941406 51.441406 110.359375 48.550781 112.785156 45.925781 Z M 91.296875 66.777344 C 90.105469 68.84375 88.964844 70.941406 87.871094 73.058594 C 86.359375 69.476562 85.070312 65.949219 84.015625 62.546875 C 87.476562 61.773438 91.171875 61.136719 95.019531 60.65625 C 93.730469 62.667969 92.488281 64.707031 91.296875 66.777344 Z M 95.128906 97.792969 C 91.152344 97.347656 87.40625 96.75 83.941406 95.992188 C 85.015625 92.527344 86.335938 88.929688 87.878906 85.269531 C 88.976562 87.390625 90.121094 89.484375 91.316406 91.554688 C 92.546875 93.679688 93.820312 95.761719 95.128906 97.792969 Z M 112.929688 112.519531 C 110.472656 109.867188 108.019531 106.929688 105.625 103.773438 C 107.949219 103.863281 110.320312 103.910156 112.726562 103.910156 C 115.203125 103.910156 117.648438 103.855469 120.054688 103.746094 C 117.691406 106.960938 115.304688 109.902344 112.929688 112.519531 Z M 137.679688 85.082031 C 139.300781 88.78125 140.667969 92.363281 141.753906 95.769531 C 138.234375 96.574219 134.4375 97.21875 130.433594 97.699219 C 131.714844 95.664062 132.957031 93.605469 134.160156 91.519531 C 135.378906 89.398438 136.554688 87.253906 137.679688 85.082031 Z M 129.667969 88.925781 C 127.828125 92.121094 125.886719 95.257812 123.84375 98.328125 C 120.144531 98.589844 116.4375 98.722656 112.726562 98.71875 C 108.949219 98.71875 105.277344 98.601562 101.738281 98.371094 C 99.644531 95.308594 97.664062 92.167969 95.804688 88.953125 C 93.957031 85.757812 92.230469 82.492188 90.625 79.164062 C 92.222656 75.835938 93.945312 72.570312 95.789062 69.371094 C 97.632812 66.171875 99.59375 63.042969 101.675781 59.992188 C 105.285156 59.71875 108.988281 59.578125 112.726562 59.578125 C 116.488281 59.578125 120.191406 59.71875 123.800781 59.996094 C 125.859375 63.042969 127.8125 66.160156 129.648438 69.34375 C 131.5 72.535156 133.246094 75.785156 134.882812 79.089844 C 133.261719 82.429688 131.523438 85.710938 129.667969 88.925781 Z M 140.363281 30.964844 C 144.429688 33.3125 146.007812 42.773438 143.457031 55.183594 C 143.292969 55.972656 143.109375 56.78125 142.910156 57.597656 C 137.875 56.433594 132.40625 55.570312 126.679688 55.03125 C 123.34375 50.277344 119.890625 45.957031 116.417969 42.214844 C 117.328125 41.335938 118.257812 40.480469 119.210938 39.652344 C 128.171875 31.84375 136.546875 28.761719 140.363281 30.964844 Z M 112.726562 68.191406 C 118.714844 68.191406 123.566406 73.046875 123.566406 79.039062 C 123.566406 85.03125 118.714844 89.890625 112.726562 89.890625 C 106.742188 89.890625 101.890625 85.03125 101.890625 79.039062 C 101.890625 73.046875 106.742188 68.191406 112.726562 68.191406 Z M 112.726562 68.191406 " fill-opacity="1" fill-rule="nonzero"/></g><g fill="#00d8fe" fill-opacity="1"><g transform="translate(76.577792, 188.264529)"><g><path d="M 12.78125 0 C 12.5625 0 12.410156 -0.09375 12.328125 -0.28125 L 8.84375 -11.921875 C 8.65625 -11.890625 8.460938 -11.875 8.265625 -11.875 C 8.078125 -11.875 7.890625 -11.875 7.703125 -11.875 L 6.015625 -11.875 C 5.859375 -11.875 5.78125 -11.796875 5.78125 -11.640625 L 5.78125 -0.40625 C 5.78125 -0.132812 5.640625 0 5.359375 0 L 2.875 0 C 2.59375 0 2.453125 -0.132812 2.453125 -0.40625 L 2.453125 -27.453125 C 2.453125 -27.722656 2.59375 -27.859375 2.875 -27.859375 L 7.75 -27.859375 C 10.207031 -27.859375 12.078125 -27.253906 13.359375 -26.046875 C 14.640625 -24.847656 15.28125 -22.773438 15.28125 -19.828125 C 15.28125 -17.941406 14.984375 -16.425781 14.390625 -15.28125 C 13.804688 -14.132812 12.96875 -13.285156 11.875 -12.734375 L 15.765625 -0.40625 C 15.878906 -0.132812 15.8125 0 15.5625 0 Z M 7.78125 -14.875 C 9.226562 -14.875 10.285156 -15.222656 10.953125 -15.921875 C 11.628906 -16.617188 11.96875 -17.921875 11.96875 -19.828125 C 11.96875 -21.710938 11.640625 -23.007812 10.984375 -23.71875 C 10.328125 -24.425781 9.257812 -24.78125 7.78125 -24.78125 L 6.015625 -24.78125 C 5.859375 -24.78125 5.78125 -24.703125 5.78125 -24.546875 L 5.78125 -15.125 C 5.78125 -14.957031 5.859375 -14.875 6.015625 -14.875 Z M 7.78125 -14.875 "/></g></g></g><g fill="#00d8fe" fill-opacity="1"><g transform="translate(93.8263, 188.264529)"><g><path d="M 7.53125 0.375 C 6.164062 0.375 5.046875 0.0625 4.171875 -0.5625 C 3.304688 -1.195312 2.679688 -2.113281 2.296875 -3.3125 C 2.210938 -3.53125 2.140625 -3.773438 2.078125 -4.046875 C 2.023438 -4.328125 1.976562 -4.707031 1.9375 -5.1875 C 1.90625 -5.664062 1.878906 -6.269531 1.859375 -7 C 1.847656 -7.738281 1.84375 -8.679688 1.84375 -9.828125 C 1.84375 -10.972656 1.847656 -11.90625 1.859375 -12.625 C 1.878906 -13.351562 1.90625 -13.957031 1.9375 -14.4375 C 1.976562 -14.914062 2.023438 -15.289062 2.078125 -15.5625 C 2.140625 -15.84375 2.210938 -16.101562 2.296875 -16.34375 C 2.679688 -17.519531 3.316406 -18.421875 4.203125 -19.046875 C 5.085938 -19.679688 6.226562 -20 7.625 -20 C 9.007812 -20 10.140625 -19.679688 11.015625 -19.046875 C 11.890625 -18.421875 12.519531 -17.519531 12.90625 -16.34375 C 12.988281 -16.125 13.054688 -15.867188 13.109375 -15.578125 C 13.160156 -15.296875 13.207031 -14.894531 13.25 -14.375 C 13.289062 -13.863281 13.316406 -13.203125 13.328125 -12.390625 C 13.347656 -11.585938 13.359375 -10.546875 13.359375 -9.265625 C 13.359375 -8.984375 13.222656 -8.84375 12.953125 -8.84375 L 5.25 -8.84375 C 5.082031 -8.84375 5 -8.765625 5 -8.609375 C 5 -7.816406 5.003906 -7.164062 5.015625 -6.65625 C 5.035156 -6.15625 5.054688 -5.753906 5.078125 -5.453125 C 5.109375 -5.148438 5.132812 -4.910156 5.15625 -4.734375 C 5.1875 -4.554688 5.226562 -4.398438 5.28125 -4.265625 C 5.695312 -3.140625 6.460938 -2.578125 7.578125 -2.578125 C 8.921875 -2.578125 9.796875 -3.316406 10.203125 -4.796875 C 10.285156 -5.066406 10.445312 -5.175781 10.6875 -5.125 L 12.859375 -4.671875 C 13.109375 -4.640625 13.207031 -4.472656 13.15625 -4.171875 C 12.875 -2.753906 12.242188 -1.640625 11.265625 -0.828125 C 10.285156 -0.0234375 9.039062 0.375 7.53125 0.375 Z M 9.953125 -11.515625 C 10.117188 -11.515625 10.203125 -11.597656 10.203125 -11.765625 C 10.203125 -12.390625 10.191406 -12.910156 10.171875 -13.328125 C 10.160156 -13.753906 10.140625 -14.101562 10.109375 -14.375 C 10.085938 -14.65625 10.054688 -14.875 10.015625 -15.03125 C 9.972656 -15.195312 9.941406 -15.347656 9.921875 -15.484375 C 9.554688 -16.578125 8.789062 -17.125 7.625 -17.125 C 6.414062 -17.125 5.632812 -16.578125 5.28125 -15.484375 C 5.226562 -15.347656 5.1875 -15.195312 5.15625 -15.03125 C 5.132812 -14.875 5.109375 -14.65625 5.078125 -14.375 C 5.054688 -14.101562 5.035156 -13.753906 5.015625 -13.328125 C 5.003906 -12.910156 5 -12.390625 5 -11.765625 C 5 -11.597656 5.082031 -11.515625 5.25 -11.515625 Z M 9.953125 -11.515625 "/></g></g></g><g fill="#00d8fe" fill-opacity="1"><g transform="translate(108.903386, 188.264529)"><g><path d="M 10.40625 0 C 10.132812 0 10 -0.132812 10 -0.40625 L 10 -2.09375 L 9.953125 -2.09375 C 9.679688 -1.320312 9.21875 -0.71875 8.5625 -0.28125 C 7.90625 0.15625 7.140625 0.375 6.265625 0.375 C 5.691406 0.375 5.125 0.273438 4.5625 0.078125 C 4.007812 -0.109375 3.515625 -0.425781 3.078125 -0.875 C 2.640625 -1.332031 2.289062 -1.9375 2.03125 -2.6875 C 1.769531 -3.4375 1.640625 -4.359375 1.640625 -5.453125 C 1.640625 -6.546875 1.789062 -7.476562 2.09375 -8.25 C 2.394531 -9.03125 2.796875 -9.660156 3.296875 -10.140625 C 3.804688 -10.617188 4.414062 -10.96875 5.125 -11.1875 C 5.832031 -11.40625 6.597656 -11.515625 7.421875 -11.515625 L 9.75 -11.515625 C 9.914062 -11.515625 10 -11.597656 10 -11.765625 L 10 -13.359375 C 10 -14.671875 9.78125 -15.617188 9.34375 -16.203125 C 8.90625 -16.785156 8.15625 -17.078125 7.09375 -17.078125 C 6.375 -17.078125 5.753906 -16.953125 5.234375 -16.703125 C 4.722656 -16.460938 4.234375 -16.148438 3.765625 -15.765625 C 3.460938 -15.578125 3.242188 -15.632812 3.109375 -15.9375 L 2.328125 -17.53125 C 2.191406 -17.78125 2.222656 -18 2.421875 -18.1875 C 2.992188 -18.738281 3.71875 -19.175781 4.59375 -19.5 C 5.46875 -19.832031 6.421875 -20 7.453125 -20 C 9.421875 -20 10.84375 -19.503906 11.71875 -18.515625 C 12.59375 -17.535156 13.03125 -15.867188 13.03125 -13.515625 L 13.03125 -0.40625 C 13.03125 -0.132812 12.894531 0 12.625 0 Z M 7.125 -2.328125 C 7.976562 -2.328125 8.671875 -2.65625 9.203125 -3.3125 C 9.734375 -3.96875 10 -4.832031 10 -5.90625 L 10 -8.609375 C 10 -8.765625 9.914062 -8.84375 9.75 -8.84375 L 7.90625 -8.84375 C 6.726562 -8.84375 5.894531 -8.5625 5.40625 -8 C 4.914062 -7.445312 4.671875 -6.625 4.671875 -5.53125 C 4.671875 -4.46875 4.878906 -3.664062 5.296875 -3.125 C 5.722656 -2.59375 6.332031 -2.328125 7.125 -2.328125 Z M 7.125 -2.328125 "/></g></g></g><g fill="#00d8fe" fill-opacity="1"><g transform="translate(124.103384, 188.264529)"><g><path d="M 7.53125 0.375 C 4.832031 0.375 3.085938 -0.84375 2.296875 -3.28125 C 2.210938 -3.550781 2.132812 -3.828125 2.0625 -4.109375 C 2 -4.398438 1.953125 -4.769531 1.921875 -5.21875 C 1.898438 -5.675781 1.878906 -6.265625 1.859375 -6.984375 C 1.847656 -7.710938 1.84375 -8.660156 1.84375 -9.828125 C 1.84375 -11.003906 1.847656 -11.953125 1.859375 -12.671875 C 1.878906 -13.398438 1.898438 -13.988281 1.921875 -14.4375 C 1.953125 -14.894531 2 -15.25 2.0625 -15.5 C 2.132812 -15.757812 2.210938 -16.039062 2.296875 -16.34375 C 3.085938 -18.78125 4.832031 -20 7.53125 -20 C 9.09375 -20 10.363281 -19.546875 11.34375 -18.640625 C 12.332031 -17.734375 12.894531 -16.503906 13.03125 -14.953125 C 13.03125 -14.703125 12.929688 -14.550781 12.734375 -14.5 L 10.53125 -14.09375 C 10.257812 -14.007812 10.09375 -14.117188 10.03125 -14.421875 C 9.894531 -15.347656 9.613281 -16.015625 9.1875 -16.421875 C 8.769531 -16.835938 8.21875 -17.046875 7.53125 -17.046875 C 6.363281 -17.046875 5.601562 -16.507812 5.25 -15.4375 C 5.1875 -15.25 5.132812 -15.054688 5.09375 -14.859375 C 5.0625 -14.671875 5.035156 -14.382812 5.015625 -14 C 5.003906 -13.625 5 -13.109375 5 -12.453125 C 5 -11.796875 5 -10.921875 5 -9.828125 C 5 -8.710938 5 -7.828125 5 -7.171875 C 5 -6.515625 5.003906 -5.992188 5.015625 -5.609375 C 5.035156 -5.234375 5.0625 -4.945312 5.09375 -4.75 C 5.132812 -4.5625 5.1875 -4.367188 5.25 -4.171875 C 5.601562 -3.109375 6.363281 -2.578125 7.53125 -2.578125 C 8.21875 -2.578125 8.769531 -2.78125 9.1875 -3.1875 C 9.613281 -3.601562 9.894531 -4.273438 10.03125 -5.203125 C 10.09375 -5.503906 10.257812 -5.613281 10.53125 -5.53125 L 12.734375 -5.125 C 12.929688 -5.070312 13.03125 -4.921875 13.03125 -4.671875 C 12.894531 -3.109375 12.332031 -1.875 11.34375 -0.96875 C 10.363281 -0.0703125 9.09375 0.375 7.53125 0.375 Z M 7.53125 0.375 "/></g></g></g><g fill="#00d8fe" fill-opacity="1"><g transform="translate(138.320093, 188.264529)"><g><path d="M 7.296875 0.203125 C 5.796875 0.203125 4.703125 -0.15625 4.015625 -0.875 C 3.328125 -1.601562 2.984375 -2.800781 2.984375 -4.46875 L 2.984375 -16.875 C 2.984375 -17.039062 2.90625 -17.125 2.75 -17.125 L 1.5625 -17.125 C 1.28125 -17.125 1.140625 -17.257812 1.140625 -17.53125 L 1.140625 -19.21875 C 1.140625 -19.488281 1.28125 -19.625 1.5625 -19.625 L 2.75 -19.625 C 2.90625 -19.625 2.984375 -19.707031 2.984375 -19.875 L 2.984375 -25.40625 C 2.984375 -25.675781 3.125 -25.8125 3.40625 -25.8125 L 5.734375 -25.8125 C 6.003906 -25.8125 6.140625 -25.675781 6.140625 -25.40625 L 6.140625 -19.875 C 6.140625 -19.707031 6.222656 -19.625 6.390625 -19.625 L 8.3125 -19.625 C 8.582031 -19.625 8.71875 -19.488281 8.71875 -19.21875 L 8.71875 -17.53125 C 8.71875 -17.257812 8.582031 -17.125 8.3125 -17.125 L 6.390625 -17.125 C 6.222656 -17.125 6.140625 -17.039062 6.140625 -16.875 L 6.140625 -4.5 C 6.140625 -3.351562 6.6875 -2.78125 7.78125 -2.78125 L 8.3125 -2.78125 C 8.582031 -2.78125 8.71875 -2.644531 8.71875 -2.375 L 8.71875 -0.203125 C 8.71875 0.0664062 8.582031 0.203125 8.3125 0.203125 Z M 7.296875 0.203125 "/></g></g></g></svg>