<svg xmlns="http://www.w3.org/2000/svg" width="300" viewBox="0 0 224.88 225" height="300" version="1.0"><defs><clipPath id="a"><path d="M54 22.547h119v112.441H54Zm0 0"/></clipPath></defs><g clip-path="url(#a)"><path fill="#764abc" d="M136.473 101.086c4.363-.45 7.675-4.223 7.523-8.742-.152-4.524-3.91-8.14-8.422-8.14h-.304c-4.66.148-8.27 4.07-8.125 8.741.152 2.262 1.054 4.22 2.41 5.575-5.114 10.101-12.938 17.492-24.672 23.668-7.973 4.222-16.246 5.73-24.52 4.675-6.77-.902-12.035-3.918-15.343-8.894-4.817-7.383-5.266-15.375-1.204-23.367 2.856-5.727 7.371-9.95 10.227-12.059-.602-1.957-1.504-5.273-1.953-7.684-21.817 15.825-19.559 37.23-12.938 47.329 4.965 7.539 15.043 12.21 26.176 12.21 3.008 0 6.016-.3 9.024-1.054 19.253-3.766 33.847-15.223 42.12-32.258Zm26.48-18.691C151.52 68.977 134.668 61.59 115.414 61.59h-2.406c-1.356-2.711-4.215-4.52-7.371-4.52h-.301c-4.664.149-8.273 4.067-8.125 8.742.152 4.52 3.91 8.137 8.426 8.137h.3c3.31-.144 6.168-2.258 7.368-5.12h2.71c11.43 0 22.266 3.312 32.044 9.796 7.52 4.973 12.937 11.457 15.945 19.293 2.559 6.332 2.406 12.516-.297 17.789-4.219 7.992-11.289 12.363-20.617 12.363-6.016 0-11.73-1.808-14.738-3.164-1.653 1.504-4.665 3.918-6.77 5.422 6.469 3.016 13.086 4.672 19.402 4.672 14.446 0 25.125-7.984 29.188-15.977 4.363-8.738 4.062-23.816-7.219-36.628Zm-76.426 21.253c.153 4.52 3.91 8.141 8.426 8.141h.3c4.665-.148 8.274-4.07 8.122-8.742-.148-4.527-3.91-8.14-8.422-8.14h-.3c-.301 0-.755 0-1.055.148-6.168-10.25-8.723-21.407-7.82-33.465.6-9.043 3.609-16.883 8.874-23.363 4.364-5.579 12.79-8.293 18.504-8.442 15.946-.305 22.715 19.594 23.168 27.586 1.953.45 5.266 1.508 7.516 2.262-1.805-24.422-16.844-37.086-31.29-37.086-13.534 0-26.023 9.8-30.987 24.27-6.918 19.296-2.407 37.835 6.019 52.46-.754 1.055-1.203 2.715-1.055 4.371Zm0 0"/></g><path d="M85.838 188.265c-.219 0-.371-.094-.453-.282l-3.484-11.64a3.535 3.535 0 0 1-.578.047h-2.25c-.157 0-.235.078-.235.234v11.234c0 .274-.14.407-.422.407h-2.484c-.281 0-.422-.133-.422-.407v-27.047c0-.27.14-.406.422-.406h4.875c2.457 0 4.328.606 5.61 1.813 1.28 1.199 1.921 3.273 1.921 6.218 0 1.887-.297 3.403-.89 4.547-.586 1.149-1.422 1.996-2.516 2.547l3.89 12.328c.114.274.047.407-.203.407Zm-5-14.875c1.445 0 2.504-.348 3.172-1.047.676-.696 1.016-2 1.016-3.907 0-1.882-.328-3.18-.985-3.89-.656-.707-1.726-1.063-3.203-1.063h-1.765c-.157 0-.235.078-.235.235v9.422c0 .167.078.25.235.25ZM97.837 188.64c-1.368 0-2.485-.313-3.36-.938-.867-.633-1.492-1.55-1.875-2.75a5.137 5.137 0 0 1-.218-.734c-.055-.282-.102-.66-.141-1.141a47.927 47.927 0 0 1-.078-1.812c-.012-.739-.016-1.68-.016-2.829 0-1.144.004-2.078.016-2.796.02-.727.047-1.333.078-1.813.039-.477.086-.852.14-1.125.063-.281.133-.539.22-.781.382-1.176 1.019-2.078 1.906-2.703.882-.633 2.023-.953 3.421-.953 1.383 0 2.516.32 3.391.953.875.625 1.504 1.527 1.89 2.703.083.219.15.476.204.765.05.282.097.684.14 1.204.04.511.067 1.171.079 1.984.019.805.03 1.844.03 3.125 0 .281-.136.422-.405.422h-7.704c-.168 0-.25.078-.25.234 0 .793.004 1.445.016 1.953.02.5.04.903.063 1.203.03.305.054.543.078.72.03.179.07.335.125.468.414 1.125 1.18 1.687 2.297 1.687 1.343 0 2.218-.738 2.625-2.218.082-.27.242-.38.484-.328l2.172.453c.25.03.347.199.297.5-.282 1.418-.914 2.53-1.891 3.343-.98.805-2.227 1.204-3.734 1.204Zm2.422-11.891c.164 0 .25-.082.25-.25 0-.625-.012-1.145-.032-1.563a12.686 12.686 0 0 0-.062-1.046 4.342 4.342 0 0 0-.094-.657 4.091 4.091 0 0 1-.094-.453c-.367-1.094-1.133-1.64-2.297-1.64-1.21 0-1.992.546-2.343 1.64a2.47 2.47 0 0 0-.125.453c-.024.157-.047.375-.078.657-.024.273-.043.62-.063 1.046-.012.418-.016.938-.016 1.563 0 .168.082.25.25.25ZM116.195 188.265c-.273 0-.406-.133-.406-.407v-1.593h-.047a4.31 4.31 0 0 1-1.266 1.671c-.574.47-1.39.704-2.453.704-2.156 0-3.578-1.067-4.266-3.204a10.43 10.43 0 0 1-.234-.875 10.563 10.563 0 0 1-.156-1.218 26.87 26.87 0 0 1-.078-1.938c-.012-.781-.016-1.77-.016-2.969 0-1.207.004-2.195.016-2.968.008-.782.035-1.414.078-1.907.039-.488.094-.89.156-1.203.07-.32.149-.617.234-.89.688-2.133 2.11-3.203 4.266-3.203 1.063 0 1.879.23 2.453.687.57.45.992 1.016 1.266 1.703h.047v-9.844c0-.27.133-.406.406-.406h2.344c.27 0 .406.137.406.406v27.047c0 .274-.137.407-.406.407Zm-3.063-2.579c.594 0 1.086-.148 1.485-.453.394-.3.691-.722.89-1.265.051-.164.098-.348.141-.547.04-.207.067-.492.078-.86.008-.375.02-.89.031-1.546.02-.657.032-1.516.032-2.579 0-1.07-.012-1.925-.032-2.562-.011-.645-.023-1.149-.03-1.516a5.632 5.632 0 0 0-.079-.86 6.56 6.56 0 0 0-.14-.562c-.2-.539-.497-.96-.891-1.265-.399-.301-.89-.453-1.485-.453-1.23 0-2.039.574-2.421 1.718a4.545 4.545 0 0 0-.141.563c-.043.2-.074.484-.094.86a149.951 149.951 0 0 0-.047 4.078 154.064 154.064 0 0 0 .047 4.124c.02.368.051.653.094.86.039.199.086.383.14.547.383 1.148 1.192 1.718 2.422 1.718ZM132.18 188.265c-.274 0-.407-.133-.407-.407v-1.562h-.047a4.446 4.446 0 0 1-1.344 1.672c-.586.445-1.367.672-2.343.672-1.5 0-2.625-.485-3.375-1.454-.75-.976-1.125-2.515-1.125-4.609v-13.531c0-.27.132-.406.406-.406h2.328c.27 0 .406.136.406.406v13.078c0 2.375.848 3.562 2.547 3.562.79 0 1.41-.289 1.86-.875.457-.593.687-1.488.687-2.687v-13.078c0-.27.133-.406.406-.406h2.328c.282 0 .422.136.422.406v18.812c0 .274-.14.407-.422.407ZM148.158 188.265c-.25 0-.43-.125-.532-.375l-3.078-6.672h-.047l-3.03 6.672c-.106.25-.282.375-.532.375h-2.453c-.305 0-.371-.149-.203-.454l4.672-9.703-4.344-9.062c-.137-.27-.07-.406.203-.406h2.453c.25 0 .426.109.531.328l2.828 6.062h.047l2.703-6.062c.102-.22.282-.328.532-.328h2.422c.27 0 .336.136.203.406l-4.39 9.062 4.671 9.703c.133.305.066.454-.203.454Zm0 0" fill="#c19bff"/></svg>