<svg xmlns="http://www.w3.org/2000/svg" xmlns:xlink="http://www.w3.org/1999/xlink" width="300" zoomAndPan="magnify" viewBox="0 0 224.87999 225" height="300" preserveAspectRatio="xMidYMid meet" version="1.0"><defs><g/><clipPath id="47281f9104"><path d="M 54 22.546875 L 173 22.546875 L 173 134.988281 L 54 134.988281 Z M 54 22.546875 " clip-rule="nonzero"/></clipPath></defs><g clip-path="url(#47281f9104)"><path fill="#764abc" d="M 136.472656 101.085938 C 140.835938 100.636719 144.148438 96.863281 143.996094 92.34375 C 143.84375 87.820312 140.085938 84.203125 135.574219 84.203125 L 135.269531 84.203125 C 130.609375 84.351562 127 88.273438 127.144531 92.945312 C 127.296875 95.207031 128.199219 97.164062 129.554688 98.519531 C 124.441406 108.621094 116.617188 116.011719 104.882812 122.1875 C 96.910156 126.410156 88.636719 127.917969 80.363281 126.863281 C 73.59375 125.960938 68.328125 122.945312 65.019531 117.96875 C 60.203125 110.585938 59.753906 102.59375 63.816406 94.601562 C 66.671875 88.875 71.1875 84.652344 74.042969 82.542969 C 73.441406 80.585938 72.539062 77.269531 72.089844 74.859375 C 50.273438 90.683594 52.53125 112.089844 59.152344 122.1875 C 64.117188 129.726562 74.195312 134.398438 85.328125 134.398438 C 88.335938 134.398438 91.34375 134.097656 94.351562 133.34375 C 113.605469 129.578125 128.199219 118.121094 136.472656 101.085938 Z M 162.953125 82.394531 C 151.519531 68.976562 134.667969 61.589844 115.414062 61.589844 L 113.007812 61.589844 C 111.652344 58.878906 108.792969 57.070312 105.636719 57.070312 L 105.335938 57.070312 C 100.671875 57.21875 97.0625 61.136719 97.210938 65.8125 C 97.363281 70.332031 101.121094 73.949219 105.636719 73.949219 L 105.9375 73.949219 C 109.246094 73.804688 112.105469 71.691406 113.304688 68.828125 L 116.015625 68.828125 C 127.445312 68.828125 138.28125 72.140625 148.058594 78.625 C 155.578125 83.597656 160.996094 90.082031 164.003906 97.917969 C 166.5625 104.25 166.410156 110.433594 163.707031 115.707031 C 159.488281 123.699219 152.417969 128.070312 143.089844 128.070312 C 137.074219 128.070312 131.359375 126.261719 128.351562 124.90625 C 126.699219 126.410156 123.6875 128.824219 121.582031 130.328125 C 128.050781 133.34375 134.667969 135 140.984375 135 C 155.429688 135 166.109375 127.015625 170.171875 119.023438 C 174.535156 110.285156 174.234375 95.207031 162.953125 82.394531 Z M 86.527344 103.648438 C 86.679688 108.167969 90.4375 111.789062 94.953125 111.789062 L 95.253906 111.789062 C 99.917969 111.640625 103.527344 107.71875 103.375 103.046875 C 103.226562 98.519531 99.464844 94.90625 94.953125 94.90625 L 94.652344 94.90625 C 94.351562 94.90625 93.898438 94.90625 93.597656 95.054688 C 87.429688 84.804688 84.875 73.648438 85.777344 61.589844 C 86.378906 52.546875 89.386719 44.707031 94.652344 38.226562 C 99.015625 32.648438 107.441406 29.933594 113.15625 29.785156 C 129.101562 29.480469 135.871094 49.378906 136.324219 57.371094 C 138.277344 57.820312 141.589844 58.878906 143.839844 59.632812 C 142.035156 35.210938 126.996094 22.546875 112.550781 22.546875 C 99.015625 22.546875 86.527344 32.347656 81.5625 46.816406 C 74.644531 66.113281 79.15625 84.652344 87.582031 99.277344 C 86.828125 100.332031 86.378906 101.992188 86.527344 103.648438 Z M 86.527344 103.648438 " fill-opacity="1" fill-rule="nonzero"/></g><g fill="#c19bff" fill-opacity="1"><g transform="translate(73.056878, 188.264529)"><g><path d="M 12.78125 0 C 12.5625 0 12.410156 -0.09375 12.328125 -0.28125 L 8.84375 -11.921875 C 8.65625 -11.890625 8.460938 -11.875 8.265625 -11.875 C 8.078125 -11.875 7.890625 -11.875 7.703125 -11.875 L 6.015625 -11.875 C 5.859375 -11.875 5.78125 -11.796875 5.78125 -11.640625 L 5.78125 -0.40625 C 5.78125 -0.132812 5.640625 0 5.359375 0 L 2.875 0 C 2.59375 0 2.453125 -0.132812 2.453125 -0.40625 L 2.453125 -27.453125 C 2.453125 -27.722656 2.59375 -27.859375 2.875 -27.859375 L 7.75 -27.859375 C 10.207031 -27.859375 12.078125 -27.253906 13.359375 -26.046875 C 14.640625 -24.847656 15.28125 -22.773438 15.28125 -19.828125 C 15.28125 -17.941406 14.984375 -16.425781 14.390625 -15.28125 C 13.804688 -14.132812 12.96875 -13.285156 11.875 -12.734375 L 15.765625 -0.40625 C 15.878906 -0.132812 15.8125 0 15.5625 0 Z M 7.78125 -14.875 C 9.226562 -14.875 10.285156 -15.222656 10.953125 -15.921875 C 11.628906 -16.617188 11.96875 -17.921875 11.96875 -19.828125 C 11.96875 -21.710938 11.640625 -23.007812 10.984375 -23.71875 C 10.328125 -24.425781 9.257812 -24.78125 7.78125 -24.78125 L 6.015625 -24.78125 C 5.859375 -24.78125 5.78125 -24.703125 5.78125 -24.546875 L 5.78125 -15.125 C 5.78125 -14.957031 5.859375 -14.875 6.015625 -14.875 Z M 7.78125 -14.875 "/></g></g></g><g fill="#c19bff" fill-opacity="1"><g transform="translate(90.305385, 188.264529)"><g><path d="M 7.53125 0.375 C 6.164062 0.375 5.046875 0.0625 4.171875 -0.5625 C 3.304688 -1.195312 2.679688 -2.113281 2.296875 -3.3125 C 2.210938 -3.53125 2.140625 -3.773438 2.078125 -4.046875 C 2.023438 -4.328125 1.976562 -4.707031 1.9375 -5.1875 C 1.90625 -5.664062 1.878906 -6.269531 1.859375 -7 C 1.847656 -7.738281 1.84375 -8.679688 1.84375 -9.828125 C 1.84375 -10.972656 1.847656 -11.90625 1.859375 -12.625 C 1.878906 -13.351562 1.90625 -13.957031 1.9375 -14.4375 C 1.976562 -14.914062 2.023438 -15.289062 2.078125 -15.5625 C 2.140625 -15.84375 2.210938 -16.101562 2.296875 -16.34375 C 2.679688 -17.519531 3.316406 -18.421875 4.203125 -19.046875 C 5.085938 -19.679688 6.226562 -20 7.625 -20 C 9.007812 -20 10.140625 -19.679688 11.015625 -19.046875 C 11.890625 -18.421875 12.519531 -17.519531 12.90625 -16.34375 C 12.988281 -16.125 13.054688 -15.867188 13.109375 -15.578125 C 13.160156 -15.296875 13.207031 -14.894531 13.25 -14.375 C 13.289062 -13.863281 13.316406 -13.203125 13.328125 -12.390625 C 13.347656 -11.585938 13.359375 -10.546875 13.359375 -9.265625 C 13.359375 -8.984375 13.222656 -8.84375 12.953125 -8.84375 L 5.25 -8.84375 C 5.082031 -8.84375 5 -8.765625 5 -8.609375 C 5 -7.816406 5.003906 -7.164062 5.015625 -6.65625 C 5.035156 -6.15625 5.054688 -5.753906 5.078125 -5.453125 C 5.109375 -5.148438 5.132812 -4.910156 5.15625 -4.734375 C 5.1875 -4.554688 5.226562 -4.398438 5.28125 -4.265625 C 5.695312 -3.140625 6.460938 -2.578125 7.578125 -2.578125 C 8.921875 -2.578125 9.796875 -3.316406 10.203125 -4.796875 C 10.285156 -5.066406 10.445312 -5.175781 10.6875 -5.125 L 12.859375 -4.671875 C 13.109375 -4.640625 13.207031 -4.472656 13.15625 -4.171875 C 12.875 -2.753906 12.242188 -1.640625 11.265625 -0.828125 C 10.285156 -0.0234375 9.039062 0.375 7.53125 0.375 Z M 9.953125 -11.515625 C 10.117188 -11.515625 10.203125 -11.597656 10.203125 -11.765625 C 10.203125 -12.390625 10.191406 -12.910156 10.171875 -13.328125 C 10.160156 -13.753906 10.140625 -14.101562 10.109375 -14.375 C 10.085938 -14.65625 10.054688 -14.875 10.015625 -15.03125 C 9.972656 -15.195312 9.941406 -15.347656 9.921875 -15.484375 C 9.554688 -16.578125 8.789062 -17.125 7.625 -17.125 C 6.414062 -17.125 5.632812 -16.578125 5.28125 -15.484375 C 5.226562 -15.347656 5.1875 -15.195312 5.15625 -15.03125 C 5.132812 -14.875 5.109375 -14.65625 5.078125 -14.375 C 5.054688 -14.101562 5.035156 -13.753906 5.015625 -13.328125 C 5.003906 -12.910156 5 -12.390625 5 -11.765625 C 5 -11.597656 5.082031 -11.515625 5.25 -11.515625 Z M 9.953125 -11.515625 "/></g></g></g><g fill="#c19bff" fill-opacity="1"><g transform="translate(105.382471, 188.264529)"><g><path d="M 10.8125 0 C 10.539062 0 10.40625 -0.132812 10.40625 -0.40625 L 10.40625 -2 L 10.359375 -2 C 10.085938 -1.351562 9.664062 -0.796875 9.09375 -0.328125 C 8.519531 0.140625 7.703125 0.375 6.640625 0.375 C 4.484375 0.375 3.0625 -0.691406 2.375 -2.828125 C 2.289062 -3.097656 2.210938 -3.390625 2.140625 -3.703125 C 2.078125 -4.015625 2.023438 -4.421875 1.984375 -4.921875 C 1.941406 -5.429688 1.914062 -6.078125 1.90625 -6.859375 C 1.894531 -7.640625 1.890625 -8.628906 1.890625 -9.828125 C 1.890625 -11.035156 1.894531 -12.023438 1.90625 -12.796875 C 1.914062 -13.578125 1.941406 -14.210938 1.984375 -14.703125 C 2.023438 -15.191406 2.078125 -15.59375 2.140625 -15.90625 C 2.210938 -16.226562 2.289062 -16.523438 2.375 -16.796875 C 3.0625 -18.929688 4.484375 -20 6.640625 -20 C 7.703125 -20 8.519531 -19.769531 9.09375 -19.3125 C 9.664062 -18.863281 10.085938 -18.296875 10.359375 -17.609375 L 10.40625 -17.609375 L 10.40625 -27.453125 C 10.40625 -27.722656 10.539062 -27.859375 10.8125 -27.859375 L 13.15625 -27.859375 C 13.425781 -27.859375 13.5625 -27.722656 13.5625 -27.453125 L 13.5625 -0.40625 C 13.5625 -0.132812 13.425781 0 13.15625 0 Z M 7.75 -2.578125 C 8.34375 -2.578125 8.835938 -2.726562 9.234375 -3.03125 C 9.628906 -3.332031 9.925781 -3.753906 10.125 -4.296875 C 10.175781 -4.460938 10.222656 -4.644531 10.265625 -4.84375 C 10.304688 -5.050781 10.332031 -5.335938 10.34375 -5.703125 C 10.351562 -6.078125 10.363281 -6.59375 10.375 -7.25 C 10.394531 -7.90625 10.40625 -8.765625 10.40625 -9.828125 C 10.40625 -10.898438 10.394531 -11.753906 10.375 -12.390625 C 10.363281 -13.035156 10.351562 -13.539062 10.34375 -13.90625 C 10.332031 -14.28125 10.304688 -14.566406 10.265625 -14.765625 C 10.222656 -14.972656 10.175781 -15.160156 10.125 -15.328125 C 9.925781 -15.867188 9.628906 -16.289062 9.234375 -16.59375 C 8.835938 -16.894531 8.34375 -17.046875 7.75 -17.046875 C 6.519531 -17.046875 5.710938 -16.472656 5.328125 -15.328125 C 5.273438 -15.160156 5.226562 -14.972656 5.1875 -14.765625 C 5.144531 -14.566406 5.113281 -14.28125 5.09375 -13.90625 C 5.082031 -13.539062 5.070312 -13.035156 5.0625 -12.390625 C 5.050781 -11.753906 5.046875 -10.898438 5.046875 -9.828125 C 5.046875 -8.765625 5.050781 -7.90625 5.0625 -7.25 C 5.070312 -6.59375 5.082031 -6.078125 5.09375 -5.703125 C 5.113281 -5.335938 5.144531 -5.050781 5.1875 -4.84375 C 5.226562 -4.644531 5.273438 -4.460938 5.328125 -4.296875 C 5.710938 -3.148438 6.519531 -2.578125 7.75 -2.578125 Z M 7.75 -2.578125 "/></g></g></g><g fill="#c19bff" fill-opacity="1"><g transform="translate(121.319934, 188.264529)"><g><path d="M 10.859375 0 C 10.585938 0 10.453125 -0.132812 10.453125 -0.40625 L 10.453125 -1.96875 L 10.40625 -1.96875 C 10.101562 -1.3125 9.65625 -0.753906 9.0625 -0.296875 C 8.476562 0.148438 7.695312 0.375 6.71875 0.375 C 5.21875 0.375 4.09375 -0.109375 3.34375 -1.078125 C 2.59375 -2.054688 2.21875 -3.59375 2.21875 -5.6875 L 2.21875 -19.21875 C 2.21875 -19.488281 2.351562 -19.625 2.625 -19.625 L 4.953125 -19.625 C 5.222656 -19.625 5.359375 -19.488281 5.359375 -19.21875 L 5.359375 -6.140625 C 5.359375 -3.765625 6.207031 -2.578125 7.90625 -2.578125 C 8.695312 -2.578125 9.316406 -2.867188 9.765625 -3.453125 C 10.222656 -4.046875 10.453125 -4.941406 10.453125 -6.140625 L 10.453125 -19.21875 C 10.453125 -19.488281 10.585938 -19.625 10.859375 -19.625 L 13.1875 -19.625 C 13.46875 -19.625 13.609375 -19.488281 13.609375 -19.21875 L 13.609375 -0.40625 C 13.609375 -0.132812 13.46875 0 13.1875 0 Z M 10.859375 0 "/></g></g></g><g fill="#c19bff" fill-opacity="1"><g transform="translate(137.298368, 188.264529)"><g><path d="M 10.859375 0 C 10.609375 0 10.429688 -0.125 10.328125 -0.375 L 7.25 -7.046875 L 7.203125 -7.046875 L 4.171875 -0.375 C 4.066406 -0.125 3.890625 0 3.640625 0 L 1.1875 0 C 0.882812 0 0.816406 -0.148438 0.984375 -0.453125 L 5.65625 -10.15625 L 1.3125 -19.21875 C 1.175781 -19.488281 1.242188 -19.625 1.515625 -19.625 L 3.96875 -19.625 C 4.21875 -19.625 4.394531 -19.515625 4.5 -19.296875 L 7.328125 -13.234375 L 7.375 -13.234375 L 10.078125 -19.296875 C 10.179688 -19.515625 10.359375 -19.625 10.609375 -19.625 L 13.03125 -19.625 C 13.300781 -19.625 13.367188 -19.488281 13.234375 -19.21875 L 8.84375 -10.15625 L 13.515625 -0.453125 C 13.648438 -0.148438 13.582031 0 13.3125 0 Z M 10.859375 0 "/></g></g></g></svg>