<svg xmlns="http://www.w3.org/2000/svg" width="300" viewBox="0 0 224.88 225" height="300" version="1.0"><defs><clipPath id="a"><path d="M103 22.547h68V67h-68Zm0 0"/></clipPath><clipPath id="b"><path d="M95.36 110h77.402v24.988H95.359Zm0 0"/></clipPath><clipPath id="c"><path d="M52.121 47H142v82H52.121Zm0 0"/></clipPath></defs><g clip-path="url(#a)"><path fill="#75c0f2" d="M103.738 54.766V47.77a30.291 30.291 0 0 1 1.961-6.653 30.303 30.303 0 0 1 6.535-9.664c2.801-2.789 6.067-4.98 9.7-6.512a30.447 30.447 0 0 1 11.882-2.394c4.114 0 8.114.805 11.88 2.394a30.406 30.406 0 0 1 9.699 6.512 30.324 30.324 0 0 1 6.535 9.664 30.074 30.074 0 0 1 2.39 10.98h5.856L159.5 66.98l-10.672-14.882h5.824c-.453-11.063-9.625-19.922-20.84-19.922-10.37 0-19.003 7.586-20.593 17.484v5.106h-9.48" fill-rule="evenodd"/></g><g clip-path="url(#b)"><path fill="#75c0f2" d="M119.8 116.46h35.45v-6.413l17.512 12.473-17.512 12.468v-6.414H95.645l24.156-12.113" fill-rule="evenodd"/></g><g clip-path="url(#c)"><path fill="#ff725c" d="M116.41 126.602a25.62 25.62 0 0 1-9.918 1.972H52.184v-12.113h50.457c15.242 0 27.78-12.16 27.972-27.348v-.386c0-16.622-13.52-30.094-30.199-30.094-16.676 0-30.2 13.472-30.2 30.094h6.997l-12.512 17.449-12.515-17.45h6.996a40.816 40.816 0 0 1 3.242-16 40.967 40.967 0 0 1 8.836-13.054 41.022 41.022 0 0 1 13.101-8.8 41.089 41.089 0 0 1 16.055-3.235 41.06 41.06 0 0 1 16.055 3.234 41.102 41.102 0 0 1 13.105 8.8 40.828 40.828 0 0 1 8.832 13.056 40.68 40.68 0 0 1 3.246 16c0 5.543-1.09 10.925-3.246 15.996a40.815 40.815 0 0 1-8.832 13.054 40.985 40.985 0 0 1-13.105 8.8c-.02.009-.04.02-.059.025" fill-rule="evenodd"/></g><path d="M85.98 180.405c0 2.813-.496 4.89-1.485 6.235-.98 1.335-2.64 2-4.984 2-4.18 0-6.367-2.391-6.562-7.172 0-.27.109-.422.328-.453l2.422-.454c.3-.05.453.075.453.375.082 1.72.398 2.93.953 3.625.562.7 1.379 1.047 2.453 1.047 1.062 0 1.844-.328 2.344-.984.507-.656.765-1.926.765-3.813 0-.789-.043-1.472-.125-2.046-.086-.57-.234-1.055-.453-1.454a3.068 3.068 0 0 0-.89-1 5.839 5.839 0 0 0-1.36-.75l-1.687-.656c-.95-.351-1.743-.754-2.375-1.203a5.628 5.628 0 0 1-1.5-1.547c-.368-.594-.625-1.289-.782-2.094-.148-.812-.218-1.75-.218-2.812 0-4.813 2.078-7.219 6.234-7.219 2.102 0 3.648.563 4.64 1.688 1 1.117 1.555 2.765 1.673 4.953 0 .273-.125.422-.375.453l-2.297.375c-.137.055-.246.047-.328-.016-.086-.07-.125-.175-.125-.312-.055-1.395-.32-2.426-.797-3.094-.48-.676-1.25-1.016-2.313-1.016-1.031 0-1.797.325-2.297.97-.492.648-.734 1.679-.734 3.093 0 .71.047 1.32.14 1.828.094.5.25.93.47 1.281.218.356.507.657.874.907.375.25.848.484 1.422.703l1.688.656c.894.355 1.648.75 2.265 1.187a5.591 5.591 0 0 1 1.5 1.579c.383.617.657 1.34.813 2.171.164.825.25 1.813.25 2.97ZM95.071 188.64c-2.699 0-4.445-1.22-5.234-3.657a13.55 13.55 0 0 1-.234-.828c-.063-.289-.11-.66-.141-1.11a78.077 78.077 0 0 1-.062-1.765 188.01 188.01 0 0 1-.016-2.844c0-1.175.004-2.125.016-2.843.019-.727.039-1.317.062-1.766.031-.457.078-.812.14-1.062.07-.258.15-.54.235-.844.79-2.438 2.535-3.656 5.234-3.656 1.563 0 2.832.453 3.813 1.359.988.906 1.55 2.137 1.687 3.687 0 .25-.101.403-.296.454l-2.204.406c-.273.086-.437-.024-.5-.328-.136-.926-.418-1.594-.843-2-.418-.414-.97-.625-1.657-.625-1.168 0-1.93.539-2.28 1.61a4.852 4.852 0 0 0-.157.577 8.223 8.223 0 0 0-.078.86c-.012.375-.016.89-.016 1.546v5.282c0 .656.004 1.18.016 1.562.02.375.047.664.078.86.039.187.094.382.156.578.352 1.062 1.113 1.593 2.281 1.593.688 0 1.239-.203 1.657-.609.425-.414.707-1.086.843-2.016.063-.3.227-.41.5-.328l2.204.407c.195.054.296.203.296.453-.136 1.562-.699 2.797-1.687 3.703-.98.898-2.25 1.344-3.813 1.344ZM104.538 188.265c-.273 0-.406-.133-.406-.407v-18.812c0-.27.133-.406.406-.406h2.344c.27 0 .406.136.406.406v1.844h.047c.32-.758.8-1.383 1.437-1.875.645-.5 1.473-.75 2.485-.75.3 0 .562.03.781.093.25.055.332.203.25.453l-.578 2.329c-.086.25-.246.375-.484.375h-.625c-.95 0-1.743.343-2.375 1.03-.625.68-.938 1.743-.938 3.188v12.125c0 .274-.137.407-.406.407ZM123.801 188.265c-.273 0-.406-.133-.406-.407v-1.562h-.047a4.446 4.446 0 0 1-1.344 1.672c-.586.445-1.367.672-2.344.672-1.5 0-2.625-.485-3.375-1.454-.75-.976-1.125-2.515-1.125-4.609v-13.531c0-.27.133-.406.407-.406h2.328c.27 0 .406.136.406.406v13.078c0 2.375.848 3.562 2.547 3.562.789 0 1.41-.289 1.86-.875.456-.593.687-1.488.687-2.687v-13.078c0-.27.133-.406.406-.406h2.328c.281 0 .422.136.422.406v18.812c0 .274-.14.407-.422.407ZM148.42 188.265c-.273 0-.406-.133-.406-.407V174.78c0-2.375-.875-3.562-2.625-3.562-.793 0-1.422.289-1.89.86-.462.573-.688 1.448-.688 2.624v13.156c0 .274-.137.407-.406.407h-2.344c-.274 0-.406-.133-.406-.407V174.78c0-2.375-.86-3.562-2.579-3.562-.824 0-1.468.289-1.937.86-.461.573-.688 1.476-.688 2.702v13.078c0 .274-.136.407-.406.407h-2.344c-.273 0-.406-.133-.406-.407v-18.812c0-.27.133-.406.406-.406h2.344c.27 0 .406.136.406.406v1.562h.047a4.046 4.046 0 0 1 1.36-1.656c.613-.457 1.398-.687 2.359-.687 2 0 3.313.78 3.938 2.343h.046a4.49 4.49 0 0 1 1.563-1.703c.676-.426 1.52-.64 2.531-.64 1.633 0 2.852.496 3.656 1.484.813.98 1.22 2.496 1.22 4.547v13.562c0 .274-.138.407-.407.407Zm0 0" fill="#b7e2ff"/></svg>