<svg xmlns="http://www.w3.org/2000/svg" xmlns:xlink="http://www.w3.org/1999/xlink" width="300" zoomAndPan="magnify" viewBox="0 0 224.87999 225" height="300" preserveAspectRatio="xMidYMid meet" version="1.0"><defs><g/><clipPath id="02b19fc05e"><path d="M 103 22.546875 L 171 22.546875 L 171 67 L 103 67 Z M 103 22.546875 " clip-rule="nonzero"/></clipPath><clipPath id="79a03e9df1"><path d="M 95.359375 110 L 172.761719 110 L 172.761719 134.988281 L 95.359375 134.988281 Z M 95.359375 110 " clip-rule="nonzero"/></clipPath><clipPath id="9cff92549f"><path d="M 52.121094 47 L 142 47 L 142 129 L 52.121094 129 Z M 52.121094 47 " clip-rule="nonzero"/></clipPath></defs><g clip-path="url(#02b19fc05e)"><path fill="#75c0f2" d="M 103.738281 54.765625 L 103.738281 47.769531 C 104.132812 45.492188 104.789062 43.265625 105.699219 41.117188 C 107.234375 37.496094 109.4375 34.242188 112.234375 31.453125 C 115.035156 28.664062 118.300781 26.472656 121.933594 24.941406 C 125.699219 23.355469 129.695312 22.546875 133.816406 22.546875 C 137.929688 22.546875 141.929688 23.351562 145.695312 24.941406 C 149.332031 26.472656 152.59375 28.664062 155.394531 31.453125 C 158.191406 34.242188 160.390625 37.492188 161.929688 41.117188 C 163.414062 44.609375 164.214844 48.300781 164.320312 52.097656 L 170.175781 52.097656 L 159.5 66.980469 L 148.828125 52.097656 L 154.652344 52.097656 C 154.199219 41.035156 145.027344 32.175781 133.8125 32.175781 C 123.441406 32.175781 114.808594 39.761719 113.21875 49.660156 L 113.21875 54.765625 L 103.738281 54.765625 " fill-opacity="1" fill-rule="evenodd"/></g><g clip-path="url(#79a03e9df1)"><path fill="#75c0f2" d="M 119.800781 116.460938 L 155.25 116.460938 L 155.25 110.046875 L 172.761719 122.519531 L 155.25 134.988281 L 155.25 128.574219 L 95.644531 128.574219 L 119.800781 116.460938 " fill-opacity="1" fill-rule="evenodd"/></g><g clip-path="url(#9cff92549f)"><path fill="#ff725c" d="M 116.410156 126.601562 C 113.273438 127.917969 109.898438 128.574219 106.492188 128.574219 L 52.183594 128.574219 L 52.183594 116.460938 L 102.640625 116.460938 C 117.882812 116.460938 130.421875 104.300781 130.613281 89.113281 C 130.613281 88.984375 130.613281 88.855469 130.613281 88.726562 C 130.613281 72.105469 117.09375 58.632812 100.414062 58.632812 C 83.738281 58.632812 70.214844 72.105469 70.214844 88.726562 L 77.210938 88.726562 L 64.699219 106.175781 L 52.183594 88.726562 L 59.179688 88.726562 C 59.179688 83.183594 60.273438 77.800781 62.421875 72.726562 C 64.503906 67.832031 67.472656 63.441406 71.257812 59.671875 C 75.039062 55.902344 79.449219 52.9375 84.359375 50.871094 C 89.453125 48.722656 94.855469 47.636719 100.414062 47.636719 C 105.976562 47.636719 111.378906 48.722656 116.46875 50.871094 C 121.382812 52.941406 125.789062 55.902344 129.574219 59.671875 C 133.359375 63.441406 136.332031 67.832031 138.40625 72.726562 C 140.5625 77.800781 141.652344 83.183594 141.652344 88.726562 C 141.652344 94.269531 140.5625 99.652344 138.40625 104.722656 C 136.566406 109.054688 134.027344 113 130.839844 116.460938 C 130.429688 116.910156 130.007812 117.347656 129.574219 117.777344 C 129.1875 118.164062 128.789062 118.542969 128.390625 118.914062 C 125.316406 121.746094 121.863281 124.074219 118.089844 125.855469 C 117.554688 126.109375 117.015625 126.347656 116.46875 126.578125 C 116.449219 126.585938 116.429688 126.597656 116.410156 126.601562 " fill-opacity="1" fill-rule="evenodd"/></g><g fill="#b7e2ff" fill-opacity="1"><g transform="translate(71.479751, 188.264561)"><g><path d="M 14.5 -7.859375 C 14.5 -5.046875 14.003906 -2.96875 13.015625 -1.625 C 12.035156 -0.289062 10.375 0.375 8.03125 0.375 C 3.851562 0.375 1.664062 -2.015625 1.46875 -6.796875 C 1.46875 -7.066406 1.578125 -7.21875 1.796875 -7.25 L 4.21875 -7.703125 C 4.519531 -7.753906 4.671875 -7.628906 4.671875 -7.328125 C 4.753906 -5.609375 5.070312 -4.398438 5.625 -3.703125 C 6.1875 -3.003906 7.003906 -2.65625 8.078125 -2.65625 C 9.140625 -2.65625 9.921875 -2.984375 10.421875 -3.640625 C 10.929688 -4.296875 11.1875 -5.566406 11.1875 -7.453125 C 11.1875 -8.242188 11.144531 -8.925781 11.0625 -9.5 C 10.976562 -10.070312 10.828125 -10.554688 10.609375 -10.953125 C 10.390625 -11.347656 10.09375 -11.679688 9.71875 -11.953125 C 9.351562 -12.234375 8.898438 -12.484375 8.359375 -12.703125 L 6.671875 -13.359375 C 5.722656 -13.710938 4.929688 -14.113281 4.296875 -14.5625 C 3.671875 -15.007812 3.171875 -15.523438 2.796875 -16.109375 C 2.429688 -16.703125 2.171875 -17.398438 2.015625 -18.203125 C 1.867188 -19.015625 1.796875 -19.953125 1.796875 -21.015625 C 1.796875 -25.828125 3.875 -28.234375 8.03125 -28.234375 C 10.132812 -28.234375 11.679688 -27.671875 12.671875 -26.546875 C 13.671875 -25.429688 14.226562 -23.78125 14.34375 -21.59375 C 14.34375 -21.320312 14.21875 -21.171875 13.96875 -21.140625 L 11.671875 -20.765625 C 11.535156 -20.710938 11.425781 -20.71875 11.34375 -20.78125 C 11.257812 -20.851562 11.21875 -20.957031 11.21875 -21.09375 C 11.164062 -22.488281 10.898438 -23.519531 10.421875 -24.1875 C 9.941406 -24.863281 9.171875 -25.203125 8.109375 -25.203125 C 7.078125 -25.203125 6.3125 -24.878906 5.8125 -24.234375 C 5.320312 -23.585938 5.078125 -22.554688 5.078125 -21.140625 C 5.078125 -20.429688 5.125 -19.820312 5.21875 -19.3125 C 5.3125 -18.8125 5.46875 -18.382812 5.6875 -18.03125 C 5.90625 -17.675781 6.195312 -17.375 6.5625 -17.125 C 6.9375 -16.875 7.410156 -16.640625 7.984375 -16.421875 L 9.671875 -15.765625 C 10.566406 -15.410156 11.320312 -15.015625 11.9375 -14.578125 C 12.550781 -14.140625 13.050781 -13.613281 13.4375 -13 C 13.820312 -12.382812 14.09375 -11.660156 14.25 -10.828125 C 14.414062 -10.003906 14.5 -9.015625 14.5 -7.859375 Z M 14.5 -7.859375 "/></g></g></g><g fill="#b7e2ff" fill-opacity="1"><g transform="translate(87.540126, 188.264561)"><g><path d="M 7.53125 0.375 C 4.832031 0.375 3.085938 -0.84375 2.296875 -3.28125 C 2.210938 -3.550781 2.132812 -3.828125 2.0625 -4.109375 C 2 -4.398438 1.953125 -4.769531 1.921875 -5.21875 C 1.898438 -5.675781 1.878906 -6.265625 1.859375 -6.984375 C 1.847656 -7.710938 1.84375 -8.660156 1.84375 -9.828125 C 1.84375 -11.003906 1.847656 -11.953125 1.859375 -12.671875 C 1.878906 -13.398438 1.898438 -13.988281 1.921875 -14.4375 C 1.953125 -14.894531 2 -15.25 2.0625 -15.5 C 2.132812 -15.757812 2.210938 -16.039062 2.296875 -16.34375 C 3.085938 -18.78125 4.832031 -20 7.53125 -20 C 9.09375 -20 10.363281 -19.546875 11.34375 -18.640625 C 12.332031 -17.734375 12.894531 -16.503906 13.03125 -14.953125 C 13.03125 -14.703125 12.929688 -14.550781 12.734375 -14.5 L 10.53125 -14.09375 C 10.257812 -14.007812 10.09375 -14.117188 10.03125 -14.421875 C 9.894531 -15.347656 9.613281 -16.015625 9.1875 -16.421875 C 8.769531 -16.835938 8.21875 -17.046875 7.53125 -17.046875 C 6.363281 -17.046875 5.601562 -16.507812 5.25 -15.4375 C 5.1875 -15.25 5.132812 -15.054688 5.09375 -14.859375 C 5.0625 -14.671875 5.035156 -14.382812 5.015625 -14 C 5.003906 -13.625 5 -13.109375 5 -12.453125 C 5 -11.796875 5 -10.921875 5 -9.828125 C 5 -8.710938 5 -7.828125 5 -7.171875 C 5 -6.515625 5.003906 -5.992188 5.015625 -5.609375 C 5.035156 -5.234375 5.0625 -4.945312 5.09375 -4.75 C 5.132812 -4.5625 5.1875 -4.367188 5.25 -4.171875 C 5.601562 -3.109375 6.363281 -2.578125 7.53125 -2.578125 C 8.21875 -2.578125 8.769531 -2.78125 9.1875 -3.1875 C 9.613281 -3.601562 9.894531 -4.273438 10.03125 -5.203125 C 10.09375 -5.503906 10.257812 -5.613281 10.53125 -5.53125 L 12.734375 -5.125 C 12.929688 -5.070312 13.03125 -4.921875 13.03125 -4.671875 C 12.894531 -3.109375 12.332031 -1.875 11.34375 -0.96875 C 10.363281 -0.0703125 9.09375 0.375 7.53125 0.375 Z M 7.53125 0.375 "/></g></g></g><g fill="#b7e2ff" fill-opacity="1"><g transform="translate(101.756836, 188.264561)"><g><path d="M 2.78125 0 C 2.507812 0 2.375 -0.132812 2.375 -0.40625 L 2.375 -19.21875 C 2.375 -19.488281 2.507812 -19.625 2.78125 -19.625 L 5.125 -19.625 C 5.394531 -19.625 5.53125 -19.488281 5.53125 -19.21875 L 5.53125 -17.375 L 5.578125 -17.375 C 5.898438 -18.132812 6.378906 -18.757812 7.015625 -19.25 C 7.660156 -19.75 8.488281 -20 9.5 -20 C 9.800781 -20 10.0625 -19.96875 10.28125 -19.90625 C 10.53125 -19.851562 10.613281 -19.703125 10.53125 -19.453125 L 9.953125 -17.125 C 9.867188 -16.875 9.707031 -16.75 9.46875 -16.75 L 8.84375 -16.75 C 7.894531 -16.75 7.101562 -16.40625 6.46875 -15.71875 C 5.84375 -15.039062 5.53125 -13.976562 5.53125 -12.53125 L 5.53125 -0.40625 C 5.53125 -0.132812 5.394531 0 5.125 0 Z M 2.78125 0 "/></g></g></g><g fill="#b7e2ff" fill-opacity="1"><g transform="translate(112.941735, 188.264561)"><g><path d="M 10.859375 0 C 10.585938 0 10.453125 -0.132812 10.453125 -0.40625 L 10.453125 -1.96875 L 10.40625 -1.96875 C 10.101562 -1.3125 9.65625 -0.753906 9.0625 -0.296875 C 8.476562 0.148438 7.695312 0.375 6.71875 0.375 C 5.21875 0.375 4.09375 -0.109375 3.34375 -1.078125 C 2.59375 -2.054688 2.21875 -3.59375 2.21875 -5.6875 L 2.21875 -19.21875 C 2.21875 -19.488281 2.351562 -19.625 2.625 -19.625 L 4.953125 -19.625 C 5.222656 -19.625 5.359375 -19.488281 5.359375 -19.21875 L 5.359375 -6.140625 C 5.359375 -3.765625 6.207031 -2.578125 7.90625 -2.578125 C 8.695312 -2.578125 9.316406 -2.867188 9.765625 -3.453125 C 10.222656 -4.046875 10.453125 -4.941406 10.453125 -6.140625 L 10.453125 -19.21875 C 10.453125 -19.488281 10.585938 -19.625 10.859375 -19.625 L 13.1875 -19.625 C 13.46875 -19.625 13.609375 -19.488281 13.609375 -19.21875 L 13.609375 -0.40625 C 13.609375 -0.132812 13.46875 0 13.1875 0 Z M 10.859375 0 "/></g></g></g><g fill="#b7e2ff" fill-opacity="1"><g transform="translate(128.920168, 188.264561)"><g><path d="M 19.5 0 C 19.226562 0 19.09375 -0.132812 19.09375 -0.40625 L 19.09375 -13.484375 C 19.09375 -15.859375 18.21875 -17.046875 16.46875 -17.046875 C 15.675781 -17.046875 15.046875 -16.757812 14.578125 -16.1875 C 14.117188 -15.613281 13.890625 -14.738281 13.890625 -13.5625 L 13.890625 -0.40625 C 13.890625 -0.132812 13.753906 0 13.484375 0 L 11.140625 0 C 10.867188 0 10.734375 -0.132812 10.734375 -0.40625 L 10.734375 -13.484375 C 10.734375 -15.859375 9.875 -17.046875 8.15625 -17.046875 C 7.332031 -17.046875 6.6875 -16.757812 6.21875 -16.1875 C 5.757812 -15.613281 5.53125 -14.710938 5.53125 -13.484375 L 5.53125 -0.40625 C 5.53125 -0.132812 5.394531 0 5.125 0 L 2.78125 0 C 2.507812 0 2.375 -0.132812 2.375 -0.40625 L 2.375 -19.21875 C 2.375 -19.488281 2.507812 -19.625 2.78125 -19.625 L 5.125 -19.625 C 5.394531 -19.625 5.53125 -19.488281 5.53125 -19.21875 L 5.53125 -17.65625 L 5.578125 -17.65625 C 5.867188 -18.3125 6.320312 -18.863281 6.9375 -19.3125 C 7.550781 -19.769531 8.335938 -20 9.296875 -20 C 11.296875 -20 12.609375 -19.21875 13.234375 -17.65625 L 13.28125 -17.65625 C 13.65625 -18.363281 14.175781 -18.929688 14.84375 -19.359375 C 15.519531 -19.785156 16.363281 -20 17.375 -20 C 19.007812 -20 20.226562 -19.503906 21.03125 -18.515625 C 21.84375 -17.535156 22.25 -16.019531 22.25 -13.96875 L 22.25 -0.40625 C 22.25 -0.132812 22.113281 0 21.84375 0 Z M 19.5 0 "/></g></g></g></svg>