<svg xmlns="http://www.w3.org/2000/svg" xmlns:xlink="http://www.w3.org/1999/xlink" width="300" zoomAndPan="magnify" viewBox="0 0 224.87999 225" height="300" preserveAspectRatio="xMidYMid meet" version="1.0"><defs><g/><clipPath id="d4f2d012bf"><path d="M 18.722656 22.546875 L 206.121094 22.546875 L 206.121094 134.988281 L 18.722656 134.988281 Z M 18.722656 22.546875 " clip-rule="nonzero"/></clipPath><clipPath id="d1aa8b46aa"><path d="M 112.421875 22.546875 C 87.4375 22.546875 71.820312 35.042969 65.574219 60.027344 C 74.945312 47.535156 85.875 42.847656 98.367188 45.972656 C 105.496094 47.753906 110.589844 52.925781 116.230469 58.648438 C 125.417969 67.976562 136.046875 78.769531 159.273438 78.769531 C 184.257812 78.769531 199.875 66.273438 206.121094 41.289062 C 196.75 53.78125 185.820312 58.464844 173.328125 55.34375 C 166.199219 53.5625 161.105469 48.390625 155.464844 42.664062 C 146.277344 33.339844 135.644531 22.546875 112.421875 22.546875 Z M 65.574219 78.769531 C 40.585938 78.769531 24.972656 91.261719 18.726562 116.246094 C 28.09375 103.753906 39.027344 99.070312 51.519531 102.191406 C 58.648438 103.976562 63.742188 109.148438 69.382812 114.871094 C 78.566406 124.195312 89.199219 134.988281 112.421875 134.988281 C 137.410156 134.988281 153.023438 122.496094 159.273438 97.507812 C 149.902344 110 138.972656 114.6875 126.476562 111.5625 C 119.351562 109.78125 114.253906 104.609375 108.617188 98.886719 C 99.429688 89.558594 88.796875 78.769531 65.574219 78.769531 Z M 65.574219 78.769531 " clip-rule="nonzero"/></clipPath><linearGradient x1="-13.502168" gradientTransform="matrix(1.249307, 0, 0, 1.249333, 18.724685, 22.548014)" y1="23.417482" x2="138.017675" gradientUnits="userSpaceOnUse" y2="110.78154" id="e72f72394f"><stop stop-opacity="1" stop-color="rgb(13.299561%, 59.599304%, 74.099731%)" offset="0"/><stop stop-opacity="1" stop-color="rgb(13.294983%, 59.611511%, 74.098206%)" offset="0.0625"/><stop stop-opacity="1" stop-color="rgb(13.25531%, 59.738159%, 74.081421%)" offset="0.0703125"/><stop stop-opacity="1" stop-color="rgb(13.183594%, 59.963989%, 74.052429%)" offset="0.078125"/><stop stop-opacity="1" stop-color="rgb(13.111877%, 60.189819%, 74.024963%)" offset="0.0859375"/><stop stop-opacity="1" stop-color="rgb(13.041687%, 60.414124%, 73.995972%)" offset="0.09375"/><stop stop-opacity="1" stop-color="rgb(12.969971%, 60.639954%, 73.968506%)" offset="0.101562"/><stop stop-opacity="1" stop-color="rgb(12.898254%, 60.865784%, 73.939514%)" offset="0.109375"/><stop stop-opacity="1" stop-color="rgb(12.828064%, 61.091614%, 73.912048%)" offset="0.117188"/><stop stop-opacity="1" stop-color="rgb(12.756348%, 61.317444%, 73.883057%)" offset="0.125"/><stop stop-opacity="1" stop-color="rgb(12.684631%, 61.543274%, 73.854065%)" offset="0.132812"/><stop stop-opacity="1" stop-color="rgb(12.612915%, 61.769104%, 73.826599%)" offset="0.140625"/><stop stop-opacity="1" stop-color="rgb(12.542725%, 61.994934%, 73.797607%)" offset="0.148438"/><stop stop-opacity="1" stop-color="rgb(12.471008%, 62.220764%, 73.770142%)" offset="0.15625"/><stop stop-opacity="1" stop-color="rgb(12.399292%, 62.446594%, 73.74115%)" offset="0.164062"/><stop stop-opacity="1" stop-color="rgb(12.329102%, 62.672424%, 73.713684%)" offset="0.171875"/><stop stop-opacity="1" stop-color="rgb(12.257385%, 62.896729%, 73.684692%)" offset="0.179687"/><stop stop-opacity="1" stop-color="rgb(12.185669%, 63.122559%, 73.657227%)" offset="0.1875"/><stop stop-opacity="1" stop-color="rgb(12.113953%, 63.348389%, 73.628235%)" offset="0.195312"/><stop stop-opacity="1" stop-color="rgb(12.043762%, 63.574219%, 73.599243%)" offset="0.203125"/><stop stop-opacity="1" stop-color="rgb(11.972046%, 63.800049%, 73.571777%)" offset="0.210937"/><stop stop-opacity="1" stop-color="rgb(11.90033%, 64.025879%, 73.542786%)" offset="0.21875"/><stop stop-opacity="1" stop-color="rgb(11.830139%, 64.251709%, 73.51532%)" offset="0.226562"/><stop stop-opacity="1" stop-color="rgb(11.758423%, 64.477539%, 73.486328%)" offset="0.234375"/><stop stop-opacity="1" stop-color="rgb(11.686707%, 64.703369%, 73.458862%)" offset="0.242187"/><stop stop-opacity="1" stop-color="rgb(11.61499%, 64.929199%, 73.429871%)" offset="0.25"/><stop stop-opacity="1" stop-color="rgb(11.5448%, 65.155029%, 73.400879%)" offset="0.257031"/><stop stop-opacity="1" stop-color="rgb(11.509705%, 65.267944%, 73.387146%)" offset="0.257812"/><stop stop-opacity="1" stop-color="rgb(11.473083%, 65.380859%, 73.373413%)" offset="0.265625"/><stop stop-opacity="1" stop-color="rgb(11.401367%, 65.605164%, 73.344421%)" offset="0.273437"/><stop stop-opacity="1" stop-color="rgb(11.331177%, 65.830994%, 73.316956%)" offset="0.28125"/><stop stop-opacity="1" stop-color="rgb(11.25946%, 66.056824%, 73.287964%)" offset="0.289062"/><stop stop-opacity="1" stop-color="rgb(11.187744%, 66.282654%, 73.260498%)" offset="0.296875"/><stop stop-opacity="1" stop-color="rgb(11.116028%, 66.508484%, 73.231506%)" offset="0.304688"/><stop stop-opacity="1" stop-color="rgb(11.045837%, 66.734314%, 73.204041%)" offset="0.3125"/><stop stop-opacity="1" stop-color="rgb(10.974121%, 66.960144%, 73.175049%)" offset="0.320312"/><stop stop-opacity="1" stop-color="rgb(10.902405%, 67.185974%, 73.146057%)" offset="0.328125"/><stop stop-opacity="1" stop-color="rgb(10.832214%, 67.411804%, 73.118591%)" offset="0.335938"/><stop stop-opacity="1" stop-color="rgb(10.760498%, 67.637634%, 73.0896%)" offset="0.34375"/><stop stop-opacity="1" stop-color="rgb(10.688782%, 67.863464%, 73.062134%)" offset="0.351562"/><stop stop-opacity="1" stop-color="rgb(10.618591%, 68.087769%, 73.033142%)" offset="0.359375"/><stop stop-opacity="1" stop-color="rgb(10.546875%, 68.313599%, 73.005676%)" offset="0.367187"/><stop stop-opacity="1" stop-color="rgb(10.475159%, 68.539429%, 72.976685%)" offset="0.375"/><stop stop-opacity="1" stop-color="rgb(10.403442%, 68.765259%, 72.947693%)" offset="0.382812"/><stop stop-opacity="1" stop-color="rgb(10.333252%, 68.991089%, 72.920227%)" offset="0.390625"/><stop stop-opacity="1" stop-color="rgb(10.261536%, 69.216919%, 72.891235%)" offset="0.398437"/><stop stop-opacity="1" stop-color="rgb(10.189819%, 69.442749%, 72.86377%)" offset="0.40625"/><stop stop-opacity="1" stop-color="rgb(10.119629%, 69.668579%, 72.834778%)" offset="0.414062"/><stop stop-opacity="1" stop-color="rgb(10.047913%, 69.894409%, 72.807312%)" offset="0.421875"/><stop stop-opacity="1" stop-color="rgb(9.976196%, 70.120239%, 72.77832%)" offset="0.429688"/><stop stop-opacity="1" stop-color="rgb(9.90448%, 70.346069%, 72.749329%)" offset="0.4375"/><stop stop-opacity="1" stop-color="rgb(9.83429%, 70.570374%, 72.721863%)" offset="0.445312"/><stop stop-opacity="1" stop-color="rgb(9.762573%, 70.796204%, 72.692871%)" offset="0.453125"/><stop stop-opacity="1" stop-color="rgb(9.690857%, 71.022034%, 72.665405%)" offset="0.460937"/><stop stop-opacity="1" stop-color="rgb(9.620667%, 71.247864%, 72.636414%)" offset="0.46875"/><stop stop-opacity="1" stop-color="rgb(9.54895%, 71.473694%, 72.608948%)" offset="0.476562"/><stop stop-opacity="1" stop-color="rgb(9.477234%, 71.699524%, 72.579956%)" offset="0.484375"/><stop stop-opacity="1" stop-color="rgb(9.405518%, 71.925354%, 72.55249%)" offset="0.492187"/><stop stop-opacity="1" stop-color="rgb(9.335327%, 72.151184%, 72.523499%)" offset="0.5"/><stop stop-opacity="1" stop-color="rgb(9.263611%, 72.377014%, 72.494507%)" offset="0.507812"/><stop stop-opacity="1" stop-color="rgb(9.191895%, 72.602844%, 72.467041%)" offset="0.515625"/><stop stop-opacity="1" stop-color="rgb(9.121704%, 72.828674%, 72.438049%)" offset="0.523438"/><stop stop-opacity="1" stop-color="rgb(9.049988%, 73.054504%, 72.410583%)" offset="0.53125"/><stop stop-opacity="1" stop-color="rgb(8.978271%, 73.278809%, 72.381592%)" offset="0.539062"/><stop stop-opacity="1" stop-color="rgb(8.908081%, 73.504639%, 72.354126%)" offset="0.546875"/><stop stop-opacity="1" stop-color="rgb(8.836365%, 73.730469%, 72.325134%)" offset="0.554687"/><stop stop-opacity="1" stop-color="rgb(8.764648%, 73.956299%, 72.296143%)" offset="0.5625"/><stop stop-opacity="1" stop-color="rgb(8.692932%, 74.182129%, 72.268677%)" offset="0.570312"/><stop stop-opacity="1" stop-color="rgb(8.622742%, 74.407959%, 72.239685%)" offset="0.578125"/><stop stop-opacity="1" stop-color="rgb(8.551025%, 74.633789%, 72.212219%)" offset="0.585938"/><stop stop-opacity="1" stop-color="rgb(8.479309%, 74.859619%, 72.183228%)" offset="0.59375"/><stop stop-opacity="1" stop-color="rgb(8.409119%, 75.085449%, 72.155762%)" offset="0.601562"/><stop stop-opacity="1" stop-color="rgb(8.337402%, 75.311279%, 72.12677%)" offset="0.609375"/><stop stop-opacity="1" stop-color="rgb(8.265686%, 75.537109%, 72.099304%)" offset="0.617188"/><stop stop-opacity="1" stop-color="rgb(8.19397%, 75.761414%, 72.070312%)" offset="0.625"/><stop stop-opacity="1" stop-color="rgb(8.123779%, 75.987244%, 72.041321%)" offset="0.632812"/><stop stop-opacity="1" stop-color="rgb(8.052063%, 76.213074%, 72.013855%)" offset="0.640625"/><stop stop-opacity="1" stop-color="rgb(7.980347%, 76.438904%, 71.984863%)" offset="0.648438"/><stop stop-opacity="1" stop-color="rgb(7.910156%, 76.664734%, 71.957397%)" offset="0.65625"/><stop stop-opacity="1" stop-color="rgb(7.83844%, 76.890564%, 71.928406%)" offset="0.664062"/><stop stop-opacity="1" stop-color="rgb(7.766724%, 77.116394%, 71.90094%)" offset="0.671875"/><stop stop-opacity="1" stop-color="rgb(7.695007%, 77.342224%, 71.871948%)" offset="0.679688"/><stop stop-opacity="1" stop-color="rgb(7.624817%, 77.568054%, 71.842957%)" offset="0.6875"/><stop stop-opacity="1" stop-color="rgb(7.553101%, 77.793884%, 71.815491%)" offset="0.695312"/><stop stop-opacity="1" stop-color="rgb(7.481384%, 78.019714%, 71.786499%)" offset="0.703125"/><stop stop-opacity="1" stop-color="rgb(7.411194%, 78.244019%, 71.759033%)" offset="0.710938"/><stop stop-opacity="1" stop-color="rgb(7.339478%, 78.469849%, 71.730042%)" offset="0.71875"/><stop stop-opacity="1" stop-color="rgb(7.267761%, 78.695679%, 71.702576%)" offset="0.726562"/><stop stop-opacity="1" stop-color="rgb(7.196045%, 78.921509%, 71.673584%)" offset="0.734375"/><stop stop-opacity="1" stop-color="rgb(7.125854%, 79.147339%, 71.646118%)" offset="0.742188"/><stop stop-opacity="1" stop-color="rgb(7.054138%, 79.373169%, 71.617126%)" offset="0.742969"/><stop stop-opacity="1" stop-color="rgb(7.019043%, 79.486084%, 71.603394%)" offset="0.75"/><stop stop-opacity="1" stop-color="rgb(6.982422%, 79.598999%, 71.588135%)" offset="0.757813"/><stop stop-opacity="1" stop-color="rgb(6.912231%, 79.824829%, 71.560669%)" offset="0.765625"/><stop stop-opacity="1" stop-color="rgb(6.840515%, 80.050659%, 71.531677%)" offset="0.773438"/><stop stop-opacity="1" stop-color="rgb(6.768799%, 80.276489%, 71.504211%)" offset="0.78125"/><stop stop-opacity="1" stop-color="rgb(6.698608%, 80.502319%, 71.47522%)" offset="0.789062"/><stop stop-opacity="1" stop-color="rgb(6.626892%, 80.726624%, 71.447754%)" offset="0.796875"/><stop stop-opacity="1" stop-color="rgb(6.555176%, 80.952454%, 71.418762%)" offset="0.804688"/><stop stop-opacity="1" stop-color="rgb(6.483459%, 81.178284%, 71.389771%)" offset="0.8125"/><stop stop-opacity="1" stop-color="rgb(6.413269%, 81.404114%, 71.362305%)" offset="0.820313"/><stop stop-opacity="1" stop-color="rgb(6.341553%, 81.629944%, 71.333313%)" offset="0.828125"/><stop stop-opacity="1" stop-color="rgb(6.269836%, 81.855774%, 71.305847%)" offset="0.835938"/><stop stop-opacity="1" stop-color="rgb(6.199646%, 82.081604%, 71.276855%)" offset="0.84375"/><stop stop-opacity="1" stop-color="rgb(6.12793%, 82.307434%, 71.24939%)" offset="0.851562"/><stop stop-opacity="1" stop-color="rgb(6.056213%, 82.533264%, 71.220398%)" offset="0.859375"/><stop stop-opacity="1" stop-color="rgb(5.984497%, 82.759094%, 71.191406%)" offset="0.867188"/><stop stop-opacity="1" stop-color="rgb(5.914307%, 82.984924%, 71.16394%)" offset="0.875"/><stop stop-opacity="1" stop-color="rgb(5.84259%, 83.210754%, 71.134949%)" offset="0.882812"/><stop stop-opacity="1" stop-color="rgb(5.770874%, 83.435059%, 71.107483%)" offset="0.890625"/><stop stop-opacity="1" stop-color="rgb(5.700684%, 83.660889%, 71.078491%)" offset="0.898438"/><stop stop-opacity="1" stop-color="rgb(5.628967%, 83.886719%, 71.051025%)" offset="0.90625"/><stop stop-opacity="1" stop-color="rgb(5.54657%, 84.14917%, 71.017456%)" offset="0.9375"/><stop stop-opacity="1" stop-color="rgb(5.499268%, 84.298706%, 70.999146%)" offset="1"/></linearGradient></defs><g clip-path="url(#d4f2d012bf)"><g clip-path="url(#d1aa8b46aa)"><path fill="url(#e72f72394f)" d="M 18.726562 22.546875 L 18.726562 134.988281 L 206.121094 134.988281 L 206.121094 22.546875 Z M 18.726562 22.546875 " fill-rule="nonzero"/></g></g><g fill="#10c6b7" fill-opacity="1"><g transform="translate(58.045407, 188.264529)"><g><path d="M 6.3125 0 C 6.039062 0 5.90625 -0.132812 5.90625 -0.40625 L 5.90625 -24.546875 C 5.90625 -24.703125 5.820312 -24.78125 5.65625 -24.78125 L 1.0625 -24.78125 C 0.789062 -24.78125 0.65625 -24.921875 0.65625 -25.203125 L 0.65625 -27.453125 C 0.65625 -27.722656 0.789062 -27.859375 1.0625 -27.859375 L 14.046875 -27.859375 C 14.328125 -27.859375 14.46875 -27.722656 14.46875 -27.453125 L 14.46875 -25.203125 C 14.46875 -24.921875 14.328125 -24.78125 14.046875 -24.78125 L 9.46875 -24.78125 C 9.300781 -24.78125 9.21875 -24.703125 9.21875 -24.546875 L 9.21875 -0.40625 C 9.21875 -0.132812 9.082031 0 8.8125 0 Z M 6.3125 0 "/></g></g></g><g fill="#10c6b7" fill-opacity="1"><g transform="translate(73.163464, 188.264529)"><g><path d="M 10.40625 0 C 10.132812 0 10 -0.132812 10 -0.40625 L 10 -2.09375 L 9.953125 -2.09375 C 9.679688 -1.320312 9.21875 -0.71875 8.5625 -0.28125 C 7.90625 0.15625 7.140625 0.375 6.265625 0.375 C 5.691406 0.375 5.125 0.273438 4.5625 0.078125 C 4.007812 -0.109375 3.515625 -0.425781 3.078125 -0.875 C 2.640625 -1.332031 2.289062 -1.9375 2.03125 -2.6875 C 1.769531 -3.4375 1.640625 -4.359375 1.640625 -5.453125 C 1.640625 -6.546875 1.789062 -7.476562 2.09375 -8.25 C 2.394531 -9.03125 2.796875 -9.660156 3.296875 -10.140625 C 3.804688 -10.617188 4.414062 -10.96875 5.125 -11.1875 C 5.832031 -11.40625 6.597656 -11.515625 7.421875 -11.515625 L 9.75 -11.515625 C 9.914062 -11.515625 10 -11.597656 10 -11.765625 L 10 -13.359375 C 10 -14.671875 9.78125 -15.617188 9.34375 -16.203125 C 8.90625 -16.785156 8.15625 -17.078125 7.09375 -17.078125 C 6.375 -17.078125 5.753906 -16.953125 5.234375 -16.703125 C 4.722656 -16.460938 4.234375 -16.148438 3.765625 -15.765625 C 3.460938 -15.578125 3.242188 -15.632812 3.109375 -15.9375 L 2.328125 -17.53125 C 2.191406 -17.78125 2.222656 -18 2.421875 -18.1875 C 2.992188 -18.738281 3.71875 -19.175781 4.59375 -19.5 C 5.46875 -19.832031 6.421875 -20 7.453125 -20 C 9.421875 -20 10.84375 -19.503906 11.71875 -18.515625 C 12.59375 -17.535156 13.03125 -15.867188 13.03125 -13.515625 L 13.03125 -0.40625 C 13.03125 -0.132812 12.894531 0 12.625 0 Z M 7.125 -2.328125 C 7.976562 -2.328125 8.671875 -2.65625 9.203125 -3.3125 C 9.734375 -3.96875 10 -4.832031 10 -5.90625 L 10 -8.609375 C 10 -8.765625 9.914062 -8.84375 9.75 -8.84375 L 7.90625 -8.84375 C 6.726562 -8.84375 5.894531 -8.5625 5.40625 -8 C 4.914062 -7.445312 4.671875 -6.625 4.671875 -5.53125 C 4.671875 -4.46875 4.878906 -3.664062 5.296875 -3.125 C 5.722656 -2.59375 6.332031 -2.328125 7.125 -2.328125 Z M 7.125 -2.328125 "/></g></g></g><g fill="#10c6b7" fill-opacity="1"><g transform="translate(88.363462, 188.264529)"><g><path d="M 2.65625 -24.09375 C 2.382812 -24.09375 2.25 -24.226562 2.25 -24.5 L 2.25 -27.453125 C 2.25 -27.722656 2.382812 -27.859375 2.65625 -27.859375 L 5.25 -27.859375 C 5.519531 -27.859375 5.65625 -27.722656 5.65625 -27.453125 L 5.65625 -24.5 C 5.65625 -24.226562 5.519531 -24.09375 5.25 -24.09375 Z M 2.78125 0 C 2.507812 0 2.375 -0.132812 2.375 -0.40625 L 2.375 -19.21875 C 2.375 -19.488281 2.507812 -19.625 2.78125 -19.625 L 5.125 -19.625 C 5.394531 -19.625 5.53125 -19.488281 5.53125 -19.21875 L 5.53125 -0.40625 C 5.53125 -0.132812 5.394531 0 5.125 0 Z M 2.78125 0 "/></g></g></g><g fill="#10c6b7" fill-opacity="1"><g transform="translate(96.270737, 188.264529)"><g><path d="M 7.25 0.15625 C 5.445312 0.101562 4.179688 -0.328125 3.453125 -1.140625 C 2.734375 -1.960938 2.375 -3.316406 2.375 -5.203125 L 2.375 -27.453125 C 2.375 -27.722656 2.507812 -27.859375 2.78125 -27.859375 L 5.125 -27.859375 C 5.394531 -27.859375 5.53125 -27.722656 5.53125 -27.453125 L 5.53125 -5.078125 C 5.53125 -4.367188 5.660156 -3.84375 5.921875 -3.5 C 6.179688 -3.15625 6.625 -2.929688 7.25 -2.828125 L 7.453125 -2.78125 C 7.722656 -2.726562 7.859375 -2.578125 7.859375 -2.328125 L 7.859375 -0.203125 C 7.859375 0.0664062 7.722656 0.203125 7.453125 0.203125 Z M 7.25 0.15625 "/></g></g></g><g fill="#10c6b7" fill-opacity="1"><g transform="translate(105.325185, 188.264529)"><g><path d="M 13.71875 0 C 13.445312 0 13.300781 -0.132812 13.28125 -0.40625 L 10.78125 -13.28125 L 10.6875 -13.28125 L 8.28125 -0.40625 C 8.25 -0.132812 8.097656 0 7.828125 0 L 5.8125 0 C 5.539062 0 5.390625 -0.132812 5.359375 -0.40625 L 1.109375 -19.21875 C 1.023438 -19.488281 1.117188 -19.625 1.390625 -19.625 L 3.84375 -19.625 C 4.0625 -19.625 4.203125 -19.488281 4.265625 -19.21875 L 6.84375 -5.859375 L 6.875 -5.859375 L 9.5 -19.21875 C 9.5625 -19.488281 9.710938 -19.625 9.953125 -19.625 L 11.671875 -19.625 C 11.890625 -19.625 12.023438 -19.488281 12.078125 -19.21875 L 14.671875 -5.859375 L 14.703125 -5.859375 L 17.28125 -19.21875 C 17.34375 -19.488281 17.492188 -19.625 17.734375 -19.625 L 20.15625 -19.625 C 20.425781 -19.625 20.519531 -19.488281 20.4375 -19.21875 L 16.1875 -0.40625 C 16.15625 -0.132812 16.003906 0 15.734375 0 Z M 13.71875 0 "/></g></g></g><g fill="#10c6b7" fill-opacity="1"><g transform="translate(126.875577, 188.264529)"><g><path d="M 2.65625 -24.09375 C 2.382812 -24.09375 2.25 -24.226562 2.25 -24.5 L 2.25 -27.453125 C 2.25 -27.722656 2.382812 -27.859375 2.65625 -27.859375 L 5.25 -27.859375 C 5.519531 -27.859375 5.65625 -27.722656 5.65625 -27.453125 L 5.65625 -24.5 C 5.65625 -24.226562 5.519531 -24.09375 5.25 -24.09375 Z M 2.78125 0 C 2.507812 0 2.375 -0.132812 2.375 -0.40625 L 2.375 -19.21875 C 2.375 -19.488281 2.507812 -19.625 2.78125 -19.625 L 5.125 -19.625 C 5.394531 -19.625 5.53125 -19.488281 5.53125 -19.21875 L 5.53125 -0.40625 C 5.53125 -0.132812 5.394531 0 5.125 0 Z M 2.78125 0 "/></g></g></g><g fill="#10c6b7" fill-opacity="1"><g transform="translate(134.782852, 188.264529)"><g><path d="M 11.140625 0 C 10.867188 0 10.734375 -0.132812 10.734375 -0.40625 L 10.734375 -13.484375 C 10.734375 -15.859375 9.875 -17.046875 8.15625 -17.046875 C 7.332031 -17.046875 6.6875 -16.757812 6.21875 -16.1875 C 5.757812 -15.613281 5.53125 -14.710938 5.53125 -13.484375 L 5.53125 -0.40625 C 5.53125 -0.132812 5.394531 0 5.125 0 L 2.78125 0 C 2.507812 0 2.375 -0.132812 2.375 -0.40625 L 2.375 -19.21875 C 2.375 -19.488281 2.507812 -19.625 2.78125 -19.625 L 5.125 -19.625 C 5.394531 -19.625 5.53125 -19.488281 5.53125 -19.21875 L 5.53125 -17.65625 L 5.578125 -17.65625 C 5.867188 -18.3125 6.320312 -18.863281 6.9375 -19.3125 C 7.550781 -19.769531 8.335938 -20 9.296875 -20 C 10.828125 -20 11.972656 -19.507812 12.734375 -18.53125 C 13.503906 -17.5625 13.890625 -16.039062 13.890625 -13.96875 L 13.890625 -0.40625 C 13.890625 -0.132812 13.753906 0 13.484375 0 Z M 11.140625 0 "/></g></g></g><g fill="#10c6b7" fill-opacity="1"><g transform="translate(150.884198, 188.264529)"><g><path d="M 10.8125 0 C 10.539062 0 10.40625 -0.132812 10.40625 -0.40625 L 10.40625 -2 L 10.359375 -2 C 10.085938 -1.351562 9.664062 -0.796875 9.09375 -0.328125 C 8.519531 0.140625 7.703125 0.375 6.640625 0.375 C 4.484375 0.375 3.0625 -0.691406 2.375 -2.828125 C 2.289062 -3.097656 2.210938 -3.390625 2.140625 -3.703125 C 2.078125 -4.015625 2.023438 -4.421875 1.984375 -4.921875 C 1.941406 -5.429688 1.914062 -6.078125 1.90625 -6.859375 C 1.894531 -7.640625 1.890625 -8.628906 1.890625 -9.828125 C 1.890625 -11.035156 1.894531 -12.023438 1.90625 -12.796875 C 1.914062 -13.578125 1.941406 -14.210938 1.984375 -14.703125 C 2.023438 -15.191406 2.078125 -15.59375 2.140625 -15.90625 C 2.210938 -16.226562 2.289062 -16.523438 2.375 -16.796875 C 3.0625 -18.929688 4.484375 -20 6.640625 -20 C 7.703125 -20 8.519531 -19.769531 9.09375 -19.3125 C 9.664062 -18.863281 10.085938 -18.296875 10.359375 -17.609375 L 10.40625 -17.609375 L 10.40625 -27.453125 C 10.40625 -27.722656 10.539062 -27.859375 10.8125 -27.859375 L 13.15625 -27.859375 C 13.425781 -27.859375 13.5625 -27.722656 13.5625 -27.453125 L 13.5625 -0.40625 C 13.5625 -0.132812 13.425781 0 13.15625 0 Z M 7.75 -2.578125 C 8.34375 -2.578125 8.835938 -2.726562 9.234375 -3.03125 C 9.628906 -3.332031 9.925781 -3.753906 10.125 -4.296875 C 10.175781 -4.460938 10.222656 -4.644531 10.265625 -4.84375 C 10.304688 -5.050781 10.332031 -5.335938 10.34375 -5.703125 C 10.351562 -6.078125 10.363281 -6.59375 10.375 -7.25 C 10.394531 -7.90625 10.40625 -8.765625 10.40625 -9.828125 C 10.40625 -10.898438 10.394531 -11.753906 10.375 -12.390625 C 10.363281 -13.035156 10.351562 -13.539062 10.34375 -13.90625 C 10.332031 -14.28125 10.304688 -14.566406 10.265625 -14.765625 C 10.222656 -14.972656 10.175781 -15.160156 10.125 -15.328125 C 9.925781 -15.867188 9.628906 -16.289062 9.234375 -16.59375 C 8.835938 -16.894531 8.34375 -17.046875 7.75 -17.046875 C 6.519531 -17.046875 5.710938 -16.472656 5.328125 -15.328125 C 5.273438 -15.160156 5.226562 -14.972656 5.1875 -14.765625 C 5.144531 -14.566406 5.113281 -14.28125 5.09375 -13.90625 C 5.082031 -13.539062 5.070312 -13.035156 5.0625 -12.390625 C 5.050781 -11.753906 5.046875 -10.898438 5.046875 -9.828125 C 5.046875 -8.765625 5.050781 -7.90625 5.0625 -7.25 C 5.070312 -6.59375 5.082031 -6.078125 5.09375 -5.703125 C 5.113281 -5.335938 5.144531 -5.050781 5.1875 -4.84375 C 5.226562 -4.644531 5.273438 -4.460938 5.328125 -4.296875 C 5.710938 -3.148438 6.519531 -2.578125 7.75 -2.578125 Z M 7.75 -2.578125 "/></g></g></g></svg>