<svg xmlns="http://www.w3.org/2000/svg" width="300" viewBox="0 0 224.88 225" height="300" version="1.0"><defs><clipPath id="a"><path d="M18.723 22.547H206.12v112.441H18.723Zm0 0"/></clipPath><clipPath id="b"><path d="M112.422 22.547c-24.984 0-40.602 12.496-46.848 37.48 9.371-12.492 20.301-17.18 32.793-14.054 7.13 1.78 12.223 6.953 17.863 12.675 9.188 9.329 19.817 20.122 43.043 20.122 24.985 0 40.602-12.497 46.848-37.48-9.371 12.491-20.3 17.175-32.793 14.054-7.129-1.782-12.223-6.953-17.863-12.68-9.188-9.324-19.82-20.117-43.043-20.117ZM65.574 78.77c-24.988 0-40.601 12.492-46.847 37.476 9.367-12.492 20.3-17.176 32.793-14.055 7.128 1.786 12.222 6.957 17.863 12.68 9.183 9.324 19.816 20.117 43.039 20.117 24.988 0 40.601-12.492 46.851-37.48-9.37 12.492-20.3 17.18-32.796 14.055-7.125-1.782-12.223-6.954-17.86-12.676-9.187-9.328-19.82-20.117-43.043-20.117Zm0 0"/></clipPath><linearGradient x1="-13.502" gradientTransform="matrix(1.2493 0 0 1.24933 18.725 22.548)" y1="23.417" x2="138.018" gradientUnits="userSpaceOnUse" y2="110.782" id="c"><stop stop-color="#2298BD" offset="0"/><stop stop-color="#2298BD" offset=".063"/><stop stop-color="#2298BD" offset=".07"/><stop stop-color="#2299BD" offset=".078"/><stop stop-color="#2199BD" offset=".086"/><stop stop-color="#219ABD" offset=".094"/><stop stop-color="#219BBD" offset=".102"/><stop stop-color="#219BBD" offset=".109"/><stop stop-color="#219CBC" offset=".117"/><stop stop-color="#219CBC" offset=".125"/><stop stop-color="#209DBC" offset=".133"/><stop stop-color="#209EBC" offset=".141"/><stop stop-color="#209EBC" offset=".148"/><stop stop-color="#209FBC" offset=".156"/><stop stop-color="#209FBC" offset=".164"/><stop stop-color="#1FA0BC" offset=".172"/><stop stop-color="#1FA0BC" offset=".18"/><stop stop-color="#1FA1BC" offset=".188"/><stop stop-color="#1FA2BC" offset=".195"/><stop stop-color="#1FA2BC" offset=".203"/><stop stop-color="#1FA3BC" offset=".211"/><stop stop-color="#1EA3BC" offset=".219"/><stop stop-color="#1EA4BB" offset=".227"/><stop stop-color="#1EA4BB" offset=".234"/><stop stop-color="#1EA5BB" offset=".242"/><stop stop-color="#1EA6BB" offset=".25"/><stop stop-color="#1DA6BB" offset=".257"/><stop stop-color="#1DA6BB" offset=".258"/><stop stop-color="#1DA7BB" offset=".266"/><stop stop-color="#1DA7BB" offset=".273"/><stop stop-color="#1DA8BB" offset=".281"/><stop stop-color="#1DA8BB" offset=".289"/><stop stop-color="#1DA9BB" offset=".297"/><stop stop-color="#1CAABB" offset=".305"/><stop stop-color="#1CAABB" offset=".313"/><stop stop-color="#1CABBB" offset=".32"/><stop stop-color="#1CABBB" offset=".328"/><stop stop-color="#1CACBA" offset=".336"/><stop stop-color="#1BACBA" offset=".344"/><stop stop-color="#1BADBA" offset=".352"/><stop stop-color="#1BAEBA" offset=".359"/><stop stop-color="#1BAEBA" offset=".367"/><stop stop-color="#1BAFBA" offset=".375"/><stop stop-color="#1BAFBA" offset=".383"/><stop stop-color="#1AB0BA" offset=".391"/><stop stop-color="#1AB1BA" offset=".398"/><stop stop-color="#1AB1BA" offset=".406"/><stop stop-color="#1AB2BA" offset=".414"/><stop stop-color="#1AB2BA" offset=".422"/><stop stop-color="#19B3BA" offset=".43"/><stop stop-color="#19B3BA" offset=".438"/><stop stop-color="#19B4B9" offset=".445"/><stop stop-color="#19B5B9" offset=".453"/><stop stop-color="#19B5B9" offset=".461"/><stop stop-color="#19B6B9" offset=".469"/><stop stop-color="#18B6B9" offset=".477"/><stop stop-color="#18B7B9" offset=".484"/><stop stop-color="#18B7B9" offset=".492"/><stop stop-color="#18B8B9" offset=".5"/><stop stop-color="#18B9B9" offset=".508"/><stop stop-color="#17B9B9" offset=".516"/><stop stop-color="#17BAB9" offset=".523"/><stop stop-color="#17BAB9" offset=".531"/><stop stop-color="#17BBB9" offset=".539"/><stop stop-color="#17BBB9" offset=".547"/><stop stop-color="#17BCB8" offset=".555"/><stop stop-color="#16BDB8" offset=".563"/><stop stop-color="#16BDB8" offset=".57"/><stop stop-color="#16BEB8" offset=".578"/><stop stop-color="#16BEB8" offset=".586"/><stop stop-color="#16BFB8" offset=".594"/><stop stop-color="#15BFB8" offset=".602"/><stop stop-color="#15C0B8" offset=".609"/><stop stop-color="#15C1B8" offset=".617"/><stop stop-color="#15C1B8" offset=".625"/><stop stop-color="#15C2B8" offset=".633"/><stop stop-color="#15C2B8" offset=".641"/><stop stop-color="#14C3B8" offset=".648"/><stop stop-color="#14C3B7" offset=".656"/><stop stop-color="#14C4B7" offset=".664"/><stop stop-color="#14C5B7" offset=".672"/><stop stop-color="#14C5B7" offset=".68"/><stop stop-color="#13C6B7" offset=".688"/><stop stop-color="#13C6B7" offset=".695"/><stop stop-color="#13C7B7" offset=".703"/><stop stop-color="#13C8B7" offset=".711"/><stop stop-color="#13C8B7" offset=".719"/><stop stop-color="#13C9B7" offset=".727"/><stop stop-color="#12C9B7" offset=".734"/><stop stop-color="#12CAB7" offset=".742"/><stop stop-color="#12CAB7" offset=".743"/><stop stop-color="#12CBB7" offset=".75"/><stop stop-color="#12CBB7" offset=".758"/><stop stop-color="#12CCB6" offset=".766"/><stop stop-color="#11CCB6" offset=".773"/><stop stop-color="#11CDB6" offset=".781"/><stop stop-color="#11CDB6" offset=".789"/><stop stop-color="#11CEB6" offset=".797"/><stop stop-color="#11CEB6" offset=".805"/><stop stop-color="#11CFB6" offset=".813"/><stop stop-color="#10D0B6" offset=".82"/><stop stop-color="#10D0B6" offset=".828"/><stop stop-color="#10D1B6" offset=".836"/><stop stop-color="#10D1B6" offset=".844"/><stop stop-color="#10D2B6" offset=".852"/><stop stop-color="#0FD2B6" offset=".859"/><stop stop-color="#0FD3B6" offset=".867"/><stop stop-color="#0FD4B5" offset=".875"/><stop stop-color="#0FD4B5" offset=".883"/><stop stop-color="#0FD5B5" offset=".891"/><stop stop-color="#0FD5B5" offset=".898"/><stop stop-color="#0ED6B5" offset=".906"/><stop stop-color="#0ED7B5" offset=".938"/><stop stop-color="#0ED7B5" offset="1"/></linearGradient></defs><g clip-path="url(#a)"><g clip-path="url(#b)"><path fill="url(#c)" d="M18.727 22.547v112.441H206.12V22.547Zm0 0"/></g></g><path d="M64.358 188.265c-.274 0-.406-.133-.406-.407v-24.14c0-.157-.086-.235-.25-.235h-4.594c-.274 0-.406-.14-.406-.422v-2.25c0-.27.132-.406.406-.406h12.984c.282 0 .422.137.422.406v2.25c0 .282-.14.422-.422.422h-4.578c-.168 0-.25.078-.25.235v24.14c0 .274-.137.407-.406.407ZM83.57 188.265c-.274 0-.407-.133-.407-.407v-1.687h-.046c-.274.773-.735 1.375-1.391 1.812-.656.438-1.422.657-2.297.657a5.16 5.16 0 0 1-1.703-.297 3.71 3.71 0 0 1-1.484-.953c-.438-.458-.79-1.063-1.047-1.813-.262-.75-.39-1.672-.39-2.766 0-1.093.148-2.023.452-2.796.301-.782.703-1.41 1.203-1.891a4.616 4.616 0 0 1 1.828-1.047 7.735 7.735 0 0 1 2.297-.328h2.328c.165 0 .25-.082.25-.25v-1.594c0-1.312-.218-2.258-.656-2.844-.437-.582-1.187-.875-2.25-.875-.719 0-1.34.125-1.86.375-.51.243-1 .555-1.468.938-.305.187-.523.133-.656-.172l-.781-1.594c-.137-.25-.106-.468.093-.656.57-.55 1.297-.988 2.172-1.312.875-.333 1.828-.5 2.86-.5 1.968 0 3.39.496 4.265 1.484.875.98 1.313 2.648 1.313 5v13.11c0 .273-.137.406-.407.406Zm-3.282-2.329c.852 0 1.547-.328 2.079-.984.53-.656.796-1.52.796-2.594v-2.703c0-.156-.085-.234-.25-.234H81.07c-1.18 0-2.012.281-2.5.844-.492.554-.735 1.375-.735 2.468 0 1.063.207 1.867.625 2.407.426.53 1.035.796 1.828.796ZM91.02 164.17c-.274 0-.407-.132-.407-.405v-2.954c0-.27.133-.406.407-.406h2.593c.27 0 .407.137.407.406v2.954c0 .273-.137.406-.407.406Zm.125 24.095c-.274 0-.407-.133-.407-.407v-18.812c0-.27.133-.406.407-.406h2.343c.27 0 .407.136.407.406v18.812c0 .274-.137.407-.407.407ZM103.52 188.42c-1.804-.054-3.07-.484-3.796-1.296-.719-.82-1.078-2.176-1.078-4.063v-22.25c0-.27.133-.406.406-.406h2.344c.27 0 .406.137.406.406v22.375c0 .711.129 1.235.39 1.579.258.343.704.57 1.329.671l.203.047c.27.055.406.203.406.453v2.125c0 .27-.137.407-.406.407ZM119.044 188.265c-.274 0-.418-.133-.438-.407l-2.5-12.875h-.093l-2.407 12.875c-.03.274-.183.407-.453.407h-2.015c-.274 0-.422-.133-.453-.407l-4.25-18.812c-.086-.27.007-.406.28-.406h2.454c.219 0 .36.136.422.406l2.578 13.36h.031l2.625-13.36c.063-.27.211-.406.453-.406h1.72c.218 0 .35.136.405.406l2.594 13.36h.031l2.578-13.36c.063-.27.211-.406.454-.406h2.421c.27 0 .364.136.282.406l-4.25 18.812c-.032.274-.184.407-.453.407ZM129.532 164.17c-.274 0-.406-.132-.406-.405v-2.954c0-.27.132-.406.406-.406h2.594c.27 0 .406.137.406.406v2.954c0 .273-.137.406-.406.406Zm.125 24.095c-.274 0-.406-.133-.406-.407v-18.812c0-.27.132-.406.406-.406H132c.27 0 .406.136.406.406v18.812c0 .274-.137.407-.406.407ZM145.923 188.265c-.273 0-.406-.133-.406-.407V174.78c0-2.375-.86-3.562-2.578-3.562-.824 0-1.469.289-1.937.859-.461.574-.688 1.477-.688 2.703v13.078c0 .274-.137.407-.406.407h-2.344c-.273 0-.406-.133-.406-.407v-18.812c0-.27.133-.406.406-.406h2.344c.27 0 .406.136.406.406v1.562h.047a4.046 4.046 0 0 1 1.36-1.656c.613-.457 1.398-.687 2.359-.687 1.531 0 2.676.492 3.437 1.468.77.969 1.156 2.492 1.156 4.563v13.562c0 .274-.136.407-.406.407ZM161.697 188.265c-.274 0-.407-.133-.407-.407v-1.593h-.046a4.31 4.31 0 0 1-1.266 1.671c-.574.47-1.39.704-2.453.704-2.156 0-3.578-1.067-4.266-3.204a10.43 10.43 0 0 1-.234-.875 10.563 10.563 0 0 1-.156-1.218 26.87 26.87 0 0 1-.079-1.938c-.011-.781-.015-1.77-.015-2.969 0-1.207.004-2.195.015-2.968.008-.782.036-1.414.079-1.907.039-.488.093-.89.156-1.203.07-.32.148-.617.234-.89.688-2.133 2.11-3.203 4.266-3.203 1.062 0 1.879.23 2.453.687.57.45.992 1.016 1.266 1.703h.046v-9.844c0-.27.133-.406.407-.406h2.343c.27 0 .407.137.407.406v27.047c0 .274-.137.407-.407.407Zm-3.063-2.579c.594 0 1.086-.148 1.485-.453.394-.3.691-.722.89-1.265.051-.164.098-.348.14-.547.04-.207.067-.492.079-.86.008-.375.02-.89.031-1.546.02-.657.031-1.516.031-2.579 0-1.07-.011-1.925-.03-2.562l-.032-1.516a5.632 5.632 0 0 0-.078-.86 6.56 6.56 0 0 0-.14-.562c-.2-.539-.497-.96-.891-1.265-.399-.301-.891-.453-1.485-.453-1.23 0-2.039.574-2.422 1.718a4.545 4.545 0 0 0-.14.563c-.043.2-.075.484-.094.86a149.951 149.951 0 0 0-.047 4.078 154.064 154.064 0 0 0 .047 4.124c.02.368.05.653.094.86.039.199.086.383.14.547.383 1.148 1.192 1.718 2.422 1.718Zm0 0" fill="#10c6b7"/></svg>